<?xml version="1.0" encoding="utf-8" standalone="no"?>
<!DOCTYPE svg PUBLIC "-//W3C//DTD SVG 1.1//EN"
  "http://www.w3.org/Graphics/SVG/1.1/DTD/svg11.dtd">
<svg xmlns:xlink="http://www.w3.org/1999/xlink" width="572.4pt" height="128.620386pt" viewBox="0 0 572.4 128.620386" xmlns="http://www.w3.org/2000/svg" version="1.1">
 <metadata>
  <rdf:RDF xmlns:dc="http://purl.org/dc/elements/1.1/" xmlns:cc="http://creativecommons.org/ns#" xmlns:rdf="http://www.w3.org/1999/02/22-rdf-syntax-ns#">
   <cc:Work>
    <dc:type rdf:resource="http://purl.org/dc/dcmitype/StillImage"/>
    <dc:date>2025-11-30T11:50:59.079798</dc:date>
    <dc:format>image/svg+xml</dc:format>
    <dc:creator>
     <cc:Agent>
      <dc:title>Matplotlib v3.10.7, https://matplotlib.org/</dc:title>
     </cc:Agent>
    </dc:creator>
   </cc:Work>
  </rdf:RDF>
 </metadata>
 <defs>
  <style type="text/css">*{stroke-linejoin: round; stroke-linecap: butt}</style>
 </defs>
 <g id="figure_1">
  <g id="patch_1">
   <path d="M 0 128.620386 
L 572.4 128.620386 
L 572.4 0 
L 0 0 
L 0 128.620386 
z
" style="fill: none; opacity: 0"/>
  </g>
  <g id="axes_1">
   <g id="text_1">
    <!-- $\tilde{c}(i) : \text{Estimated count for item i} \\  \sum_j : \text{Sum over all users j} \\  \mathbf{1} : \text{Indicator function} \\  B_j[i] : \text{Bit i of user j's report} \\  f : \text{Permanent randomization parameter} \\  n : \text{Number of users}$ -->
    <g transform="translate(125.042849 22.126022) scale(0.2 -0.2)">
     <defs>
      <path id="CMR17-7e" d="M 2400 4184 
C 2182 3980 2061 3865 1862 3865 
C 1722 3865 1626 3932 1491 4024 
C 1363 4111 1261 4184 1120 4184 
C 890 4184 730 4004 461 3718 
L 531 3648 
C 749 3850 870 3968 1069 3968 
C 1210 3968 1306 3900 1440 3808 
C 1568 3722 1670 3648 1811 3648 
C 2042 3648 2202 3828 2470 4114 
L 2400 4184 
z
" transform="scale(0.015625)"/>
      <path id="CMMI12-63" d="M 2502 2431 
C 2381 2431 2323 2431 2234 2355 
C 2195 2323 2125 2227 2125 2125 
C 2125 1997 2221 1920 2342 1920 
C 2496 1920 2669 2044 2669 2292 
C 2669 2588 2374 2816 1933 2816 
C 1094 2816 256 1903 256 996 
C 256 441 602 -64 1254 -64 
C 2125 -64 2675 622 2675 706 
C 2675 744 2637 776 2611 776 
C 2592 776 2586 770 2528 713 
C 2118 162 1510 64 1267 64 
C 826 64 685 446 685 764 
C 685 988 794 1605 1024 2039 
C 1190 2338 1536 2682 1939 2682 
C 2022 2682 2374 2682 2502 2431 
z
" transform="scale(0.015625)"/>
      <path id="CMR17-28" d="M 1958 -1561 
C 1958 -1555 1958 -1542 1939 -1523 
C 1645 -1224 858 -407 858 1581 
C 858 3569 1632 4379 1946 4697 
C 1946 4704 1958 4717 1958 4736 
C 1958 4755 1939 4768 1914 4768 
C 1843 4768 1299 4296 986 3594 
C 666 2887 576 2199 576 1588 
C 576 1128 621 351 1005 -471 
C 1312 -1135 1837 -1600 1914 -1600 
C 1946 -1600 1958 -1587 1958 -1561 
z
" transform="scale(0.015625)"/>
      <path id="CMMI12-69" d="M 1811 913 
C 1811 945 1786 971 1747 971 
C 1690 971 1683 952 1651 843 
C 1485 262 1222 64 1011 64 
C 934 64 845 83 845 275 
C 845 447 922 639 992 830 
L 1440 2018 
C 1459 2069 1504 2184 1504 2305 
C 1504 2574 1312 2816 998 2816 
C 410 2816 173 1890 173 1839 
C 173 1814 198 1782 243 1782 
C 301 1782 307 1807 333 1896 
C 486 2428 730 2682 979 2682 
C 1037 2682 1146 2682 1146 2478 
C 1146 2312 1062 2101 1011 1961 
L 563 773 
C 525 671 486 568 486 453 
C 486 166 685 -64 992 -64 
C 1581 -64 1811 869 1811 913 
z
M 1760 4013 
C 1760 4109 1683 4224 1542 4224 
C 1395 4224 1229 4083 1229 3917 
C 1229 3758 1363 3707 1440 3707 
C 1613 3707 1760 3873 1760 4013 
z
" transform="scale(0.015625)"/>
      <path id="CMR17-29" d="M 1683 1581 
C 1683 2040 1638 2817 1254 3639 
C 947 4303 422 4768 346 4768 
C 326 4768 301 4761 301 4729 
C 301 4717 307 4710 314 4697 
C 621 4378 1402 3568 1402 1584 
C 1402 -407 627 -1217 314 -1537 
C 307 -1549 301 -1556 301 -1568 
C 301 -1600 326 -1600 346 -1600 
C 416 -1600 960 -1128 1274 -426 
C 1594 281 1683 969 1683 1581 
z
" transform="scale(0.015625)"/>
      <path id="CMR17-3a" d="M 1062 2491 
C 1062 2650 934 2752 800 2752 
C 672 2752 538 2650 538 2491 
C 538 2332 666 2230 800 2230 
C 928 2230 1062 2332 1062 2491 
z
M 1062 261 
C 1062 420 934 522 800 522 
C 672 522 538 420 538 261 
C 538 102 666 0 800 0 
C 928 0 1062 102 1062 261 
z
" transform="scale(0.015625)"/>
      <path id="CMR17-45" d="M 3885 1615 
L 3770 1615 
C 3629 676 3546 166 2419 166 
L 1530 166 
C 1274 166 1261 197 1261 414 
L 1261 2176 
L 1862 2176 
C 2464 2176 2522 1960 2522 1430 
L 2637 1430 
L 2637 3081 
L 2522 3081 
C 2522 2557 2464 2342 1862 2342 
L 1261 2342 
L 1261 3913 
C 1261 4128 1274 4160 1530 4160 
L 2406 4160 
C 3398 4160 3514 3769 3603 2929 
L 3718 2929 
L 3565 4325 
L 326 4325 
L 326 4160 
C 768 4160 838 4160 838 3874 
L 838 451 
C 838 166 768 166 326 166 
L 326 0 
L 3654 0 
L 3885 1615 
z
" transform="scale(0.015625)"/>
      <path id="CMR17-73" d="M 1978 2697 
C 1978 2813 1971 2819 1933 2819 
C 1907 2819 1901 2813 1824 2717 
C 1805 2691 1747 2626 1728 2601 
C 1523 2819 1235 2819 1126 2819 
C 416 2819 160 2447 160 2076 
C 160 1498 813 1365 998 1325 
C 1402 1243 1542 1217 1677 1101 
C 1760 1025 1901 884 1901 654 
C 1901 384 1747 38 1158 38 
C 602 38 403 460 288 1021 
C 269 1110 269 1117 218 1117 
C 166 1117 160 1110 160 983 
L 160 63 
C 160 -51 166 -58 205 -58 
C 237 -58 243 -51 275 0 
C 314 57 410 211 448 276 
C 576 103 800 -64 1158 -64 
C 1792 -64 2131 283 2131 784 
C 2131 1112 1958 1285 1875 1362 
C 1683 1561 1459 1606 1190 1657 
C 838 1735 390 1825 390 2217 
C 390 2383 480 2737 1126 2737 
C 1811 2737 1850 2094 1862 1888 
C 1869 1856 1901 1849 1920 1849 
C 1978 1849 1978 1869 1978 1978 
L 1978 2697 
z
" transform="scale(0.015625)"/>
      <path id="CMR17-74" d="M 966 2560 
L 1862 2560 
L 1862 2725 
L 966 2725 
L 966 3904 
L 851 3904 
C 838 3245 614 2668 70 2668 
L 70 2560 
L 627 2560 
L 627 771 
C 627 650 627 -64 1370 -64 
C 1747 -64 1965 306 1965 777 
L 1965 1140 
L 1850 1140 
L 1850 783 
C 1850 344 1677 51 1408 51 
C 1222 51 966 178 966 758 
L 966 2560 
z
" transform="scale(0.015625)"/>
      <path id="CMR17-69" d="M 992 3909 
C 992 4049 877 4170 730 4170 
C 589 4170 467 4056 467 3909 
C 467 3769 582 3648 730 3648 
C 870 3648 992 3763 992 3909 
z
M 243 2706 
L 243 2541 
C 602 2541 653 2502 653 2197 
L 653 427 
C 653 184 627 153 218 153 
L 218 -13 
C 371 0 646 0 806 0 
C 960 0 1222 0 1370 -13 
L 1370 153 
C 992 153 979 191 979 420 
L 979 2776 
L 243 2706 
z
" transform="scale(0.015625)"/>
      <path id="CMR17-6d" d="M 4326 1933 
C 4326 2252 4269 2790 3507 2790 
C 3072 2790 2771 2496 2656 2151 
L 2650 2151 
C 2573 2676 2195 2790 1837 2790 
C 1331 2790 1069 2400 973 2144 
L 966 2144 
L 966 2790 
L 211 2720 
L 211 2554 
C 589 2554 646 2515 646 2208 
L 646 428 
C 646 184 621 153 211 153 
L 211 -13 
C 365 0 646 0 813 0 
C 979 0 1267 0 1421 -13 
L 1421 153 
C 1011 153 986 178 986 428 
L 986 1658 
C 986 2247 1344 2688 1792 2688 
C 2266 2688 2317 2266 2317 1958 
L 2317 428 
C 2317 184 2291 153 1882 153 
L 1882 -13 
C 2035 0 2317 0 2483 0 
C 2650 0 2938 0 3091 -13 
L 3091 153 
C 2682 153 2656 178 2656 428 
L 2656 1658 
C 2656 2247 3014 2688 3462 2688 
C 3936 2688 3987 2266 3987 1958 
L 3987 428 
C 3987 184 3962 153 3552 153 
L 3552 -13 
C 3706 0 3987 0 4154 0 
C 4320 0 4608 0 4762 -13 
L 4762 153 
C 4352 153 4326 178 4326 428 
L 4326 1933 
z
" transform="scale(0.015625)"/>
      <path id="CMR17-61" d="M 2304 1653 
C 2304 2072 2304 2294 2035 2543 
C 1798 2752 1523 2816 1306 2816 
C 800 2816 435 2407 435 1971 
C 435 1728 627 1728 666 1728 
C 749 1728 896 1778 896 1954 
C 896 2112 774 2181 666 2181 
C 640 2181 608 2174 589 2168 
C 723 2592 1069 2714 1293 2714 
C 1613 2714 1965 2429 1965 1885 
L 1965 1600 
C 1587 1600 1133 1549 774 1357 
C 371 1133 256 813 256 570 
C 256 77 832 -64 1171 -64 
C 1523 -64 1850 139 1990 511 
C 2003 233 2182 -18 2464 -18 
C 2598 -18 2938 70 2938 567 
L 2938 920 
L 2822 920 
L 2822 562 
C 2822 178 2650 128 2566 128 
C 2304 128 2304 458 2304 738 
L 2304 1653 
z
M 1965 870 
C 1965 317 1568 38 1216 38 
C 896 38 646 275 646 570 
C 646 761 730 1100 1101 1305 
C 1408 1478 1760 1504 1965 1504 
L 1965 870 
z
" transform="scale(0.015625)"/>
      <path id="CMR17-65" d="M 2438 1472 
C 2464 1498 2464 1511 2464 1576 
C 2464 2238 2118 2816 1389 2816 
C 710 2816 173 2169 173 1383 
C 173 551 781 -64 1459 -64 
C 2176 -64 2458 607 2458 740 
C 2458 784 2419 784 2406 784 
C 2362 784 2355 771 2330 696 
C 2189 265 1837 51 1504 51 
C 1229 51 954 203 781 480 
C 582 803 582 1176 582 1472 
L 2438 1472 
z
M 589 1568 
C 634 2505 1126 2714 1382 2714 
C 1818 2714 2112 2297 2118 1568 
L 589 1568 
z
" transform="scale(0.015625)"/>
      <path id="CMR17-64" d="M 1869 4326 
L 1869 4160 
C 2246 4160 2304 4122 2304 3820 
L 2304 2345 
C 2278 2377 2016 2790 1498 2790 
C 845 2790 211 2208 211 1364 
C 211 525 806 -64 1434 -64 
C 1978 -64 2259 337 2291 380 
L 2291 -63 
L 3066 -63 
L 3066 128 
C 2688 128 2630 166 2630 473 
L 2630 4396 
L 1869 4326 
z
M 2291 755 
C 2291 563 2176 390 2029 262 
C 1811 70 1594 38 1472 38 
C 1286 38 621 134 621 1356 
C 621 2612 1363 2688 1530 2688 
C 1824 2688 2061 2522 2208 2291 
C 2291 2157 2291 2138 2291 2023 
L 2291 755 
z
" transform="scale(0.015625)"/>
      <path id="CMR17-63" d="M 2234 2240 
C 2112 2240 1933 2240 1933 2017 
C 1933 1838 2080 1787 2163 1787 
C 2208 1787 2394 1807 2394 2024 
C 2394 2467 1958 2803 1466 2803 
C 787 2803 211 2178 211 1363 
C 211 516 813 -64 1466 -64 
C 2259 -64 2458 677 2458 748 
C 2458 774 2451 793 2406 793 
C 2362 793 2355 787 2330 703 
C 2163 180 1798 51 1523 51 
C 1114 51 621 427 621 1369 
C 621 2338 1094 2688 1472 2688 
C 1722 2688 2093 2573 2234 2240 
z
" transform="scale(0.015625)"/>
      <path id="CMR17-6f" d="M 2758 1356 
C 2758 2176 2163 2816 1466 2816 
C 768 2816 173 2176 173 1356 
C 173 551 768 -64 1466 -64 
C 2163 -64 2758 551 2758 1356 
z
M 1466 51 
C 1165 51 909 230 762 480 
C 602 767 582 1126 582 1408 
C 582 1677 595 2010 762 2298 
C 890 2509 1139 2714 1466 2714 
C 1754 2714 1997 2554 2150 2330 
C 2349 2029 2349 1607 2349 1408 
C 2349 1158 2336 775 2163 467 
C 1984 173 1709 51 1466 51 
z
" transform="scale(0.015625)"/>
      <path id="CMR17-75" d="M 1882 2693 
L 1882 2528 
C 2259 2528 2317 2489 2317 2186 
L 2317 1032 
C 2317 500 2029 38 1555 38 
C 1030 38 986 348 986 678 
L 986 2763 
L 211 2693 
L 211 2528 
C 467 2528 640 2528 646 2274 
L 646 1058 
C 646 633 646 361 813 183 
C 896 101 1056 -64 1517 -64 
C 2061 -64 2272 377 2323 506 
L 2330 506 
L 2330 -63 
L 3091 -63 
L 3091 128 
C 2714 128 2656 166 2656 473 
L 2656 2763 
L 1882 2693 
z
" transform="scale(0.015625)"/>
      <path id="CMR17-6e" d="M 2656 1933 
C 2656 2259 2592 2790 1837 2790 
C 1331 2790 1069 2400 973 2144 
L 966 2144 
L 966 2790 
L 211 2720 
L 211 2554 
C 589 2554 646 2515 646 2208 
L 646 428 
C 646 184 621 153 211 153 
L 211 -13 
C 365 0 646 0 813 0 
C 979 0 1267 0 1421 -13 
L 1421 153 
C 1011 153 986 178 986 428 
L 986 1658 
C 986 2247 1344 2688 1792 2688 
C 2266 2688 2317 2266 2317 1958 
L 2317 428 
C 2317 184 2291 153 1882 153 
L 1882 -13 
C 2035 0 2317 0 2483 0 
C 2650 0 2938 0 3091 -13 
L 3091 153 
C 2682 153 2656 178 2656 428 
L 2656 1933 
z
" transform="scale(0.015625)"/>
      <path id="CMR17-66" d="M 979 2560 
L 1709 2560 
L 1709 2725 
L 966 2725 
L 966 3494 
C 966 4022 1235 4352 1510 4352 
C 1594 4352 1690 4327 1754 4282 
C 1702 4269 1568 4225 1568 4067 
C 1568 3901 1696 3850 1786 3850 
C 1875 3850 2003 3901 2003 4067 
C 2003 4308 1773 4454 1517 4454 
C 1152 4454 653 4156 653 3481 
L 653 2725 
L 141 2725 
L 141 2560 
L 653 2560 
L 653 427 
C 653 184 627 153 218 153 
L 218 -13 
C 371 0 666 0 832 0 
C 1018 0 1344 0 1517 -13 
L 1517 153 
C 1056 153 979 153 979 439 
L 979 2560 
z
" transform="scale(0.015625)"/>
      <path id="CMR17-72" d="M 960 1497 
C 960 2112 1222 2688 1702 2688 
C 1747 2688 1792 2682 1837 2662 
C 1837 2662 1696 2617 1696 2452 
C 1696 2298 1818 2234 1914 2234 
C 1990 2234 2131 2279 2131 2458 
C 2131 2663 1926 2790 1709 2790 
C 1222 2790 1011 2317 947 2093 
L 941 2093 
L 941 2790 
L 198 2720 
L 198 2554 
C 576 2554 634 2515 634 2208 
L 634 428 
C 634 184 608 153 198 153 
L 198 -13 
C 352 0 646 0 813 0 
C 998 0 1325 0 1498 -13 
L 1498 153 
C 1037 153 960 153 960 440 
L 960 1497 
z
" transform="scale(0.015625)"/>
      <path id="CMEX10-50" d="M 2694 -3418 
L 422 -6227 
C 371 -6291 365 -6304 365 -6330 
C 365 -6400 422 -6400 538 -6400 
L 5843 -6400 
L 6394 -4806 
L 6234 -4806 
C 6074 -5286 5645 -5677 5101 -5862 
C 4998 -5894 4557 -6048 3616 -6048 
L 896 -6048 
L 3117 -3302 
C 3162 -3245 3174 -3226 3174 -3200 
C 3174 -3174 3168 -3168 3130 -3110 
L 1050 -256 
L 3584 -256 
C 4314 -256 5786 -301 6234 -1498 
L 6394 -1498 
L 5843 0 
L 538 0 
C 365 0 358 -6 358 -205 
L 2694 -3418 
z
" transform="scale(0.015625)"/>
      <path id="CMMI12-6a" d="M 2240 2028 
C 2266 2131 2266 2219 2266 2245 
C 2266 2613 1990 2816 1702 2816 
C 1056 2816 710 1889 710 1845 
C 710 1813 736 1788 774 1788 
C 826 1788 832 1813 864 1876 
C 1120 2492 1440 2689 1683 2689 
C 1818 2689 1888 2618 1888 2397 
C 1888 2245 1869 2181 1843 2067 
L 1235 -327 
C 1114 -796 813 -1152 461 -1152 
C 435 -1152 301 -1152 179 -1088 
C 333 -1056 454 -936 454 -784 
C 454 -682 378 -580 237 -580 
C 70 -580 -83 -720 -83 -911 
C -83 -1171 198 -1280 461 -1280 
C 902 -1280 1485 -956 1645 -320 
L 2240 2028 
z
M 2502 4013 
C 2502 4173 2368 4224 2291 4224 
C 2118 4224 1971 4058 1971 3917 
C 1971 3822 2048 3707 2189 3707 
C 2336 3707 2502 3847 2502 4013 
z
" transform="scale(0.015625)"/>
      <path id="CMR17-53" d="M 2803 4290 
C 2803 4404 2797 4411 2758 4411 
C 2720 4411 2707 4385 2682 4328 
L 2490 3907 
C 2246 4257 1875 4416 1472 4416 
C 819 4416 294 3901 294 3253 
C 294 3056 339 2776 557 2510 
C 794 2218 1018 2167 1530 2033 
C 1722 1982 2042 1899 2106 1874 
C 2470 1722 2662 1341 2662 985 
C 2662 527 2336 38 1779 38 
C 1094 38 454 419 410 1311 
C 403 1413 397 1419 352 1419 
C 301 1419 294 1413 294 1285 
L 294 -1 
C 294 -115 301 -122 339 -122 
C 384 -122 397 -90 486 108 
C 493 127 493 140 614 381 
C 934 -39 1472 -128 1779 -128 
C 2477 -128 2970 451 2970 1124 
C 2970 1454 2848 1708 2778 1823 
C 2509 2230 2221 2306 1914 2382 
C 1869 2402 1856 2402 1498 2490 
C 1152 2579 1005 2624 845 2796 
C 666 2992 602 3196 602 3399 
C 602 3812 934 4263 1478 4263 
C 2157 4263 2579 3786 2675 2993 
C 2694 2878 2701 2872 2746 2872 
C 2803 2872 2803 2891 2803 2999 
L 2803 4290 
z
" transform="scale(0.015625)"/>
      <path id="CMR17-76" d="M 2502 2163 
C 2560 2304 2662 2560 3034 2560 
L 3034 2726 
C 2912 2726 2752 2726 2630 2726 
C 2496 2726 2285 2726 2157 2732 
L 2157 2566 
C 2317 2553 2406 2477 2406 2311 
C 2406 2253 2406 2240 2368 2151 
L 1664 377 
L 902 2286 
C 864 2369 864 2381 864 2407 
C 864 2560 1075 2560 1171 2560 
L 1171 2732 
C 1018 2726 736 2726 576 2726 
C 403 2726 205 2726 64 2732 
L 64 2560 
C 307 2560 442 2560 518 2362 
L 1446 44 
C 1485 -51 1491 -64 1549 -64 
C 1606 -64 1613 -51 1651 44 
L 2502 2163 
z
" transform="scale(0.015625)"/>
      <path id="CMR17-6c" d="M 979 4396 
L 218 4326 
L 218 4160 
C 595 4160 653 4122 653 3817 
L 653 426 
C 653 184 627 153 218 153 
L 218 -13 
C 371 0 653 0 813 0 
C 979 0 1261 0 1414 -13 
L 1414 153 
C 1005 153 979 178 979 426 
L 979 4396 
z
" transform="scale(0.015625)"/>
      <path id="CMR17-6a" d="M 1165 3963 
C 1165 4103 1050 4224 902 4224 
C 762 4224 640 4110 640 3963 
C 640 3823 755 3702 902 3702 
C 1043 3702 1165 3817 1165 3963 
z
M 365 2754 
L 365 2588 
C 787 2588 838 2543 838 2235 
L 838 -359 
C 838 -678 781 -1178 403 -1178 
C 358 -1178 186 -1178 45 -1082 
C 90 -1075 250 -1031 250 -851 
C 250 -729 166 -621 19 -621 
C -122 -621 -211 -717 -211 -858 
C -211 -1114 70 -1280 397 -1280 
C 838 -1280 1165 -877 1165 -332 
L 1165 2825 
L 365 2754 
z
" transform="scale(0.015625)"/>
      <path id="CMBX12-31" d="M 2214 3975 
C 2214 4160 2202 4160 1997 4160 
C 1523 3776 813 3776 672 3776 
L 550 3776 
L 550 3503 
L 672 3503 
C 896 3503 1235 3541 1491 3624 
L 1491 267 
L 602 267 
L 602 0 
C 870 0 1542 0 1843 0 
C 2144 0 2822 0 3091 0 
L 3091 267 
L 2214 267 
L 2214 3975 
z
" transform="scale(0.015625)"/>
      <path id="CMR17-49" d="M 1261 3905 
C 1261 4192 1338 4192 1798 4192 
L 1798 4352 
C 1594 4352 1267 4352 1050 4352 
C 832 4352 506 4352 301 4352 
L 301 4192 
C 762 4192 838 4192 838 3905 
L 838 447 
C 838 160 762 160 301 160 
L 301 0 
C 506 0 832 0 1050 0 
C 1267 0 1594 0 1798 0 
L 1798 160 
C 1338 160 1261 160 1261 447 
L 1261 3905 
z
" transform="scale(0.015625)"/>
      <path id="CMMI12-42" d="M 2342 3921 
C 2400 4160 2426 4160 2675 4160 
L 3507 4160 
C 4230 4160 4230 3544 4230 3485 
C 4230 2966 3712 2304 2867 2304 
L 1946 2304 
L 2342 3921 
z
M 3424 2275 
C 4122 2402 4755 2886 4755 3473 
C 4755 3970 4314 4352 3590 4352 
L 1536 4352 
C 1414 4352 1357 4352 1357 4226 
C 1357 4160 1414 4160 1510 4160 
C 1901 4160 1901 4112 1901 4044 
C 1901 4032 1901 3993 1875 3897 
L 1011 472 
C 954 249 941 185 493 185 
C 371 185 307 185 307 70 
C 307 0 346 0 474 0 
L 2669 0 
C 3648 0 4403 739 4403 1383 
C 4403 1906 3942 2224 3424 2275 
z
M 2515 185 
L 1651 185 
C 1562 185 1549 185 1510 192 
C 1440 198 1434 211 1434 261 
C 1434 305 1446 343 1459 399 
L 1907 2176 
L 3110 2176 
C 3866 2176 3866 1483 3866 1433 
C 3866 828 3309 185 2515 185 
z
" transform="scale(0.015625)"/>
      <path id="CMR17-5b" d="M 1504 -1600 
L 1504 -1377 
L 902 -1377 
L 902 4544 
L 1504 4544 
L 1504 4767 
L 678 4767 
L 678 -1600 
L 1504 -1600 
z
" transform="scale(0.015625)"/>
      <path id="CMR17-5d" d="M 915 4767 
L 90 4767 
L 90 4544 
L 691 4544 
L 691 -1377 
L 90 -1377 
L 90 -1600 
L 915 -1600 
L 915 4767 
z
" transform="scale(0.015625)"/>
      <path id="CMR17-42" d="M 333 4352 
L 333 4186 
C 774 4186 845 4186 845 3900 
L 845 452 
C 845 166 774 166 333 166 
L 333 0 
L 2534 0 
C 3354 0 3885 583 3885 1164 
C 3885 1741 3360 2233 2675 2233 
C 3290 2356 3718 2771 3718 3264 
C 3718 3802 3194 4352 2368 4352 
L 333 4352 
z
M 1248 2304 
L 1248 3937 
C 1248 4155 1261 4186 1517 4186 
L 2336 4186 
C 2970 4186 3251 3674 3251 3277 
C 3251 2791 2861 2304 2170 2304 
L 1248 2304 
z
M 1517 166 
C 1261 166 1248 197 1248 413 
L 1248 2202 
L 2432 2202 
C 3091 2202 3411 1625 3411 1162 
C 3411 699 3046 166 2349 166 
L 1517 166 
z
" transform="scale(0.015625)"/>
      <path id="CMR17-27" d="M 1024 4025 
C 1037 3955 1043 3929 1043 3820 
C 1043 3415 883 3042 634 2778 
C 608 2752 595 2733 595 2707 
C 595 2681 621 2656 646 2656 
C 691 2656 1146 3105 1146 3811 
C 1146 3952 1133 4426 800 4426 
C 659 4426 538 4331 538 4165 
C 538 3999 659 3904 800 3904 
C 858 3904 966 3923 1024 4025 
z
" transform="scale(0.015625)"/>
      <path id="CMR17-70" d="M 1408 -1063 
C 998 -1063 973 -1037 973 -789 
L 973 402 
C 1158 134 1427 -38 1766 -38 
C 2406 -38 3053 523 3053 1388 
C 3053 2191 2496 2802 1837 2802 
C 1453 2802 1139 2592 960 2338 
L 960 2802 
L 198 2732 
L 198 2567 
C 576 2567 634 2528 634 2223 
L 634 -789 
C 634 -1031 608 -1063 198 -1063 
L 198 -1228 
C 352 -1216 634 -1216 800 -1216 
C 966 -1216 1254 -1216 1408 -1228 
L 1408 -1063 
z
M 973 2012 
C 973 2102 973 2235 1222 2471 
C 1254 2497 1472 2688 1792 2688 
C 2259 2688 2643 2108 2643 1382 
C 2643 656 2234 64 1728 64 
C 1498 64 1248 172 1056 472 
C 973 612 973 650 973 752 
L 973 2012 
z
" transform="scale(0.015625)"/>
      <path id="CMMI12-66" d="M 2854 2566 
C 2982 2566 3034 2566 3034 2688 
C 3034 2752 2982 2752 2867 2752 
L 2349 2752 
C 2470 3429 2560 3897 2611 4107 
C 2650 4265 2784 4416 2950 4416 
C 3085 4416 3219 4358 3283 4298 
C 3034 4272 2957 4082 2957 3969 
C 2957 3837 3053 3759 3174 3759 
C 3302 3759 3494 3870 3494 4119 
C 3494 4393 3226 4544 2944 4544 
C 2669 4544 2400 4334 2272 4078 
C 2157 3848 2093 3611 1946 2752 
L 1517 2752 
C 1395 2752 1331 2752 1331 2637 
C 1331 2566 1370 2566 1498 2566 
L 1907 2566 
C 1792 1976 1530 542 1382 -137 
C 1274 -689 1178 -1152 858 -1152 
C 838 -1152 653 -1152 538 -1031 
C 864 -1005 864 -726 864 -720 
C 864 -593 768 -517 646 -517 
C 518 -517 326 -625 326 -867 
C 326 -1140 608 -1280 858 -1280 
C 1510 -1280 1779 -118 1850 199 
C 1965 688 2278 2376 2310 2566 
L 2854 2566 
z
" transform="scale(0.015625)"/>
      <path id="CMR17-50" d="M 1267 2042 
L 2291 2042 
C 3117 2042 3718 2578 3718 3184 
C 3718 3791 3130 4352 2291 4352 
L 333 4352 
L 333 4186 
C 774 4186 845 4186 845 3899 
L 845 446 
C 845 160 774 160 333 160 
L 333 0 
C 518 0 858 0 1056 0 
C 1254 0 1594 0 1779 0 
L 1779 160 
C 1338 160 1267 160 1267 446 
L 1267 2042 
z
M 1254 2176 
L 1254 3938 
C 1254 4155 1267 4186 1523 4186 
L 2170 4186 
C 2995 4186 3232 3714 3232 3184 
C 3232 2604 2950 2176 2170 2176 
L 1254 2176 
z
" transform="scale(0.015625)"/>
      <path id="CMR17-7a" d="M 2310 2605 
C 2362 2670 2362 2682 2362 2695 
C 2362 2752 2336 2752 2221 2752 
L 275 2752 
L 211 1760 
L 326 1760 
C 371 2381 442 2650 1178 2650 
L 1958 2650 
L 128 96 
C 128 0 134 0 269 0 
L 2291 0 
L 2381 1152 
L 2266 1152 
C 2214 442 2131 115 1350 115 
L 531 115 
L 2310 2605 
z
" transform="scale(0.015625)"/>
      <path id="CMMI12-6e" d="M 1318 1871 
C 1331 1910 1491 2229 1728 2433 
C 1894 2586 2112 2689 2362 2689 
C 2618 2689 2707 2497 2707 2242 
C 2707 1878 2445 1150 2317 805 
C 2259 651 2227 568 2227 453 
C 2227 166 2426 -64 2733 -64 
C 3328 -64 3552 875 3552 913 
C 3552 945 3526 971 3488 971 
C 3430 971 3424 952 3392 843 
C 3245 319 3002 64 2752 64 
C 2688 64 2586 64 2586 269 
C 2586 429 2656 621 2694 710 
C 2822 1063 3091 1780 3091 2145 
C 3091 2528 2867 2816 2381 2816 
C 1811 2816 1510 2415 1395 2255 
C 1376 2618 1114 2816 832 2816 
C 627 2816 486 2695 378 2478 
C 262 2248 173 1865 173 1839 
C 173 1814 198 1782 243 1782 
C 294 1782 301 1788 339 1935 
C 442 2325 557 2689 813 2689 
C 960 2689 1011 2586 1011 2395 
C 1011 2254 947 2005 902 1807 
L 723 1118 
C 698 996 627 709 595 594 
C 550 428 480 128 480 96 
C 480 6 550 -64 646 -64 
C 723 -64 813 -26 864 70 
C 877 102 934 326 966 453 
L 1107 1028 
L 1318 1871 
z
" transform="scale(0.015625)"/>
      <path id="CMR17-4e" d="M 1312 4250 
C 1267 4320 1261 4320 1139 4320 
L 326 4320 
L 326 4160 
L 448 4160 
C 704 4160 819 4129 838 4122 
L 838 610 
C 838 451 838 153 326 153 
L 326 -13 
C 474 0 742 0 902 0 
C 1062 0 1331 0 1478 -13 
L 1478 153 
C 966 153 966 451 966 610 
L 966 4033 
C 1011 3995 1011 3982 1056 3919 
L 3430 76 
C 3475 0 3494 0 3526 0 
C 3590 0 3590 19 3590 139 
L 3590 3705 
C 3590 3863 3590 4160 4102 4160 
L 4102 4326 
C 3955 4320 3686 4320 3526 4320 
C 3366 4320 3098 4320 2950 4326 
L 2950 4160 
C 3462 4160 3462 3862 3462 3703 
L 3462 763 
L 1312 4250 
z
" transform="scale(0.015625)"/>
      <path id="CMR17-62" d="M 960 4396 
L 198 4326 
L 198 4160 
C 576 4160 634 4122 634 3817 
L 634 -13 
L 749 -13 
L 934 441 
C 1120 141 1395 -64 1766 -64 
C 2406 -64 3053 500 3053 1370 
C 3053 2188 2477 2790 1830 2790 
C 1434 2790 1152 2579 960 2330 
L 960 4396 
z
M 973 2004 
C 973 2118 973 2138 1062 2272 
C 1312 2657 1670 2688 1792 2688 
C 1984 2688 2643 2585 2643 1376 
C 2643 108 1888 38 1734 38 
C 1536 38 1248 114 1043 486 
C 973 608 973 621 973 735 
L 973 2004 
z
" transform="scale(0.015625)"/>
     </defs>
     <use xlink:href="#CMR17-7e" transform="translate(18.509781 0.006461) scale(0.996264)"/>
     <use xlink:href="#CMMI12-63" transform="translate(14.94396 0) scale(0.996264)"/>
     <use xlink:href="#CMR17-28" transform="translate(56.927194 0) scale(0.996264)"/>
     <use xlink:href="#CMMI12-69" transform="translate(92.207962 0) scale(0.996264)"/>
     <use xlink:href="#CMR17-29" transform="translate(125.486563 0) scale(0.996264)"/>
     <use xlink:href="#CMR17-3a" transform="translate(188.44134 0) scale(0.996264)"/>
     <use xlink:href="#CMR17-45" transform="translate(240.986407 0) scale(0.996264)"/>
     <use xlink:href="#CMR17-73" transform="translate(303.572708 0) scale(0.996264)"/>
     <use xlink:href="#CMR17-74" transform="translate(339.374045 0) scale(0.996264)"/>
     <use xlink:href="#CMR17-69" transform="translate(374.654813 0) scale(0.996264)"/>
     <use xlink:href="#CMR17-6d" transform="translate(399.525872 0) scale(0.996264)"/>
     <use xlink:href="#CMR17-61" transform="translate(476.445461 0) scale(0.996264)"/>
     <use xlink:href="#CMR17-74" transform="translate(522.135939 0) scale(0.996264)"/>
     <use xlink:href="#CMR17-65" transform="translate(557.416706 0) scale(0.996264)"/>
     <use xlink:href="#CMR17-64" transform="translate(597.902367 0) scale(0.996264)"/>
     <use xlink:href="#CMR17-63" transform="translate(678.873703 0) scale(0.996264)"/>
     <use xlink:href="#CMR17-6f" transform="translate(719.359363 0) scale(0.996264)"/>
     <use xlink:href="#CMR17-75" transform="translate(765.049841 0) scale(0.996264)"/>
     <use xlink:href="#CMR17-6e" transform="translate(815.94521 0) scale(0.996264)"/>
     <use xlink:href="#CMR17-74" transform="translate(864.238126 0) scale(0.996264)"/>
     <use xlink:href="#CMR17-66" transform="translate(929.59486 0) scale(0.996264)"/>
     <use xlink:href="#CMR17-6f" transform="translate(957.068373 0) scale(0.996264)"/>
     <use xlink:href="#CMR17-72" transform="translate(1002.75885 0) scale(0.996264)"/>
     <use xlink:href="#CMR17-69" transform="translate(1068.115584 0) scale(0.996264)"/>
     <use xlink:href="#CMR17-74" transform="translate(1092.986642 0) scale(0.996264)"/>
     <use xlink:href="#CMR17-65" transform="translate(1128.26741 0) scale(0.996264)"/>
     <use xlink:href="#CMR17-6d" transform="translate(1168.753071 0) scale(0.996264)"/>
     <use xlink:href="#CMR17-69" transform="translate(1275.748627 0) scale(0.996264)"/>
     <use xlink:href="#CMEX10-50" transform="translate(0 -25.819528) scale(0.996264)"/>
     <use xlink:href="#CMMI12-6a" transform="translate(105.161552 -128.93416) scale(0.697382)"/>
     <use xlink:href="#CMR17-3a" transform="translate(165.507277 -100.539983) scale(0.996264)"/>
     <use xlink:href="#CMR17-53" transform="translate(218.052345 -100.539983) scale(0.996264)"/>
     <use xlink:href="#CMR17-75" transform="translate(268.947714 -100.539983) scale(0.996264)"/>
     <use xlink:href="#CMR17-6d" transform="translate(319.843084 -100.539983) scale(0.996264)"/>
     <use xlink:href="#CMR17-6f" transform="translate(426.83864 -100.539983) scale(0.996264)"/>
     <use xlink:href="#CMR17-76" transform="translate(469.926664 -100.539983) scale(0.996264)"/>
     <use xlink:href="#CMR17-65" transform="translate(515.617125 -100.539983) scale(0.996264)"/>
     <use xlink:href="#CMR17-72" transform="translate(556.102786 -100.539983) scale(0.996264)"/>
     <use xlink:href="#CMR17-61" transform="translate(621.45952 -100.539983) scale(0.996264)"/>
     <use xlink:href="#CMR17-6c" transform="translate(667.149997 -100.539983) scale(0.996264)"/>
     <use xlink:href="#CMR17-6c" transform="translate(692.021056 -100.539983) scale(0.996264)"/>
     <use xlink:href="#CMR17-75" transform="translate(746.968081 -100.539983) scale(0.996264)"/>
     <use xlink:href="#CMR17-73" transform="translate(797.86345 -100.539983) scale(0.996264)"/>
     <use xlink:href="#CMR17-65" transform="translate(833.664788 -100.539983) scale(0.996264)"/>
     <use xlink:href="#CMR17-72" transform="translate(874.150448 -100.539983) scale(0.996264)"/>
     <use xlink:href="#CMR17-73" transform="translate(909.431216 -100.539983) scale(0.996264)"/>
     <use xlink:href="#CMR17-6a" transform="translate(975.30852 -100.539983) scale(0.996264)"/>
     <use xlink:href="#CMBX12-31" transform="translate(0 -212.675581) scale(0.996264)"/>
     <use xlink:href="#CMR17-3a" transform="translate(83.713859 -212.675581) scale(0.996264)"/>
     <use xlink:href="#CMR17-49" transform="translate(136.258926 -212.675581) scale(0.996264)"/>
     <use xlink:href="#CMR17-6e" transform="translate(168.897336 -212.675581) scale(0.996264)"/>
     <use xlink:href="#CMR17-64" transform="translate(219.792705 -212.675581) scale(0.996264)"/>
     <use xlink:href="#CMR17-69" transform="translate(270.688075 -212.675581) scale(0.996264)"/>
     <use xlink:href="#CMR17-63" transform="translate(295.559134 -212.675581) scale(0.996264)"/>
     <use xlink:href="#CMR17-61" transform="translate(336.044794 -212.675581) scale(0.996264)"/>
     <use xlink:href="#CMR17-74" transform="translate(381.735271 -212.675581) scale(0.996264)"/>
     <use xlink:href="#CMR17-6f" transform="translate(417.016039 -212.675581) scale(0.996264)"/>
     <use xlink:href="#CMR17-72" transform="translate(462.706516 -212.675581) scale(0.996264)"/>
     <use xlink:href="#CMR17-66" transform="translate(528.06325 -212.675581) scale(0.996264)"/>
     <use xlink:href="#CMR17-75" transform="translate(555.536763 -212.675581) scale(0.996264)"/>
     <use xlink:href="#CMR17-6e" transform="translate(606.432133 -212.675581) scale(0.996264)"/>
     <use xlink:href="#CMR17-63" transform="translate(657.327502 -212.675581) scale(0.996264)"/>
     <use xlink:href="#CMR17-74" transform="translate(697.813163 -212.675581) scale(0.996264)"/>
     <use xlink:href="#CMR17-69" transform="translate(733.093931 -212.675581) scale(0.996264)"/>
     <use xlink:href="#CMR17-6f" transform="translate(757.964989 -212.675581) scale(0.996264)"/>
     <use xlink:href="#CMR17-6e" transform="translate(803.655466 -212.675581) scale(0.996264)"/>
     <use xlink:href="#CMMI12-42" transform="translate(0 -288.301955) scale(0.996264)"/>
     <use xlink:href="#CMMI12-6a" transform="translate(74.10802 -303.245869) scale(0.697382)"/>
     <use xlink:href="#CMR17-5b" transform="translate(106.779737 -288.301955) scale(0.996264)"/>
     <use xlink:href="#CMMI12-69" transform="translate(131.650795 -288.301955) scale(0.996264)"/>
     <use xlink:href="#CMR17-5d" transform="translate(164.929397 -288.301955) scale(0.996264)"/>
     <use xlink:href="#CMR17-3a" transform="translate(217.474464 -288.301955) scale(0.996264)"/>
     <use xlink:href="#CMR17-42" transform="translate(270.019531 -288.301955) scale(0.996264)"/>
     <use xlink:href="#CMR17-69" transform="translate(335.208286 -288.301955) scale(0.996264)"/>
     <use xlink:href="#CMR17-74" transform="translate(360.079344 -288.301955) scale(0.996264)"/>
     <use xlink:href="#CMR17-69" transform="translate(425.436078 -288.301955) scale(0.996264)"/>
     <use xlink:href="#CMR17-6f" transform="translate(480.383103 -288.301955) scale(0.996264)"/>
     <use xlink:href="#CMR17-66" transform="translate(526.07358 -288.301955) scale(0.996264)"/>
     <use xlink:href="#CMR17-75" transform="translate(583.623059 -288.301955) scale(0.996264)"/>
     <use xlink:href="#CMR17-73" transform="translate(634.518429 -288.301955) scale(0.996264)"/>
     <use xlink:href="#CMR17-65" transform="translate(670.319766 -288.301955) scale(0.996264)"/>
     <use xlink:href="#CMR17-72" transform="translate(710.805427 -288.301955) scale(0.996264)"/>
     <use xlink:href="#CMR17-6a" transform="translate(776.162161 -288.301955) scale(0.996264)"/>
     <use xlink:href="#CMR17-27" transform="translate(803.635673 -288.301955) scale(0.996264)"/>
     <use xlink:href="#CMR17-73" transform="translate(828.506732 -288.301955) scale(0.996264)"/>
     <use xlink:href="#CMR17-72" transform="translate(894.384036 -288.301955) scale(0.996264)"/>
     <use xlink:href="#CMR17-65" transform="translate(929.664804 -288.301955) scale(0.996264)"/>
     <use xlink:href="#CMR17-70" transform="translate(970.150464 -288.301955) scale(0.996264)"/>
     <use xlink:href="#CMR17-6f" transform="translate(1023.648273 -288.301955) scale(0.996264)"/>
     <use xlink:href="#CMR17-72" transform="translate(1069.33875 -288.301955) scale(0.996264)"/>
     <use xlink:href="#CMR17-74" transform="translate(1104.619518 -288.301955) scale(0.996264)"/>
     <use xlink:href="#CMMI12-66" transform="translate(0 -386.987289) scale(0.996264)"/>
     <use xlink:href="#CMR17-3a" transform="translate(86.394314 -386.987289) scale(0.996264)"/>
     <use xlink:href="#CMR17-50" transform="translate(138.939381 -386.987289) scale(0.996264)"/>
     <use xlink:href="#CMR17-65" transform="translate(198.923227 -386.987289) scale(0.996264)"/>
     <use xlink:href="#CMR17-72" transform="translate(239.408888 -386.987289) scale(0.996264)"/>
     <use xlink:href="#CMR17-6d" transform="translate(274.689656 -386.987289) scale(0.996264)"/>
     <use xlink:href="#CMR17-61" transform="translate(351.609245 -386.987289) scale(0.996264)"/>
     <use xlink:href="#CMR17-6e" transform="translate(397.299723 -386.987289) scale(0.996264)"/>
     <use xlink:href="#CMR17-65" transform="translate(448.195092 -386.987289) scale(0.996264)"/>
     <use xlink:href="#CMR17-6e" transform="translate(488.680753 -386.987289) scale(0.996264)"/>
     <use xlink:href="#CMR17-74" transform="translate(536.973669 -386.987289) scale(0.996264)"/>
     <use xlink:href="#CMR17-72" transform="translate(602.330403 -386.987289) scale(0.996264)"/>
     <use xlink:href="#CMR17-61" transform="translate(637.611171 -386.987289) scale(0.996264)"/>
     <use xlink:href="#CMR17-6e" transform="translate(683.301648 -386.987289) scale(0.996264)"/>
     <use xlink:href="#CMR17-64" transform="translate(734.197018 -386.987289) scale(0.996264)"/>
     <use xlink:href="#CMR17-6f" transform="translate(785.092387 -386.987289) scale(0.996264)"/>
     <use xlink:href="#CMR17-6d" transform="translate(830.782864 -386.987289) scale(0.996264)"/>
     <use xlink:href="#CMR17-69" transform="translate(907.702454 -386.987289) scale(0.996264)"/>
     <use xlink:href="#CMR17-7a" transform="translate(932.573513 -386.987289) scale(0.996264)"/>
     <use xlink:href="#CMR17-61" transform="translate(973.059173 -386.987289) scale(0.996264)"/>
     <use xlink:href="#CMR17-74" transform="translate(1018.74965 -386.987289) scale(0.996264)"/>
     <use xlink:href="#CMR17-69" transform="translate(1054.030418 -386.987289) scale(0.996264)"/>
     <use xlink:href="#CMR17-6f" transform="translate(1078.901477 -386.987289) scale(0.996264)"/>
     <use xlink:href="#CMR17-6e" transform="translate(1124.591954 -386.987289) scale(0.996264)"/>
     <use xlink:href="#CMR17-70" transform="translate(1205.56329 -386.987289) scale(0.996264)"/>
     <use xlink:href="#CMR17-61" transform="translate(1256.45866 -386.987289) scale(0.996264)"/>
     <use xlink:href="#CMR17-72" transform="translate(1302.149137 -386.987289) scale(0.996264)"/>
     <use xlink:href="#CMR17-61" transform="translate(1337.429905 -386.987289) scale(0.996264)"/>
     <use xlink:href="#CMR17-6d" transform="translate(1383.120382 -386.987289) scale(0.996264)"/>
     <use xlink:href="#CMR17-65" transform="translate(1460.039972 -386.987289) scale(0.996264)"/>
     <use xlink:href="#CMR17-74" transform="translate(1500.525632 -386.987289) scale(0.996264)"/>
     <use xlink:href="#CMR17-65" transform="translate(1535.8064 -386.987289) scale(0.996264)"/>
     <use xlink:href="#CMR17-72" transform="translate(1576.29206 -386.987289) scale(0.996264)"/>
     <use xlink:href="#CMMI12-6e" transform="translate(0 -476.546751) scale(0.996264)"/>
     <use xlink:href="#CMR17-3a" transform="translate(85.904056 -476.546751) scale(0.996264)"/>
     <use xlink:href="#CMR17-4e" transform="translate(138.449123 -476.546751) scale(0.996264)"/>
     <use xlink:href="#CMR17-75" transform="translate(207.521553 -476.546751) scale(0.996264)"/>
     <use xlink:href="#CMR17-6d" transform="translate(258.416923 -476.546751) scale(0.996264)"/>
     <use xlink:href="#CMR17-62" transform="translate(332.734059 -476.546751) scale(0.996264)"/>
     <use xlink:href="#CMR17-65" transform="translate(386.231867 -476.546751) scale(0.996264)"/>
     <use xlink:href="#CMR17-72" transform="translate(426.717528 -476.546751) scale(0.996264)"/>
     <use xlink:href="#CMR17-6f" transform="translate(492.074262 -476.546751) scale(0.996264)"/>
     <use xlink:href="#CMR17-66" transform="translate(537.764739 -476.546751) scale(0.996264)"/>
     <use xlink:href="#CMR17-75" transform="translate(595.314218 -476.546751) scale(0.996264)"/>
     <use xlink:href="#CMR17-73" transform="translate(646.209588 -476.546751) scale(0.996264)"/>
     <use xlink:href="#CMR17-65" transform="translate(682.010925 -476.546751) scale(0.996264)"/>
     <use xlink:href="#CMR17-72" transform="translate(722.496586 -476.546751) scale(0.996264)"/>
     <use xlink:href="#CMR17-73" transform="translate(757.777353 -476.546751) scale(0.996264)"/>
    </g>
   </g>
  </g>
 </g>
</svg>
