<?xml version="1.0" encoding="utf-8" standalone="no"?>
<!DOCTYPE svg PUBLIC "-//W3C//DTD SVG 1.1//EN"
  "http://www.w3.org/Graphics/SVG/1.1/DTD/svg11.dtd">
<svg xmlns:xlink="http://www.w3.org/1999/xlink" width="572.4pt" height="125.28pt" viewBox="0 0 572.4 125.28" xmlns="http://www.w3.org/2000/svg" version="1.1">
 <metadata>
  <rdf:RDF xmlns:dc="http://purl.org/dc/elements/1.1/" xmlns:cc="http://creativecommons.org/ns#" xmlns:rdf="http://www.w3.org/1999/02/22-rdf-syntax-ns#">
   <cc:Work>
    <dc:type rdf:resource="http://purl.org/dc/dcmitype/StillImage"/>
    <dc:date>2025-11-30T11:51:06.555010</dc:date>
    <dc:format>image/svg+xml</dc:format>
    <dc:creator>
     <cc:Agent>
      <dc:title>Matplotlib v3.10.7, https://matplotlib.org/</dc:title>
     </cc:Agent>
    </dc:creator>
   </cc:Work>
  </rdf:RDF>
 </metadata>
 <defs>
  <style type="text/css">*{stroke-linejoin: round; stroke-linecap: butt}</style>
 </defs>
 <g id="figure_1">
  <g id="patch_1">
   <path d="M 0 125.28 
L 572.4 125.28 
L 572.4 0 
L 0 0 
L 0 125.28 
z
" style="fill: none; opacity: 0"/>
  </g>
  <g id="axes_1">
   <g id="text_1">
    <!-- $\tilde{f}'_t : \text{Target frequency after attack} \\  \tilde{f}_t : \text{Original target frequency} \\  \text{Gain}_{\text{MGA}} : \text{MGA attack gain} \\  t : \text{Target item index}$ -->
    <g transform="translate(146.039718 39.032225) scale(0.2 -0.2)">
     <defs>
      <path id="CMR17-7e" d="M 2400 4184 
C 2182 3980 2061 3865 1862 3865 
C 1722 3865 1626 3932 1491 4024 
C 1363 4111 1261 4184 1120 4184 
C 890 4184 730 4004 461 3718 
L 531 3648 
C 749 3850 870 3968 1069 3968 
C 1210 3968 1306 3900 1440 3808 
C 1568 3722 1670 3648 1811 3648 
C 2042 3648 2202 3828 2470 4114 
L 2400 4184 
z
" transform="scale(0.015625)"/>
      <path id="CMMI12-66" d="M 2854 2566 
C 2982 2566 3034 2566 3034 2688 
C 3034 2752 2982 2752 2867 2752 
L 2349 2752 
C 2470 3429 2560 3897 2611 4107 
C 2650 4265 2784 4416 2950 4416 
C 3085 4416 3219 4358 3283 4298 
C 3034 4272 2957 4082 2957 3969 
C 2957 3837 3053 3759 3174 3759 
C 3302 3759 3494 3870 3494 4119 
C 3494 4393 3226 4544 2944 4544 
C 2669 4544 2400 4334 2272 4078 
C 2157 3848 2093 3611 1946 2752 
L 1517 2752 
C 1395 2752 1331 2752 1331 2637 
C 1331 2566 1370 2566 1498 2566 
L 1907 2566 
C 1792 1976 1530 542 1382 -137 
C 1274 -689 1178 -1152 858 -1152 
C 838 -1152 653 -1152 538 -1031 
C 864 -1005 864 -726 864 -720 
C 864 -593 768 -517 646 -517 
C 518 -517 326 -625 326 -867 
C 326 -1140 608 -1280 858 -1280 
C 1510 -1280 1779 -118 1850 199 
C 1965 688 2278 2376 2310 2566 
L 2854 2566 
z
" transform="scale(0.015625)"/>
      <path id="CMSY10-30" d="M 1619 3040 
C 1651 3117 1677 3174 1677 3238 
C 1677 3424 1510 3578 1312 3578 
C 1133 3578 1018 3456 973 3290 
L 211 493 
C 211 480 186 410 186 403 
C 186 333 352 288 403 288 
C 442 288 448 307 486 390 
L 1619 3040 
z
" transform="scale(0.015625)"/>
      <path id="CMMI12-74" d="M 1286 2566 
L 1875 2566 
C 1997 2566 2061 2566 2061 2681 
C 2061 2752 2022 2752 1894 2752 
L 1331 2752 
L 1568 3692 
C 1594 3781 1594 3794 1594 3840 
C 1594 3943 1510 4000 1427 4000 
C 1376 4000 1229 3981 1178 3775 
L 928 2752 
L 326 2752 
C 198 2752 141 2752 141 2630 
C 141 2566 186 2566 307 2566 
L 877 2566 
L 454 881 
C 403 658 384 594 384 511 
C 384 211 595 -64 954 -64 
C 1600 -64 1946 868 1946 912 
C 1946 951 1920 970 1882 970 
C 1869 970 1843 970 1830 944 
C 1824 938 1818 931 1773 829 
C 1638 511 1344 64 973 64 
C 781 64 768 224 768 364 
C 768 370 768 492 787 568 
L 1286 2566 
z
" transform="scale(0.015625)"/>
      <path id="CMR17-3a" d="M 1062 2491 
C 1062 2650 934 2752 800 2752 
C 672 2752 538 2650 538 2491 
C 538 2332 666 2230 800 2230 
C 928 2230 1062 2332 1062 2491 
z
M 1062 261 
C 1062 420 934 522 800 522 
C 672 522 538 420 538 261 
C 538 102 666 0 800 0 
C 928 0 1062 102 1062 261 
z
" transform="scale(0.015625)"/>
      <path id="CMR17-54" d="M 3981 4326 
L 288 4326 
L 179 2918 
L 294 2918 
C 378 3976 467 4160 1453 4160 
C 1568 4160 1754 4160 1805 4154 
C 1926 4135 1926 4058 1926 3912 
L 1926 459 
C 1926 230 1907 160 1376 160 
L 1197 160 
L 1197 0 
C 1504 0 1824 0 2138 0 
C 2451 0 2771 0 3078 0 
L 3078 160 
L 2899 160 
C 2368 160 2349 230 2349 459 
L 2349 3912 
C 2349 4052 2349 4129 2464 4154 
C 2515 4160 2701 4160 2816 4160 
C 3795 4160 3891 3976 3974 2918 
L 4090 2918 
L 3981 4326 
z
" transform="scale(0.015625)"/>
      <path id="CMR17-61" d="M 2304 1653 
C 2304 2072 2304 2294 2035 2543 
C 1798 2752 1523 2816 1306 2816 
C 800 2816 435 2407 435 1971 
C 435 1728 627 1728 666 1728 
C 749 1728 896 1778 896 1954 
C 896 2112 774 2181 666 2181 
C 640 2181 608 2174 589 2168 
C 723 2592 1069 2714 1293 2714 
C 1613 2714 1965 2429 1965 1885 
L 1965 1600 
C 1587 1600 1133 1549 774 1357 
C 371 1133 256 813 256 570 
C 256 77 832 -64 1171 -64 
C 1523 -64 1850 139 1990 511 
C 2003 233 2182 -18 2464 -18 
C 2598 -18 2938 70 2938 567 
L 2938 920 
L 2822 920 
L 2822 562 
C 2822 178 2650 128 2566 128 
C 2304 128 2304 458 2304 738 
L 2304 1653 
z
M 1965 870 
C 1965 317 1568 38 1216 38 
C 896 38 646 275 646 570 
C 646 761 730 1100 1101 1305 
C 1408 1478 1760 1504 1965 1504 
L 1965 870 
z
" transform="scale(0.015625)"/>
      <path id="CMR17-72" d="M 960 1497 
C 960 2112 1222 2688 1702 2688 
C 1747 2688 1792 2682 1837 2662 
C 1837 2662 1696 2617 1696 2452 
C 1696 2298 1818 2234 1914 2234 
C 1990 2234 2131 2279 2131 2458 
C 2131 2663 1926 2790 1709 2790 
C 1222 2790 1011 2317 947 2093 
L 941 2093 
L 941 2790 
L 198 2720 
L 198 2554 
C 576 2554 634 2515 634 2208 
L 634 428 
C 634 184 608 153 198 153 
L 198 -13 
C 352 0 646 0 813 0 
C 998 0 1325 0 1498 -13 
L 1498 153 
C 1037 153 960 153 960 440 
L 960 1497 
z
" transform="scale(0.015625)"/>
      <path id="CMR17-67" d="M 710 1164 
C 832 1068 1043 960 1299 960 
C 1805 960 2240 1357 2240 1888 
C 2240 2054 2189 2310 1997 2509 
C 2176 2692 2438 2752 2586 2752 
C 2611 2752 2650 2752 2682 2734 
C 2656 2728 2598 2703 2598 2605 
C 2598 2527 2656 2471 2739 2471 
C 2835 2471 2886 2533 2886 2614 
C 2886 2731 2790 2854 2586 2854 
C 2330 2854 2106 2738 1926 2580 
C 1734 2753 1504 2816 1299 2816 
C 794 2816 358 2419 358 1888 
C 358 1522 570 1292 634 1228 
C 442 1004 442 743 442 711 
C 442 545 506 302 723 168 
C 390 85 128 -169 128 -486 
C 128 -943 736 -1280 1466 -1280 
C 2170 -1280 2803 -956 2803 -479 
C 2803 384 1856 384 1363 384 
C 1216 384 954 384 922 391 
C 723 423 589 602 589 826 
C 589 883 589 1024 710 1164 
z
M 1299 1068 
C 736 1068 736 1760 736 1889 
C 736 2016 736 2708 1299 2708 
C 1862 2708 1862 2016 1862 1889 
C 1862 1760 1862 1068 1299 1068 
z
M 1466 -1171 
C 826 -1171 384 -835 384 -486 
C 384 -289 493 -105 634 -4 
C 794 104 858 104 1293 104 
C 1818 104 2547 104 2547 -486 
C 2547 -835 2106 -1171 1466 -1171 
z
" transform="scale(0.015625)"/>
      <path id="CMR17-65" d="M 2438 1472 
C 2464 1498 2464 1511 2464 1576 
C 2464 2238 2118 2816 1389 2816 
C 710 2816 173 2169 173 1383 
C 173 551 781 -64 1459 -64 
C 2176 -64 2458 607 2458 740 
C 2458 784 2419 784 2406 784 
C 2362 784 2355 771 2330 696 
C 2189 265 1837 51 1504 51 
C 1229 51 954 203 781 480 
C 582 803 582 1176 582 1472 
L 2438 1472 
z
M 589 1568 
C 634 2505 1126 2714 1382 2714 
C 1818 2714 2112 2297 2118 1568 
L 589 1568 
z
" transform="scale(0.015625)"/>
      <path id="CMR17-74" d="M 966 2560 
L 1862 2560 
L 1862 2725 
L 966 2725 
L 966 3904 
L 851 3904 
C 838 3245 614 2668 70 2668 
L 70 2560 
L 627 2560 
L 627 771 
C 627 650 627 -64 1370 -64 
C 1747 -64 1965 306 1965 777 
L 1965 1140 
L 1850 1140 
L 1850 783 
C 1850 344 1677 51 1408 51 
C 1222 51 966 178 966 758 
L 966 2560 
z
" transform="scale(0.015625)"/>
      <path id="CMR17-66" d="M 979 2560 
L 1709 2560 
L 1709 2725 
L 966 2725 
L 966 3494 
C 966 4022 1235 4352 1510 4352 
C 1594 4352 1690 4327 1754 4282 
C 1702 4269 1568 4225 1568 4067 
C 1568 3901 1696 3850 1786 3850 
C 1875 3850 2003 3901 2003 4067 
C 2003 4308 1773 4454 1517 4454 
C 1152 4454 653 4156 653 3481 
L 653 2725 
L 141 2725 
L 141 2560 
L 653 2560 
L 653 427 
C 653 184 627 153 218 153 
L 218 -13 
C 371 0 666 0 832 0 
C 1018 0 1344 0 1517 -13 
L 1517 153 
C 1056 153 979 153 979 439 
L 979 2560 
z
" transform="scale(0.015625)"/>
      <path id="CMR17-71" d="M 2630 2802 
L 2528 2802 
L 2336 2172 
C 2189 2509 1920 2802 1491 2802 
C 838 2802 211 2223 211 1383 
C 211 548 800 -38 1440 -38 
C 1933 -38 2208 338 2291 478 
L 2291 -789 
C 2291 -1031 2266 -1063 1856 -1063 
L 1856 -1228 
C 2010 -1216 2291 -1216 2458 -1216 
C 2624 -1216 2912 -1216 3066 -1228 
L 3066 -1063 
C 2656 -1063 2630 -1037 2630 -789 
L 2630 2802 
z
M 2304 886 
C 2304 612 2074 357 2054 338 
C 1856 115 1626 64 1472 64 
C 992 64 621 669 621 1375 
C 621 2121 1043 2688 1536 2688 
C 2048 2688 2304 2108 2304 1777 
L 2304 886 
z
" transform="scale(0.015625)"/>
      <path id="CMR17-75" d="M 1882 2693 
L 1882 2528 
C 2259 2528 2317 2489 2317 2186 
L 2317 1032 
C 2317 500 2029 38 1555 38 
C 1030 38 986 348 986 678 
L 986 2763 
L 211 2693 
L 211 2528 
C 467 2528 640 2528 646 2274 
L 646 1058 
C 646 633 646 361 813 183 
C 896 101 1056 -64 1517 -64 
C 2061 -64 2272 377 2323 506 
L 2330 506 
L 2330 -63 
L 3091 -63 
L 3091 128 
C 2714 128 2656 166 2656 473 
L 2656 2763 
L 1882 2693 
z
" transform="scale(0.015625)"/>
      <path id="CMR17-6e" d="M 2656 1933 
C 2656 2259 2592 2790 1837 2790 
C 1331 2790 1069 2400 973 2144 
L 966 2144 
L 966 2790 
L 211 2720 
L 211 2554 
C 589 2554 646 2515 646 2208 
L 646 428 
C 646 184 621 153 211 153 
L 211 -13 
C 365 0 646 0 813 0 
C 979 0 1267 0 1421 -13 
L 1421 153 
C 1011 153 986 178 986 428 
L 986 1658 
C 986 2247 1344 2688 1792 2688 
C 2266 2688 2317 2266 2317 1958 
L 2317 428 
C 2317 184 2291 153 1882 153 
L 1882 -13 
C 2035 0 2317 0 2483 0 
C 2650 0 2938 0 3091 -13 
L 3091 153 
C 2682 153 2656 178 2656 428 
L 2656 1933 
z
" transform="scale(0.015625)"/>
      <path id="CMR17-63" d="M 2234 2240 
C 2112 2240 1933 2240 1933 2017 
C 1933 1838 2080 1787 2163 1787 
C 2208 1787 2394 1807 2394 2024 
C 2394 2467 1958 2803 1466 2803 
C 787 2803 211 2178 211 1363 
C 211 516 813 -64 1466 -64 
C 2259 -64 2458 677 2458 748 
C 2458 774 2451 793 2406 793 
C 2362 793 2355 787 2330 703 
C 2163 180 1798 51 1523 51 
C 1114 51 621 427 621 1369 
C 621 2338 1094 2688 1472 2688 
C 1722 2688 2093 2573 2234 2240 
z
" transform="scale(0.015625)"/>
      <path id="CMR17-79" d="M 2496 2197 
C 2656 2586 2944 2586 3034 2586 
L 3034 2752 
C 2912 2752 2752 2752 2630 2752 
C 2496 2752 2285 2752 2157 2758 
L 2157 2592 
C 2400 2573 2406 2394 2406 2343 
C 2406 2280 2394 2248 2362 2171 
L 1664 449 
L 902 2306 
C 870 2382 870 2426 870 2433 
C 870 2573 1018 2586 1171 2586 
L 1171 2758 
C 1018 2752 742 2752 582 2752 
C 410 2752 205 2752 64 2758 
L 64 2586 
C 410 2586 448 2554 531 2350 
L 1485 15 
C 1197 -738 1030 -1178 627 -1178 
C 557 -1178 397 -1159 282 -1044 
C 429 -1031 493 -942 493 -833 
C 493 -725 416 -629 288 -629 
C 147 -629 77 -725 77 -840 
C 77 -1095 339 -1280 627 -1280 
C 998 -1280 1229 -922 1357 -604 
L 2496 2197 
z
" transform="scale(0.015625)"/>
      <path id="CMR17-6b" d="M 1670 1673 
C 1664 1686 1632 1724 1632 1743 
C 1632 1756 2086 2171 2144 2222 
C 2509 2528 2739 2560 2906 2560 
L 2906 2733 
C 2867 2733 2854 2733 2848 2720 
L 2534 2720 
C 2355 2720 2080 2720 1907 2733 
L 1907 2566 
C 1997 2559 2061 2508 2061 2419 
C 2061 2291 1933 2170 1926 2170 
L 960 1289 
L 960 4396 
L 198 4326 
L 198 4160 
C 576 4160 634 4122 634 3817 
L 634 426 
C 634 184 608 153 198 153 
L 198 -13 
C 352 0 634 0 794 0 
C 954 0 1235 0 1389 -13 
L 1389 153 
C 979 153 954 178 954 428 
L 954 1130 
L 1395 1532 
L 2042 574 
C 2118 459 2182 369 2182 286 
C 2182 172 2067 153 1990 153 
L 1990 -13 
C 2144 0 2419 0 2579 0 
C 2694 0 2931 0 3040 0 
L 3040 153 
C 2739 153 2669 210 2477 491 
L 1670 1673 
z
" transform="scale(0.015625)"/>
      <path id="CMR17-4f" d="M 4307 2135 
C 4307 3437 3366 4416 2304 4416 
C 1216 4416 294 3424 294 2135 
C 294 845 1229 -128 2298 -128 
C 3392 -128 4307 864 4307 2135 
z
M 2304 -13 
C 1574 -13 781 711 781 2217 
C 781 3716 1651 4301 2298 4301 
C 2976 4301 3821 3698 3821 2217 
C 3821 686 3008 -13 2304 -13 
z
" transform="scale(0.015625)"/>
      <path id="CMR17-69" d="M 992 3909 
C 992 4049 877 4170 730 4170 
C 589 4170 467 4056 467 3909 
C 467 3769 582 3648 730 3648 
C 870 3648 992 3763 992 3909 
z
M 243 2706 
L 243 2541 
C 602 2541 653 2502 653 2197 
L 653 427 
C 653 184 627 153 218 153 
L 218 -13 
C 371 0 646 0 806 0 
C 960 0 1222 0 1370 -13 
L 1370 153 
C 992 153 979 191 979 420 
L 979 2776 
L 243 2706 
z
" transform="scale(0.015625)"/>
      <path id="CMR17-6c" d="M 979 4396 
L 218 4326 
L 218 4160 
C 595 4160 653 4122 653 3817 
L 653 426 
C 653 184 627 153 218 153 
L 218 -13 
C 371 0 653 0 813 0 
C 979 0 1261 0 1414 -13 
L 1414 153 
C 1005 153 979 178 979 426 
L 979 4396 
z
" transform="scale(0.015625)"/>
      <path id="CMR17-47" d="M 3974 1233 
C 3974 1473 3994 1505 4390 1505 
L 4390 1670 
C 4237 1664 3891 1664 3718 1664 
C 3539 1664 3040 1664 2797 1664 
L 2797 1505 
L 2989 1505 
C 3539 1505 3552 1434 3552 1201 
L 3552 774 
C 3552 63 2720 63 2522 63 
C 1862 63 781 511 781 2160 
C 781 3808 1843 4250 2464 4250 
C 3187 4250 3712 3626 3834 2741 
C 3846 2664 3846 2651 3904 2651 
C 3974 2651 3974 2664 3974 2779 
L 3974 4288 
C 3974 4402 3968 4409 3930 4409 
C 3904 4409 3898 4402 3853 4326 
L 3571 3791 
C 3258 4187 2874 4416 2381 4416 
C 1286 4416 294 3456 294 2148 
C 294 845 1267 -128 2394 -128 
C 2912 -128 3418 56 3616 417 
C 3725 158 3904 -20 3936 -20 
C 3968 -20 3974 -13 3974 100 
L 3974 1233 
z
" transform="scale(0.015625)"/>
      <path id="CMR17-4d" d="M 1338 4224 
C 1299 4320 1293 4320 1158 4320 
L 339 4320 
L 339 4160 
C 781 4160 851 4160 851 3875 
L 851 610 
C 851 451 851 153 339 153 
L 339 -13 
C 486 0 755 0 915 0 
C 1075 0 1344 0 1491 -13 
L 1491 153 
C 979 153 979 451 979 610 
L 979 4135 
L 986 4135 
L 2490 89 
C 2515 25 2528 -13 2579 -13 
C 2630 -13 2643 25 2669 89 
L 4186 4166 
L 4192 4166 
L 4192 438 
C 4192 153 4122 153 3680 153 
L 3680 -13 
C 3853 0 4198 0 4384 0 
C 4570 0 4922 0 5094 -13 
L 5094 153 
C 4653 153 4582 153 4582 438 
L 4582 3875 
C 4582 4160 4653 4160 5094 4160 
L 5094 4320 
L 4282 4320 
C 4147 4320 4141 4314 4102 4218 
L 2720 502 
L 1338 4224 
z
" transform="scale(0.015625)"/>
      <path id="CMR17-41" d="M 2323 4378 
C 2291 4461 2278 4480 2214 4480 
C 2150 4480 2138 4461 2106 4378 
L 749 566 
C 627 223 371 153 147 153 
L 147 -13 
C 262 0 518 0 640 0 
C 800 0 1056 0 1210 -13 
L 1210 153 
C 909 153 864 361 864 439 
C 864 497 877 530 890 569 
L 1229 1536 
L 2906 1536 
L 3290 442 
C 3322 365 3322 352 3322 327 
C 3322 153 3046 153 2925 153 
L 2925 0 
C 3110 0 3443 0 3642 0 
C 3808 0 4128 0 4282 -13 
L 4282 153 
C 3942 153 3827 153 3744 387 
L 2323 4378 
z
M 2067 3893 
L 2848 1702 
L 1286 1702 
L 2067 3893 
z
" transform="scale(0.015625)"/>
      <path id="CMR17-6d" d="M 4326 1933 
C 4326 2252 4269 2790 3507 2790 
C 3072 2790 2771 2496 2656 2151 
L 2650 2151 
C 2573 2676 2195 2790 1837 2790 
C 1331 2790 1069 2400 973 2144 
L 966 2144 
L 966 2790 
L 211 2720 
L 211 2554 
C 589 2554 646 2515 646 2208 
L 646 428 
C 646 184 621 153 211 153 
L 211 -13 
C 365 0 646 0 813 0 
C 979 0 1267 0 1421 -13 
L 1421 153 
C 1011 153 986 178 986 428 
L 986 1658 
C 986 2247 1344 2688 1792 2688 
C 2266 2688 2317 2266 2317 1958 
L 2317 428 
C 2317 184 2291 153 1882 153 
L 1882 -13 
C 2035 0 2317 0 2483 0 
C 2650 0 2938 0 3091 -13 
L 3091 153 
C 2682 153 2656 178 2656 428 
L 2656 1658 
C 2656 2247 3014 2688 3462 2688 
C 3936 2688 3987 2266 3987 1958 
L 3987 428 
C 3987 184 3962 153 3552 153 
L 3552 -13 
C 3706 0 3987 0 4154 0 
C 4320 0 4608 0 4762 -13 
L 4762 153 
C 4352 153 4326 178 4326 428 
L 4326 1933 
z
" transform="scale(0.015625)"/>
      <path id="CMR17-64" d="M 1869 4326 
L 1869 4160 
C 2246 4160 2304 4122 2304 3820 
L 2304 2345 
C 2278 2377 2016 2790 1498 2790 
C 845 2790 211 2208 211 1364 
C 211 525 806 -64 1434 -64 
C 1978 -64 2259 337 2291 380 
L 2291 -63 
L 3066 -63 
L 3066 128 
C 2688 128 2630 166 2630 473 
L 2630 4396 
L 1869 4326 
z
M 2291 755 
C 2291 563 2176 390 2029 262 
C 1811 70 1594 38 1472 38 
C 1286 38 621 134 621 1356 
C 621 2612 1363 2688 1530 2688 
C 1824 2688 2061 2522 2208 2291 
C 2291 2157 2291 2138 2291 2023 
L 2291 755 
z
" transform="scale(0.015625)"/>
      <path id="CMR17-78" d="M 1664 1477 
C 1856 1726 2074 2006 2253 2216 
C 2464 2458 2707 2560 2989 2560 
L 2989 2726 
C 2880 2726 2656 2726 2541 2726 
C 2368 2726 2170 2726 2022 2732 
L 2022 2566 
C 2112 2553 2163 2489 2163 2400 
C 2163 2285 2099 2215 2067 2171 
L 1594 1573 
L 1030 2306 
C 973 2376 973 2388 973 2420 
C 973 2497 1037 2560 1146 2560 
L 1146 2732 
C 992 2726 717 2726 557 2726 
C 384 2726 179 2726 38 2732 
L 38 2560 
C 384 2560 461 2534 614 2343 
L 1350 1395 
C 1363 1382 1395 1344 1395 1325 
C 1395 1299 838 619 768 530 
C 480 185 179 160 6 160 
L 6 0 
C 115 0 339 0 454 0 
C 582 0 864 0 979 -6 
L 979 160 
C 941 166 838 179 838 325 
C 838 440 890 510 947 586 
L 1478 1236 
L 2035 512 
C 2086 442 2163 346 2163 301 
C 2163 211 2086 160 1984 160 
L 1984 -6 
C 2138 0 2413 0 2573 0 
C 2746 0 2950 0 3091 -6 
L 3091 160 
C 2771 160 2675 172 2522 370 
L 1664 1477 
z
" transform="scale(0.015625)"/>
     </defs>
     <use xlink:href="#CMR17-7e" transform="translate(37.717188 26.296621) scale(0.996264)"/>
     <use xlink:href="#CMMI12-66" transform="translate(14.94396 0) scale(0.996264)"/>
     <use xlink:href="#CMSY10-30" transform="translate(73.664265 36.153639) scale(0.697382)"/>
     <use xlink:href="#CMMI12-74" transform="translate(63.027198 -24.62935) scale(0.697382)"/>
     <use xlink:href="#CMR17-3a" transform="translate(121.014366 0) scale(0.996264)"/>
     <use xlink:href="#CMR17-54" transform="translate(173.559433 0) scale(0.996264)"/>
     <use xlink:href="#CMR17-61" transform="translate(232.262059 0) scale(0.996264)"/>
     <use xlink:href="#CMR17-72" transform="translate(277.952536 0) scale(0.996264)"/>
     <use xlink:href="#CMR17-67" transform="translate(313.233304 0) scale(0.996264)"/>
     <use xlink:href="#CMR17-65" transform="translate(358.923781 0) scale(0.996264)"/>
     <use xlink:href="#CMR17-74" transform="translate(399.409441 0) scale(0.996264)"/>
     <use xlink:href="#CMR17-66" transform="translate(464.766175 0) scale(0.996264)"/>
     <use xlink:href="#CMR17-72" transform="translate(492.239688 0) scale(0.996264)"/>
     <use xlink:href="#CMR17-65" transform="translate(527.520456 0) scale(0.996264)"/>
     <use xlink:href="#CMR17-71" transform="translate(568.006116 0) scale(0.996264)"/>
     <use xlink:href="#CMR17-75" transform="translate(616.299032 0) scale(0.996264)"/>
     <use xlink:href="#CMR17-65" transform="translate(667.194402 0) scale(0.996264)"/>
     <use xlink:href="#CMR17-6e" transform="translate(707.680062 0) scale(0.996264)"/>
     <use xlink:href="#CMR17-63" transform="translate(758.575432 0) scale(0.996264)"/>
     <use xlink:href="#CMR17-79" transform="translate(799.061092 0) scale(0.996264)"/>
     <use xlink:href="#CMR17-61" transform="translate(877.429975 0) scale(0.996264)"/>
     <use xlink:href="#CMR17-66" transform="translate(923.120452 0) scale(0.996264)"/>
     <use xlink:href="#CMR17-74" transform="translate(950.593964 0) scale(0.996264)"/>
     <use xlink:href="#CMR17-65" transform="translate(985.874732 0) scale(0.996264)"/>
     <use xlink:href="#CMR17-72" transform="translate(1026.360392 0) scale(0.996264)"/>
     <use xlink:href="#CMR17-61" transform="translate(1091.717126 0) scale(0.996264)"/>
     <use xlink:href="#CMR17-74" transform="translate(1137.407604 0) scale(0.996264)"/>
     <use xlink:href="#CMR17-74" transform="translate(1172.688371 0) scale(0.996264)"/>
     <use xlink:href="#CMR17-61" transform="translate(1207.969139 0) scale(0.996264)"/>
     <use xlink:href="#CMR17-63" transform="translate(1253.659616 0) scale(0.996264)"/>
     <use xlink:href="#CMR17-6b" transform="translate(1291.542823 0) scale(0.996264)"/>
     <use xlink:href="#CMR17-7e" transform="translate(22.773228 -90.978548) scale(0.996264)"/>
     <use xlink:href="#CMMI12-66" transform="translate(0 -117.275169) scale(0.996264)"/>
     <use xlink:href="#CMMI12-74" transform="translate(48.083238 -132.219083) scale(0.697382)"/>
     <use xlink:href="#CMR17-3a" transform="translate(100.913688 -117.275169) scale(0.996264)"/>
     <use xlink:href="#CMR17-4f" transform="translate(153.458755 -117.275169) scale(0.996264)"/>
     <use xlink:href="#CMR17-72" transform="translate(225.173544 -117.275169) scale(0.996264)"/>
     <use xlink:href="#CMR17-69" transform="translate(260.454311 -117.275169) scale(0.996264)"/>
     <use xlink:href="#CMR17-67" transform="translate(285.32537 -117.275169) scale(0.996264)"/>
     <use xlink:href="#CMR17-69" transform="translate(331.015847 -117.275169) scale(0.996264)"/>
     <use xlink:href="#CMR17-6e" transform="translate(355.886905 -117.275169) scale(0.996264)"/>
     <use xlink:href="#CMR17-61" transform="translate(406.782275 -117.275169) scale(0.996264)"/>
     <use xlink:href="#CMR17-6c" transform="translate(452.472752 -117.275169) scale(0.996264)"/>
     <use xlink:href="#CMR17-74" transform="translate(507.419777 -117.275169) scale(0.996264)"/>
     <use xlink:href="#CMR17-61" transform="translate(542.700545 -117.275169) scale(0.996264)"/>
     <use xlink:href="#CMR17-72" transform="translate(588.391022 -117.275169) scale(0.996264)"/>
     <use xlink:href="#CMR17-67" transform="translate(623.67179 -117.275169) scale(0.996264)"/>
     <use xlink:href="#CMR17-65" transform="translate(669.362267 -117.275169) scale(0.996264)"/>
     <use xlink:href="#CMR17-74" transform="translate(709.847927 -117.275169) scale(0.996264)"/>
     <use xlink:href="#CMR17-66" transform="translate(775.204662 -117.275169) scale(0.996264)"/>
     <use xlink:href="#CMR17-72" transform="translate(802.678174 -117.275169) scale(0.996264)"/>
     <use xlink:href="#CMR17-65" transform="translate(837.958942 -117.275169) scale(0.996264)"/>
     <use xlink:href="#CMR17-71" transform="translate(878.444602 -117.275169) scale(0.996264)"/>
     <use xlink:href="#CMR17-75" transform="translate(926.737518 -117.275169) scale(0.996264)"/>
     <use xlink:href="#CMR17-65" transform="translate(977.632888 -117.275169) scale(0.996264)"/>
     <use xlink:href="#CMR17-6e" transform="translate(1018.118548 -117.275169) scale(0.996264)"/>
     <use xlink:href="#CMR17-63" transform="translate(1069.013918 -117.275169) scale(0.996264)"/>
     <use xlink:href="#CMR17-79" transform="translate(1109.499579 -117.275169) scale(0.996264)"/>
     <use xlink:href="#CMR17-47" transform="translate(0 -206.83463) scale(0.996264)"/>
     <use xlink:href="#CMR17-61" transform="translate(72.355346 -206.83463) scale(0.996264)"/>
     <use xlink:href="#CMR17-69" transform="translate(118.045823 -206.83463) scale(0.996264)"/>
     <use xlink:href="#CMR17-6e" transform="translate(142.916882 -206.83463) scale(0.996264)"/>
     <use xlink:href="#CMR17-4d" transform="translate(193.812251 -221.778545) scale(0.697382)"/>
     <use xlink:href="#CMR17-47" transform="translate(253.092848 -221.778545) scale(0.697382)"/>
     <use xlink:href="#CMR17-41" transform="translate(303.741371 -221.778545) scale(0.697382)"/>
     <use xlink:href="#CMR17-3a" transform="translate(380.263997 -206.83463) scale(0.996264)"/>
     <use xlink:href="#CMR17-4d" transform="translate(432.809064 -206.83463) scale(0.996264)"/>
     <use xlink:href="#CMR17-47" transform="translate(517.496005 -206.83463) scale(0.996264)"/>
     <use xlink:href="#CMR17-41" transform="translate(589.851351 -206.83463) scale(0.996264)"/>
     <use xlink:href="#CMR17-61" transform="translate(688.999747 -206.83463) scale(0.996264)"/>
     <use xlink:href="#CMR17-74" transform="translate(734.690224 -206.83463) scale(0.996264)"/>
     <use xlink:href="#CMR17-74" transform="translate(769.970992 -206.83463) scale(0.996264)"/>
     <use xlink:href="#CMR17-61" transform="translate(805.25176 -206.83463) scale(0.996264)"/>
     <use xlink:href="#CMR17-63" transform="translate(850.942237 -206.83463) scale(0.996264)"/>
     <use xlink:href="#CMR17-6b" transform="translate(888.825443 -206.83463) scale(0.996264)"/>
     <use xlink:href="#CMR17-67" transform="translate(967.194326 -206.83463) scale(0.996264)"/>
     <use xlink:href="#CMR17-61" transform="translate(1012.884803 -206.83463) scale(0.996264)"/>
     <use xlink:href="#CMR17-69" transform="translate(1058.57528 -206.83463) scale(0.996264)"/>
     <use xlink:href="#CMR17-6e" transform="translate(1083.446338 -206.83463) scale(0.996264)"/>
     <use xlink:href="#CMMI12-74" transform="translate(0 -296.394092) scale(0.996264)"/>
     <use xlink:href="#CMR17-3a" transform="translate(62.900339 -296.394092) scale(0.996264)"/>
     <use xlink:href="#CMR17-54" transform="translate(115.445406 -296.394092) scale(0.996264)"/>
     <use xlink:href="#CMR17-61" transform="translate(174.148031 -296.394092) scale(0.996264)"/>
     <use xlink:href="#CMR17-72" transform="translate(219.838508 -296.394092) scale(0.996264)"/>
     <use xlink:href="#CMR17-67" transform="translate(255.119276 -296.394092) scale(0.996264)"/>
     <use xlink:href="#CMR17-65" transform="translate(300.809753 -296.394092) scale(0.996264)"/>
     <use xlink:href="#CMR17-74" transform="translate(341.295414 -296.394092) scale(0.996264)"/>
     <use xlink:href="#CMR17-69" transform="translate(406.652148 -296.394092) scale(0.996264)"/>
     <use xlink:href="#CMR17-74" transform="translate(431.523206 -296.394092) scale(0.996264)"/>
     <use xlink:href="#CMR17-65" transform="translate(466.803974 -296.394092) scale(0.996264)"/>
     <use xlink:href="#CMR17-6d" transform="translate(507.289635 -296.394092) scale(0.996264)"/>
     <use xlink:href="#CMR17-69" transform="translate(614.285191 -296.394092) scale(0.996264)"/>
     <use xlink:href="#CMR17-6e" transform="translate(639.156249 -296.394092) scale(0.996264)"/>
     <use xlink:href="#CMR17-64" transform="translate(690.051619 -296.394092) scale(0.996264)"/>
     <use xlink:href="#CMR17-65" transform="translate(740.946989 -296.394092) scale(0.996264)"/>
     <use xlink:href="#CMR17-78" transform="translate(781.432649 -296.394092) scale(0.996264)"/>
    </g>
   </g>
  </g>
 </g>
</svg>
