<?xml version="1.0" encoding="utf-8" standalone="no"?>
<!DOCTYPE svg PUBLIC "-//W3C//DTD SVG 1.1//EN"
  "http://www.w3.org/Graphics/SVG/1.1/DTD/svg11.dtd">
<svg xmlns:xlink="http://www.w3.org/1999/xlink" width="572.4pt" height="125.28pt" viewBox="0 0 572.4 125.28" xmlns="http://www.w3.org/2000/svg" version="1.1">
 <metadata>
  <rdf:RDF xmlns:dc="http://purl.org/dc/elements/1.1/" xmlns:cc="http://creativecommons.org/ns#" xmlns:rdf="http://www.w3.org/1999/02/22-rdf-syntax-ns#">
   <cc:Work>
    <dc:type rdf:resource="http://purl.org/dc/dcmitype/StillImage"/>
    <dc:date>2025-11-30T11:51:22.700435</dc:date>
    <dc:format>image/svg+xml</dc:format>
    <dc:creator>
     <cc:Agent>
      <dc:title>Matplotlib v3.10.7, https://matplotlib.org/</dc:title>
     </cc:Agent>
    </dc:creator>
   </cc:Work>
  </rdf:RDF>
 </metadata>
 <defs>
  <style type="text/css">*{stroke-linejoin: round; stroke-linecap: butt}</style>
 </defs>
 <g id="figure_1">
  <g id="patch_1">
   <path d="M 0 125.28 
L 572.4 125.28 
L 572.4 0 
L 0 0 
L 0 125.28 
z
" style="fill: none; opacity: 0"/>
  </g>
  <g id="axes_1">
   <g id="text_1">
    <!-- $G_{\text{RIA}} : \text{Random Input Attack gain} \\  m : \text{Number of malicious users} \\  n : \text{Number of genuine users} \\  p : \text{True positive probability} \\  q : \text{False positive probability}$ -->
    <g transform="translate(141.67873 32.14071) scale(0.2 -0.2)">
     <defs>
      <path id="CMMI12-47" d="M 4774 4423 
C 4774 4480 4730 4480 4717 4480 
C 4704 4480 4678 4480 4627 4416 
L 4186 3889 
C 4154 3940 4026 4163 3776 4309 
C 3501 4480 3226 4480 3130 4480 
C 1760 4480 320 3095 320 1595 
C 320 546 1050 -128 2010 -128 
C 2470 -128 3053 25 3373 427 
C 3443 185 3584 12 3629 12 
C 3661 12 3667 32 3674 32 
C 3680 44 3731 270 3763 385 
L 3866 797 
C 3917 1009 3942 1099 3987 1291 
C 4051 1536 4064 1536 4416 1536 
C 4442 1536 4518 1536 4518 1666 
C 4518 1734 4454 1734 4435 1734 
C 4326 1734 4205 1734 4090 1734 
L 3744 1734 
C 3475 1734 3194 1734 2931 1734 
C 2874 1734 2797 1734 2797 1611 
C 2797 1542 2848 1542 2848 1536 
L 3008 1536 
C 3514 1536 3514 1489 3514 1402 
C 3514 1395 3392 751 3270 561 
C 3027 204 2522 57 2144 57 
C 1651 57 851 312 851 1410 
C 851 1836 1005 2808 1626 3526 
C 2029 3984 2624 4295 3187 4295 
C 3942 4295 4211 3655 4211 3071 
C 4211 2970 4186 2831 4186 2742 
C 4186 2685 4250 2685 4269 2685 
C 4339 2685 4346 2691 4371 2805 
L 4774 4423 
z
" transform="scale(0.015625)"/>
      <path id="CMR17-52" d="M 2509 2146 
C 3117 2268 3629 2676 3629 3186 
C 3629 3785 2950 4326 2054 4326 
L 333 4326 
L 333 4160 
C 774 4160 845 4160 845 3873 
L 845 415 
C 845 128 774 128 333 128 
L 333 -26 
C 518 -26 851 -26 1050 -26 
C 1248 -26 1581 -26 1766 -26 
L 1766 128 
C 1325 128 1254 128 1254 417 
L 1254 2112 
L 2003 2112 
C 2368 2112 2573 1964 2662 1881 
C 2918 1632 2918 1459 2918 1024 
C 2918 595 2918 377 3110 160 
C 3354 -102 3680 -128 3821 -128 
C 4294 -128 4365 396 4365 503 
C 4365 540 4365 585 4307 585 
C 4256 585 4250 547 4250 522 
C 4218 112 4032 -26 3834 -26 
C 3482 -26 3443 375 3405 764 
C 3386 898 3373 993 3360 1133 
C 3322 1452 3270 1917 2509 2146 
z
M 1984 2214 
L 1254 2214 
L 1254 3913 
C 1254 4129 1267 4160 1523 4160 
L 1990 4160 
C 2522 4160 3142 3977 3142 3190 
C 3142 2372 2464 2214 1984 2214 
z
" transform="scale(0.015625)"/>
      <path id="CMR17-49" d="M 1261 3905 
C 1261 4192 1338 4192 1798 4192 
L 1798 4352 
C 1594 4352 1267 4352 1050 4352 
C 832 4352 506 4352 301 4352 
L 301 4192 
C 762 4192 838 4192 838 3905 
L 838 447 
C 838 160 762 160 301 160 
L 301 0 
C 506 0 832 0 1050 0 
C 1267 0 1594 0 1798 0 
L 1798 160 
C 1338 160 1261 160 1261 447 
L 1261 3905 
z
" transform="scale(0.015625)"/>
      <path id="CMR17-41" d="M 2323 4378 
C 2291 4461 2278 4480 2214 4480 
C 2150 4480 2138 4461 2106 4378 
L 749 566 
C 627 223 371 153 147 153 
L 147 -13 
C 262 0 518 0 640 0 
C 800 0 1056 0 1210 -13 
L 1210 153 
C 909 153 864 361 864 439 
C 864 497 877 530 890 569 
L 1229 1536 
L 2906 1536 
L 3290 442 
C 3322 365 3322 352 3322 327 
C 3322 153 3046 153 2925 153 
L 2925 0 
C 3110 0 3443 0 3642 0 
C 3808 0 4128 0 4282 -13 
L 4282 153 
C 3942 153 3827 153 3744 387 
L 2323 4378 
z
M 2067 3893 
L 2848 1702 
L 1286 1702 
L 2067 3893 
z
" transform="scale(0.015625)"/>
      <path id="CMR17-3a" d="M 1062 2491 
C 1062 2650 934 2752 800 2752 
C 672 2752 538 2650 538 2491 
C 538 2332 666 2230 800 2230 
C 928 2230 1062 2332 1062 2491 
z
M 1062 261 
C 1062 420 934 522 800 522 
C 672 522 538 420 538 261 
C 538 102 666 0 800 0 
C 928 0 1062 102 1062 261 
z
" transform="scale(0.015625)"/>
      <path id="CMR17-61" d="M 2304 1653 
C 2304 2072 2304 2294 2035 2543 
C 1798 2752 1523 2816 1306 2816 
C 800 2816 435 2407 435 1971 
C 435 1728 627 1728 666 1728 
C 749 1728 896 1778 896 1954 
C 896 2112 774 2181 666 2181 
C 640 2181 608 2174 589 2168 
C 723 2592 1069 2714 1293 2714 
C 1613 2714 1965 2429 1965 1885 
L 1965 1600 
C 1587 1600 1133 1549 774 1357 
C 371 1133 256 813 256 570 
C 256 77 832 -64 1171 -64 
C 1523 -64 1850 139 1990 511 
C 2003 233 2182 -18 2464 -18 
C 2598 -18 2938 70 2938 567 
L 2938 920 
L 2822 920 
L 2822 562 
C 2822 178 2650 128 2566 128 
C 2304 128 2304 458 2304 738 
L 2304 1653 
z
M 1965 870 
C 1965 317 1568 38 1216 38 
C 896 38 646 275 646 570 
C 646 761 730 1100 1101 1305 
C 1408 1478 1760 1504 1965 1504 
L 1965 870 
z
" transform="scale(0.015625)"/>
      <path id="CMR17-6e" d="M 2656 1933 
C 2656 2259 2592 2790 1837 2790 
C 1331 2790 1069 2400 973 2144 
L 966 2144 
L 966 2790 
L 211 2720 
L 211 2554 
C 589 2554 646 2515 646 2208 
L 646 428 
C 646 184 621 153 211 153 
L 211 -13 
C 365 0 646 0 813 0 
C 979 0 1267 0 1421 -13 
L 1421 153 
C 1011 153 986 178 986 428 
L 986 1658 
C 986 2247 1344 2688 1792 2688 
C 2266 2688 2317 2266 2317 1958 
L 2317 428 
C 2317 184 2291 153 1882 153 
L 1882 -13 
C 2035 0 2317 0 2483 0 
C 2650 0 2938 0 3091 -13 
L 3091 153 
C 2682 153 2656 178 2656 428 
L 2656 1933 
z
" transform="scale(0.015625)"/>
      <path id="CMR17-64" d="M 1869 4326 
L 1869 4160 
C 2246 4160 2304 4122 2304 3820 
L 2304 2345 
C 2278 2377 2016 2790 1498 2790 
C 845 2790 211 2208 211 1364 
C 211 525 806 -64 1434 -64 
C 1978 -64 2259 337 2291 380 
L 2291 -63 
L 3066 -63 
L 3066 128 
C 2688 128 2630 166 2630 473 
L 2630 4396 
L 1869 4326 
z
M 2291 755 
C 2291 563 2176 390 2029 262 
C 1811 70 1594 38 1472 38 
C 1286 38 621 134 621 1356 
C 621 2612 1363 2688 1530 2688 
C 1824 2688 2061 2522 2208 2291 
C 2291 2157 2291 2138 2291 2023 
L 2291 755 
z
" transform="scale(0.015625)"/>
      <path id="CMR17-6f" d="M 2758 1356 
C 2758 2176 2163 2816 1466 2816 
C 768 2816 173 2176 173 1356 
C 173 551 768 -64 1466 -64 
C 2163 -64 2758 551 2758 1356 
z
M 1466 51 
C 1165 51 909 230 762 480 
C 602 767 582 1126 582 1408 
C 582 1677 595 2010 762 2298 
C 890 2509 1139 2714 1466 2714 
C 1754 2714 1997 2554 2150 2330 
C 2349 2029 2349 1607 2349 1408 
C 2349 1158 2336 775 2163 467 
C 1984 173 1709 51 1466 51 
z
" transform="scale(0.015625)"/>
      <path id="CMR17-6d" d="M 4326 1933 
C 4326 2252 4269 2790 3507 2790 
C 3072 2790 2771 2496 2656 2151 
L 2650 2151 
C 2573 2676 2195 2790 1837 2790 
C 1331 2790 1069 2400 973 2144 
L 966 2144 
L 966 2790 
L 211 2720 
L 211 2554 
C 589 2554 646 2515 646 2208 
L 646 428 
C 646 184 621 153 211 153 
L 211 -13 
C 365 0 646 0 813 0 
C 979 0 1267 0 1421 -13 
L 1421 153 
C 1011 153 986 178 986 428 
L 986 1658 
C 986 2247 1344 2688 1792 2688 
C 2266 2688 2317 2266 2317 1958 
L 2317 428 
C 2317 184 2291 153 1882 153 
L 1882 -13 
C 2035 0 2317 0 2483 0 
C 2650 0 2938 0 3091 -13 
L 3091 153 
C 2682 153 2656 178 2656 428 
L 2656 1658 
C 2656 2247 3014 2688 3462 2688 
C 3936 2688 3987 2266 3987 1958 
L 3987 428 
C 3987 184 3962 153 3552 153 
L 3552 -13 
C 3706 0 3987 0 4154 0 
C 4320 0 4608 0 4762 -13 
L 4762 153 
C 4352 153 4326 178 4326 428 
L 4326 1933 
z
" transform="scale(0.015625)"/>
      <path id="CMR17-70" d="M 1408 -1063 
C 998 -1063 973 -1037 973 -789 
L 973 402 
C 1158 134 1427 -38 1766 -38 
C 2406 -38 3053 523 3053 1388 
C 3053 2191 2496 2802 1837 2802 
C 1453 2802 1139 2592 960 2338 
L 960 2802 
L 198 2732 
L 198 2567 
C 576 2567 634 2528 634 2223 
L 634 -789 
C 634 -1031 608 -1063 198 -1063 
L 198 -1228 
C 352 -1216 634 -1216 800 -1216 
C 966 -1216 1254 -1216 1408 -1228 
L 1408 -1063 
z
M 973 2012 
C 973 2102 973 2235 1222 2471 
C 1254 2497 1472 2688 1792 2688 
C 2259 2688 2643 2108 2643 1382 
C 2643 656 2234 64 1728 64 
C 1498 64 1248 172 1056 472 
C 973 612 973 650 973 752 
L 973 2012 
z
" transform="scale(0.015625)"/>
      <path id="CMR17-75" d="M 1882 2693 
L 1882 2528 
C 2259 2528 2317 2489 2317 2186 
L 2317 1032 
C 2317 500 2029 38 1555 38 
C 1030 38 986 348 986 678 
L 986 2763 
L 211 2693 
L 211 2528 
C 467 2528 640 2528 646 2274 
L 646 1058 
C 646 633 646 361 813 183 
C 896 101 1056 -64 1517 -64 
C 2061 -64 2272 377 2323 506 
L 2330 506 
L 2330 -63 
L 3091 -63 
L 3091 128 
C 2714 128 2656 166 2656 473 
L 2656 2763 
L 1882 2693 
z
" transform="scale(0.015625)"/>
      <path id="CMR17-74" d="M 966 2560 
L 1862 2560 
L 1862 2725 
L 966 2725 
L 966 3904 
L 851 3904 
C 838 3245 614 2668 70 2668 
L 70 2560 
L 627 2560 
L 627 771 
C 627 650 627 -64 1370 -64 
C 1747 -64 1965 306 1965 777 
L 1965 1140 
L 1850 1140 
L 1850 783 
C 1850 344 1677 51 1408 51 
C 1222 51 966 178 966 758 
L 966 2560 
z
" transform="scale(0.015625)"/>
      <path id="CMR17-63" d="M 2234 2240 
C 2112 2240 1933 2240 1933 2017 
C 1933 1838 2080 1787 2163 1787 
C 2208 1787 2394 1807 2394 2024 
C 2394 2467 1958 2803 1466 2803 
C 787 2803 211 2178 211 1363 
C 211 516 813 -64 1466 -64 
C 2259 -64 2458 677 2458 748 
C 2458 774 2451 793 2406 793 
C 2362 793 2355 787 2330 703 
C 2163 180 1798 51 1523 51 
C 1114 51 621 427 621 1369 
C 621 2338 1094 2688 1472 2688 
C 1722 2688 2093 2573 2234 2240 
z
" transform="scale(0.015625)"/>
      <path id="CMR17-6b" d="M 1670 1673 
C 1664 1686 1632 1724 1632 1743 
C 1632 1756 2086 2171 2144 2222 
C 2509 2528 2739 2560 2906 2560 
L 2906 2733 
C 2867 2733 2854 2733 2848 2720 
L 2534 2720 
C 2355 2720 2080 2720 1907 2733 
L 1907 2566 
C 1997 2559 2061 2508 2061 2419 
C 2061 2291 1933 2170 1926 2170 
L 960 1289 
L 960 4396 
L 198 4326 
L 198 4160 
C 576 4160 634 4122 634 3817 
L 634 426 
C 634 184 608 153 198 153 
L 198 -13 
C 352 0 634 0 794 0 
C 954 0 1235 0 1389 -13 
L 1389 153 
C 979 153 954 178 954 428 
L 954 1130 
L 1395 1532 
L 2042 574 
C 2118 459 2182 369 2182 286 
C 2182 172 2067 153 1990 153 
L 1990 -13 
C 2144 0 2419 0 2579 0 
C 2694 0 2931 0 3040 0 
L 3040 153 
C 2739 153 2669 210 2477 491 
L 1670 1673 
z
" transform="scale(0.015625)"/>
      <path id="CMR17-67" d="M 710 1164 
C 832 1068 1043 960 1299 960 
C 1805 960 2240 1357 2240 1888 
C 2240 2054 2189 2310 1997 2509 
C 2176 2692 2438 2752 2586 2752 
C 2611 2752 2650 2752 2682 2734 
C 2656 2728 2598 2703 2598 2605 
C 2598 2527 2656 2471 2739 2471 
C 2835 2471 2886 2533 2886 2614 
C 2886 2731 2790 2854 2586 2854 
C 2330 2854 2106 2738 1926 2580 
C 1734 2753 1504 2816 1299 2816 
C 794 2816 358 2419 358 1888 
C 358 1522 570 1292 634 1228 
C 442 1004 442 743 442 711 
C 442 545 506 302 723 168 
C 390 85 128 -169 128 -486 
C 128 -943 736 -1280 1466 -1280 
C 2170 -1280 2803 -956 2803 -479 
C 2803 384 1856 384 1363 384 
C 1216 384 954 384 922 391 
C 723 423 589 602 589 826 
C 589 883 589 1024 710 1164 
z
M 1299 1068 
C 736 1068 736 1760 736 1889 
C 736 2016 736 2708 1299 2708 
C 1862 2708 1862 2016 1862 1889 
C 1862 1760 1862 1068 1299 1068 
z
M 1466 -1171 
C 826 -1171 384 -835 384 -486 
C 384 -289 493 -105 634 -4 
C 794 104 858 104 1293 104 
C 1818 104 2547 104 2547 -486 
C 2547 -835 2106 -1171 1466 -1171 
z
" transform="scale(0.015625)"/>
      <path id="CMR17-69" d="M 992 3909 
C 992 4049 877 4170 730 4170 
C 589 4170 467 4056 467 3909 
C 467 3769 582 3648 730 3648 
C 870 3648 992 3763 992 3909 
z
M 243 2706 
L 243 2541 
C 602 2541 653 2502 653 2197 
L 653 427 
C 653 184 627 153 218 153 
L 218 -13 
C 371 0 646 0 806 0 
C 960 0 1222 0 1370 -13 
L 1370 153 
C 992 153 979 191 979 420 
L 979 2776 
L 243 2706 
z
" transform="scale(0.015625)"/>
      <path id="CMMI12-6d" d="M 1318 1871 
C 1331 1910 1491 2229 1728 2433 
C 1894 2586 2112 2689 2362 2689 
C 2618 2689 2707 2497 2707 2242 
C 2707 2203 2707 2076 2630 1775 
L 2470 1118 
C 2419 926 2298 453 2285 383 
C 2259 287 2221 121 2221 96 
C 2221 6 2291 -64 2387 -64 
C 2579 -64 2611 83 2669 313 
L 3053 1839 
C 3066 1890 3398 2689 4102 2689 
C 4358 2689 4448 2497 4448 2242 
C 4448 1884 4198 1188 4058 805 
C 4000 651 3968 568 3968 453 
C 3968 166 4166 -64 4474 -64 
C 5069 -64 5293 875 5293 913 
C 5293 945 5267 971 5229 971 
C 5171 971 5165 952 5133 843 
C 4986 332 4749 64 4493 64 
C 4429 64 4326 64 4326 269 
C 4326 436 4403 640 4429 710 
C 4544 1018 4832 1773 4832 2145 
C 4832 2528 4608 2816 4122 2816 
C 3693 2816 3347 2574 3091 2197 
C 3072 2542 2861 2816 2381 2816 
C 1811 2816 1510 2415 1395 2255 
C 1376 2618 1114 2816 832 2816 
C 646 2816 499 2727 378 2484 
C 262 2254 173 1865 173 1839 
C 173 1814 198 1782 243 1782 
C 294 1782 301 1788 339 1935 
C 435 2312 557 2689 813 2689 
C 960 2689 1011 2586 1011 2395 
C 1011 2254 947 2005 902 1807 
L 723 1118 
C 698 996 627 709 595 594 
C 550 428 480 128 480 96 
C 480 6 550 -64 646 -64 
C 723 -64 813 -26 864 70 
C 877 102 934 326 966 453 
L 1107 1028 
L 1318 1871 
z
" transform="scale(0.015625)"/>
      <path id="CMR17-4e" d="M 1312 4250 
C 1267 4320 1261 4320 1139 4320 
L 326 4320 
L 326 4160 
L 448 4160 
C 704 4160 819 4129 838 4122 
L 838 610 
C 838 451 838 153 326 153 
L 326 -13 
C 474 0 742 0 902 0 
C 1062 0 1331 0 1478 -13 
L 1478 153 
C 966 153 966 451 966 610 
L 966 4033 
C 1011 3995 1011 3982 1056 3919 
L 3430 76 
C 3475 0 3494 0 3526 0 
C 3590 0 3590 19 3590 139 
L 3590 3705 
C 3590 3863 3590 4160 4102 4160 
L 4102 4326 
C 3955 4320 3686 4320 3526 4320 
C 3366 4320 3098 4320 2950 4326 
L 2950 4160 
C 3462 4160 3462 3862 3462 3703 
L 3462 763 
L 1312 4250 
z
" transform="scale(0.015625)"/>
      <path id="CMR17-62" d="M 960 4396 
L 198 4326 
L 198 4160 
C 576 4160 634 4122 634 3817 
L 634 -13 
L 749 -13 
L 934 441 
C 1120 141 1395 -64 1766 -64 
C 2406 -64 3053 500 3053 1370 
C 3053 2188 2477 2790 1830 2790 
C 1434 2790 1152 2579 960 2330 
L 960 4396 
z
M 973 2004 
C 973 2118 973 2138 1062 2272 
C 1312 2657 1670 2688 1792 2688 
C 1984 2688 2643 2585 2643 1376 
C 2643 108 1888 38 1734 38 
C 1536 38 1248 114 1043 486 
C 973 608 973 621 973 735 
L 973 2004 
z
" transform="scale(0.015625)"/>
      <path id="CMR17-65" d="M 2438 1472 
C 2464 1498 2464 1511 2464 1576 
C 2464 2238 2118 2816 1389 2816 
C 710 2816 173 2169 173 1383 
C 173 551 781 -64 1459 -64 
C 2176 -64 2458 607 2458 740 
C 2458 784 2419 784 2406 784 
C 2362 784 2355 771 2330 696 
C 2189 265 1837 51 1504 51 
C 1229 51 954 203 781 480 
C 582 803 582 1176 582 1472 
L 2438 1472 
z
M 589 1568 
C 634 2505 1126 2714 1382 2714 
C 1818 2714 2112 2297 2118 1568 
L 589 1568 
z
" transform="scale(0.015625)"/>
      <path id="CMR17-72" d="M 960 1497 
C 960 2112 1222 2688 1702 2688 
C 1747 2688 1792 2682 1837 2662 
C 1837 2662 1696 2617 1696 2452 
C 1696 2298 1818 2234 1914 2234 
C 1990 2234 2131 2279 2131 2458 
C 2131 2663 1926 2790 1709 2790 
C 1222 2790 1011 2317 947 2093 
L 941 2093 
L 941 2790 
L 198 2720 
L 198 2554 
C 576 2554 634 2515 634 2208 
L 634 428 
C 634 184 608 153 198 153 
L 198 -13 
C 352 0 646 0 813 0 
C 998 0 1325 0 1498 -13 
L 1498 153 
C 1037 153 960 153 960 440 
L 960 1497 
z
" transform="scale(0.015625)"/>
      <path id="CMR17-66" d="M 979 2560 
L 1709 2560 
L 1709 2725 
L 966 2725 
L 966 3494 
C 966 4022 1235 4352 1510 4352 
C 1594 4352 1690 4327 1754 4282 
C 1702 4269 1568 4225 1568 4067 
C 1568 3901 1696 3850 1786 3850 
C 1875 3850 2003 3901 2003 4067 
C 2003 4308 1773 4454 1517 4454 
C 1152 4454 653 4156 653 3481 
L 653 2725 
L 141 2725 
L 141 2560 
L 653 2560 
L 653 427 
C 653 184 627 153 218 153 
L 218 -13 
C 371 0 666 0 832 0 
C 1018 0 1344 0 1517 -13 
L 1517 153 
C 1056 153 979 153 979 439 
L 979 2560 
z
" transform="scale(0.015625)"/>
      <path id="CMR17-6c" d="M 979 4396 
L 218 4326 
L 218 4160 
C 595 4160 653 4122 653 3817 
L 653 426 
C 653 184 627 153 218 153 
L 218 -13 
C 371 0 653 0 813 0 
C 979 0 1261 0 1414 -13 
L 1414 153 
C 1005 153 979 178 979 426 
L 979 4396 
z
" transform="scale(0.015625)"/>
      <path id="CMR17-73" d="M 1978 2697 
C 1978 2813 1971 2819 1933 2819 
C 1907 2819 1901 2813 1824 2717 
C 1805 2691 1747 2626 1728 2601 
C 1523 2819 1235 2819 1126 2819 
C 416 2819 160 2447 160 2076 
C 160 1498 813 1365 998 1325 
C 1402 1243 1542 1217 1677 1101 
C 1760 1025 1901 884 1901 654 
C 1901 384 1747 38 1158 38 
C 602 38 403 460 288 1021 
C 269 1110 269 1117 218 1117 
C 166 1117 160 1110 160 983 
L 160 63 
C 160 -51 166 -58 205 -58 
C 237 -58 243 -51 275 0 
C 314 57 410 211 448 276 
C 576 103 800 -64 1158 -64 
C 1792 -64 2131 283 2131 784 
C 2131 1112 1958 1285 1875 1362 
C 1683 1561 1459 1606 1190 1657 
C 838 1735 390 1825 390 2217 
C 390 2383 480 2737 1126 2737 
C 1811 2737 1850 2094 1862 1888 
C 1869 1856 1901 1849 1920 1849 
C 1978 1849 1978 1869 1978 1978 
L 1978 2697 
z
" transform="scale(0.015625)"/>
      <path id="CMMI12-6e" d="M 1318 1871 
C 1331 1910 1491 2229 1728 2433 
C 1894 2586 2112 2689 2362 2689 
C 2618 2689 2707 2497 2707 2242 
C 2707 1878 2445 1150 2317 805 
C 2259 651 2227 568 2227 453 
C 2227 166 2426 -64 2733 -64 
C 3328 -64 3552 875 3552 913 
C 3552 945 3526 971 3488 971 
C 3430 971 3424 952 3392 843 
C 3245 319 3002 64 2752 64 
C 2688 64 2586 64 2586 269 
C 2586 429 2656 621 2694 710 
C 2822 1063 3091 1780 3091 2145 
C 3091 2528 2867 2816 2381 2816 
C 1811 2816 1510 2415 1395 2255 
C 1376 2618 1114 2816 832 2816 
C 627 2816 486 2695 378 2478 
C 262 2248 173 1865 173 1839 
C 173 1814 198 1782 243 1782 
C 294 1782 301 1788 339 1935 
C 442 2325 557 2689 813 2689 
C 960 2689 1011 2586 1011 2395 
C 1011 2254 947 2005 902 1807 
L 723 1118 
C 698 996 627 709 595 594 
C 550 428 480 128 480 96 
C 480 6 550 -64 646 -64 
C 723 -64 813 -26 864 70 
C 877 102 934 326 966 453 
L 1107 1028 
L 1318 1871 
z
" transform="scale(0.015625)"/>
      <path id="CMMI12-70" d="M 275 -789 
C 230 -980 205 -1031 -58 -1031 
C -134 -1031 -198 -1031 -198 -1152 
C -198 -1165 -192 -1216 -122 -1216 
C -38 -1216 51 -1216 134 -1216 
L 410 -1216 
C 544 -1216 870 -1216 1005 -1216 
C 1043 -1216 1120 -1216 1120 -1101 
C 1120 -1031 1075 -1031 966 -1031 
C 672 -1031 653 -987 653 -937 
C 653 -861 941 219 979 364 
C 1050 185 1222 -64 1555 -64 
C 2278 -64 3059 875 3059 1814 
C 3059 2401 2726 2816 2246 2816 
C 1837 2816 1491 2420 1421 2331 
C 1370 2650 1120 2816 864 2816 
C 678 2816 531 2727 410 2484 
C 294 2254 205 1865 205 1839 
C 205 1814 230 1782 275 1782 
C 326 1782 333 1788 371 1935 
C 467 2312 589 2689 845 2689 
C 992 2689 1043 2587 1043 2397 
C 1043 2245 1024 2181 998 2067 
L 275 -789 
z
M 1382 1993 
C 1427 2171 1606 2357 1709 2446 
C 1779 2510 1990 2689 2234 2689 
C 2515 2689 2643 2408 2643 2076 
C 2643 1769 2464 1047 2304 715 
C 2144 370 1850 64 1555 64 
C 1120 64 1050 613 1050 639 
C 1050 658 1062 709 1069 741 
L 1382 1993 
z
" transform="scale(0.015625)"/>
      <path id="CMR17-54" d="M 3981 4326 
L 288 4326 
L 179 2918 
L 294 2918 
C 378 3976 467 4160 1453 4160 
C 1568 4160 1754 4160 1805 4154 
C 1926 4135 1926 4058 1926 3912 
L 1926 459 
C 1926 230 1907 160 1376 160 
L 1197 160 
L 1197 0 
C 1504 0 1824 0 2138 0 
C 2451 0 2771 0 3078 0 
L 3078 160 
L 2899 160 
C 2368 160 2349 230 2349 459 
L 2349 3912 
C 2349 4052 2349 4129 2464 4154 
C 2515 4160 2701 4160 2816 4160 
C 3795 4160 3891 3976 3974 2918 
L 4090 2918 
L 3981 4326 
z
" transform="scale(0.015625)"/>
      <path id="CMR17-76" d="M 2502 2163 
C 2560 2304 2662 2560 3034 2560 
L 3034 2726 
C 2912 2726 2752 2726 2630 2726 
C 2496 2726 2285 2726 2157 2732 
L 2157 2566 
C 2317 2553 2406 2477 2406 2311 
C 2406 2253 2406 2240 2368 2151 
L 1664 377 
L 902 2286 
C 864 2369 864 2381 864 2407 
C 864 2560 1075 2560 1171 2560 
L 1171 2732 
C 1018 2726 736 2726 576 2726 
C 403 2726 205 2726 64 2732 
L 64 2560 
C 307 2560 442 2560 518 2362 
L 1446 44 
C 1485 -51 1491 -64 1549 -64 
C 1606 -64 1613 -51 1651 44 
L 2502 2163 
z
" transform="scale(0.015625)"/>
      <path id="CMR17-79" d="M 2496 2197 
C 2656 2586 2944 2586 3034 2586 
L 3034 2752 
C 2912 2752 2752 2752 2630 2752 
C 2496 2752 2285 2752 2157 2758 
L 2157 2592 
C 2400 2573 2406 2394 2406 2343 
C 2406 2280 2394 2248 2362 2171 
L 1664 449 
L 902 2306 
C 870 2382 870 2426 870 2433 
C 870 2573 1018 2586 1171 2586 
L 1171 2758 
C 1018 2752 742 2752 582 2752 
C 410 2752 205 2752 64 2758 
L 64 2586 
C 410 2586 448 2554 531 2350 
L 1485 15 
C 1197 -738 1030 -1178 627 -1178 
C 557 -1178 397 -1159 282 -1044 
C 429 -1031 493 -942 493 -833 
C 493 -725 416 -629 288 -629 
C 147 -629 77 -725 77 -840 
C 77 -1095 339 -1280 627 -1280 
C 998 -1280 1229 -922 1357 -604 
L 2496 2197 
z
" transform="scale(0.015625)"/>
      <path id="CMMI12-71" d="M 2822 2759 
C 2822 2790 2797 2816 2765 2816 
C 2714 2816 2464 2585 2342 2362 
C 2227 2646 2029 2816 1754 2816 
C 1030 2816 250 1884 250 939 
C 250 307 621 -64 1056 -64 
C 1395 -64 1677 193 1811 339 
L 1818 333 
L 1574 -615 
L 1517 -842 
C 1459 -1031 1363 -1031 1062 -1031 
C 992 -1031 928 -1031 928 -1152 
C 928 -1197 966 -1216 1011 -1216 
C 1101 -1216 1216 -1216 1306 -1216 
L 1958 -1216 
C 2054 -1216 2163 -1216 2259 -1216 
C 2298 -1216 2374 -1216 2374 -1095 
C 2374 -1031 2323 -1031 2227 -1031 
C 1926 -1031 1907 -986 1907 -935 
C 1907 -904 1914 -898 1933 -815 
L 2822 2759 
z
M 1920 762 
C 1888 652 1888 640 1798 518 
C 1658 339 1376 64 1075 64 
C 813 64 666 301 666 678 
C 666 1030 864 1747 986 2016 
C 1203 2464 1504 2695 1754 2695 
C 2176 2695 2259 2170 2259 2119 
C 2259 2113 2240 2028 2234 2016 
L 1920 762 
z
" transform="scale(0.015625)"/>
      <path id="CMR17-46" d="M 3482 4325 
L 326 4325 
L 326 4160 
C 768 4160 838 4160 838 3874 
L 838 446 
C 838 160 768 160 326 160 
L 326 0 
C 512 0 870 0 1069 0 
C 1331 0 1638 0 1901 0 
L 1901 160 
L 1760 160 
C 1274 160 1261 223 1261 452 
L 1261 2075 
L 1837 2075 
C 2432 2075 2490 1865 2490 1332 
L 2605 1332 
L 2605 2987 
L 2490 2987 
C 2490 2450 2432 2240 1837 2240 
L 1261 2240 
L 1261 3911 
C 1261 4128 1274 4160 1530 4160 
L 2355 4160 
C 3322 4160 3430 3765 3520 2916 
L 3635 2916 
L 3482 4325 
z
" transform="scale(0.015625)"/>
     </defs>
     <use xlink:href="#CMMI12-47" transform="translate(14.94396 0) scale(0.996264)"/>
     <use xlink:href="#CMR17-52" transform="translate(91.890822 -14.943915) scale(0.697382)"/>
     <use xlink:href="#CMR17-49" transform="translate(139.344387 -14.943915) scale(0.697382)"/>
     <use xlink:href="#CMR17-41" transform="translate(162.191176 -14.943915) scale(0.697382)"/>
     <use xlink:href="#CMR17-3a" transform="translate(238.713802 0) scale(0.996264)"/>
     <use xlink:href="#CMR17-52" transform="translate(291.258869 0) scale(0.996264)"/>
     <use xlink:href="#CMR17-61" transform="translate(359.049971 0) scale(0.996264)"/>
     <use xlink:href="#CMR17-6e" transform="translate(404.740448 0) scale(0.996264)"/>
     <use xlink:href="#CMR17-64" transform="translate(455.635818 0) scale(0.996264)"/>
     <use xlink:href="#CMR17-6f" transform="translate(506.531187 0) scale(0.996264)"/>
     <use xlink:href="#CMR17-6d" transform="translate(552.221664 0) scale(0.996264)"/>
     <use xlink:href="#CMR17-49" transform="translate(659.217221 0) scale(0.996264)"/>
     <use xlink:href="#CMR17-6e" transform="translate(691.85563 0) scale(0.996264)"/>
     <use xlink:href="#CMR17-70" transform="translate(742.751 0) scale(0.996264)"/>
     <use xlink:href="#CMR17-75" transform="translate(793.646369 0) scale(0.996264)"/>
     <use xlink:href="#CMR17-74" transform="translate(844.541739 0) scale(0.996264)"/>
     <use xlink:href="#CMR17-41" transform="translate(909.898473 0) scale(0.996264)"/>
     <use xlink:href="#CMR17-74" transform="translate(976.368449 0) scale(0.996264)"/>
     <use xlink:href="#CMR17-74" transform="translate(1011.649217 0) scale(0.996264)"/>
     <use xlink:href="#CMR17-61" transform="translate(1046.929985 0) scale(0.996264)"/>
     <use xlink:href="#CMR17-63" transform="translate(1092.620462 0) scale(0.996264)"/>
     <use xlink:href="#CMR17-6b" transform="translate(1130.503668 0) scale(0.996264)"/>
     <use xlink:href="#CMR17-67" transform="translate(1208.872551 0) scale(0.996264)"/>
     <use xlink:href="#CMR17-61" transform="translate(1254.563028 0) scale(0.996264)"/>
     <use xlink:href="#CMR17-69" transform="translate(1300.253505 0) scale(0.996264)"/>
     <use xlink:href="#CMR17-6e" transform="translate(1325.124563 0) scale(0.996264)"/>
     <use xlink:href="#CMMI12-6d" transform="translate(0 -89.559461) scale(0.996264)"/>
     <use xlink:href="#CMR17-3a" transform="translate(113.001233 -89.559461) scale(0.996264)"/>
     <use xlink:href="#CMR17-4e" transform="translate(165.5463 -89.559461) scale(0.996264)"/>
     <use xlink:href="#CMR17-75" transform="translate(234.61873 -89.559461) scale(0.996264)"/>
     <use xlink:href="#CMR17-6d" transform="translate(285.5141 -89.559461) scale(0.996264)"/>
     <use xlink:href="#CMR17-62" transform="translate(359.831236 -89.559461) scale(0.996264)"/>
     <use xlink:href="#CMR17-65" transform="translate(413.329044 -89.559461) scale(0.996264)"/>
     <use xlink:href="#CMR17-72" transform="translate(453.814705 -89.559461) scale(0.996264)"/>
     <use xlink:href="#CMR17-6f" transform="translate(519.171439 -89.559461) scale(0.996264)"/>
     <use xlink:href="#CMR17-66" transform="translate(564.861916 -89.559461) scale(0.996264)"/>
     <use xlink:href="#CMR17-6d" transform="translate(622.411395 -89.559461) scale(0.996264)"/>
     <use xlink:href="#CMR17-61" transform="translate(699.330985 -89.559461) scale(0.996264)"/>
     <use xlink:href="#CMR17-6c" transform="translate(745.021462 -89.559461) scale(0.996264)"/>
     <use xlink:href="#CMR17-69" transform="translate(769.89252 -89.559461) scale(0.996264)"/>
     <use xlink:href="#CMR17-63" transform="translate(794.763579 -89.559461) scale(0.996264)"/>
     <use xlink:href="#CMR17-69" transform="translate(835.249239 -89.559461) scale(0.996264)"/>
     <use xlink:href="#CMR17-6f" transform="translate(860.120298 -89.559461) scale(0.996264)"/>
     <use xlink:href="#CMR17-75" transform="translate(905.810775 -89.559461) scale(0.996264)"/>
     <use xlink:href="#CMR17-73" transform="translate(956.706145 -89.559461) scale(0.996264)"/>
     <use xlink:href="#CMR17-75" transform="translate(1022.583449 -89.559461) scale(0.996264)"/>
     <use xlink:href="#CMR17-73" transform="translate(1073.478818 -89.559461) scale(0.996264)"/>
     <use xlink:href="#CMR17-65" transform="translate(1109.280156 -89.559461) scale(0.996264)"/>
     <use xlink:href="#CMR17-72" transform="translate(1149.765817 -89.559461) scale(0.996264)"/>
     <use xlink:href="#CMR17-73" transform="translate(1185.046584 -89.559461) scale(0.996264)"/>
     <use xlink:href="#CMMI12-6e" transform="translate(0 -159.74074) scale(0.996264)"/>
     <use xlink:href="#CMR17-3a" transform="translate(85.904056 -159.74074) scale(0.996264)"/>
     <use xlink:href="#CMR17-4e" transform="translate(138.449123 -159.74074) scale(0.996264)"/>
     <use xlink:href="#CMR17-75" transform="translate(207.521553 -159.74074) scale(0.996264)"/>
     <use xlink:href="#CMR17-6d" transform="translate(258.416923 -159.74074) scale(0.996264)"/>
     <use xlink:href="#CMR17-62" transform="translate(332.734059 -159.74074) scale(0.996264)"/>
     <use xlink:href="#CMR17-65" transform="translate(386.231867 -159.74074) scale(0.996264)"/>
     <use xlink:href="#CMR17-72" transform="translate(426.717528 -159.74074) scale(0.996264)"/>
     <use xlink:href="#CMR17-6f" transform="translate(492.074262 -159.74074) scale(0.996264)"/>
     <use xlink:href="#CMR17-66" transform="translate(537.764739 -159.74074) scale(0.996264)"/>
     <use xlink:href="#CMR17-67" transform="translate(595.314218 -159.74074) scale(0.996264)"/>
     <use xlink:href="#CMR17-65" transform="translate(641.004695 -159.74074) scale(0.996264)"/>
     <use xlink:href="#CMR17-6e" transform="translate(681.490355 -159.74074) scale(0.996264)"/>
     <use xlink:href="#CMR17-75" transform="translate(729.783271 -159.74074) scale(0.996264)"/>
     <use xlink:href="#CMR17-69" transform="translate(780.678641 -159.74074) scale(0.996264)"/>
     <use xlink:href="#CMR17-6e" transform="translate(805.549699 -159.74074) scale(0.996264)"/>
     <use xlink:href="#CMR17-65" transform="translate(856.445069 -159.74074) scale(0.996264)"/>
     <use xlink:href="#CMR17-75" transform="translate(927.006696 -159.74074) scale(0.996264)"/>
     <use xlink:href="#CMR17-73" transform="translate(977.902066 -159.74074) scale(0.996264)"/>
     <use xlink:href="#CMR17-65" transform="translate(1013.703403 -159.74074) scale(0.996264)"/>
     <use xlink:href="#CMR17-72" transform="translate(1054.189064 -159.74074) scale(0.996264)"/>
     <use xlink:href="#CMR17-73" transform="translate(1089.469832 -159.74074) scale(0.996264)"/>
     <use xlink:href="#CMMI12-70" transform="translate(0 -249.300201) scale(0.996264)"/>
     <use xlink:href="#CMR17-3a" transform="translate(76.633523 -249.300201) scale(0.996264)"/>
     <use xlink:href="#CMR17-54" transform="translate(129.17859 -249.300201) scale(0.996264)"/>
     <use xlink:href="#CMR17-72" transform="translate(187.881215 -249.300201) scale(0.996264)"/>
     <use xlink:href="#CMR17-75" transform="translate(223.161983 -249.300201) scale(0.996264)"/>
     <use xlink:href="#CMR17-65" transform="translate(274.057353 -249.300201) scale(0.996264)"/>
     <use xlink:href="#CMR17-70" transform="translate(344.618979 -249.300201) scale(0.996264)"/>
     <use xlink:href="#CMR17-6f" transform="translate(398.116788 -249.300201) scale(0.996264)"/>
     <use xlink:href="#CMR17-73" transform="translate(443.807265 -249.300201) scale(0.996264)"/>
     <use xlink:href="#CMR17-69" transform="translate(479.608603 -249.300201) scale(0.996264)"/>
     <use xlink:href="#CMR17-74" transform="translate(504.479661 -249.300201) scale(0.996264)"/>
     <use xlink:href="#CMR17-69" transform="translate(539.760429 -249.300201) scale(0.996264)"/>
     <use xlink:href="#CMR17-76" transform="translate(564.631488 -249.300201) scale(0.996264)"/>
     <use xlink:href="#CMR17-65" transform="translate(610.321949 -249.300201) scale(0.996264)"/>
     <use xlink:href="#CMR17-70" transform="translate(680.883576 -249.300201) scale(0.996264)"/>
     <use xlink:href="#CMR17-72" transform="translate(731.778946 -249.300201) scale(0.996264)"/>
     <use xlink:href="#CMR17-6f" transform="translate(767.059714 -249.300201) scale(0.996264)"/>
     <use xlink:href="#CMR17-62" transform="translate(812.750191 -249.300201) scale(0.996264)"/>
     <use xlink:href="#CMR17-61" transform="translate(863.645561 -249.300201) scale(0.996264)"/>
     <use xlink:href="#CMR17-62" transform="translate(909.336038 -249.300201) scale(0.996264)"/>
     <use xlink:href="#CMR17-69" transform="translate(960.231408 -249.300201) scale(0.996264)"/>
     <use xlink:href="#CMR17-6c" transform="translate(985.102466 -249.300201) scale(0.996264)"/>
     <use xlink:href="#CMR17-69" transform="translate(1009.973525 -249.300201) scale(0.996264)"/>
     <use xlink:href="#CMR17-74" transform="translate(1034.844583 -249.300201) scale(0.996264)"/>
     <use xlink:href="#CMR17-79" transform="translate(1067.522897 -249.300201) scale(0.996264)"/>
     <use xlink:href="#CMMI12-71" transform="translate(0 -338.859663) scale(0.996264)"/>
     <use xlink:href="#CMR17-3a" transform="translate(74.500333 -338.859663) scale(0.996264)"/>
     <use xlink:href="#CMR17-46" transform="translate(127.0454 -338.859663) scale(0.996264)"/>
     <use xlink:href="#CMR17-61" transform="translate(179.221991 -338.859663) scale(0.996264)"/>
     <use xlink:href="#CMR17-6c" transform="translate(224.912468 -338.859663) scale(0.996264)"/>
     <use xlink:href="#CMR17-73" transform="translate(249.783527 -338.859663) scale(0.996264)"/>
     <use xlink:href="#CMR17-65" transform="translate(285.584864 -338.859663) scale(0.996264)"/>
     <use xlink:href="#CMR17-70" transform="translate(356.146491 -338.859663) scale(0.996264)"/>
     <use xlink:href="#CMR17-6f" transform="translate(409.6443 -338.859663) scale(0.996264)"/>
     <use xlink:href="#CMR17-73" transform="translate(455.334777 -338.859663) scale(0.996264)"/>
     <use xlink:href="#CMR17-69" transform="translate(491.136114 -338.859663) scale(0.996264)"/>
     <use xlink:href="#CMR17-74" transform="translate(516.007173 -338.859663) scale(0.996264)"/>
     <use xlink:href="#CMR17-69" transform="translate(551.287941 -338.859663) scale(0.996264)"/>
     <use xlink:href="#CMR17-76" transform="translate(576.158999 -338.859663) scale(0.996264)"/>
     <use xlink:href="#CMR17-65" transform="translate(621.849461 -338.859663) scale(0.996264)"/>
     <use xlink:href="#CMR17-70" transform="translate(692.411088 -338.859663) scale(0.996264)"/>
     <use xlink:href="#CMR17-72" transform="translate(743.306458 -338.859663) scale(0.996264)"/>
     <use xlink:href="#CMR17-6f" transform="translate(778.587225 -338.859663) scale(0.996264)"/>
     <use xlink:href="#CMR17-62" transform="translate(824.277703 -338.859663) scale(0.996264)"/>
     <use xlink:href="#CMR17-61" transform="translate(875.173072 -338.859663) scale(0.996264)"/>
     <use xlink:href="#CMR17-62" transform="translate(920.863549 -338.859663) scale(0.996264)"/>
     <use xlink:href="#CMR17-69" transform="translate(971.758919 -338.859663) scale(0.996264)"/>
     <use xlink:href="#CMR17-6c" transform="translate(996.629978 -338.859663) scale(0.996264)"/>
     <use xlink:href="#CMR17-69" transform="translate(1021.501036 -338.859663) scale(0.996264)"/>
     <use xlink:href="#CMR17-74" transform="translate(1046.372095 -338.859663) scale(0.996264)"/>
     <use xlink:href="#CMR17-79" transform="translate(1079.050409 -338.859663) scale(0.996264)"/>
    </g>
   </g>
  </g>
 </g>
</svg>
