<?xml version="1.0" encoding="utf-8" standalone="no"?>
<!DOCTYPE svg PUBLIC "-//W3C//DTD SVG 1.1//EN"
  "http://www.w3.org/Graphics/SVG/1.1/DTD/svg11.dtd">
<svg xmlns:xlink="http://www.w3.org/1999/xlink" width="572.4pt" height="136.05956pt" viewBox="0 0 572.4 136.05956" xmlns="http://www.w3.org/2000/svg" version="1.1">
 <metadata>
  <rdf:RDF xmlns:dc="http://purl.org/dc/elements/1.1/" xmlns:cc="http://creativecommons.org/ns#" xmlns:rdf="http://www.w3.org/1999/02/22-rdf-syntax-ns#">
   <cc:Work>
    <dc:type rdf:resource="http://purl.org/dc/dcmitype/StillImage"/>
    <dc:date>2025-11-30T11:51:25.174487</dc:date>
    <dc:format>image/svg+xml</dc:format>
    <dc:creator>
     <cc:Agent>
      <dc:title>Matplotlib v3.10.7, https://matplotlib.org/</dc:title>
     </cc:Agent>
    </dc:creator>
   </cc:Work>
  </rdf:RDF>
 </metadata>
 <defs>
  <style type="text/css">*{stroke-linejoin: round; stroke-linecap: butt}</style>
 </defs>
 <g id="figure_1">
  <g id="patch_1">
   <path d="M 0 136.05956 
L 572.4 136.05956 
L 572.4 0 
L 0 0 
L 0 136.05956 
z
" style="fill: none; opacity: 0"/>
  </g>
  <g id="axes_1">
   <g id="text_1">
    <!-- $\Pr : \text{Probability} \\  y = (H, a) : \text{Perturbed output tuple} \\  H : \text{Hash function} \\  a : \text{Hash output value} \\  v : \text{User's true value} \\  d' : \text{Hash domain size} \\  p, q : \text{Perturbation probabilities}$ -->
    <g transform="translate(142.140393 21.036997) scale(0.2 -0.2)">
     <defs>
      <path id="CMR17-50" d="M 1267 2042 
L 2291 2042 
C 3117 2042 3718 2578 3718 3184 
C 3718 3791 3130 4352 2291 4352 
L 333 4352 
L 333 4186 
C 774 4186 845 4186 845 3899 
L 845 446 
C 845 160 774 160 333 160 
L 333 0 
C 518 0 858 0 1056 0 
C 1254 0 1594 0 1779 0 
L 1779 160 
C 1338 160 1267 160 1267 446 
L 1267 2042 
z
M 1254 2176 
L 1254 3938 
C 1254 4155 1267 4186 1523 4186 
L 2170 4186 
C 2995 4186 3232 3714 3232 3184 
C 3232 2604 2950 2176 2170 2176 
L 1254 2176 
z
" transform="scale(0.015625)"/>
      <path id="CMR17-72" d="M 960 1497 
C 960 2112 1222 2688 1702 2688 
C 1747 2688 1792 2682 1837 2662 
C 1837 2662 1696 2617 1696 2452 
C 1696 2298 1818 2234 1914 2234 
C 1990 2234 2131 2279 2131 2458 
C 2131 2663 1926 2790 1709 2790 
C 1222 2790 1011 2317 947 2093 
L 941 2093 
L 941 2790 
L 198 2720 
L 198 2554 
C 576 2554 634 2515 634 2208 
L 634 428 
C 634 184 608 153 198 153 
L 198 -13 
C 352 0 646 0 813 0 
C 998 0 1325 0 1498 -13 
L 1498 153 
C 1037 153 960 153 960 440 
L 960 1497 
z
" transform="scale(0.015625)"/>
      <path id="CMR17-3a" d="M 1062 2491 
C 1062 2650 934 2752 800 2752 
C 672 2752 538 2650 538 2491 
C 538 2332 666 2230 800 2230 
C 928 2230 1062 2332 1062 2491 
z
M 1062 261 
C 1062 420 934 522 800 522 
C 672 522 538 420 538 261 
C 538 102 666 0 800 0 
C 928 0 1062 102 1062 261 
z
" transform="scale(0.015625)"/>
      <path id="CMR17-6f" d="M 2758 1356 
C 2758 2176 2163 2816 1466 2816 
C 768 2816 173 2176 173 1356 
C 173 551 768 -64 1466 -64 
C 2163 -64 2758 551 2758 1356 
z
M 1466 51 
C 1165 51 909 230 762 480 
C 602 767 582 1126 582 1408 
C 582 1677 595 2010 762 2298 
C 890 2509 1139 2714 1466 2714 
C 1754 2714 1997 2554 2150 2330 
C 2349 2029 2349 1607 2349 1408 
C 2349 1158 2336 775 2163 467 
C 1984 173 1709 51 1466 51 
z
" transform="scale(0.015625)"/>
      <path id="CMR17-62" d="M 960 4396 
L 198 4326 
L 198 4160 
C 576 4160 634 4122 634 3817 
L 634 -13 
L 749 -13 
L 934 441 
C 1120 141 1395 -64 1766 -64 
C 2406 -64 3053 500 3053 1370 
C 3053 2188 2477 2790 1830 2790 
C 1434 2790 1152 2579 960 2330 
L 960 4396 
z
M 973 2004 
C 973 2118 973 2138 1062 2272 
C 1312 2657 1670 2688 1792 2688 
C 1984 2688 2643 2585 2643 1376 
C 2643 108 1888 38 1734 38 
C 1536 38 1248 114 1043 486 
C 973 608 973 621 973 735 
L 973 2004 
z
" transform="scale(0.015625)"/>
      <path id="CMR17-61" d="M 2304 1653 
C 2304 2072 2304 2294 2035 2543 
C 1798 2752 1523 2816 1306 2816 
C 800 2816 435 2407 435 1971 
C 435 1728 627 1728 666 1728 
C 749 1728 896 1778 896 1954 
C 896 2112 774 2181 666 2181 
C 640 2181 608 2174 589 2168 
C 723 2592 1069 2714 1293 2714 
C 1613 2714 1965 2429 1965 1885 
L 1965 1600 
C 1587 1600 1133 1549 774 1357 
C 371 1133 256 813 256 570 
C 256 77 832 -64 1171 -64 
C 1523 -64 1850 139 1990 511 
C 2003 233 2182 -18 2464 -18 
C 2598 -18 2938 70 2938 567 
L 2938 920 
L 2822 920 
L 2822 562 
C 2822 178 2650 128 2566 128 
C 2304 128 2304 458 2304 738 
L 2304 1653 
z
M 1965 870 
C 1965 317 1568 38 1216 38 
C 896 38 646 275 646 570 
C 646 761 730 1100 1101 1305 
C 1408 1478 1760 1504 1965 1504 
L 1965 870 
z
" transform="scale(0.015625)"/>
      <path id="CMR17-69" d="M 992 3909 
C 992 4049 877 4170 730 4170 
C 589 4170 467 4056 467 3909 
C 467 3769 582 3648 730 3648 
C 870 3648 992 3763 992 3909 
z
M 243 2706 
L 243 2541 
C 602 2541 653 2502 653 2197 
L 653 427 
C 653 184 627 153 218 153 
L 218 -13 
C 371 0 646 0 806 0 
C 960 0 1222 0 1370 -13 
L 1370 153 
C 992 153 979 191 979 420 
L 979 2776 
L 243 2706 
z
" transform="scale(0.015625)"/>
      <path id="CMR17-6c" d="M 979 4396 
L 218 4326 
L 218 4160 
C 595 4160 653 4122 653 3817 
L 653 426 
C 653 184 627 153 218 153 
L 218 -13 
C 371 0 653 0 813 0 
C 979 0 1261 0 1414 -13 
L 1414 153 
C 1005 153 979 178 979 426 
L 979 4396 
z
" transform="scale(0.015625)"/>
      <path id="CMR17-74" d="M 966 2560 
L 1862 2560 
L 1862 2725 
L 966 2725 
L 966 3904 
L 851 3904 
C 838 3245 614 2668 70 2668 
L 70 2560 
L 627 2560 
L 627 771 
C 627 650 627 -64 1370 -64 
C 1747 -64 1965 306 1965 777 
L 1965 1140 
L 1850 1140 
L 1850 783 
C 1850 344 1677 51 1408 51 
C 1222 51 966 178 966 758 
L 966 2560 
z
" transform="scale(0.015625)"/>
      <path id="CMR17-79" d="M 2496 2197 
C 2656 2586 2944 2586 3034 2586 
L 3034 2752 
C 2912 2752 2752 2752 2630 2752 
C 2496 2752 2285 2752 2157 2758 
L 2157 2592 
C 2400 2573 2406 2394 2406 2343 
C 2406 2280 2394 2248 2362 2171 
L 1664 449 
L 902 2306 
C 870 2382 870 2426 870 2433 
C 870 2573 1018 2586 1171 2586 
L 1171 2758 
C 1018 2752 742 2752 582 2752 
C 410 2752 205 2752 64 2758 
L 64 2586 
C 410 2586 448 2554 531 2350 
L 1485 15 
C 1197 -738 1030 -1178 627 -1178 
C 557 -1178 397 -1159 282 -1044 
C 429 -1031 493 -942 493 -833 
C 493 -725 416 -629 288 -629 
C 147 -629 77 -725 77 -840 
C 77 -1095 339 -1280 627 -1280 
C 998 -1280 1229 -922 1357 -604 
L 2496 2197 
z
" transform="scale(0.015625)"/>
      <path id="CMMI12-79" d="M 1683 -700 
C 1510 -939 1261 -1152 947 -1152 
C 870 -1152 563 -1152 467 -889 
C 486 -895 518 -895 531 -895 
C 723 -895 851 -729 851 -582 
C 851 -435 730 -384 634 -384 
C 531 -384 307 -458 307 -759 
C 307 -1071 582 -1286 947 -1286 
C 1587 -1286 2234 -700 2413 6 
L 3040 2485 
C 3046 2517 3059 2556 3059 2594 
C 3059 2689 2982 2753 2886 2753 
C 2829 2753 2694 2727 2643 2535 
L 2170 658 
C 2138 543 2138 530 2086 460 
C 1958 281 1747 64 1440 64 
C 1082 64 1050 415 1050 588 
C 1050 952 1222 1443 1395 1903 
C 1466 2088 1504 2178 1504 2305 
C 1504 2574 1312 2816 998 2816 
C 410 2816 173 1890 173 1839 
C 173 1814 198 1782 243 1782 
C 301 1782 307 1807 333 1897 
C 486 2433 730 2689 979 2689 
C 1037 2689 1146 2689 1146 2478 
C 1146 2312 1075 2127 979 1884 
C 666 1047 666 837 666 683 
C 666 77 1101 -64 1421 -64 
C 1606 -64 1837 -6 2061 230 
L 2067 224 
C 1971 -147 1907 -392 1683 -700 
z
" transform="scale(0.015625)"/>
      <path id="CMR17-3d" d="M 4115 2017 
C 4211 2017 4307 2017 4307 2125 
C 4307 2240 4198 2240 4090 2240 
L 512 2240 
C 403 2240 294 2240 294 2125 
C 294 2017 390 2017 486 2017 
L 4115 2017 
z
M 4090 896 
C 4198 896 4307 896 4307 1011 
C 4307 1119 4211 1119 4115 1119 
L 486 1119 
C 390 1119 294 1119 294 1011 
C 294 896 403 896 512 896 
L 4090 896 
z
" transform="scale(0.015625)"/>
      <path id="CMR17-28" d="M 1958 -1561 
C 1958 -1555 1958 -1542 1939 -1523 
C 1645 -1224 858 -407 858 1581 
C 858 3569 1632 4379 1946 4697 
C 1946 4704 1958 4717 1958 4736 
C 1958 4755 1939 4768 1914 4768 
C 1843 4768 1299 4296 986 3594 
C 666 2887 576 2199 576 1588 
C 576 1128 621 351 1005 -471 
C 1312 -1135 1837 -1600 1914 -1600 
C 1946 -1600 1958 -1587 1958 -1561 
z
" transform="scale(0.015625)"/>
      <path id="CMMI12-48" d="M 4787 3887 
C 4845 4103 4858 4167 5312 4167 
C 5427 4167 5491 4167 5491 4282 
C 5491 4352 5434 4352 5395 4352 
C 5280 4352 5146 4352 5024 4352 
L 4269 4352 
C 4147 4352 4013 4352 3891 4352 
C 3846 4352 3770 4352 3770 4231 
C 3770 4167 3814 4167 3936 4167 
C 4320 4167 4320 4116 4320 4046 
C 4320 4034 4320 3995 4294 3900 
L 3904 2361 
L 1971 2361 
L 2355 3887 
C 2413 4103 2426 4167 2880 4167 
C 2995 4167 3059 4167 3059 4282 
C 3059 4352 3002 4352 2963 4352 
C 2848 4352 2714 4352 2592 4352 
L 1837 4352 
C 1715 4352 1581 4352 1459 4352 
C 1414 4352 1338 4352 1338 4231 
C 1338 4167 1382 4167 1504 4167 
C 1888 4167 1888 4116 1888 4046 
C 1888 4034 1888 3995 1862 3899 
L 998 472 
C 941 249 928 185 486 185 
C 339 185 294 185 294 64 
C 294 0 365 0 384 0 
C 499 0 634 0 755 0 
L 1510 0 
C 1632 0 1766 0 1888 0 
C 1939 0 2010 0 2010 121 
C 2010 185 1952 185 1856 185 
C 1466 185 1466 236 1466 300 
C 1466 307 1466 351 1478 402 
L 1920 2176 
L 3859 2176 
C 3750 1753 3424 416 3411 376 
C 3341 185 3238 185 2861 185 
C 2784 185 2726 185 2726 64 
C 2726 0 2797 0 2816 0 
C 2931 0 3066 0 3187 0 
L 3942 0 
C 4064 0 4198 0 4320 0 
C 4371 0 4442 0 4442 121 
C 4442 185 4384 185 4288 185 
C 3898 185 3898 236 3898 300 
C 3898 307 3898 351 3910 402 
L 4787 3887 
z
" transform="scale(0.015625)"/>
      <path id="CMMI12-3b" d="M 1248 -31 
C 1248 343 1126 619 864 619 
C 659 619 557 453 557 313 
C 557 172 653 0 870 0 
C 954 0 1024 26 1082 83 
C 1094 96 1101 96 1107 96 
C 1120 96 1120 5 1120 -27 
C 1120 -240 1082 -659 710 -1080 
C 640 -1157 640 -1170 640 -1183 
C 640 -1216 672 -1248 704 -1248 
C 755 -1248 1248 -771 1248 -31 
z
" transform="scale(0.015625)"/>
      <path id="CMMI12-61" d="M 1926 760 
C 1894 651 1894 639 1805 517 
C 1664 338 1382 64 1082 64 
C 819 64 672 300 672 677 
C 672 1028 870 1743 992 2012 
C 1210 2459 1510 2689 1760 2689 
C 2182 2689 2266 2165 2266 2114 
C 2266 2108 2246 2024 2240 2012 
L 1926 760 
z
M 2336 2395 
C 2266 2561 2093 2816 1760 2816 
C 1037 2816 256 1884 256 939 
C 256 307 627 -64 1062 -64 
C 1414 -64 1715 211 1894 422 
C 1958 45 2259 -64 2451 -64 
C 2643 -64 2797 51 2912 281 
C 3014 498 3104 888 3104 913 
C 3104 945 3078 971 3040 971 
C 2982 971 2976 939 2950 843 
C 2854 466 2733 64 2470 64 
C 2285 64 2272 230 2272 358 
C 2272 505 2291 575 2349 824 
C 2394 984 2426 1124 2477 1309 
C 2714 2267 2771 2497 2771 2535 
C 2771 2625 2701 2695 2605 2695 
C 2400 2695 2349 2472 2336 2395 
z
" transform="scale(0.015625)"/>
      <path id="CMR17-29" d="M 1683 1581 
C 1683 2040 1638 2817 1254 3639 
C 947 4303 422 4768 346 4768 
C 326 4768 301 4761 301 4729 
C 301 4717 307 4710 314 4697 
C 621 4378 1402 3568 1402 1584 
C 1402 -407 627 -1217 314 -1537 
C 307 -1549 301 -1556 301 -1568 
C 301 -1600 326 -1600 346 -1600 
C 416 -1600 960 -1128 1274 -426 
C 1594 281 1683 969 1683 1581 
z
" transform="scale(0.015625)"/>
      <path id="CMR17-65" d="M 2438 1472 
C 2464 1498 2464 1511 2464 1576 
C 2464 2238 2118 2816 1389 2816 
C 710 2816 173 2169 173 1383 
C 173 551 781 -64 1459 -64 
C 2176 -64 2458 607 2458 740 
C 2458 784 2419 784 2406 784 
C 2362 784 2355 771 2330 696 
C 2189 265 1837 51 1504 51 
C 1229 51 954 203 781 480 
C 582 803 582 1176 582 1472 
L 2438 1472 
z
M 589 1568 
C 634 2505 1126 2714 1382 2714 
C 1818 2714 2112 2297 2118 1568 
L 589 1568 
z
" transform="scale(0.015625)"/>
      <path id="CMR17-75" d="M 1882 2693 
L 1882 2528 
C 2259 2528 2317 2489 2317 2186 
L 2317 1032 
C 2317 500 2029 38 1555 38 
C 1030 38 986 348 986 678 
L 986 2763 
L 211 2693 
L 211 2528 
C 467 2528 640 2528 646 2274 
L 646 1058 
C 646 633 646 361 813 183 
C 896 101 1056 -64 1517 -64 
C 2061 -64 2272 377 2323 506 
L 2330 506 
L 2330 -63 
L 3091 -63 
L 3091 128 
C 2714 128 2656 166 2656 473 
L 2656 2763 
L 1882 2693 
z
" transform="scale(0.015625)"/>
      <path id="CMR17-64" d="M 1869 4326 
L 1869 4160 
C 2246 4160 2304 4122 2304 3820 
L 2304 2345 
C 2278 2377 2016 2790 1498 2790 
C 845 2790 211 2208 211 1364 
C 211 525 806 -64 1434 -64 
C 1978 -64 2259 337 2291 380 
L 2291 -63 
L 3066 -63 
L 3066 128 
C 2688 128 2630 166 2630 473 
L 2630 4396 
L 1869 4326 
z
M 2291 755 
C 2291 563 2176 390 2029 262 
C 1811 70 1594 38 1472 38 
C 1286 38 621 134 621 1356 
C 621 2612 1363 2688 1530 2688 
C 1824 2688 2061 2522 2208 2291 
C 2291 2157 2291 2138 2291 2023 
L 2291 755 
z
" transform="scale(0.015625)"/>
      <path id="CMR17-70" d="M 1408 -1063 
C 998 -1063 973 -1037 973 -789 
L 973 402 
C 1158 134 1427 -38 1766 -38 
C 2406 -38 3053 523 3053 1388 
C 3053 2191 2496 2802 1837 2802 
C 1453 2802 1139 2592 960 2338 
L 960 2802 
L 198 2732 
L 198 2567 
C 576 2567 634 2528 634 2223 
L 634 -789 
C 634 -1031 608 -1063 198 -1063 
L 198 -1228 
C 352 -1216 634 -1216 800 -1216 
C 966 -1216 1254 -1216 1408 -1228 
L 1408 -1063 
z
M 973 2012 
C 973 2102 973 2235 1222 2471 
C 1254 2497 1472 2688 1792 2688 
C 2259 2688 2643 2108 2643 1382 
C 2643 656 2234 64 1728 64 
C 1498 64 1248 172 1056 472 
C 973 612 973 650 973 752 
L 973 2012 
z
" transform="scale(0.015625)"/>
      <path id="CMR17-48" d="M 3590 3905 
C 3590 4192 3661 4192 4102 4192 
L 4102 4352 
C 3917 4352 3578 4352 3379 4352 
C 3181 4352 2842 4352 2656 4352 
L 2656 4192 
C 3098 4192 3168 4192 3168 3904 
L 3168 2341 
L 1261 2341 
L 1261 3904 
C 1261 4192 1331 4192 1773 4192 
L 1773 4352 
C 1587 4352 1248 4352 1050 4352 
C 851 4352 512 4352 326 4352 
L 326 4192 
C 768 4192 838 4192 838 3905 
L 838 447 
C 838 160 768 160 326 160 
L 326 0 
C 512 0 851 0 1050 0 
C 1248 0 1587 0 1773 0 
L 1773 160 
C 1331 160 1261 160 1261 446 
L 1261 2176 
L 3168 2176 
L 3168 446 
C 3168 160 3098 160 2656 160 
L 2656 0 
C 2842 0 3181 0 3379 0 
C 3578 0 3917 0 4102 0 
L 4102 160 
C 3661 160 3590 160 3590 447 
L 3590 3905 
z
" transform="scale(0.015625)"/>
      <path id="CMR17-73" d="M 1978 2697 
C 1978 2813 1971 2819 1933 2819 
C 1907 2819 1901 2813 1824 2717 
C 1805 2691 1747 2626 1728 2601 
C 1523 2819 1235 2819 1126 2819 
C 416 2819 160 2447 160 2076 
C 160 1498 813 1365 998 1325 
C 1402 1243 1542 1217 1677 1101 
C 1760 1025 1901 884 1901 654 
C 1901 384 1747 38 1158 38 
C 602 38 403 460 288 1021 
C 269 1110 269 1117 218 1117 
C 166 1117 160 1110 160 983 
L 160 63 
C 160 -51 166 -58 205 -58 
C 237 -58 243 -51 275 0 
C 314 57 410 211 448 276 
C 576 103 800 -64 1158 -64 
C 1792 -64 2131 283 2131 784 
C 2131 1112 1958 1285 1875 1362 
C 1683 1561 1459 1606 1190 1657 
C 838 1735 390 1825 390 2217 
C 390 2383 480 2737 1126 2737 
C 1811 2737 1850 2094 1862 1888 
C 1869 1856 1901 1849 1920 1849 
C 1978 1849 1978 1869 1978 1978 
L 1978 2697 
z
" transform="scale(0.015625)"/>
      <path id="CMR17-68" d="M 2656 1933 
C 2656 2259 2592 2790 1837 2790 
C 1312 2790 1056 2368 979 2157 
L 973 2157 
L 973 4396 
L 211 4326 
L 211 4160 
C 589 4160 646 4122 646 3817 
L 646 426 
C 646 184 621 153 211 153 
L 211 -13 
C 365 0 646 0 813 0 
C 979 0 1267 0 1421 -13 
L 1421 153 
C 1011 153 986 178 986 428 
L 986 1658 
C 986 2247 1344 2688 1792 2688 
C 2266 2688 2317 2266 2317 1958 
L 2317 428 
C 2317 184 2291 153 1882 153 
L 1882 -13 
C 2035 0 2317 0 2483 0 
C 2650 0 2938 0 3091 -13 
L 3091 153 
C 2682 153 2656 178 2656 428 
L 2656 1933 
z
" transform="scale(0.015625)"/>
      <path id="CMR17-66" d="M 979 2560 
L 1709 2560 
L 1709 2725 
L 966 2725 
L 966 3494 
C 966 4022 1235 4352 1510 4352 
C 1594 4352 1690 4327 1754 4282 
C 1702 4269 1568 4225 1568 4067 
C 1568 3901 1696 3850 1786 3850 
C 1875 3850 2003 3901 2003 4067 
C 2003 4308 1773 4454 1517 4454 
C 1152 4454 653 4156 653 3481 
L 653 2725 
L 141 2725 
L 141 2560 
L 653 2560 
L 653 427 
C 653 184 627 153 218 153 
L 218 -13 
C 371 0 666 0 832 0 
C 1018 0 1344 0 1517 -13 
L 1517 153 
C 1056 153 979 153 979 439 
L 979 2560 
z
" transform="scale(0.015625)"/>
      <path id="CMR17-6e" d="M 2656 1933 
C 2656 2259 2592 2790 1837 2790 
C 1331 2790 1069 2400 973 2144 
L 966 2144 
L 966 2790 
L 211 2720 
L 211 2554 
C 589 2554 646 2515 646 2208 
L 646 428 
C 646 184 621 153 211 153 
L 211 -13 
C 365 0 646 0 813 0 
C 979 0 1267 0 1421 -13 
L 1421 153 
C 1011 153 986 178 986 428 
L 986 1658 
C 986 2247 1344 2688 1792 2688 
C 2266 2688 2317 2266 2317 1958 
L 2317 428 
C 2317 184 2291 153 1882 153 
L 1882 -13 
C 2035 0 2317 0 2483 0 
C 2650 0 2938 0 3091 -13 
L 3091 153 
C 2682 153 2656 178 2656 428 
L 2656 1933 
z
" transform="scale(0.015625)"/>
      <path id="CMR17-63" d="M 2234 2240 
C 2112 2240 1933 2240 1933 2017 
C 1933 1838 2080 1787 2163 1787 
C 2208 1787 2394 1807 2394 2024 
C 2394 2467 1958 2803 1466 2803 
C 787 2803 211 2178 211 1363 
C 211 516 813 -64 1466 -64 
C 2259 -64 2458 677 2458 748 
C 2458 774 2451 793 2406 793 
C 2362 793 2355 787 2330 703 
C 2163 180 1798 51 1523 51 
C 1114 51 621 427 621 1369 
C 621 2338 1094 2688 1472 2688 
C 1722 2688 2093 2573 2234 2240 
z
" transform="scale(0.015625)"/>
      <path id="CMR17-76" d="M 2502 2163 
C 2560 2304 2662 2560 3034 2560 
L 3034 2726 
C 2912 2726 2752 2726 2630 2726 
C 2496 2726 2285 2726 2157 2732 
L 2157 2566 
C 2317 2553 2406 2477 2406 2311 
C 2406 2253 2406 2240 2368 2151 
L 1664 377 
L 902 2286 
C 864 2369 864 2381 864 2407 
C 864 2560 1075 2560 1171 2560 
L 1171 2732 
C 1018 2726 736 2726 576 2726 
C 403 2726 205 2726 64 2732 
L 64 2560 
C 307 2560 442 2560 518 2362 
L 1446 44 
C 1485 -51 1491 -64 1549 -64 
C 1606 -64 1613 -51 1651 44 
L 2502 2163 
z
" transform="scale(0.015625)"/>
      <path id="CMMI12-76" d="M 2925 2389 
C 2925 2791 2720 2816 2669 2816 
C 2515 2816 2374 2663 2374 2535 
C 2374 2459 2419 2414 2445 2389 
C 2509 2331 2675 2159 2675 1827 
C 2675 1558 2291 64 1523 64 
C 1133 64 1056 390 1056 626 
C 1056 945 1203 1392 1376 1852 
C 1478 2114 1504 2178 1504 2305 
C 1504 2574 1312 2816 998 2816 
C 410 2816 173 1890 173 1839 
C 173 1814 198 1782 243 1782 
C 301 1782 307 1807 333 1897 
C 486 2446 736 2689 979 2689 
C 1037 2689 1146 2689 1146 2478 
C 1146 2312 1075 2127 979 1884 
C 672 1067 672 869 672 715 
C 672 575 691 313 890 134 
C 1120 -64 1440 -64 1498 -64 
C 2560 -64 2925 2024 2925 2389 
z
" transform="scale(0.015625)"/>
      <path id="CMR17-55" d="M 3456 1433 
C 3456 579 2899 38 2291 38 
C 1965 38 1670 210 1491 477 
C 1286 783 1261 1178 1261 1401 
L 1261 3874 
C 1261 4160 1331 4160 1773 4160 
L 1773 4320 
C 1587 4320 1248 4320 1050 4320 
C 851 4320 512 4320 326 4320 
L 326 4160 
C 768 4160 838 4160 838 3874 
L 838 1433 
C 838 516 1536 -128 2278 -128 
C 3110 -128 3590 719 3590 1344 
L 3590 3766 
C 3590 4122 3917 4160 4102 4160 
L 4102 4326 
C 3955 4320 3686 4320 3526 4320 
C 3366 4320 3091 4320 2944 4326 
L 2944 4160 
C 3456 4160 3456 3861 3456 3702 
L 3456 1433 
z
" transform="scale(0.015625)"/>
      <path id="CMR17-27" d="M 1024 4025 
C 1037 3955 1043 3929 1043 3820 
C 1043 3415 883 3042 634 2778 
C 608 2752 595 2733 595 2707 
C 595 2681 621 2656 646 2656 
C 691 2656 1146 3105 1146 3811 
C 1146 3952 1133 4426 800 4426 
C 659 4426 538 4331 538 4165 
C 538 3999 659 3904 800 3904 
C 858 3904 966 3923 1024 4025 
z
" transform="scale(0.015625)"/>
      <path id="CMMI12-64" d="M 3219 4257 
C 3226 4282 3238 4320 3238 4352 
C 3238 4416 3174 4416 3162 4416 
C 3155 4416 2842 4388 2810 4380 
C 2701 4373 2605 4358 2490 4358 
C 2330 4345 2285 4339 2285 4224 
C 2285 4160 2336 4160 2426 4160 
C 2739 4160 2746 4103 2746 4040 
C 2746 4002 2733 3952 2726 3933 
L 2336 2395 
C 2266 2561 2093 2816 1760 2816 
C 1037 2816 256 1884 256 939 
C 256 307 627 -64 1062 -64 
C 1414 -64 1715 211 1894 422 
C 1958 45 2259 -64 2451 -64 
C 2643 -64 2797 51 2912 281 
C 3014 498 3104 888 3104 913 
C 3104 945 3078 971 3040 971 
C 2982 971 2976 939 2950 843 
C 2854 466 2733 64 2470 64 
C 2285 64 2272 229 2272 357 
C 2272 382 2272 515 2317 694 
L 3219 4257 
z
M 1926 760 
C 1894 651 1894 639 1805 517 
C 1664 338 1382 64 1082 64 
C 819 64 672 300 672 677 
C 672 1028 870 1743 992 2012 
C 1210 2459 1510 2689 1760 2689 
C 2182 2689 2266 2165 2266 2114 
C 2266 2108 2246 2024 2240 2012 
L 1926 760 
z
" transform="scale(0.015625)"/>
      <path id="CMSY10-30" d="M 1619 3040 
C 1651 3117 1677 3174 1677 3238 
C 1677 3424 1510 3578 1312 3578 
C 1133 3578 1018 3456 973 3290 
L 211 493 
C 211 480 186 410 186 403 
C 186 333 352 288 403 288 
C 442 288 448 307 486 390 
L 1619 3040 
z
" transform="scale(0.015625)"/>
      <path id="CMR17-6d" d="M 4326 1933 
C 4326 2252 4269 2790 3507 2790 
C 3072 2790 2771 2496 2656 2151 
L 2650 2151 
C 2573 2676 2195 2790 1837 2790 
C 1331 2790 1069 2400 973 2144 
L 966 2144 
L 966 2790 
L 211 2720 
L 211 2554 
C 589 2554 646 2515 646 2208 
L 646 428 
C 646 184 621 153 211 153 
L 211 -13 
C 365 0 646 0 813 0 
C 979 0 1267 0 1421 -13 
L 1421 153 
C 1011 153 986 178 986 428 
L 986 1658 
C 986 2247 1344 2688 1792 2688 
C 2266 2688 2317 2266 2317 1958 
L 2317 428 
C 2317 184 2291 153 1882 153 
L 1882 -13 
C 2035 0 2317 0 2483 0 
C 2650 0 2938 0 3091 -13 
L 3091 153 
C 2682 153 2656 178 2656 428 
L 2656 1658 
C 2656 2247 3014 2688 3462 2688 
C 3936 2688 3987 2266 3987 1958 
L 3987 428 
C 3987 184 3962 153 3552 153 
L 3552 -13 
C 3706 0 3987 0 4154 0 
C 4320 0 4608 0 4762 -13 
L 4762 153 
C 4352 153 4326 178 4326 428 
L 4326 1933 
z
" transform="scale(0.015625)"/>
      <path id="CMR17-7a" d="M 2310 2605 
C 2362 2670 2362 2682 2362 2695 
C 2362 2752 2336 2752 2221 2752 
L 275 2752 
L 211 1760 
L 326 1760 
C 371 2381 442 2650 1178 2650 
L 1958 2650 
L 128 96 
C 128 0 134 0 269 0 
L 2291 0 
L 2381 1152 
L 2266 1152 
C 2214 442 2131 115 1350 115 
L 531 115 
L 2310 2605 
z
" transform="scale(0.015625)"/>
      <path id="CMMI12-70" d="M 275 -789 
C 230 -980 205 -1031 -58 -1031 
C -134 -1031 -198 -1031 -198 -1152 
C -198 -1165 -192 -1216 -122 -1216 
C -38 -1216 51 -1216 134 -1216 
L 410 -1216 
C 544 -1216 870 -1216 1005 -1216 
C 1043 -1216 1120 -1216 1120 -1101 
C 1120 -1031 1075 -1031 966 -1031 
C 672 -1031 653 -987 653 -937 
C 653 -861 941 219 979 364 
C 1050 185 1222 -64 1555 -64 
C 2278 -64 3059 875 3059 1814 
C 3059 2401 2726 2816 2246 2816 
C 1837 2816 1491 2420 1421 2331 
C 1370 2650 1120 2816 864 2816 
C 678 2816 531 2727 410 2484 
C 294 2254 205 1865 205 1839 
C 205 1814 230 1782 275 1782 
C 326 1782 333 1788 371 1935 
C 467 2312 589 2689 845 2689 
C 992 2689 1043 2587 1043 2397 
C 1043 2245 1024 2181 998 2067 
L 275 -789 
z
M 1382 1993 
C 1427 2171 1606 2357 1709 2446 
C 1779 2510 1990 2689 2234 2689 
C 2515 2689 2643 2408 2643 2076 
C 2643 1769 2464 1047 2304 715 
C 2144 370 1850 64 1555 64 
C 1120 64 1050 613 1050 639 
C 1050 658 1062 709 1069 741 
L 1382 1993 
z
" transform="scale(0.015625)"/>
      <path id="CMMI12-71" d="M 2822 2759 
C 2822 2790 2797 2816 2765 2816 
C 2714 2816 2464 2585 2342 2362 
C 2227 2646 2029 2816 1754 2816 
C 1030 2816 250 1884 250 939 
C 250 307 621 -64 1056 -64 
C 1395 -64 1677 193 1811 339 
L 1818 333 
L 1574 -615 
L 1517 -842 
C 1459 -1031 1363 -1031 1062 -1031 
C 992 -1031 928 -1031 928 -1152 
C 928 -1197 966 -1216 1011 -1216 
C 1101 -1216 1216 -1216 1306 -1216 
L 1958 -1216 
C 2054 -1216 2163 -1216 2259 -1216 
C 2298 -1216 2374 -1216 2374 -1095 
C 2374 -1031 2323 -1031 2227 -1031 
C 1926 -1031 1907 -986 1907 -935 
C 1907 -904 1914 -898 1933 -815 
L 2822 2759 
z
M 1920 762 
C 1888 652 1888 640 1798 518 
C 1658 339 1376 64 1075 64 
C 813 64 666 301 666 678 
C 666 1030 864 1747 986 2016 
C 1203 2464 1504 2695 1754 2695 
C 2176 2695 2259 2170 2259 2119 
C 2259 2113 2240 2028 2234 2016 
L 1920 762 
z
" transform="scale(0.015625)"/>
     </defs>
     <use xlink:href="#CMR17-50" transform="translate(14.94396 0) scale(0.996264)"/>
     <use xlink:href="#CMR17-72" transform="translate(77.530261 0) scale(0.996264)"/>
     <use xlink:href="#CMR17-3a" transform="translate(140.485037 0) scale(0.996264)"/>
     <use xlink:href="#CMR17-50" transform="translate(193.030104 0) scale(0.996264)"/>
     <use xlink:href="#CMR17-72" transform="translate(255.616405 0) scale(0.996264)"/>
     <use xlink:href="#CMR17-6f" transform="translate(290.897173 0) scale(0.996264)"/>
     <use xlink:href="#CMR17-62" transform="translate(336.58765 0) scale(0.996264)"/>
     <use xlink:href="#CMR17-61" transform="translate(387.48302 0) scale(0.996264)"/>
     <use xlink:href="#CMR17-62" transform="translate(433.173497 0) scale(0.996264)"/>
     <use xlink:href="#CMR17-69" transform="translate(484.068867 0) scale(0.996264)"/>
     <use xlink:href="#CMR17-6c" transform="translate(508.939925 0) scale(0.996264)"/>
     <use xlink:href="#CMR17-69" transform="translate(533.810983 0) scale(0.996264)"/>
     <use xlink:href="#CMR17-74" transform="translate(558.682042 0) scale(0.996264)"/>
     <use xlink:href="#CMR17-79" transform="translate(591.360356 0) scale(0.996264)"/>
     <use xlink:href="#CMMI12-79" transform="translate(0 -95.004557) scale(0.996264)"/>
     <use xlink:href="#CMR17-3d" transform="translate(78.812789 -95.004557) scale(0.996264)"/>
     <use xlink:href="#CMR17-28" transform="translate(178.201587 -95.004557) scale(0.996264)"/>
     <use xlink:href="#CMMI12-48" transform="translate(213.482354 -95.004557) scale(0.996264)"/>
     <use xlink:href="#CMMI12-3b" transform="translate(296.584692 -95.004557) scale(0.996264)"/>
     <use xlink:href="#CMMI12-61" transform="translate(340.286274 -95.004557) scale(0.996264)"/>
     <use xlink:href="#CMR17-29" transform="translate(391.494132 -95.004557) scale(0.996264)"/>
     <use xlink:href="#CMR17-3a" transform="translate(454.448908 -95.004557) scale(0.996264)"/>
     <use xlink:href="#CMR17-50" transform="translate(506.993975 -95.004557) scale(0.996264)"/>
     <use xlink:href="#CMR17-65" transform="translate(566.977822 -95.004557) scale(0.996264)"/>
     <use xlink:href="#CMR17-72" transform="translate(607.463482 -95.004557) scale(0.996264)"/>
     <use xlink:href="#CMR17-74" transform="translate(642.74425 -95.004557) scale(0.996264)"/>
     <use xlink:href="#CMR17-75" transform="translate(678.025018 -95.004557) scale(0.996264)"/>
     <use xlink:href="#CMR17-72" transform="translate(728.920388 -95.004557) scale(0.996264)"/>
     <use xlink:href="#CMR17-62" transform="translate(764.201155 -95.004557) scale(0.996264)"/>
     <use xlink:href="#CMR17-65" transform="translate(817.698964 -95.004557) scale(0.996264)"/>
     <use xlink:href="#CMR17-64" transform="translate(858.184624 -95.004557) scale(0.996264)"/>
     <use xlink:href="#CMR17-6f" transform="translate(939.155961 -95.004557) scale(0.996264)"/>
     <use xlink:href="#CMR17-75" transform="translate(984.846438 -95.004557) scale(0.996264)"/>
     <use xlink:href="#CMR17-74" transform="translate(1035.741807 -95.004557) scale(0.996264)"/>
     <use xlink:href="#CMR17-70" transform="translate(1071.022575 -95.004557) scale(0.996264)"/>
     <use xlink:href="#CMR17-75" transform="translate(1121.917945 -95.004557) scale(0.996264)"/>
     <use xlink:href="#CMR17-74" transform="translate(1172.813315 -95.004557) scale(0.996264)"/>
     <use xlink:href="#CMR17-74" transform="translate(1238.170049 -95.004557) scale(0.996264)"/>
     <use xlink:href="#CMR17-75" transform="translate(1273.450817 -95.004557) scale(0.996264)"/>
     <use xlink:href="#CMR17-70" transform="translate(1324.346187 -95.004557) scale(0.996264)"/>
     <use xlink:href="#CMR17-6c" transform="translate(1375.241556 -95.004557) scale(0.996264)"/>
     <use xlink:href="#CMR17-65" transform="translate(1400.112615 -95.004557) scale(0.996264)"/>
     <use xlink:href="#CMMI12-48" transform="translate(0 -190.0091) scale(0.996264)"/>
     <use xlink:href="#CMR17-3a" transform="translate(116.195781 -190.0091) scale(0.996264)"/>
     <use xlink:href="#CMR17-48" transform="translate(168.740849 -190.0091) scale(0.996264)"/>
     <use xlink:href="#CMR17-61" transform="translate(237.813278 -190.0091) scale(0.996264)"/>
     <use xlink:href="#CMR17-73" transform="translate(283.503755 -190.0091) scale(0.996264)"/>
     <use xlink:href="#CMR17-68" transform="translate(319.305093 -190.0091) scale(0.996264)"/>
     <use xlink:href="#CMR17-66" transform="translate(400.276429 -190.0091) scale(0.996264)"/>
     <use xlink:href="#CMR17-75" transform="translate(427.749942 -190.0091) scale(0.996264)"/>
     <use xlink:href="#CMR17-6e" transform="translate(478.645311 -190.0091) scale(0.996264)"/>
     <use xlink:href="#CMR17-63" transform="translate(529.540681 -190.0091) scale(0.996264)"/>
     <use xlink:href="#CMR17-74" transform="translate(570.026342 -190.0091) scale(0.996264)"/>
     <use xlink:href="#CMR17-69" transform="translate(605.307109 -190.0091) scale(0.996264)"/>
     <use xlink:href="#CMR17-6f" transform="translate(630.178168 -190.0091) scale(0.996264)"/>
     <use xlink:href="#CMR17-6e" transform="translate(675.868645 -190.0091) scale(0.996264)"/>
     <use xlink:href="#CMMI12-61" transform="translate(0 -260.190378) scale(0.996264)"/>
     <use xlink:href="#CMR17-3a" transform="translate(78.881866 -260.190378) scale(0.996264)"/>
     <use xlink:href="#CMR17-48" transform="translate(131.426934 -260.190378) scale(0.996264)"/>
     <use xlink:href="#CMR17-61" transform="translate(200.499363 -260.190378) scale(0.996264)"/>
     <use xlink:href="#CMR17-73" transform="translate(246.18984 -260.190378) scale(0.996264)"/>
     <use xlink:href="#CMR17-68" transform="translate(281.991178 -260.190378) scale(0.996264)"/>
     <use xlink:href="#CMR17-6f" transform="translate(362.962514 -260.190378) scale(0.996264)"/>
     <use xlink:href="#CMR17-75" transform="translate(408.652991 -260.190378) scale(0.996264)"/>
     <use xlink:href="#CMR17-74" transform="translate(459.548361 -260.190378) scale(0.996264)"/>
     <use xlink:href="#CMR17-70" transform="translate(494.829129 -260.190378) scale(0.996264)"/>
     <use xlink:href="#CMR17-75" transform="translate(545.724499 -260.190378) scale(0.996264)"/>
     <use xlink:href="#CMR17-74" transform="translate(596.619868 -260.190378) scale(0.996264)"/>
     <use xlink:href="#CMR17-76" transform="translate(661.976603 -260.190378) scale(0.996264)"/>
     <use xlink:href="#CMR17-61" transform="translate(705.064702 -260.190378) scale(0.996264)"/>
     <use xlink:href="#CMR17-6c" transform="translate(750.755179 -260.190378) scale(0.996264)"/>
     <use xlink:href="#CMR17-75" transform="translate(775.626237 -260.190378) scale(0.996264)"/>
     <use xlink:href="#CMR17-65" transform="translate(826.521607 -260.190378) scale(0.996264)"/>
     <use xlink:href="#CMMI12-76" transform="translate(0 -349.749839) scale(0.996264)"/>
     <use xlink:href="#CMR17-3a" transform="translate(78.409182 -349.749839) scale(0.996264)"/>
     <use xlink:href="#CMR17-55" transform="translate(130.954249 -349.749839) scale(0.996264)"/>
     <use xlink:href="#CMR17-73" transform="translate(200.026679 -349.749839) scale(0.996264)"/>
     <use xlink:href="#CMR17-65" transform="translate(235.828017 -349.749839) scale(0.996264)"/>
     <use xlink:href="#CMR17-72" transform="translate(276.313677 -349.749839) scale(0.996264)"/>
     <use xlink:href="#CMR17-27" transform="translate(311.594445 -349.749839) scale(0.996264)"/>
     <use xlink:href="#CMR17-73" transform="translate(336.465504 -349.749839) scale(0.996264)"/>
     <use xlink:href="#CMR17-74" transform="translate(402.342807 -349.749839) scale(0.996264)"/>
     <use xlink:href="#CMR17-72" transform="translate(437.623575 -349.749839) scale(0.996264)"/>
     <use xlink:href="#CMR17-75" transform="translate(472.904343 -349.749839) scale(0.996264)"/>
     <use xlink:href="#CMR17-65" transform="translate(523.799713 -349.749839) scale(0.996264)"/>
     <use xlink:href="#CMR17-76" transform="translate(594.36134 -349.749839) scale(0.996264)"/>
     <use xlink:href="#CMR17-61" transform="translate(637.449439 -349.749839) scale(0.996264)"/>
     <use xlink:href="#CMR17-6c" transform="translate(683.139916 -349.749839) scale(0.996264)"/>
     <use xlink:href="#CMR17-75" transform="translate(708.010974 -349.749839) scale(0.996264)"/>
     <use xlink:href="#CMR17-65" transform="translate(758.906344 -349.749839) scale(0.996264)"/>
     <use xlink:href="#CMMI12-64" transform="translate(0 -425.643279) scale(0.996264)"/>
     <use xlink:href="#CMSY10-30" transform="translate(50.689097 -389.48964) scale(0.697382)"/>
     <use xlink:href="#CMR17-3a" transform="translate(98.039198 -425.643279) scale(0.996264)"/>
     <use xlink:href="#CMR17-48" transform="translate(150.584265 -425.643279) scale(0.996264)"/>
     <use xlink:href="#CMR17-61" transform="translate(219.656695 -425.643279) scale(0.996264)"/>
     <use xlink:href="#CMR17-73" transform="translate(265.347172 -425.643279) scale(0.996264)"/>
     <use xlink:href="#CMR17-68" transform="translate(301.14851 -425.643279) scale(0.996264)"/>
     <use xlink:href="#CMR17-64" transform="translate(382.119846 -425.643279) scale(0.996264)"/>
     <use xlink:href="#CMR17-6f" transform="translate(433.015216 -425.643279) scale(0.996264)"/>
     <use xlink:href="#CMR17-6d" transform="translate(478.705693 -425.643279) scale(0.996264)"/>
     <use xlink:href="#CMR17-61" transform="translate(555.625283 -425.643279) scale(0.996264)"/>
     <use xlink:href="#CMR17-69" transform="translate(601.31576 -425.643279) scale(0.996264)"/>
     <use xlink:href="#CMR17-6e" transform="translate(626.186818 -425.643279) scale(0.996264)"/>
     <use xlink:href="#CMR17-73" transform="translate(707.158154 -425.643279) scale(0.996264)"/>
     <use xlink:href="#CMR17-69" transform="translate(742.959492 -425.643279) scale(0.996264)"/>
     <use xlink:href="#CMR17-7a" transform="translate(767.830551 -425.643279) scale(0.996264)"/>
     <use xlink:href="#CMR17-65" transform="translate(808.316211 -425.643279) scale(0.996264)"/>
     <use xlink:href="#CMMI12-70" transform="translate(0 -495.824557) scale(0.996264)"/>
     <use xlink:href="#CMMI12-3b" transform="translate(48.959514 -495.824557) scale(0.996264)"/>
     <use xlink:href="#CMMI12-71" transform="translate(92.661096 -495.824557) scale(0.996264)"/>
     <use xlink:href="#CMR17-3a" transform="translate(167.161429 -495.824557) scale(0.996264)"/>
     <use xlink:href="#CMR17-50" transform="translate(219.706496 -495.824557) scale(0.996264)"/>
     <use xlink:href="#CMR17-65" transform="translate(279.690343 -495.824557) scale(0.996264)"/>
     <use xlink:href="#CMR17-72" transform="translate(320.176003 -495.824557) scale(0.996264)"/>
     <use xlink:href="#CMR17-74" transform="translate(355.456771 -495.824557) scale(0.996264)"/>
     <use xlink:href="#CMR17-75" transform="translate(390.737539 -495.824557) scale(0.996264)"/>
     <use xlink:href="#CMR17-72" transform="translate(441.632909 -495.824557) scale(0.996264)"/>
     <use xlink:href="#CMR17-62" transform="translate(476.913676 -495.824557) scale(0.996264)"/>
     <use xlink:href="#CMR17-61" transform="translate(527.809046 -495.824557) scale(0.996264)"/>
     <use xlink:href="#CMR17-74" transform="translate(573.499523 -495.824557) scale(0.996264)"/>
     <use xlink:href="#CMR17-69" transform="translate(608.780291 -495.824557) scale(0.996264)"/>
     <use xlink:href="#CMR17-6f" transform="translate(633.65135 -495.824557) scale(0.996264)"/>
     <use xlink:href="#CMR17-6e" transform="translate(679.341827 -495.824557) scale(0.996264)"/>
     <use xlink:href="#CMR17-70" transform="translate(760.313163 -495.824557) scale(0.996264)"/>
     <use xlink:href="#CMR17-72" transform="translate(811.208533 -495.824557) scale(0.996264)"/>
     <use xlink:href="#CMR17-6f" transform="translate(846.4893 -495.824557) scale(0.996264)"/>
     <use xlink:href="#CMR17-62" transform="translate(892.179777 -495.824557) scale(0.996264)"/>
     <use xlink:href="#CMR17-61" transform="translate(943.075147 -495.824557) scale(0.996264)"/>
     <use xlink:href="#CMR17-62" transform="translate(988.765624 -495.824557) scale(0.996264)"/>
     <use xlink:href="#CMR17-69" transform="translate(1039.660994 -495.824557) scale(0.996264)"/>
     <use xlink:href="#CMR17-6c" transform="translate(1064.532053 -495.824557) scale(0.996264)"/>
     <use xlink:href="#CMR17-69" transform="translate(1089.403111 -495.824557) scale(0.996264)"/>
     <use xlink:href="#CMR17-74" transform="translate(1114.27417 -495.824557) scale(0.996264)"/>
     <use xlink:href="#CMR17-69" transform="translate(1149.554937 -495.824557) scale(0.996264)"/>
     <use xlink:href="#CMR17-65" transform="translate(1174.425996 -495.824557) scale(0.996264)"/>
     <use xlink:href="#CMR17-73" transform="translate(1214.911656 -495.824557) scale(0.996264)"/>
    </g>
   </g>
  </g>
 </g>
</svg>
