<?xml version="1.0" encoding="utf-8" standalone="no"?>
<!DOCTYPE svg PUBLIC "-//W3C//DTD SVG 1.1//EN"
  "http://www.w3.org/Graphics/SVG/1.1/DTD/svg11.dtd">
<svg xmlns:xlink="http://www.w3.org/1999/xlink" width="572.4pt" height="125.28pt" viewBox="0 0 572.4 125.28" xmlns="http://www.w3.org/2000/svg" version="1.1">
 <metadata>
  <rdf:RDF xmlns:dc="http://purl.org/dc/elements/1.1/" xmlns:cc="http://creativecommons.org/ns#" xmlns:rdf="http://www.w3.org/1999/02/22-rdf-syntax-ns#">
   <cc:Work>
    <dc:type rdf:resource="http://purl.org/dc/dcmitype/StillImage"/>
    <dc:date>2025-11-30T11:51:19.762558</dc:date>
    <dc:format>image/svg+xml</dc:format>
    <dc:creator>
     <cc:Agent>
      <dc:title>Matplotlib v3.10.7, https://matplotlib.org/</dc:title>
     </cc:Agent>
    </dc:creator>
   </cc:Work>
  </rdf:RDF>
 </metadata>
 <defs>
  <style type="text/css">*{stroke-linejoin: round; stroke-linecap: butt}</style>
 </defs>
 <g id="figure_1">
  <g id="patch_1">
   <path d="M 0 125.28 
L 572.4 125.28 
L 572.4 0 
L 0 0 
L 0 125.28 
z
" style="fill: none; opacity: 0"/>
  </g>
  <g id="axes_1">
   <g id="text_1">
    <!-- $\Pr : \text{Probability} \\  \text{PE} : \text{Perturb-Encode function} \\  v_1, v_2 : \text{Different input values} \\  y : \text{Perturbed output} \\  S(y) : \text{Support set of y} \\  q : \text{False positive probability}$ -->
    <g transform="translate(166.82263 21.697245) scale(0.2 -0.2)">
     <defs>
      <path id="CMR17-50" d="M 1267 2042 
L 2291 2042 
C 3117 2042 3718 2578 3718 3184 
C 3718 3791 3130 4352 2291 4352 
L 333 4352 
L 333 4186 
C 774 4186 845 4186 845 3899 
L 845 446 
C 845 160 774 160 333 160 
L 333 0 
C 518 0 858 0 1056 0 
C 1254 0 1594 0 1779 0 
L 1779 160 
C 1338 160 1267 160 1267 446 
L 1267 2042 
z
M 1254 2176 
L 1254 3938 
C 1254 4155 1267 4186 1523 4186 
L 2170 4186 
C 2995 4186 3232 3714 3232 3184 
C 3232 2604 2950 2176 2170 2176 
L 1254 2176 
z
" transform="scale(0.015625)"/>
      <path id="CMR17-72" d="M 960 1497 
C 960 2112 1222 2688 1702 2688 
C 1747 2688 1792 2682 1837 2662 
C 1837 2662 1696 2617 1696 2452 
C 1696 2298 1818 2234 1914 2234 
C 1990 2234 2131 2279 2131 2458 
C 2131 2663 1926 2790 1709 2790 
C 1222 2790 1011 2317 947 2093 
L 941 2093 
L 941 2790 
L 198 2720 
L 198 2554 
C 576 2554 634 2515 634 2208 
L 634 428 
C 634 184 608 153 198 153 
L 198 -13 
C 352 0 646 0 813 0 
C 998 0 1325 0 1498 -13 
L 1498 153 
C 1037 153 960 153 960 440 
L 960 1497 
z
" transform="scale(0.015625)"/>
      <path id="CMR17-3a" d="M 1062 2491 
C 1062 2650 934 2752 800 2752 
C 672 2752 538 2650 538 2491 
C 538 2332 666 2230 800 2230 
C 928 2230 1062 2332 1062 2491 
z
M 1062 261 
C 1062 420 934 522 800 522 
C 672 522 538 420 538 261 
C 538 102 666 0 800 0 
C 928 0 1062 102 1062 261 
z
" transform="scale(0.015625)"/>
      <path id="CMR17-6f" d="M 2758 1356 
C 2758 2176 2163 2816 1466 2816 
C 768 2816 173 2176 173 1356 
C 173 551 768 -64 1466 -64 
C 2163 -64 2758 551 2758 1356 
z
M 1466 51 
C 1165 51 909 230 762 480 
C 602 767 582 1126 582 1408 
C 582 1677 595 2010 762 2298 
C 890 2509 1139 2714 1466 2714 
C 1754 2714 1997 2554 2150 2330 
C 2349 2029 2349 1607 2349 1408 
C 2349 1158 2336 775 2163 467 
C 1984 173 1709 51 1466 51 
z
" transform="scale(0.015625)"/>
      <path id="CMR17-62" d="M 960 4396 
L 198 4326 
L 198 4160 
C 576 4160 634 4122 634 3817 
L 634 -13 
L 749 -13 
L 934 441 
C 1120 141 1395 -64 1766 -64 
C 2406 -64 3053 500 3053 1370 
C 3053 2188 2477 2790 1830 2790 
C 1434 2790 1152 2579 960 2330 
L 960 4396 
z
M 973 2004 
C 973 2118 973 2138 1062 2272 
C 1312 2657 1670 2688 1792 2688 
C 1984 2688 2643 2585 2643 1376 
C 2643 108 1888 38 1734 38 
C 1536 38 1248 114 1043 486 
C 973 608 973 621 973 735 
L 973 2004 
z
" transform="scale(0.015625)"/>
      <path id="CMR17-61" d="M 2304 1653 
C 2304 2072 2304 2294 2035 2543 
C 1798 2752 1523 2816 1306 2816 
C 800 2816 435 2407 435 1971 
C 435 1728 627 1728 666 1728 
C 749 1728 896 1778 896 1954 
C 896 2112 774 2181 666 2181 
C 640 2181 608 2174 589 2168 
C 723 2592 1069 2714 1293 2714 
C 1613 2714 1965 2429 1965 1885 
L 1965 1600 
C 1587 1600 1133 1549 774 1357 
C 371 1133 256 813 256 570 
C 256 77 832 -64 1171 -64 
C 1523 -64 1850 139 1990 511 
C 2003 233 2182 -18 2464 -18 
C 2598 -18 2938 70 2938 567 
L 2938 920 
L 2822 920 
L 2822 562 
C 2822 178 2650 128 2566 128 
C 2304 128 2304 458 2304 738 
L 2304 1653 
z
M 1965 870 
C 1965 317 1568 38 1216 38 
C 896 38 646 275 646 570 
C 646 761 730 1100 1101 1305 
C 1408 1478 1760 1504 1965 1504 
L 1965 870 
z
" transform="scale(0.015625)"/>
      <path id="CMR17-69" d="M 992 3909 
C 992 4049 877 4170 730 4170 
C 589 4170 467 4056 467 3909 
C 467 3769 582 3648 730 3648 
C 870 3648 992 3763 992 3909 
z
M 243 2706 
L 243 2541 
C 602 2541 653 2502 653 2197 
L 653 427 
C 653 184 627 153 218 153 
L 218 -13 
C 371 0 646 0 806 0 
C 960 0 1222 0 1370 -13 
L 1370 153 
C 992 153 979 191 979 420 
L 979 2776 
L 243 2706 
z
" transform="scale(0.015625)"/>
      <path id="CMR17-6c" d="M 979 4396 
L 218 4326 
L 218 4160 
C 595 4160 653 4122 653 3817 
L 653 426 
C 653 184 627 153 218 153 
L 218 -13 
C 371 0 653 0 813 0 
C 979 0 1261 0 1414 -13 
L 1414 153 
C 1005 153 979 178 979 426 
L 979 4396 
z
" transform="scale(0.015625)"/>
      <path id="CMR17-74" d="M 966 2560 
L 1862 2560 
L 1862 2725 
L 966 2725 
L 966 3904 
L 851 3904 
C 838 3245 614 2668 70 2668 
L 70 2560 
L 627 2560 
L 627 771 
C 627 650 627 -64 1370 -64 
C 1747 -64 1965 306 1965 777 
L 1965 1140 
L 1850 1140 
L 1850 783 
C 1850 344 1677 51 1408 51 
C 1222 51 966 178 966 758 
L 966 2560 
z
" transform="scale(0.015625)"/>
      <path id="CMR17-79" d="M 2496 2197 
C 2656 2586 2944 2586 3034 2586 
L 3034 2752 
C 2912 2752 2752 2752 2630 2752 
C 2496 2752 2285 2752 2157 2758 
L 2157 2592 
C 2400 2573 2406 2394 2406 2343 
C 2406 2280 2394 2248 2362 2171 
L 1664 449 
L 902 2306 
C 870 2382 870 2426 870 2433 
C 870 2573 1018 2586 1171 2586 
L 1171 2758 
C 1018 2752 742 2752 582 2752 
C 410 2752 205 2752 64 2758 
L 64 2586 
C 410 2586 448 2554 531 2350 
L 1485 15 
C 1197 -738 1030 -1178 627 -1178 
C 557 -1178 397 -1159 282 -1044 
C 429 -1031 493 -942 493 -833 
C 493 -725 416 -629 288 -629 
C 147 -629 77 -725 77 -840 
C 77 -1095 339 -1280 627 -1280 
C 998 -1280 1229 -922 1357 -604 
L 2496 2197 
z
" transform="scale(0.015625)"/>
      <path id="CMR17-45" d="M 3885 1615 
L 3770 1615 
C 3629 676 3546 166 2419 166 
L 1530 166 
C 1274 166 1261 197 1261 414 
L 1261 2176 
L 1862 2176 
C 2464 2176 2522 1960 2522 1430 
L 2637 1430 
L 2637 3081 
L 2522 3081 
C 2522 2557 2464 2342 1862 2342 
L 1261 2342 
L 1261 3913 
C 1261 4128 1274 4160 1530 4160 
L 2406 4160 
C 3398 4160 3514 3769 3603 2929 
L 3718 2929 
L 3565 4325 
L 326 4325 
L 326 4160 
C 768 4160 838 4160 838 3874 
L 838 451 
C 838 166 768 166 326 166 
L 326 0 
L 3654 0 
L 3885 1615 
z
" transform="scale(0.015625)"/>
      <path id="CMR17-65" d="M 2438 1472 
C 2464 1498 2464 1511 2464 1576 
C 2464 2238 2118 2816 1389 2816 
C 710 2816 173 2169 173 1383 
C 173 551 781 -64 1459 -64 
C 2176 -64 2458 607 2458 740 
C 2458 784 2419 784 2406 784 
C 2362 784 2355 771 2330 696 
C 2189 265 1837 51 1504 51 
C 1229 51 954 203 781 480 
C 582 803 582 1176 582 1472 
L 2438 1472 
z
M 589 1568 
C 634 2505 1126 2714 1382 2714 
C 1818 2714 2112 2297 2118 1568 
L 589 1568 
z
" transform="scale(0.015625)"/>
      <path id="CMR17-75" d="M 1882 2693 
L 1882 2528 
C 2259 2528 2317 2489 2317 2186 
L 2317 1032 
C 2317 500 2029 38 1555 38 
C 1030 38 986 348 986 678 
L 986 2763 
L 211 2693 
L 211 2528 
C 467 2528 640 2528 646 2274 
L 646 1058 
C 646 633 646 361 813 183 
C 896 101 1056 -64 1517 -64 
C 2061 -64 2272 377 2323 506 
L 2330 506 
L 2330 -63 
L 3091 -63 
L 3091 128 
C 2714 128 2656 166 2656 473 
L 2656 2763 
L 1882 2693 
z
" transform="scale(0.015625)"/>
      <path id="CMR17-2d" d="M 1632 1216 
L 1632 1496 
L 26 1496 
L 26 1216 
L 1632 1216 
z
" transform="scale(0.015625)"/>
      <path id="CMR17-6e" d="M 2656 1933 
C 2656 2259 2592 2790 1837 2790 
C 1331 2790 1069 2400 973 2144 
L 966 2144 
L 966 2790 
L 211 2720 
L 211 2554 
C 589 2554 646 2515 646 2208 
L 646 428 
C 646 184 621 153 211 153 
L 211 -13 
C 365 0 646 0 813 0 
C 979 0 1267 0 1421 -13 
L 1421 153 
C 1011 153 986 178 986 428 
L 986 1658 
C 986 2247 1344 2688 1792 2688 
C 2266 2688 2317 2266 2317 1958 
L 2317 428 
C 2317 184 2291 153 1882 153 
L 1882 -13 
C 2035 0 2317 0 2483 0 
C 2650 0 2938 0 3091 -13 
L 3091 153 
C 2682 153 2656 178 2656 428 
L 2656 1933 
z
" transform="scale(0.015625)"/>
      <path id="CMR17-63" d="M 2234 2240 
C 2112 2240 1933 2240 1933 2017 
C 1933 1838 2080 1787 2163 1787 
C 2208 1787 2394 1807 2394 2024 
C 2394 2467 1958 2803 1466 2803 
C 787 2803 211 2178 211 1363 
C 211 516 813 -64 1466 -64 
C 2259 -64 2458 677 2458 748 
C 2458 774 2451 793 2406 793 
C 2362 793 2355 787 2330 703 
C 2163 180 1798 51 1523 51 
C 1114 51 621 427 621 1369 
C 621 2338 1094 2688 1472 2688 
C 1722 2688 2093 2573 2234 2240 
z
" transform="scale(0.015625)"/>
      <path id="CMR17-64" d="M 1869 4326 
L 1869 4160 
C 2246 4160 2304 4122 2304 3820 
L 2304 2345 
C 2278 2377 2016 2790 1498 2790 
C 845 2790 211 2208 211 1364 
C 211 525 806 -64 1434 -64 
C 1978 -64 2259 337 2291 380 
L 2291 -63 
L 3066 -63 
L 3066 128 
C 2688 128 2630 166 2630 473 
L 2630 4396 
L 1869 4326 
z
M 2291 755 
C 2291 563 2176 390 2029 262 
C 1811 70 1594 38 1472 38 
C 1286 38 621 134 621 1356 
C 621 2612 1363 2688 1530 2688 
C 1824 2688 2061 2522 2208 2291 
C 2291 2157 2291 2138 2291 2023 
L 2291 755 
z
" transform="scale(0.015625)"/>
      <path id="CMR17-66" d="M 979 2560 
L 1709 2560 
L 1709 2725 
L 966 2725 
L 966 3494 
C 966 4022 1235 4352 1510 4352 
C 1594 4352 1690 4327 1754 4282 
C 1702 4269 1568 4225 1568 4067 
C 1568 3901 1696 3850 1786 3850 
C 1875 3850 2003 3901 2003 4067 
C 2003 4308 1773 4454 1517 4454 
C 1152 4454 653 4156 653 3481 
L 653 2725 
L 141 2725 
L 141 2560 
L 653 2560 
L 653 427 
C 653 184 627 153 218 153 
L 218 -13 
C 371 0 666 0 832 0 
C 1018 0 1344 0 1517 -13 
L 1517 153 
C 1056 153 979 153 979 439 
L 979 2560 
z
" transform="scale(0.015625)"/>
      <path id="CMMI12-76" d="M 2925 2389 
C 2925 2791 2720 2816 2669 2816 
C 2515 2816 2374 2663 2374 2535 
C 2374 2459 2419 2414 2445 2389 
C 2509 2331 2675 2159 2675 1827 
C 2675 1558 2291 64 1523 64 
C 1133 64 1056 390 1056 626 
C 1056 945 1203 1392 1376 1852 
C 1478 2114 1504 2178 1504 2305 
C 1504 2574 1312 2816 998 2816 
C 410 2816 173 1890 173 1839 
C 173 1814 198 1782 243 1782 
C 301 1782 307 1807 333 1897 
C 486 2446 736 2689 979 2689 
C 1037 2689 1146 2689 1146 2478 
C 1146 2312 1075 2127 979 1884 
C 672 1067 672 869 672 715 
C 672 575 691 313 890 134 
C 1120 -64 1440 -64 1498 -64 
C 2560 -64 2925 2024 2925 2389 
z
" transform="scale(0.015625)"/>
      <path id="CMR17-31" d="M 1702 4058 
C 1702 4192 1696 4192 1606 4192 
C 1357 3916 979 3827 621 3827 
C 602 3827 570 3827 563 3808 
C 557 3795 557 3782 557 3648 
C 755 3648 1088 3686 1344 3839 
L 1344 461 
C 1344 236 1331 160 781 160 
L 589 160 
L 589 0 
C 896 0 1216 0 1523 0 
C 1830 0 2150 0 2458 0 
L 2458 160 
L 2266 160 
C 1715 160 1702 230 1702 458 
L 1702 4058 
z
" transform="scale(0.015625)"/>
      <path id="CMMI12-3b" d="M 1248 -31 
C 1248 343 1126 619 864 619 
C 659 619 557 453 557 313 
C 557 172 653 0 870 0 
C 954 0 1024 26 1082 83 
C 1094 96 1101 96 1107 96 
C 1120 96 1120 5 1120 -27 
C 1120 -240 1082 -659 710 -1080 
C 640 -1157 640 -1170 640 -1183 
C 640 -1216 672 -1248 704 -1248 
C 755 -1248 1248 -771 1248 -31 
z
" transform="scale(0.015625)"/>
      <path id="CMR17-32" d="M 2669 989 
L 2554 989 
C 2490 536 2438 459 2413 420 
C 2381 369 1920 369 1830 369 
L 602 369 
C 832 619 1280 1072 1824 1597 
C 2214 1967 2669 2402 2669 3035 
C 2669 3790 2067 4224 1395 4224 
C 691 4224 262 3604 262 3030 
C 262 2780 448 2748 525 2748 
C 589 2748 781 2787 781 3010 
C 781 3207 614 3264 525 3264 
C 486 3264 448 3258 422 3245 
C 544 3790 915 4058 1306 4058 
C 1862 4058 2227 3617 2227 3035 
C 2227 2479 1901 2000 1536 1584 
L 262 146 
L 262 0 
L 2515 0 
L 2669 989 
z
" transform="scale(0.015625)"/>
      <path id="CMR17-44" d="M 333 4352 
L 333 4186 
C 774 4186 845 4186 845 3900 
L 845 452 
C 845 166 774 166 333 166 
L 333 0 
L 2368 0 
C 3398 0 4224 943 4224 2141 
C 4224 3346 3411 4352 2368 4352 
L 333 4352 
z
M 1523 166 
C 1267 166 1254 197 1254 414 
L 1254 3938 
C 1254 4155 1267 4186 1523 4186 
L 2240 4186 
C 2771 4186 3750 3874 3750 2141 
C 3750 1242 3488 879 3366 707 
C 3213 510 2848 166 2240 166 
L 1523 166 
z
" transform="scale(0.015625)"/>
      <path id="CMR17-b" d="M 2554 2560 
L 3283 2560 
L 3283 2725 
L 2541 2725 
L 2541 3494 
C 2541 4022 2810 4352 3085 4352 
C 3168 4352 3264 4327 3328 4282 
C 3277 4269 3142 4225 3142 4067 
C 3142 3901 3270 3850 3360 3850 
C 3450 3850 3578 3901 3578 4067 
C 3578 4308 3347 4454 3091 4454 
C 2842 4454 2637 4333 2477 4181 
C 2330 4390 2086 4454 1837 4454 
C 1338 4454 634 4168 634 3469 
L 634 2725 
L 122 2725 
L 122 2560 
L 634 2560 
L 634 427 
C 634 184 608 153 198 153 
L 198 -13 
C 352 0 634 0 794 0 
C 960 0 1242 0 1395 -13 
L 1395 153 
C 986 153 960 178 960 427 
L 960 2560 
L 2227 2560 
L 2227 427 
C 2227 184 2202 153 1792 153 
L 1792 -13 
C 1946 0 2240 0 2406 0 
C 2592 0 2918 0 3091 -13 
L 3091 153 
C 2630 153 2554 153 2554 439 
L 2554 2560 
z
M 947 2725 
L 947 3469 
C 947 4047 1395 4352 1824 4352 
C 1920 4352 2170 4332 2323 4187 
C 2208 4187 2099 4136 2099 3977 
C 2099 3812 2246 3767 2259 3767 
C 2227 3652 2227 3526 2227 3481 
L 2227 2725 
L 947 2725 
z
" transform="scale(0.015625)"/>
      <path id="CMR17-70" d="M 1408 -1063 
C 998 -1063 973 -1037 973 -789 
L 973 402 
C 1158 134 1427 -38 1766 -38 
C 2406 -38 3053 523 3053 1388 
C 3053 2191 2496 2802 1837 2802 
C 1453 2802 1139 2592 960 2338 
L 960 2802 
L 198 2732 
L 198 2567 
C 576 2567 634 2528 634 2223 
L 634 -789 
C 634 -1031 608 -1063 198 -1063 
L 198 -1228 
C 352 -1216 634 -1216 800 -1216 
C 966 -1216 1254 -1216 1408 -1228 
L 1408 -1063 
z
M 973 2012 
C 973 2102 973 2235 1222 2471 
C 1254 2497 1472 2688 1792 2688 
C 2259 2688 2643 2108 2643 1382 
C 2643 656 2234 64 1728 64 
C 1498 64 1248 172 1056 472 
C 973 612 973 650 973 752 
L 973 2012 
z
" transform="scale(0.015625)"/>
      <path id="CMR17-76" d="M 2502 2163 
C 2560 2304 2662 2560 3034 2560 
L 3034 2726 
C 2912 2726 2752 2726 2630 2726 
C 2496 2726 2285 2726 2157 2732 
L 2157 2566 
C 2317 2553 2406 2477 2406 2311 
C 2406 2253 2406 2240 2368 2151 
L 1664 377 
L 902 2286 
C 864 2369 864 2381 864 2407 
C 864 2560 1075 2560 1171 2560 
L 1171 2732 
C 1018 2726 736 2726 576 2726 
C 403 2726 205 2726 64 2732 
L 64 2560 
C 307 2560 442 2560 518 2362 
L 1446 44 
C 1485 -51 1491 -64 1549 -64 
C 1606 -64 1613 -51 1651 44 
L 2502 2163 
z
" transform="scale(0.015625)"/>
      <path id="CMR17-73" d="M 1978 2697 
C 1978 2813 1971 2819 1933 2819 
C 1907 2819 1901 2813 1824 2717 
C 1805 2691 1747 2626 1728 2601 
C 1523 2819 1235 2819 1126 2819 
C 416 2819 160 2447 160 2076 
C 160 1498 813 1365 998 1325 
C 1402 1243 1542 1217 1677 1101 
C 1760 1025 1901 884 1901 654 
C 1901 384 1747 38 1158 38 
C 602 38 403 460 288 1021 
C 269 1110 269 1117 218 1117 
C 166 1117 160 1110 160 983 
L 160 63 
C 160 -51 166 -58 205 -58 
C 237 -58 243 -51 275 0 
C 314 57 410 211 448 276 
C 576 103 800 -64 1158 -64 
C 1792 -64 2131 283 2131 784 
C 2131 1112 1958 1285 1875 1362 
C 1683 1561 1459 1606 1190 1657 
C 838 1735 390 1825 390 2217 
C 390 2383 480 2737 1126 2737 
C 1811 2737 1850 2094 1862 1888 
C 1869 1856 1901 1849 1920 1849 
C 1978 1849 1978 1869 1978 1978 
L 1978 2697 
z
" transform="scale(0.015625)"/>
      <path id="CMMI12-79" d="M 1683 -700 
C 1510 -939 1261 -1152 947 -1152 
C 870 -1152 563 -1152 467 -889 
C 486 -895 518 -895 531 -895 
C 723 -895 851 -729 851 -582 
C 851 -435 730 -384 634 -384 
C 531 -384 307 -458 307 -759 
C 307 -1071 582 -1286 947 -1286 
C 1587 -1286 2234 -700 2413 6 
L 3040 2485 
C 3046 2517 3059 2556 3059 2594 
C 3059 2689 2982 2753 2886 2753 
C 2829 2753 2694 2727 2643 2535 
L 2170 658 
C 2138 543 2138 530 2086 460 
C 1958 281 1747 64 1440 64 
C 1082 64 1050 415 1050 588 
C 1050 952 1222 1443 1395 1903 
C 1466 2088 1504 2178 1504 2305 
C 1504 2574 1312 2816 998 2816 
C 410 2816 173 1890 173 1839 
C 173 1814 198 1782 243 1782 
C 301 1782 307 1807 333 1897 
C 486 2433 730 2689 979 2689 
C 1037 2689 1146 2689 1146 2478 
C 1146 2312 1075 2127 979 1884 
C 666 1047 666 837 666 683 
C 666 77 1101 -64 1421 -64 
C 1606 -64 1837 -6 2061 230 
L 2067 224 
C 1971 -147 1907 -392 1683 -700 
z
" transform="scale(0.015625)"/>
      <path id="CMMI12-53" d="M 4064 4423 
C 4064 4480 4019 4480 4006 4480 
C 3981 4480 3974 4474 3898 4378 
C 3859 4333 3597 4001 3590 3995 
C 3379 4410 2957 4480 2688 4480 
C 1875 4480 1139 3743 1139 3025 
C 1139 2549 1427 2269 1741 2161 
C 1811 2135 2189 2033 2381 1989 
C 2707 1900 2790 1875 2925 1735 
C 2950 1703 3078 1557 3078 1258 
C 3078 667 2528 57 1888 57 
C 1363 57 781 280 781 991 
C 781 1112 806 1265 826 1328 
C 826 1348 832 1378 832 1391 
C 832 1417 819 1449 768 1449 
C 710 1449 704 1436 678 1328 
L 352 24 
C 352 18 326 -64 326 -71 
C 326 -128 378 -128 390 -128 
C 416 -128 422 -122 499 -26 
L 794 356 
C 947 126 1280 -128 1875 -128 
C 2701 -128 3456 666 3456 1460 
C 3456 1728 3392 1963 3149 2197 
C 3014 2331 2899 2363 2310 2516 
C 1882 2630 1824 2649 1709 2751 
C 1600 2858 1517 3011 1517 3227 
C 1517 3761 2061 4308 2669 4308 
C 3296 4308 3590 3926 3590 3323 
C 3590 3158 3558 2986 3558 2961 
C 3558 2903 3610 2903 3629 2903 
C 3686 2903 3693 2922 3718 3024 
L 4064 4423 
z
" transform="scale(0.015625)"/>
      <path id="CMR17-28" d="M 1958 -1561 
C 1958 -1555 1958 -1542 1939 -1523 
C 1645 -1224 858 -407 858 1581 
C 858 3569 1632 4379 1946 4697 
C 1946 4704 1958 4717 1958 4736 
C 1958 4755 1939 4768 1914 4768 
C 1843 4768 1299 4296 986 3594 
C 666 2887 576 2199 576 1588 
C 576 1128 621 351 1005 -471 
C 1312 -1135 1837 -1600 1914 -1600 
C 1946 -1600 1958 -1587 1958 -1561 
z
" transform="scale(0.015625)"/>
      <path id="CMR17-29" d="M 1683 1581 
C 1683 2040 1638 2817 1254 3639 
C 947 4303 422 4768 346 4768 
C 326 4768 301 4761 301 4729 
C 301 4717 307 4710 314 4697 
C 621 4378 1402 3568 1402 1584 
C 1402 -407 627 -1217 314 -1537 
C 307 -1549 301 -1556 301 -1568 
C 301 -1600 326 -1600 346 -1600 
C 416 -1600 960 -1128 1274 -426 
C 1594 281 1683 969 1683 1581 
z
" transform="scale(0.015625)"/>
      <path id="CMR17-53" d="M 2803 4290 
C 2803 4404 2797 4411 2758 4411 
C 2720 4411 2707 4385 2682 4328 
L 2490 3907 
C 2246 4257 1875 4416 1472 4416 
C 819 4416 294 3901 294 3253 
C 294 3056 339 2776 557 2510 
C 794 2218 1018 2167 1530 2033 
C 1722 1982 2042 1899 2106 1874 
C 2470 1722 2662 1341 2662 985 
C 2662 527 2336 38 1779 38 
C 1094 38 454 419 410 1311 
C 403 1413 397 1419 352 1419 
C 301 1419 294 1413 294 1285 
L 294 -1 
C 294 -115 301 -122 339 -122 
C 384 -122 397 -90 486 108 
C 493 127 493 140 614 381 
C 934 -39 1472 -128 1779 -128 
C 2477 -128 2970 451 2970 1124 
C 2970 1454 2848 1708 2778 1823 
C 2509 2230 2221 2306 1914 2382 
C 1869 2402 1856 2402 1498 2490 
C 1152 2579 1005 2624 845 2796 
C 666 2992 602 3196 602 3399 
C 602 3812 934 4263 1478 4263 
C 2157 4263 2579 3786 2675 2993 
C 2694 2878 2701 2872 2746 2872 
C 2803 2872 2803 2891 2803 2999 
L 2803 4290 
z
" transform="scale(0.015625)"/>
      <path id="CMMI12-71" d="M 2822 2759 
C 2822 2790 2797 2816 2765 2816 
C 2714 2816 2464 2585 2342 2362 
C 2227 2646 2029 2816 1754 2816 
C 1030 2816 250 1884 250 939 
C 250 307 621 -64 1056 -64 
C 1395 -64 1677 193 1811 339 
L 1818 333 
L 1574 -615 
L 1517 -842 
C 1459 -1031 1363 -1031 1062 -1031 
C 992 -1031 928 -1031 928 -1152 
C 928 -1197 966 -1216 1011 -1216 
C 1101 -1216 1216 -1216 1306 -1216 
L 1958 -1216 
C 2054 -1216 2163 -1216 2259 -1216 
C 2298 -1216 2374 -1216 2374 -1095 
C 2374 -1031 2323 -1031 2227 -1031 
C 1926 -1031 1907 -986 1907 -935 
C 1907 -904 1914 -898 1933 -815 
L 2822 2759 
z
M 1920 762 
C 1888 652 1888 640 1798 518 
C 1658 339 1376 64 1075 64 
C 813 64 666 301 666 678 
C 666 1030 864 1747 986 2016 
C 1203 2464 1504 2695 1754 2695 
C 2176 2695 2259 2170 2259 2119 
C 2259 2113 2240 2028 2234 2016 
L 1920 762 
z
" transform="scale(0.015625)"/>
      <path id="CMR17-46" d="M 3482 4325 
L 326 4325 
L 326 4160 
C 768 4160 838 4160 838 3874 
L 838 446 
C 838 160 768 160 326 160 
L 326 0 
C 512 0 870 0 1069 0 
C 1331 0 1638 0 1901 0 
L 1901 160 
L 1760 160 
C 1274 160 1261 223 1261 452 
L 1261 2075 
L 1837 2075 
C 2432 2075 2490 1865 2490 1332 
L 2605 1332 
L 2605 2987 
L 2490 2987 
C 2490 2450 2432 2240 1837 2240 
L 1261 2240 
L 1261 3911 
C 1261 4128 1274 4160 1530 4160 
L 2355 4160 
C 3322 4160 3430 3765 3520 2916 
L 3635 2916 
L 3482 4325 
z
" transform="scale(0.015625)"/>
     </defs>
     <use xlink:href="#CMR17-50" transform="translate(14.94396 0) scale(0.996264)"/>
     <use xlink:href="#CMR17-72" transform="translate(77.530261 0) scale(0.996264)"/>
     <use xlink:href="#CMR17-3a" transform="translate(140.485037 0) scale(0.996264)"/>
     <use xlink:href="#CMR17-50" transform="translate(193.030104 0) scale(0.996264)"/>
     <use xlink:href="#CMR17-72" transform="translate(255.616405 0) scale(0.996264)"/>
     <use xlink:href="#CMR17-6f" transform="translate(290.897173 0) scale(0.996264)"/>
     <use xlink:href="#CMR17-62" transform="translate(336.58765 0) scale(0.996264)"/>
     <use xlink:href="#CMR17-61" transform="translate(387.48302 0) scale(0.996264)"/>
     <use xlink:href="#CMR17-62" transform="translate(433.173497 0) scale(0.996264)"/>
     <use xlink:href="#CMR17-69" transform="translate(484.068867 0) scale(0.996264)"/>
     <use xlink:href="#CMR17-6c" transform="translate(508.939925 0) scale(0.996264)"/>
     <use xlink:href="#CMR17-69" transform="translate(533.810983 0) scale(0.996264)"/>
     <use xlink:href="#CMR17-74" transform="translate(558.682042 0) scale(0.996264)"/>
     <use xlink:href="#CMR17-79" transform="translate(591.360356 0) scale(0.996264)"/>
     <use xlink:href="#CMR17-50" transform="translate(0 -89.559461) scale(0.996264)"/>
     <use xlink:href="#CMR17-45" transform="translate(62.586301 -89.559461) scale(0.996264)"/>
     <use xlink:href="#CMR17-3a" transform="translate(152.84661 -89.559461) scale(0.996264)"/>
     <use xlink:href="#CMR17-50" transform="translate(205.391677 -89.559461) scale(0.996264)"/>
     <use xlink:href="#CMR17-65" transform="translate(265.375524 -89.559461) scale(0.996264)"/>
     <use xlink:href="#CMR17-72" transform="translate(305.861184 -89.559461) scale(0.996264)"/>
     <use xlink:href="#CMR17-74" transform="translate(341.141952 -89.559461) scale(0.996264)"/>
     <use xlink:href="#CMR17-75" transform="translate(376.42272 -89.559461) scale(0.996264)"/>
     <use xlink:href="#CMR17-72" transform="translate(427.318089 -89.559461) scale(0.996264)"/>
     <use xlink:href="#CMR17-62" transform="translate(462.598857 -89.559461) scale(0.996264)"/>
     <use xlink:href="#CMR17-2d" transform="translate(513.494227 -89.559461) scale(0.996264)"/>
     <use xlink:href="#CMR17-45" transform="translate(543.570193 -89.559461) scale(0.996264)"/>
     <use xlink:href="#CMR17-6e" transform="translate(606.156494 -89.559461) scale(0.996264)"/>
     <use xlink:href="#CMR17-63" transform="translate(657.051864 -89.559461) scale(0.996264)"/>
     <use xlink:href="#CMR17-6f" transform="translate(697.537524 -89.559461) scale(0.996264)"/>
     <use xlink:href="#CMR17-64" transform="translate(745.83044 -89.559461) scale(0.996264)"/>
     <use xlink:href="#CMR17-65" transform="translate(796.72581 -89.559461) scale(0.996264)"/>
     <use xlink:href="#CMR17-66" transform="translate(867.287437 -89.559461) scale(0.996264)"/>
     <use xlink:href="#CMR17-75" transform="translate(894.760949 -89.559461) scale(0.996264)"/>
     <use xlink:href="#CMR17-6e" transform="translate(945.656319 -89.559461) scale(0.996264)"/>
     <use xlink:href="#CMR17-63" transform="translate(996.551688 -89.559461) scale(0.996264)"/>
     <use xlink:href="#CMR17-74" transform="translate(1037.037349 -89.559461) scale(0.996264)"/>
     <use xlink:href="#CMR17-69" transform="translate(1072.318117 -89.559461) scale(0.996264)"/>
     <use xlink:href="#CMR17-6f" transform="translate(1097.189175 -89.559461) scale(0.996264)"/>
     <use xlink:href="#CMR17-6e" transform="translate(1142.879652 -89.559461) scale(0.996264)"/>
     <use xlink:href="#CMMI12-76" transform="translate(0 -159.74074) scale(0.996264)"/>
     <use xlink:href="#CMR17-31" transform="translate(47.160581 -174.684654) scale(0.697382)"/>
     <use xlink:href="#CMMI12-3b" transform="translate(79.641895 -159.74074) scale(0.996264)"/>
     <use xlink:href="#CMMI12-76" transform="translate(123.343477 -159.74074) scale(0.996264)"/>
     <use xlink:href="#CMR17-32" transform="translate(170.504058 -174.684654) scale(0.697382)"/>
     <use xlink:href="#CMR17-3a" transform="translate(230.65938 -159.74074) scale(0.996264)"/>
     <use xlink:href="#CMR17-44" transform="translate(283.204448 -159.74074) scale(0.996264)"/>
     <use xlink:href="#CMR17-69" transform="translate(353.598003 -159.74074) scale(0.996264)"/>
     <use xlink:href="#CMR17-b" transform="translate(378.469062 -159.74074) scale(0.996264)"/>
     <use xlink:href="#CMR17-65" transform="translate(430.813739 -159.74074) scale(0.996264)"/>
     <use xlink:href="#CMR17-72" transform="translate(471.2994 -159.74074) scale(0.996264)"/>
     <use xlink:href="#CMR17-65" transform="translate(506.580168 -159.74074) scale(0.996264)"/>
     <use xlink:href="#CMR17-6e" transform="translate(547.065828 -159.74074) scale(0.996264)"/>
     <use xlink:href="#CMR17-74" transform="translate(595.358744 -159.74074) scale(0.996264)"/>
     <use xlink:href="#CMR17-69" transform="translate(660.715478 -159.74074) scale(0.996264)"/>
     <use xlink:href="#CMR17-6e" transform="translate(685.586536 -159.74074) scale(0.996264)"/>
     <use xlink:href="#CMR17-70" transform="translate(736.481906 -159.74074) scale(0.996264)"/>
     <use xlink:href="#CMR17-75" transform="translate(787.377276 -159.74074) scale(0.996264)"/>
     <use xlink:href="#CMR17-74" transform="translate(838.272646 -159.74074) scale(0.996264)"/>
     <use xlink:href="#CMR17-76" transform="translate(903.62938 -159.74074) scale(0.996264)"/>
     <use xlink:href="#CMR17-61" transform="translate(946.717479 -159.74074) scale(0.996264)"/>
     <use xlink:href="#CMR17-6c" transform="translate(992.407956 -159.74074) scale(0.996264)"/>
     <use xlink:href="#CMR17-75" transform="translate(1017.279015 -159.74074) scale(0.996264)"/>
     <use xlink:href="#CMR17-65" transform="translate(1068.174385 -159.74074) scale(0.996264)"/>
     <use xlink:href="#CMR17-73" transform="translate(1108.660045 -159.74074) scale(0.996264)"/>
     <use xlink:href="#CMMI12-79" transform="translate(0 -249.300201) scale(0.996264)"/>
     <use xlink:href="#CMR17-3a" transform="translate(78.812789 -249.300201) scale(0.996264)"/>
     <use xlink:href="#CMR17-50" transform="translate(131.357857 -249.300201) scale(0.996264)"/>
     <use xlink:href="#CMR17-65" transform="translate(191.341703 -249.300201) scale(0.996264)"/>
     <use xlink:href="#CMR17-72" transform="translate(231.827364 -249.300201) scale(0.996264)"/>
     <use xlink:href="#CMR17-74" transform="translate(267.108131 -249.300201) scale(0.996264)"/>
     <use xlink:href="#CMR17-75" transform="translate(302.388899 -249.300201) scale(0.996264)"/>
     <use xlink:href="#CMR17-72" transform="translate(353.284269 -249.300201) scale(0.996264)"/>
     <use xlink:href="#CMR17-62" transform="translate(388.565037 -249.300201) scale(0.996264)"/>
     <use xlink:href="#CMR17-65" transform="translate(442.062845 -249.300201) scale(0.996264)"/>
     <use xlink:href="#CMR17-64" transform="translate(482.548506 -249.300201) scale(0.996264)"/>
     <use xlink:href="#CMR17-6f" transform="translate(563.519842 -249.300201) scale(0.996264)"/>
     <use xlink:href="#CMR17-75" transform="translate(609.210319 -249.300201) scale(0.996264)"/>
     <use xlink:href="#CMR17-74" transform="translate(660.105689 -249.300201) scale(0.996264)"/>
     <use xlink:href="#CMR17-70" transform="translate(695.386457 -249.300201) scale(0.996264)"/>
     <use xlink:href="#CMR17-75" transform="translate(746.281826 -249.300201) scale(0.996264)"/>
     <use xlink:href="#CMR17-74" transform="translate(797.177196 -249.300201) scale(0.996264)"/>
     <use xlink:href="#CMMI12-53" transform="translate(0 -344.304759) scale(0.996264)"/>
     <use xlink:href="#CMR17-28" transform="translate(65.794439 -344.304759) scale(0.996264)"/>
     <use xlink:href="#CMMI12-79" transform="translate(101.075207 -344.304759) scale(0.996264)"/>
     <use xlink:href="#CMR17-29" transform="translate(152.213988 -344.304759) scale(0.996264)"/>
     <use xlink:href="#CMR17-3a" transform="translate(215.168764 -344.304759) scale(0.996264)"/>
     <use xlink:href="#CMR17-53" transform="translate(267.713831 -344.304759) scale(0.996264)"/>
     <use xlink:href="#CMR17-75" transform="translate(318.609201 -344.304759) scale(0.996264)"/>
     <use xlink:href="#CMR17-70" transform="translate(369.504571 -344.304759) scale(0.996264)"/>
     <use xlink:href="#CMR17-70" transform="translate(420.399941 -344.304759) scale(0.996264)"/>
     <use xlink:href="#CMR17-6f" transform="translate(473.897749 -344.304759) scale(0.996264)"/>
     <use xlink:href="#CMR17-72" transform="translate(519.588226 -344.304759) scale(0.996264)"/>
     <use xlink:href="#CMR17-74" transform="translate(554.868994 -344.304759) scale(0.996264)"/>
     <use xlink:href="#CMR17-73" transform="translate(620.225728 -344.304759) scale(0.996264)"/>
     <use xlink:href="#CMR17-65" transform="translate(656.027066 -344.304759) scale(0.996264)"/>
     <use xlink:href="#CMR17-74" transform="translate(696.512726 -344.304759) scale(0.996264)"/>
     <use xlink:href="#CMR17-6f" transform="translate(761.86946 -344.304759) scale(0.996264)"/>
     <use xlink:href="#CMR17-66" transform="translate(807.559938 -344.304759) scale(0.996264)"/>
     <use xlink:href="#CMR17-79" transform="translate(865.109416 -344.304759) scale(0.996264)"/>
     <use xlink:href="#CMMI12-71" transform="translate(0 -439.309301) scale(0.996264)"/>
     <use xlink:href="#CMR17-3a" transform="translate(74.500333 -439.309301) scale(0.996264)"/>
     <use xlink:href="#CMR17-46" transform="translate(127.0454 -439.309301) scale(0.996264)"/>
     <use xlink:href="#CMR17-61" transform="translate(179.221991 -439.309301) scale(0.996264)"/>
     <use xlink:href="#CMR17-6c" transform="translate(224.912468 -439.309301) scale(0.996264)"/>
     <use xlink:href="#CMR17-73" transform="translate(249.783527 -439.309301) scale(0.996264)"/>
     <use xlink:href="#CMR17-65" transform="translate(285.584864 -439.309301) scale(0.996264)"/>
     <use xlink:href="#CMR17-70" transform="translate(356.146491 -439.309301) scale(0.996264)"/>
     <use xlink:href="#CMR17-6f" transform="translate(409.6443 -439.309301) scale(0.996264)"/>
     <use xlink:href="#CMR17-73" transform="translate(455.334777 -439.309301) scale(0.996264)"/>
     <use xlink:href="#CMR17-69" transform="translate(491.136114 -439.309301) scale(0.996264)"/>
     <use xlink:href="#CMR17-74" transform="translate(516.007173 -439.309301) scale(0.996264)"/>
     <use xlink:href="#CMR17-69" transform="translate(551.287941 -439.309301) scale(0.996264)"/>
     <use xlink:href="#CMR17-76" transform="translate(576.158999 -439.309301) scale(0.996264)"/>
     <use xlink:href="#CMR17-65" transform="translate(621.849461 -439.309301) scale(0.996264)"/>
     <use xlink:href="#CMR17-70" transform="translate(692.411088 -439.309301) scale(0.996264)"/>
     <use xlink:href="#CMR17-72" transform="translate(743.306458 -439.309301) scale(0.996264)"/>
     <use xlink:href="#CMR17-6f" transform="translate(778.587225 -439.309301) scale(0.996264)"/>
     <use xlink:href="#CMR17-62" transform="translate(824.277703 -439.309301) scale(0.996264)"/>
     <use xlink:href="#CMR17-61" transform="translate(875.173072 -439.309301) scale(0.996264)"/>
     <use xlink:href="#CMR17-62" transform="translate(920.863549 -439.309301) scale(0.996264)"/>
     <use xlink:href="#CMR17-69" transform="translate(971.758919 -439.309301) scale(0.996264)"/>
     <use xlink:href="#CMR17-6c" transform="translate(996.629978 -439.309301) scale(0.996264)"/>
     <use xlink:href="#CMR17-69" transform="translate(1021.501036 -439.309301) scale(0.996264)"/>
     <use xlink:href="#CMR17-74" transform="translate(1046.372095 -439.309301) scale(0.996264)"/>
     <use xlink:href="#CMR17-79" transform="translate(1079.050409 -439.309301) scale(0.996264)"/>
    </g>
   </g>
  </g>
 </g>
</svg>
