<?xml version="1.0" encoding="utf-8" standalone="no"?>
<!DOCTYPE svg PUBLIC "-//W3C//DTD SVG 1.1//EN"
  "http://www.w3.org/Graphics/SVG/1.1/DTD/svg11.dtd">
<svg xmlns:xlink="http://www.w3.org/1999/xlink" width="572.4pt" height="125.28pt" viewBox="0 0 572.4 125.28" xmlns="http://www.w3.org/2000/svg" version="1.1">
 <metadata>
  <rdf:RDF xmlns:dc="http://purl.org/dc/elements/1.1/" xmlns:cc="http://creativecommons.org/ns#" xmlns:rdf="http://www.w3.org/1999/02/22-rdf-syntax-ns#">
   <cc:Work>
    <dc:type rdf:resource="http://purl.org/dc/dcmitype/StillImage"/>
    <dc:date>2025-11-30T11:51:05.906546</dc:date>
    <dc:format>image/svg+xml</dc:format>
    <dc:creator>
     <cc:Agent>
      <dc:title>Matplotlib v3.10.7, https://matplotlib.org/</dc:title>
     </cc:Agent>
    </dc:creator>
   </cc:Work>
  </rdf:RDF>
 </metadata>
 <defs>
  <style type="text/css">*{stroke-linejoin: round; stroke-linecap: butt}</style>
 </defs>
 <g id="figure_1">
  <g id="patch_1">
   <path d="M 0 125.28 
L 572.4 125.28 
L 572.4 0 
L 0 0 
L 0 125.28 
z
" style="fill: none; opacity: 0"/>
  </g>
  <g id="axes_1">
   <g id="text_1">
    <!-- $\Pr : \text{Probability} \\  S_i : \text{Perturbed bit at position i} \\  B_0[i] : \text{Original bit at position i} \\  p : \text{Probability bit 0 flips to 1} \\  q : \text{Probability bit 1 stays 1}$ -->
    <g transform="translate(161.034361 29.113875) scale(0.2 -0.2)">
     <defs>
      <path id="CMR17-50" d="M 1267 2042 
L 2291 2042 
C 3117 2042 3718 2578 3718 3184 
C 3718 3791 3130 4352 2291 4352 
L 333 4352 
L 333 4186 
C 774 4186 845 4186 845 3899 
L 845 446 
C 845 160 774 160 333 160 
L 333 0 
C 518 0 858 0 1056 0 
C 1254 0 1594 0 1779 0 
L 1779 160 
C 1338 160 1267 160 1267 446 
L 1267 2042 
z
M 1254 2176 
L 1254 3938 
C 1254 4155 1267 4186 1523 4186 
L 2170 4186 
C 2995 4186 3232 3714 3232 3184 
C 3232 2604 2950 2176 2170 2176 
L 1254 2176 
z
" transform="scale(0.015625)"/>
      <path id="CMR17-72" d="M 960 1497 
C 960 2112 1222 2688 1702 2688 
C 1747 2688 1792 2682 1837 2662 
C 1837 2662 1696 2617 1696 2452 
C 1696 2298 1818 2234 1914 2234 
C 1990 2234 2131 2279 2131 2458 
C 2131 2663 1926 2790 1709 2790 
C 1222 2790 1011 2317 947 2093 
L 941 2093 
L 941 2790 
L 198 2720 
L 198 2554 
C 576 2554 634 2515 634 2208 
L 634 428 
C 634 184 608 153 198 153 
L 198 -13 
C 352 0 646 0 813 0 
C 998 0 1325 0 1498 -13 
L 1498 153 
C 1037 153 960 153 960 440 
L 960 1497 
z
" transform="scale(0.015625)"/>
      <path id="CMR17-3a" d="M 1062 2491 
C 1062 2650 934 2752 800 2752 
C 672 2752 538 2650 538 2491 
C 538 2332 666 2230 800 2230 
C 928 2230 1062 2332 1062 2491 
z
M 1062 261 
C 1062 420 934 522 800 522 
C 672 522 538 420 538 261 
C 538 102 666 0 800 0 
C 928 0 1062 102 1062 261 
z
" transform="scale(0.015625)"/>
      <path id="CMR17-6f" d="M 2758 1356 
C 2758 2176 2163 2816 1466 2816 
C 768 2816 173 2176 173 1356 
C 173 551 768 -64 1466 -64 
C 2163 -64 2758 551 2758 1356 
z
M 1466 51 
C 1165 51 909 230 762 480 
C 602 767 582 1126 582 1408 
C 582 1677 595 2010 762 2298 
C 890 2509 1139 2714 1466 2714 
C 1754 2714 1997 2554 2150 2330 
C 2349 2029 2349 1607 2349 1408 
C 2349 1158 2336 775 2163 467 
C 1984 173 1709 51 1466 51 
z
" transform="scale(0.015625)"/>
      <path id="CMR17-62" d="M 960 4396 
L 198 4326 
L 198 4160 
C 576 4160 634 4122 634 3817 
L 634 -13 
L 749 -13 
L 934 441 
C 1120 141 1395 -64 1766 -64 
C 2406 -64 3053 500 3053 1370 
C 3053 2188 2477 2790 1830 2790 
C 1434 2790 1152 2579 960 2330 
L 960 4396 
z
M 973 2004 
C 973 2118 973 2138 1062 2272 
C 1312 2657 1670 2688 1792 2688 
C 1984 2688 2643 2585 2643 1376 
C 2643 108 1888 38 1734 38 
C 1536 38 1248 114 1043 486 
C 973 608 973 621 973 735 
L 973 2004 
z
" transform="scale(0.015625)"/>
      <path id="CMR17-61" d="M 2304 1653 
C 2304 2072 2304 2294 2035 2543 
C 1798 2752 1523 2816 1306 2816 
C 800 2816 435 2407 435 1971 
C 435 1728 627 1728 666 1728 
C 749 1728 896 1778 896 1954 
C 896 2112 774 2181 666 2181 
C 640 2181 608 2174 589 2168 
C 723 2592 1069 2714 1293 2714 
C 1613 2714 1965 2429 1965 1885 
L 1965 1600 
C 1587 1600 1133 1549 774 1357 
C 371 1133 256 813 256 570 
C 256 77 832 -64 1171 -64 
C 1523 -64 1850 139 1990 511 
C 2003 233 2182 -18 2464 -18 
C 2598 -18 2938 70 2938 567 
L 2938 920 
L 2822 920 
L 2822 562 
C 2822 178 2650 128 2566 128 
C 2304 128 2304 458 2304 738 
L 2304 1653 
z
M 1965 870 
C 1965 317 1568 38 1216 38 
C 896 38 646 275 646 570 
C 646 761 730 1100 1101 1305 
C 1408 1478 1760 1504 1965 1504 
L 1965 870 
z
" transform="scale(0.015625)"/>
      <path id="CMR17-69" d="M 992 3909 
C 992 4049 877 4170 730 4170 
C 589 4170 467 4056 467 3909 
C 467 3769 582 3648 730 3648 
C 870 3648 992 3763 992 3909 
z
M 243 2706 
L 243 2541 
C 602 2541 653 2502 653 2197 
L 653 427 
C 653 184 627 153 218 153 
L 218 -13 
C 371 0 646 0 806 0 
C 960 0 1222 0 1370 -13 
L 1370 153 
C 992 153 979 191 979 420 
L 979 2776 
L 243 2706 
z
" transform="scale(0.015625)"/>
      <path id="CMR17-6c" d="M 979 4396 
L 218 4326 
L 218 4160 
C 595 4160 653 4122 653 3817 
L 653 426 
C 653 184 627 153 218 153 
L 218 -13 
C 371 0 653 0 813 0 
C 979 0 1261 0 1414 -13 
L 1414 153 
C 1005 153 979 178 979 426 
L 979 4396 
z
" transform="scale(0.015625)"/>
      <path id="CMR17-74" d="M 966 2560 
L 1862 2560 
L 1862 2725 
L 966 2725 
L 966 3904 
L 851 3904 
C 838 3245 614 2668 70 2668 
L 70 2560 
L 627 2560 
L 627 771 
C 627 650 627 -64 1370 -64 
C 1747 -64 1965 306 1965 777 
L 1965 1140 
L 1850 1140 
L 1850 783 
C 1850 344 1677 51 1408 51 
C 1222 51 966 178 966 758 
L 966 2560 
z
" transform="scale(0.015625)"/>
      <path id="CMR17-79" d="M 2496 2197 
C 2656 2586 2944 2586 3034 2586 
L 3034 2752 
C 2912 2752 2752 2752 2630 2752 
C 2496 2752 2285 2752 2157 2758 
L 2157 2592 
C 2400 2573 2406 2394 2406 2343 
C 2406 2280 2394 2248 2362 2171 
L 1664 449 
L 902 2306 
C 870 2382 870 2426 870 2433 
C 870 2573 1018 2586 1171 2586 
L 1171 2758 
C 1018 2752 742 2752 582 2752 
C 410 2752 205 2752 64 2758 
L 64 2586 
C 410 2586 448 2554 531 2350 
L 1485 15 
C 1197 -738 1030 -1178 627 -1178 
C 557 -1178 397 -1159 282 -1044 
C 429 -1031 493 -942 493 -833 
C 493 -725 416 -629 288 -629 
C 147 -629 77 -725 77 -840 
C 77 -1095 339 -1280 627 -1280 
C 998 -1280 1229 -922 1357 -604 
L 2496 2197 
z
" transform="scale(0.015625)"/>
      <path id="CMMI12-53" d="M 4064 4423 
C 4064 4480 4019 4480 4006 4480 
C 3981 4480 3974 4474 3898 4378 
C 3859 4333 3597 4001 3590 3995 
C 3379 4410 2957 4480 2688 4480 
C 1875 4480 1139 3743 1139 3025 
C 1139 2549 1427 2269 1741 2161 
C 1811 2135 2189 2033 2381 1989 
C 2707 1900 2790 1875 2925 1735 
C 2950 1703 3078 1557 3078 1258 
C 3078 667 2528 57 1888 57 
C 1363 57 781 280 781 991 
C 781 1112 806 1265 826 1328 
C 826 1348 832 1378 832 1391 
C 832 1417 819 1449 768 1449 
C 710 1449 704 1436 678 1328 
L 352 24 
C 352 18 326 -64 326 -71 
C 326 -128 378 -128 390 -128 
C 416 -128 422 -122 499 -26 
L 794 356 
C 947 126 1280 -128 1875 -128 
C 2701 -128 3456 666 3456 1460 
C 3456 1728 3392 1963 3149 2197 
C 3014 2331 2899 2363 2310 2516 
C 1882 2630 1824 2649 1709 2751 
C 1600 2858 1517 3011 1517 3227 
C 1517 3761 2061 4308 2669 4308 
C 3296 4308 3590 3926 3590 3323 
C 3590 3158 3558 2986 3558 2961 
C 3558 2903 3610 2903 3629 2903 
C 3686 2903 3693 2922 3718 3024 
L 4064 4423 
z
" transform="scale(0.015625)"/>
      <path id="CMMI12-69" d="M 1811 913 
C 1811 945 1786 971 1747 971 
C 1690 971 1683 952 1651 843 
C 1485 262 1222 64 1011 64 
C 934 64 845 83 845 275 
C 845 447 922 639 992 830 
L 1440 2018 
C 1459 2069 1504 2184 1504 2305 
C 1504 2574 1312 2816 998 2816 
C 410 2816 173 1890 173 1839 
C 173 1814 198 1782 243 1782 
C 301 1782 307 1807 333 1896 
C 486 2428 730 2682 979 2682 
C 1037 2682 1146 2682 1146 2478 
C 1146 2312 1062 2101 1011 1961 
L 563 773 
C 525 671 486 568 486 453 
C 486 166 685 -64 992 -64 
C 1581 -64 1811 869 1811 913 
z
M 1760 4013 
C 1760 4109 1683 4224 1542 4224 
C 1395 4224 1229 4083 1229 3917 
C 1229 3758 1363 3707 1440 3707 
C 1613 3707 1760 3873 1760 4013 
z
" transform="scale(0.015625)"/>
      <path id="CMR17-65" d="M 2438 1472 
C 2464 1498 2464 1511 2464 1576 
C 2464 2238 2118 2816 1389 2816 
C 710 2816 173 2169 173 1383 
C 173 551 781 -64 1459 -64 
C 2176 -64 2458 607 2458 740 
C 2458 784 2419 784 2406 784 
C 2362 784 2355 771 2330 696 
C 2189 265 1837 51 1504 51 
C 1229 51 954 203 781 480 
C 582 803 582 1176 582 1472 
L 2438 1472 
z
M 589 1568 
C 634 2505 1126 2714 1382 2714 
C 1818 2714 2112 2297 2118 1568 
L 589 1568 
z
" transform="scale(0.015625)"/>
      <path id="CMR17-75" d="M 1882 2693 
L 1882 2528 
C 2259 2528 2317 2489 2317 2186 
L 2317 1032 
C 2317 500 2029 38 1555 38 
C 1030 38 986 348 986 678 
L 986 2763 
L 211 2693 
L 211 2528 
C 467 2528 640 2528 646 2274 
L 646 1058 
C 646 633 646 361 813 183 
C 896 101 1056 -64 1517 -64 
C 2061 -64 2272 377 2323 506 
L 2330 506 
L 2330 -63 
L 3091 -63 
L 3091 128 
C 2714 128 2656 166 2656 473 
L 2656 2763 
L 1882 2693 
z
" transform="scale(0.015625)"/>
      <path id="CMR17-64" d="M 1869 4326 
L 1869 4160 
C 2246 4160 2304 4122 2304 3820 
L 2304 2345 
C 2278 2377 2016 2790 1498 2790 
C 845 2790 211 2208 211 1364 
C 211 525 806 -64 1434 -64 
C 1978 -64 2259 337 2291 380 
L 2291 -63 
L 3066 -63 
L 3066 128 
C 2688 128 2630 166 2630 473 
L 2630 4396 
L 1869 4326 
z
M 2291 755 
C 2291 563 2176 390 2029 262 
C 1811 70 1594 38 1472 38 
C 1286 38 621 134 621 1356 
C 621 2612 1363 2688 1530 2688 
C 1824 2688 2061 2522 2208 2291 
C 2291 2157 2291 2138 2291 2023 
L 2291 755 
z
" transform="scale(0.015625)"/>
      <path id="CMR17-70" d="M 1408 -1063 
C 998 -1063 973 -1037 973 -789 
L 973 402 
C 1158 134 1427 -38 1766 -38 
C 2406 -38 3053 523 3053 1388 
C 3053 2191 2496 2802 1837 2802 
C 1453 2802 1139 2592 960 2338 
L 960 2802 
L 198 2732 
L 198 2567 
C 576 2567 634 2528 634 2223 
L 634 -789 
C 634 -1031 608 -1063 198 -1063 
L 198 -1228 
C 352 -1216 634 -1216 800 -1216 
C 966 -1216 1254 -1216 1408 -1228 
L 1408 -1063 
z
M 973 2012 
C 973 2102 973 2235 1222 2471 
C 1254 2497 1472 2688 1792 2688 
C 2259 2688 2643 2108 2643 1382 
C 2643 656 2234 64 1728 64 
C 1498 64 1248 172 1056 472 
C 973 612 973 650 973 752 
L 973 2012 
z
" transform="scale(0.015625)"/>
      <path id="CMR17-73" d="M 1978 2697 
C 1978 2813 1971 2819 1933 2819 
C 1907 2819 1901 2813 1824 2717 
C 1805 2691 1747 2626 1728 2601 
C 1523 2819 1235 2819 1126 2819 
C 416 2819 160 2447 160 2076 
C 160 1498 813 1365 998 1325 
C 1402 1243 1542 1217 1677 1101 
C 1760 1025 1901 884 1901 654 
C 1901 384 1747 38 1158 38 
C 602 38 403 460 288 1021 
C 269 1110 269 1117 218 1117 
C 166 1117 160 1110 160 983 
L 160 63 
C 160 -51 166 -58 205 -58 
C 237 -58 243 -51 275 0 
C 314 57 410 211 448 276 
C 576 103 800 -64 1158 -64 
C 1792 -64 2131 283 2131 784 
C 2131 1112 1958 1285 1875 1362 
C 1683 1561 1459 1606 1190 1657 
C 838 1735 390 1825 390 2217 
C 390 2383 480 2737 1126 2737 
C 1811 2737 1850 2094 1862 1888 
C 1869 1856 1901 1849 1920 1849 
C 1978 1849 1978 1869 1978 1978 
L 1978 2697 
z
" transform="scale(0.015625)"/>
      <path id="CMR17-6e" d="M 2656 1933 
C 2656 2259 2592 2790 1837 2790 
C 1331 2790 1069 2400 973 2144 
L 966 2144 
L 966 2790 
L 211 2720 
L 211 2554 
C 589 2554 646 2515 646 2208 
L 646 428 
C 646 184 621 153 211 153 
L 211 -13 
C 365 0 646 0 813 0 
C 979 0 1267 0 1421 -13 
L 1421 153 
C 1011 153 986 178 986 428 
L 986 1658 
C 986 2247 1344 2688 1792 2688 
C 2266 2688 2317 2266 2317 1958 
L 2317 428 
C 2317 184 2291 153 1882 153 
L 1882 -13 
C 2035 0 2317 0 2483 0 
C 2650 0 2938 0 3091 -13 
L 3091 153 
C 2682 153 2656 178 2656 428 
L 2656 1933 
z
" transform="scale(0.015625)"/>
      <path id="CMMI12-42" d="M 2342 3921 
C 2400 4160 2426 4160 2675 4160 
L 3507 4160 
C 4230 4160 4230 3544 4230 3485 
C 4230 2966 3712 2304 2867 2304 
L 1946 2304 
L 2342 3921 
z
M 3424 2275 
C 4122 2402 4755 2886 4755 3473 
C 4755 3970 4314 4352 3590 4352 
L 1536 4352 
C 1414 4352 1357 4352 1357 4226 
C 1357 4160 1414 4160 1510 4160 
C 1901 4160 1901 4112 1901 4044 
C 1901 4032 1901 3993 1875 3897 
L 1011 472 
C 954 249 941 185 493 185 
C 371 185 307 185 307 70 
C 307 0 346 0 474 0 
L 2669 0 
C 3648 0 4403 739 4403 1383 
C 4403 1906 3942 2224 3424 2275 
z
M 2515 185 
L 1651 185 
C 1562 185 1549 185 1510 192 
C 1440 198 1434 211 1434 261 
C 1434 305 1446 343 1459 399 
L 1907 2176 
L 3110 2176 
C 3866 2176 3866 1483 3866 1433 
C 3866 828 3309 185 2515 185 
z
" transform="scale(0.015625)"/>
      <path id="CMR17-30" d="M 2688 2025 
C 2688 2416 2682 3080 2413 3591 
C 2176 4039 1798 4198 1466 4198 
C 1158 4198 768 4058 525 3597 
C 269 3118 243 2524 243 2025 
C 243 1661 250 1106 448 619 
C 723 -39 1216 -128 1466 -128 
C 1760 -128 2208 -7 2470 600 
C 2662 1042 2688 1559 2688 2025 
z
M 1466 -26 
C 1056 -26 813 325 723 812 
C 653 1188 653 1738 653 2096 
C 653 2588 653 2997 736 3387 
C 858 3929 1216 4096 1466 4096 
C 1728 4096 2067 3923 2189 3400 
C 2272 3036 2278 2607 2278 2096 
C 2278 1680 2278 1169 2202 792 
C 2067 95 1690 -26 1466 -26 
z
" transform="scale(0.015625)"/>
      <path id="CMR17-5b" d="M 1504 -1600 
L 1504 -1377 
L 902 -1377 
L 902 4544 
L 1504 4544 
L 1504 4767 
L 678 4767 
L 678 -1600 
L 1504 -1600 
z
" transform="scale(0.015625)"/>
      <path id="CMR17-5d" d="M 915 4767 
L 90 4767 
L 90 4544 
L 691 4544 
L 691 -1377 
L 90 -1377 
L 90 -1600 
L 915 -1600 
L 915 4767 
z
" transform="scale(0.015625)"/>
      <path id="CMR17-4f" d="M 4307 2135 
C 4307 3437 3366 4416 2304 4416 
C 1216 4416 294 3424 294 2135 
C 294 845 1229 -128 2298 -128 
C 3392 -128 4307 864 4307 2135 
z
M 2304 -13 
C 1574 -13 781 711 781 2217 
C 781 3716 1651 4301 2298 4301 
C 2976 4301 3821 3698 3821 2217 
C 3821 686 3008 -13 2304 -13 
z
" transform="scale(0.015625)"/>
      <path id="CMR17-67" d="M 710 1164 
C 832 1068 1043 960 1299 960 
C 1805 960 2240 1357 2240 1888 
C 2240 2054 2189 2310 1997 2509 
C 2176 2692 2438 2752 2586 2752 
C 2611 2752 2650 2752 2682 2734 
C 2656 2728 2598 2703 2598 2605 
C 2598 2527 2656 2471 2739 2471 
C 2835 2471 2886 2533 2886 2614 
C 2886 2731 2790 2854 2586 2854 
C 2330 2854 2106 2738 1926 2580 
C 1734 2753 1504 2816 1299 2816 
C 794 2816 358 2419 358 1888 
C 358 1522 570 1292 634 1228 
C 442 1004 442 743 442 711 
C 442 545 506 302 723 168 
C 390 85 128 -169 128 -486 
C 128 -943 736 -1280 1466 -1280 
C 2170 -1280 2803 -956 2803 -479 
C 2803 384 1856 384 1363 384 
C 1216 384 954 384 922 391 
C 723 423 589 602 589 826 
C 589 883 589 1024 710 1164 
z
M 1299 1068 
C 736 1068 736 1760 736 1889 
C 736 2016 736 2708 1299 2708 
C 1862 2708 1862 2016 1862 1889 
C 1862 1760 1862 1068 1299 1068 
z
M 1466 -1171 
C 826 -1171 384 -835 384 -486 
C 384 -289 493 -105 634 -4 
C 794 104 858 104 1293 104 
C 1818 104 2547 104 2547 -486 
C 2547 -835 2106 -1171 1466 -1171 
z
" transform="scale(0.015625)"/>
      <path id="CMMI12-70" d="M 275 -789 
C 230 -980 205 -1031 -58 -1031 
C -134 -1031 -198 -1031 -198 -1152 
C -198 -1165 -192 -1216 -122 -1216 
C -38 -1216 51 -1216 134 -1216 
L 410 -1216 
C 544 -1216 870 -1216 1005 -1216 
C 1043 -1216 1120 -1216 1120 -1101 
C 1120 -1031 1075 -1031 966 -1031 
C 672 -1031 653 -987 653 -937 
C 653 -861 941 219 979 364 
C 1050 185 1222 -64 1555 -64 
C 2278 -64 3059 875 3059 1814 
C 3059 2401 2726 2816 2246 2816 
C 1837 2816 1491 2420 1421 2331 
C 1370 2650 1120 2816 864 2816 
C 678 2816 531 2727 410 2484 
C 294 2254 205 1865 205 1839 
C 205 1814 230 1782 275 1782 
C 326 1782 333 1788 371 1935 
C 467 2312 589 2689 845 2689 
C 992 2689 1043 2587 1043 2397 
C 1043 2245 1024 2181 998 2067 
L 275 -789 
z
M 1382 1993 
C 1427 2171 1606 2357 1709 2446 
C 1779 2510 1990 2689 2234 2689 
C 2515 2689 2643 2408 2643 2076 
C 2643 1769 2464 1047 2304 715 
C 2144 370 1850 64 1555 64 
C 1120 64 1050 613 1050 639 
C 1050 658 1062 709 1069 741 
L 1382 1993 
z
" transform="scale(0.015625)"/>
      <path id="CMR17-d" d="M 2554 4409 
C 2483 4396 2426 4384 2342 4365 
C 2157 4460 1914 4460 1850 4460 
C 1306 4460 634 4154 634 3472 
L 634 2725 
L 122 2725 
L 122 2560 
L 634 2560 
L 634 427 
C 634 184 608 153 198 153 
L 198 -13 
C 352 0 634 0 794 0 
C 960 0 1242 0 1395 -13 
L 1395 153 
C 986 153 960 178 960 427 
L 960 2560 
L 2227 2560 
L 2227 427 
C 2227 184 2202 153 1792 153 
L 1792 -13 
C 1946 0 2227 0 2387 0 
C 2554 0 2835 0 2989 -13 
L 2989 153 
C 2579 153 2554 178 2554 427 
L 2554 4409 
z
M 947 2725 
L 947 3469 
C 947 4028 1370 4352 1837 4352 
C 1869 4352 2221 4352 2221 4282 
C 2221 4275 2214 4269 2182 4237 
C 2125 4199 2099 4135 2099 4071 
C 2099 3981 2144 3905 2227 3873 
L 2227 2725 
L 947 2725 
z
" transform="scale(0.015625)"/>
      <path id="CMR17-31" d="M 1702 4058 
C 1702 4192 1696 4192 1606 4192 
C 1357 3916 979 3827 621 3827 
C 602 3827 570 3827 563 3808 
C 557 3795 557 3782 557 3648 
C 755 3648 1088 3686 1344 3839 
L 1344 461 
C 1344 236 1331 160 781 160 
L 589 160 
L 589 0 
C 896 0 1216 0 1523 0 
C 1830 0 2150 0 2458 0 
L 2458 160 
L 2266 160 
C 1715 160 1702 230 1702 458 
L 1702 4058 
z
" transform="scale(0.015625)"/>
      <path id="CMMI12-71" d="M 2822 2759 
C 2822 2790 2797 2816 2765 2816 
C 2714 2816 2464 2585 2342 2362 
C 2227 2646 2029 2816 1754 2816 
C 1030 2816 250 1884 250 939 
C 250 307 621 -64 1056 -64 
C 1395 -64 1677 193 1811 339 
L 1818 333 
L 1574 -615 
L 1517 -842 
C 1459 -1031 1363 -1031 1062 -1031 
C 992 -1031 928 -1031 928 -1152 
C 928 -1197 966 -1216 1011 -1216 
C 1101 -1216 1216 -1216 1306 -1216 
L 1958 -1216 
C 2054 -1216 2163 -1216 2259 -1216 
C 2298 -1216 2374 -1216 2374 -1095 
C 2374 -1031 2323 -1031 2227 -1031 
C 1926 -1031 1907 -986 1907 -935 
C 1907 -904 1914 -898 1933 -815 
L 2822 2759 
z
M 1920 762 
C 1888 652 1888 640 1798 518 
C 1658 339 1376 64 1075 64 
C 813 64 666 301 666 678 
C 666 1030 864 1747 986 2016 
C 1203 2464 1504 2695 1754 2695 
C 2176 2695 2259 2170 2259 2119 
C 2259 2113 2240 2028 2234 2016 
L 1920 762 
z
" transform="scale(0.015625)"/>
     </defs>
     <use xlink:href="#CMR17-50" transform="translate(14.94396 0) scale(0.996264)"/>
     <use xlink:href="#CMR17-72" transform="translate(77.530261 0) scale(0.996264)"/>
     <use xlink:href="#CMR17-3a" transform="translate(140.485037 0) scale(0.996264)"/>
     <use xlink:href="#CMR17-50" transform="translate(193.030104 0) scale(0.996264)"/>
     <use xlink:href="#CMR17-72" transform="translate(255.616405 0) scale(0.996264)"/>
     <use xlink:href="#CMR17-6f" transform="translate(290.897173 0) scale(0.996264)"/>
     <use xlink:href="#CMR17-62" transform="translate(336.58765 0) scale(0.996264)"/>
     <use xlink:href="#CMR17-61" transform="translate(387.48302 0) scale(0.996264)"/>
     <use xlink:href="#CMR17-62" transform="translate(433.173497 0) scale(0.996264)"/>
     <use xlink:href="#CMR17-69" transform="translate(484.068867 0) scale(0.996264)"/>
     <use xlink:href="#CMR17-6c" transform="translate(508.939925 0) scale(0.996264)"/>
     <use xlink:href="#CMR17-69" transform="translate(533.810983 0) scale(0.996264)"/>
     <use xlink:href="#CMR17-74" transform="translate(558.682042 0) scale(0.996264)"/>
     <use xlink:href="#CMR17-79" transform="translate(591.360356 0) scale(0.996264)"/>
     <use xlink:href="#CMMI12-53" transform="translate(0 -89.559461) scale(0.996264)"/>
     <use xlink:href="#CMMI12-69" transform="translate(59.994488 -104.503376) scale(0.697382)"/>
     <use xlink:href="#CMR17-3a" transform="translate(111.461536 -89.559461) scale(0.996264)"/>
     <use xlink:href="#CMR17-50" transform="translate(164.006603 -89.559461) scale(0.996264)"/>
     <use xlink:href="#CMR17-65" transform="translate(223.99045 -89.559461) scale(0.996264)"/>
     <use xlink:href="#CMR17-72" transform="translate(264.47611 -89.559461) scale(0.996264)"/>
     <use xlink:href="#CMR17-74" transform="translate(299.756878 -89.559461) scale(0.996264)"/>
     <use xlink:href="#CMR17-75" transform="translate(335.037646 -89.559461) scale(0.996264)"/>
     <use xlink:href="#CMR17-72" transform="translate(385.933015 -89.559461) scale(0.996264)"/>
     <use xlink:href="#CMR17-62" transform="translate(421.213783 -89.559461) scale(0.996264)"/>
     <use xlink:href="#CMR17-65" transform="translate(474.711592 -89.559461) scale(0.996264)"/>
     <use xlink:href="#CMR17-64" transform="translate(515.197252 -89.559461) scale(0.996264)"/>
     <use xlink:href="#CMR17-62" transform="translate(596.168588 -89.559461) scale(0.996264)"/>
     <use xlink:href="#CMR17-69" transform="translate(647.063958 -89.559461) scale(0.996264)"/>
     <use xlink:href="#CMR17-74" transform="translate(671.935017 -89.559461) scale(0.996264)"/>
     <use xlink:href="#CMR17-61" transform="translate(737.291751 -89.559461) scale(0.996264)"/>
     <use xlink:href="#CMR17-74" transform="translate(782.982228 -89.559461) scale(0.996264)"/>
     <use xlink:href="#CMR17-70" transform="translate(848.338962 -89.559461) scale(0.996264)"/>
     <use xlink:href="#CMR17-6f" transform="translate(901.836771 -89.559461) scale(0.996264)"/>
     <use xlink:href="#CMR17-73" transform="translate(947.527248 -89.559461) scale(0.996264)"/>
     <use xlink:href="#CMR17-69" transform="translate(983.328585 -89.559461) scale(0.996264)"/>
     <use xlink:href="#CMR17-74" transform="translate(1008.199644 -89.559461) scale(0.996264)"/>
     <use xlink:href="#CMR17-69" transform="translate(1043.480412 -89.559461) scale(0.996264)"/>
     <use xlink:href="#CMR17-6f" transform="translate(1068.35147 -89.559461) scale(0.996264)"/>
     <use xlink:href="#CMR17-6e" transform="translate(1114.041947 -89.559461) scale(0.996264)"/>
     <use xlink:href="#CMR17-69" transform="translate(1195.013283 -89.559461) scale(0.996264)"/>
     <use xlink:href="#CMMI12-42" transform="translate(0 -184.564019) scale(0.996264)"/>
     <use xlink:href="#CMR17-30" transform="translate(74.10802 -199.507934) scale(0.697382)"/>
     <use xlink:href="#CMR17-5b" transform="translate(106.589334 -184.564019) scale(0.996264)"/>
     <use xlink:href="#CMMI12-69" transform="translate(131.460393 -184.564019) scale(0.996264)"/>
     <use xlink:href="#CMR17-5d" transform="translate(164.738995 -184.564019) scale(0.996264)"/>
     <use xlink:href="#CMR17-3a" transform="translate(217.284062 -184.564019) scale(0.996264)"/>
     <use xlink:href="#CMR17-4f" transform="translate(269.829129 -184.564019) scale(0.996264)"/>
     <use xlink:href="#CMR17-72" transform="translate(341.543917 -184.564019) scale(0.996264)"/>
     <use xlink:href="#CMR17-69" transform="translate(376.824685 -184.564019) scale(0.996264)"/>
     <use xlink:href="#CMR17-67" transform="translate(401.695744 -184.564019) scale(0.996264)"/>
     <use xlink:href="#CMR17-69" transform="translate(447.386221 -184.564019) scale(0.996264)"/>
     <use xlink:href="#CMR17-6e" transform="translate(472.257279 -184.564019) scale(0.996264)"/>
     <use xlink:href="#CMR17-61" transform="translate(523.152649 -184.564019) scale(0.996264)"/>
     <use xlink:href="#CMR17-6c" transform="translate(568.843126 -184.564019) scale(0.996264)"/>
     <use xlink:href="#CMR17-62" transform="translate(623.790151 -184.564019) scale(0.996264)"/>
     <use xlink:href="#CMR17-69" transform="translate(674.685521 -184.564019) scale(0.996264)"/>
     <use xlink:href="#CMR17-74" transform="translate(699.556579 -184.564019) scale(0.996264)"/>
     <use xlink:href="#CMR17-61" transform="translate(764.913313 -184.564019) scale(0.996264)"/>
     <use xlink:href="#CMR17-74" transform="translate(810.60379 -184.564019) scale(0.996264)"/>
     <use xlink:href="#CMR17-70" transform="translate(875.960525 -184.564019) scale(0.996264)"/>
     <use xlink:href="#CMR17-6f" transform="translate(929.458333 -184.564019) scale(0.996264)"/>
     <use xlink:href="#CMR17-73" transform="translate(975.14881 -184.564019) scale(0.996264)"/>
     <use xlink:href="#CMR17-69" transform="translate(1010.950148 -184.564019) scale(0.996264)"/>
     <use xlink:href="#CMR17-74" transform="translate(1035.821206 -184.564019) scale(0.996264)"/>
     <use xlink:href="#CMR17-69" transform="translate(1071.101974 -184.564019) scale(0.996264)"/>
     <use xlink:href="#CMR17-6f" transform="translate(1095.973033 -184.564019) scale(0.996264)"/>
     <use xlink:href="#CMR17-6e" transform="translate(1141.66351 -184.564019) scale(0.996264)"/>
     <use xlink:href="#CMR17-69" transform="translate(1222.634846 -184.564019) scale(0.996264)"/>
     <use xlink:href="#CMMI12-70" transform="translate(0 -279.568561) scale(0.996264)"/>
     <use xlink:href="#CMR17-3a" transform="translate(76.633523 -279.568561) scale(0.996264)"/>
     <use xlink:href="#CMR17-50" transform="translate(129.17859 -279.568561) scale(0.996264)"/>
     <use xlink:href="#CMR17-72" transform="translate(191.76489 -279.568561) scale(0.996264)"/>
     <use xlink:href="#CMR17-6f" transform="translate(227.045658 -279.568561) scale(0.996264)"/>
     <use xlink:href="#CMR17-62" transform="translate(272.736135 -279.568561) scale(0.996264)"/>
     <use xlink:href="#CMR17-61" transform="translate(323.631505 -279.568561) scale(0.996264)"/>
     <use xlink:href="#CMR17-62" transform="translate(369.321982 -279.568561) scale(0.996264)"/>
     <use xlink:href="#CMR17-69" transform="translate(420.217352 -279.568561) scale(0.996264)"/>
     <use xlink:href="#CMR17-6c" transform="translate(445.088411 -279.568561) scale(0.996264)"/>
     <use xlink:href="#CMR17-69" transform="translate(469.959469 -279.568561) scale(0.996264)"/>
     <use xlink:href="#CMR17-74" transform="translate(494.830527 -279.568561) scale(0.996264)"/>
     <use xlink:href="#CMR17-79" transform="translate(527.508841 -279.568561) scale(0.996264)"/>
     <use xlink:href="#CMR17-62" transform="translate(605.877724 -279.568561) scale(0.996264)"/>
     <use xlink:href="#CMR17-69" transform="translate(656.773093 -279.568561) scale(0.996264)"/>
     <use xlink:href="#CMR17-74" transform="translate(681.644152 -279.568561) scale(0.996264)"/>
     <use xlink:href="#CMR17-30" transform="translate(747.000886 -279.568561) scale(0.996264)"/>
     <use xlink:href="#CMR17-d" transform="translate(822.767329 -279.568561) scale(0.996264)"/>
     <use xlink:href="#CMR17-69" transform="translate(872.509553 -279.568561) scale(0.996264)"/>
     <use xlink:href="#CMR17-70" transform="translate(897.380611 -279.568561) scale(0.996264)"/>
     <use xlink:href="#CMR17-73" transform="translate(948.275981 -279.568561) scale(0.996264)"/>
     <use xlink:href="#CMR17-74" transform="translate(1014.153285 -279.568561) scale(0.996264)"/>
     <use xlink:href="#CMR17-6f" transform="translate(1049.434053 -279.568561) scale(0.996264)"/>
     <use xlink:href="#CMR17-31" transform="translate(1125.200496 -279.568561) scale(0.996264)"/>
     <use xlink:href="#CMMI12-71" transform="translate(0 -369.128023) scale(0.996264)"/>
     <use xlink:href="#CMR17-3a" transform="translate(74.500333 -369.128023) scale(0.996264)"/>
     <use xlink:href="#CMR17-50" transform="translate(127.0454 -369.128023) scale(0.996264)"/>
     <use xlink:href="#CMR17-72" transform="translate(189.6317 -369.128023) scale(0.996264)"/>
     <use xlink:href="#CMR17-6f" transform="translate(224.912468 -369.128023) scale(0.996264)"/>
     <use xlink:href="#CMR17-62" transform="translate(270.602945 -369.128023) scale(0.996264)"/>
     <use xlink:href="#CMR17-61" transform="translate(321.498315 -369.128023) scale(0.996264)"/>
     <use xlink:href="#CMR17-62" transform="translate(367.188792 -369.128023) scale(0.996264)"/>
     <use xlink:href="#CMR17-69" transform="translate(418.084162 -369.128023) scale(0.996264)"/>
     <use xlink:href="#CMR17-6c" transform="translate(442.95522 -369.128023) scale(0.996264)"/>
     <use xlink:href="#CMR17-69" transform="translate(467.826279 -369.128023) scale(0.996264)"/>
     <use xlink:href="#CMR17-74" transform="translate(492.697337 -369.128023) scale(0.996264)"/>
     <use xlink:href="#CMR17-79" transform="translate(525.375651 -369.128023) scale(0.996264)"/>
     <use xlink:href="#CMR17-62" transform="translate(603.744533 -369.128023) scale(0.996264)"/>
     <use xlink:href="#CMR17-69" transform="translate(654.639903 -369.128023) scale(0.996264)"/>
     <use xlink:href="#CMR17-74" transform="translate(679.510962 -369.128023) scale(0.996264)"/>
     <use xlink:href="#CMR17-31" transform="translate(744.867696 -369.128023) scale(0.996264)"/>
     <use xlink:href="#CMR17-73" transform="translate(820.634139 -369.128023) scale(0.996264)"/>
     <use xlink:href="#CMR17-74" transform="translate(856.435477 -369.128023) scale(0.996264)"/>
     <use xlink:href="#CMR17-61" transform="translate(891.716245 -369.128023) scale(0.996264)"/>
     <use xlink:href="#CMR17-79" transform="translate(934.804268 -369.128023) scale(0.996264)"/>
     <use xlink:href="#CMR17-73" transform="translate(983.097184 -369.128023) scale(0.996264)"/>
     <use xlink:href="#CMR17-31" transform="translate(1048.974488 -369.128023) scale(0.996264)"/>
    </g>
   </g>
  </g>
 </g>
</svg>
