<svg width="763.2" height="167.04" viewBox="0 0 572.4 125.28" xmlns="http://www.w3.org/2000/svg" xmlns:xlink="http://www.w3.org/1999/xlink" stroke-linecap="butt" stroke-linejoin="round" overflow="hidden"><defs stroke-linecap="butt" stroke-linejoin="round"></defs><g id="figure_1" stroke-linecap="butt" stroke-linejoin="round"><g id="patch_1" stroke-linecap="butt" stroke-linejoin="round"><path d="M0 125.28 572.4 125.28 572.4 0 0 0 0 125.28Z" stroke-linecap="butt" stroke-linejoin="round" fill="none" opacity="0"/></g><g id="axes_1" stroke-linecap="butt" stroke-linejoin="round"><g id="text_1" stroke-linecap="butt" stroke-linejoin="round"><g stroke-linecap="butt" stroke-linejoin="round" transform="matrix(0.2 0 0 -0.2 194.626 67.6213)"><defs stroke-linecap="butt" stroke-linejoin="round"><path d="M3482 4325 326 4325 326 4160C768 4160 838 4160 838 3874L838 446C838 160 768 160 326 160L326 0C512 0 870 0 1069 0 1331 0 1638 0 1901 0L1901 160 1760 160C1274 160 1261 223 1261 452L1261 2075 1837 2075C2432 2075 2490 1865 2490 1332L2605 1332 2605 2987 2490 2987C2490 2450 2432 2240 1837 2240L1261 2240 1261 3911C1261 4128 1274 4160 1530 4160L2355 4160C3322 4160 3430 3765 3520 2916L3635 2916 3482 4325Z" id="CMR17-46" stroke-linecap="butt" stroke-linejoin="round" transform="scale(0.015625 0.015625)"/><path d="M960 1497C960 2112 1222 2688 1702 2688 1747 2688 1792 2682 1837 2662 1837 2662 1696 2617 1696 2452 1696 2298 1818 2234 1914 2234 1990 2234 2131 2279 2131 2458 2131 2663 1926 2790 1709 2790 1222 2790 1011 2317 947 2093L941 2093 941 2790 198 2720 198 2554C576 2554 634 2515 634 2208L634 428C634 184 608 153 198 153L198-13C352 0 646 0 813 0 998 0 1325 0 1498-13L1498 153C1037 153 960 153 960 440L960 1497Z" id="CMR17-72" stroke-linecap="butt" stroke-linejoin="round" transform="scale(0.015625 0.015625)"/><path d="M2438 1472C2464 1498 2464 1511 2464 1576 2464 2238 2118 2816 1389 2816 710 2816 173 2169 173 1383 173 551 781-64 1459-64 2176-64 2458 607 2458 740 2458 784 2419 784 2406 784 2362 784 2355 771 2330 696 2189 265 1837 51 1504 51 1229 51 954 203 781 480 582 803 582 1176 582 1472L2438 1472ZM589 1568C634 2505 1126 2714 1382 2714 1818 2714 2112 2297 2118 1568L589 1568Z" id="CMR17-65" stroke-linecap="butt" stroke-linejoin="round" transform="scale(0.015625 0.015625)"/><path d="M2630 2802 2528 2802 2336 2172C2189 2509 1920 2802 1491 2802 838 2802 211 2223 211 1383 211 548 800-38 1440-38 1933-38 2208 338 2291 478L2291-789C2291-1031 2266-1063 1856-1063L1856-1228C2010-1216 2291-1216 2458-1216 2624-1216 2912-1216 3066-1228L3066-1063C2656-1063 2630-1037 2630-789L2630 2802ZM2304 886C2304 612 2074 357 2054 338 1856 115 1626 64 1472 64 992 64 621 669 621 1375 621 2121 1043 2688 1536 2688 2048 2688 2304 2108 2304 1777L2304 886Z" id="CMR17-71" stroke-linecap="butt" stroke-linejoin="round" transform="scale(0.015625 0.015625)"/><path d="M1882 2693 1882 2528C2259 2528 2317 2489 2317 2186L2317 1032C2317 500 2029 38 1555 38 1030 38 986 348 986 678L986 2763 211 2693 211 2528C467 2528 640 2528 646 2274L646 1058C646 633 646 361 813 183 896 101 1056-64 1517-64 2061-64 2272 377 2323 506L2330 506 2330-63 3091-63 3091 128C2714 128 2656 166 2656 473L2656 2763 1882 2693Z" id="CMR17-75" stroke-linecap="butt" stroke-linejoin="round" transform="scale(0.015625 0.015625)"/><path d="M2656 1933C2656 2259 2592 2790 1837 2790 1331 2790 1069 2400 973 2144L966 2144 966 2790 211 2720 211 2554C589 2554 646 2515 646 2208L646 428C646 184 621 153 211 153L211-13C365 0 646 0 813 0 979 0 1267 0 1421-13L1421 153C1011 153 986 178 986 428L986 1658C986 2247 1344 2688 1792 2688 2266 2688 2317 2266 2317 1958L2317 428C2317 184 2291 153 1882 153L1882-13C2035 0 2317 0 2483 0 2650 0 2938 0 3091-13L3091 153C2682 153 2656 178 2656 428L2656 1933Z" id="CMR17-6e" stroke-linecap="butt" stroke-linejoin="round" transform="scale(0.015625 0.015625)"/><path d="M2234 2240C2112 2240 1933 2240 1933 2017 1933 1838 2080 1787 2163 1787 2208 1787 2394 1807 2394 2024 2394 2467 1958 2803 1466 2803 787 2803 211 2178 211 1363 211 516 813-64 1466-64 2259-64 2458 677 2458 748 2458 774 2451 793 2406 793 2362 793 2355 787 2330 703 2163 180 1798 51 1523 51 1114 51 621 427 621 1369 621 2338 1094 2688 1472 2688 1722 2688 2093 2573 2234 2240Z" id="CMR17-63" stroke-linecap="butt" stroke-linejoin="round" transform="scale(0.015625 0.015625)"/><path d="M2496 2197C2656 2586 2944 2586 3034 2586L3034 2752C2912 2752 2752 2752 2630 2752 2496 2752 2285 2752 2157 2758L2157 2592C2400 2573 2406 2394 2406 2343 2406 2280 2394 2248 2362 2171L1664 449 902 2306C870 2382 870 2426 870 2433 870 2573 1018 2586 1171 2586L1171 2758C1018 2752 742 2752 582 2752 410 2752 205 2752 64 2758L64 2586C410 2586 448 2554 531 2350L1485 15C1197-738 1030-1178 627-1178 557-1178 397-1159 282-1044 429-1031 493-942 493-833 493-725 416-629 288-629 147-629 77-725 77-840 77-1095 339-1280 627-1280 998-1280 1229-922 1357-604L2496 2197Z" id="CMR17-79" stroke-linecap="butt" stroke-linejoin="round" transform="scale(0.015625 0.015625)"/><path d="M3974 1233C3974 1473 3994 1505 4390 1505L4390 1670C4237 1664 3891 1664 3718 1664 3539 1664 3040 1664 2797 1664L2797 1505 2989 1505C3539 1505 3552 1434 3552 1201L3552 774C3552 63 2720 63 2522 63 1862 63 781 511 781 2160 781 3808 1843 4250 2464 4250 3187 4250 3712 3626 3834 2741 3846 2664 3846 2651 3904 2651 3974 2651 3974 2664 3974 2779L3974 4288C3974 4402 3968 4409 3930 4409 3904 4409 3898 4402 3853 4326L3571 3791C3258 4187 2874 4416 2381 4416 1286 4416 294 3456 294 2148 294 845 1267-128 2394-128 2912-128 3418 56 3616 417 3725 158 3904-20 3936-20 3968-20 3974-13 3974 100L3974 1233Z" id="CMR17-47" stroke-linecap="butt" stroke-linejoin="round" transform="scale(0.015625 0.015625)"/><path d="M2304 1653C2304 2072 2304 2294 2035 2543 1798 2752 1523 2816 1306 2816 800 2816 435 2407 435 1971 435 1728 627 1728 666 1728 749 1728 896 1778 896 1954 896 2112 774 2181 666 2181 640 2181 608 2174 589 2168 723 2592 1069 2714 1293 2714 1613 2714 1965 2429 1965 1885L1965 1600C1587 1600 1133 1549 774 1357 371 1133 256 813 256 570 256 77 832-64 1171-64 1523-64 1850 139 1990 511 2003 233 2182-18 2464-18 2598-18 2938 70 2938 567L2938 920 2822 920 2822 562C2822 178 2650 128 2566 128 2304 128 2304 458 2304 738L2304 1653ZM1965 870C1965 317 1568 38 1216 38 896 38 646 275 646 570 646 761 730 1100 1101 1305 1408 1478 1760 1504 1965 1504L1965 870Z" id="CMR17-61" stroke-linecap="butt" stroke-linejoin="round" transform="scale(0.015625 0.015625)"/><path d="M992 3909C992 4049 877 4170 730 4170 589 4170 467 4056 467 3909 467 3769 582 3648 730 3648 870 3648 992 3763 992 3909ZM243 2706 243 2541C602 2541 653 2502 653 2197L653 427C653 184 627 153 218 153L218-13C371 0 646 0 806 0 960 0 1222 0 1370-13L1370 153C992 153 979 191 979 420L979 2776 243 2706Z" id="CMR17-69" stroke-linecap="butt" stroke-linejoin="round" transform="scale(0.015625 0.015625)"/><path d="M4621 205C4595 205 4493 192 4474 192 3968 192 3629 691 3411 1024 3347 1133 3174 1395 3104 1504 3258 1850 3686 2643 4448 2643 4493 2643 4550 2643 4621 2624 4621 2790 4614 2797 4602 2810 4557 2822 4461 2829 4403 2829 3590 2829 3117 2048 2963 1728 2707 2118 2618 2259 2381 2458 1990 2797 1638 2829 1478 2829 768 2829 358 2112 358 1376 358 659 755-70 1459-70 2272-70 2746 710 2899 1030 3155 640 3245 499 3482 301 3872-38 4224-70 4384-70 4461-70 4563-58 4621-44L4621 205ZM2758 1254C2605 909 2176 115 1414 115 794 115 499 794 499 1376 499 2010 858 2566 1389 2566 1894 2566 2234 2067 2451 1734 2515 1626 2688 1363 2758 1254Z" id="CMSY10-2f" stroke-linecap="butt" stroke-linejoin="round" transform="scale(0.015625 0.015625)"/><path d="M1702 4058C1702 4192 1696 4192 1606 4192 1357 3916 979 3827 621 3827 602 3827 570 3827 563 3808 557 3795 557 3782 557 3648 755 3648 1088 3686 1344 3839L1344 461C1344 236 1331 160 781 160L589 160 589 0C896 0 1216 0 1523 0 1830 0 2150 0 2458 0L2458 160 2266 160C1715 160 1702 230 1702 458L1702 4058Z" id="CMR17-31" stroke-linecap="butt" stroke-linejoin="round" transform="scale(0.015625 0.015625)"/><path d="M1146 1479C1318 1479 1754 1479 2061 1595 2547 1783 2592 2158 2592 2274 2592 2558 2349 2816 1926 2816 1254 2816 288 2210 288 1073 288 402 672-64 1254-64 2125-64 2675 609 2675 692 2675 730 2637 762 2611 762 2592 762 2586 756 2528 699 2118 159 1510 64 1267 64 902 64 710 350 710 822 710 911 710 1071 806 1479L1146 1479ZM838 1600C1114 2592 1722 2689 1926 2689 2208 2689 2400 2522 2400 2277 2400 1600 1376 1600 1107 1600L838 1600Z" id="CMMI12-65" stroke-linecap="butt" stroke-linejoin="round" transform="scale(0.015625 0.015625)"/><path d="M890 1427C1094 1345 1312 1345 1434 1345 1600 1345 1933 1345 1933 1550 1933 1678 1811 1728 1485 1728 1325 1728 1133 1709 909 1613 710 1708 634 1852 634 1990 634 2379 1261 2606 1830 2606 1939 2606 2170 2606 2438 2411 2477 2387 2496 2367 2541 2367 2618 2367 2701 2449 2701 2526 2701 2639 2330 2880 1888 2880 1171 2880 493 2449 493 1972 493 1734 646 1586 755 1509 384 1301 166 961 166 652 166 219 563-128 1178-128 2022-128 2362 424 2362 512 2362 543 2336 568 2304 568 2272 568 2259 549 2234 512 2163 395 1997 146 1235 146 838 146 314 245 314 686 314 898 474 1214 890 1427ZM1088 1518C1261 1600 1427 1600 1472 1600 1651 1600 1683 1583 1786 1545 1677 1472 1664 1472 1434 1472 1318 1472 1216 1472 1088 1518Z" id="CMMI12-22" stroke-linecap="butt" stroke-linejoin="round" transform="scale(0.015625 0.015625)"/><path d="M4218 1472C4326 1472 4442 1472 4442 1600 4442 1728 4326 1728 4218 1728L755 1728C646 1728 531 1728 531 1600 531 1472 646 1472 755 1472L4218 1472Z" id="CMSY10-0" stroke-linecap="butt" stroke-linejoin="round" transform="scale(0.015625 0.015625)"/></defs><use width="100%" height="100%" xlink:href="#CMR17-46" stroke-linecap="butt" stroke-linejoin="round" transform="scale(0.996264 0.996264)"></use><use width="100%" height="100%" xlink:href="#CMR17-72" stroke-linecap="butt" stroke-linejoin="round" transform="matrix(0.996264 0 0 0.996264 52.1766 0)"></use><use width="100%" height="100%" xlink:href="#CMR17-65" stroke-linecap="butt" stroke-linejoin="round" transform="matrix(0.996264 0 0 0.996264 87.4574 0)"></use><use width="100%" height="100%" xlink:href="#CMR17-71" stroke-linecap="butt" stroke-linejoin="round" transform="matrix(0.996264 0 0 0.996264 127.943 0)"></use><use width="100%" height="100%" xlink:href="#CMR17-75" stroke-linecap="butt" stroke-linejoin="round" transform="matrix(0.996264 0 0 0.996264 176.236 0)"></use><use width="100%" height="100%" xlink:href="#CMR17-65" stroke-linecap="butt" stroke-linejoin="round" transform="matrix(0.996264 0 0 0.996264 227.131 0)"></use><use width="100%" height="100%" xlink:href="#CMR17-6e" stroke-linecap="butt" stroke-linejoin="round" transform="matrix(0.996264 0 0 0.996264 267.617 0)"></use><use width="100%" height="100%" xlink:href="#CMR17-63" stroke-linecap="butt" stroke-linejoin="round" transform="matrix(0.996264 0 0 0.996264 318.512 0)"></use><use width="100%" height="100%" xlink:href="#CMR17-79" stroke-linecap="butt" stroke-linejoin="round" transform="matrix(0.996264 0 0 0.996264 358.998 0)"></use><use width="100%" height="100%" xlink:href="#CMR17-47" stroke-linecap="butt" stroke-linejoin="round" transform="matrix(0.996264 0 0 0.996264 437.367 0)"></use><use width="100%" height="100%" xlink:href="#CMR17-61" stroke-linecap="butt" stroke-linejoin="round" transform="matrix(0.996264 0 0 0.996264 509.722 0)"></use><use width="100%" height="100%" xlink:href="#CMR17-69" stroke-linecap="butt" stroke-linejoin="round" transform="matrix(0.996264 0 0 0.996264 555.413 0)"></use><use width="100%" height="100%" xlink:href="#CMR17-6e" stroke-linecap="butt" stroke-linejoin="round" transform="matrix(0.996264 0 0 0.996264 580.284 0)"></use><use width="100%" height="100%" xlink:href="#CMSY10-2f" stroke-linecap="butt" stroke-linejoin="round" transform="matrix(0.996264 0 0 0.996264 658.853 0)"></use><use width="100%" height="100%" xlink:href="#CMR17-31" stroke-linecap="butt" stroke-linejoin="round" transform="matrix(0.697382 0 0 0.697382 819.816 39.2261)"></use><use width="100%" height="100%" xlink:href="#CMMI12-65" stroke-linecap="butt" stroke-linejoin="round" transform="matrix(0.697382 0 0 0.697382 765.21 -34.3553)"></use><use width="100%" height="100%" xlink:href="#CMMI12-22" stroke-linecap="butt" stroke-linejoin="round" transform="matrix(0.498132 0 0 0.498132 796.858 -14.2087)"></use><use width="100%" height="100%" xlink:href="#CMSY10-0" stroke-linecap="butt" stroke-linejoin="round" transform="matrix(0.697382 0 0 0.697382 820.182 -34.3553)"></use><use width="100%" height="100%" xlink:href="#CMR17-31" stroke-linecap="butt" stroke-linejoin="round" transform="matrix(0.697382 0 0 0.697382 874.423 -34.3553)"></use><path d="M765.21 22.9141 906.406 22.9141 906.406 26.8991 765.21 26.8991 765.21 22.9141Z" stroke-linecap="butt" stroke-linejoin="round"/></g></g></g></g></svg>