<svg width="763.2" height="167.04" viewBox="0 0 572.4 125.28" xmlns="http://www.w3.org/2000/svg" xmlns:xlink="http://www.w3.org/1999/xlink" stroke-linecap="butt" stroke-linejoin="round" overflow="hidden"><defs stroke-linecap="butt" stroke-linejoin="round"></defs><g id="figure_1" stroke-linecap="butt" stroke-linejoin="round"><g id="patch_1" stroke-linecap="butt" stroke-linejoin="round"><path d="M0 125.28 572.4 125.28 572.4 0 0 0 0 125.28Z" stroke-linecap="butt" stroke-linejoin="round" fill="none" opacity="0"/></g><g id="axes_1" stroke-linecap="butt" stroke-linejoin="round"><g id="text_1" stroke-linecap="butt" stroke-linejoin="round"><g stroke-linecap="butt" stroke-linejoin="round" transform="matrix(0.2 0 0 -0.2 175.285 67.6213)"><defs stroke-linecap="butt" stroke-linejoin="round"><path d="M1894 2023 2970 2023C3853 2023 4736 2673 4736 3401 4736 3898 4314 4352 3507 4352L1530 4352C1408 4352 1350 4352 1350 4231 1350 4167 1408 4167 1504 4167 1894 4167 1894 4116 1894 4046 1894 4034 1894 3995 1869 3899L1005 472C947 249 934 185 486 185 365 185 301 185 301 70 301 0 358 0 397 0 518 0 646 0 768 0L1517 0C1638 0 1773 0 1894 0 1946 0 2016 0 2016 121 2016 185 1958 185 1862 185 1478 185 1472 230 1472 293 1472 325 1478 369 1485 401L1894 2023ZM2355 3930C2413 4167 2438 4167 2688 4167L3322 4167C3802 4167 4198 4013 4198 3535 4198 3369 4115 2827 3821 2534 3712 2419 3405 2176 2822 2176L1920 2176 2355 3930Z" id="CMMI12-50" stroke-linecap="butt" stroke-linejoin="round" transform="scale(0.015625 0.015625)"/><path d="M1958-1561C1958-1555 1958-1542 1939-1523 1645-1224 858-407 858 1581 858 3569 1632 4379 1946 4697 1946 4704 1958 4717 1958 4736 1958 4755 1939 4768 1914 4768 1843 4768 1299 4296 986 3594 666 2887 576 2199 576 1588 576 1128 621 351 1005-471 1312-1135 1837-1600 1914-1600 1946-1600 1958-1587 1958-1561Z" id="CMR17-28" stroke-linecap="butt" stroke-linejoin="round" transform="scale(0.015625 0.015625)"/><path d="M4064 4423C4064 4480 4019 4480 4006 4480 3981 4480 3974 4474 3898 4378 3859 4333 3597 4001 3590 3995 3379 4410 2957 4480 2688 4480 1875 4480 1139 3743 1139 3025 1139 2549 1427 2269 1741 2161 1811 2135 2189 2033 2381 1989 2707 1900 2790 1875 2925 1735 2950 1703 3078 1557 3078 1258 3078 667 2528 57 1888 57 1363 57 781 280 781 991 781 1112 806 1265 826 1328 826 1348 832 1378 832 1391 832 1417 819 1449 768 1449 710 1449 704 1436 678 1328L352 24C352 18 326-64 326-71 326-128 378-128 390-128 416-128 422-122 499-26L794 356C947 126 1280-128 1875-128 2701-128 3456 666 3456 1460 3456 1728 3392 1963 3149 2197 3014 2331 2899 2363 2310 2516 1882 2630 1824 2649 1709 2751 1600 2858 1517 3011 1517 3227 1517 3761 2061 4308 2669 4308 3296 4308 3590 3926 3590 3323 3590 3158 3558 2986 3558 2961 3558 2903 3610 2903 3629 2903 3686 2903 3693 2922 3718 3024L4064 4423Z" id="CMMI12-53" stroke-linecap="butt" stroke-linejoin="round" transform="scale(0.015625 0.015625)"/><path d="M1811 913C1811 945 1786 971 1747 971 1690 971 1683 952 1651 843 1485 262 1222 64 1011 64 934 64 845 83 845 275 845 447 922 639 992 830L1440 2018C1459 2069 1504 2184 1504 2305 1504 2574 1312 2816 998 2816 410 2816 173 1890 173 1839 173 1814 198 1782 243 1782 301 1782 307 1807 333 1896 486 2428 730 2682 979 2682 1037 2682 1146 2682 1146 2478 1146 2312 1062 2101 1011 1961L563 773C525 671 486 568 486 453 486 166 685-64 992-64 1581-64 1811 869 1811 913ZM1760 4013C1760 4109 1683 4224 1542 4224 1395 4224 1229 4083 1229 3917 1229 3758 1363 3707 1440 3707 1613 3707 1760 3873 1760 4013Z" id="CMMI12-69" stroke-linecap="butt" stroke-linejoin="round" transform="scale(0.015625 0.015625)"/><path d="M4115 2017C4211 2017 4307 2017 4307 2125 4307 2240 4198 2240 4090 2240L512 2240C403 2240 294 2240 294 2125 294 2017 390 2017 486 2017L4115 2017ZM4090 896C4198 896 4307 896 4307 1011 4307 1119 4211 1119 4115 1119L486 1119C390 1119 294 1119 294 1011 294 896 403 896 512 896L4090 896Z" id="CMR17-3d" stroke-linecap="butt" stroke-linejoin="round" transform="scale(0.015625 0.015625)"/><path d="M1702 4058C1702 4192 1696 4192 1606 4192 1357 3916 979 3827 621 3827 602 3827 570 3827 563 3808 557 3795 557 3782 557 3648 755 3648 1088 3686 1344 3839L1344 461C1344 236 1331 160 781 160L589 160 589 0C896 0 1216 0 1523 0 1830 0 2150 0 2458 0L2458 160 2266 160C1715 160 1702 230 1702 458L1702 4058Z" id="CMR17-31" stroke-linecap="butt" stroke-linejoin="round" transform="scale(0.015625 0.015625)"/><path d="M1683 1581C1683 2040 1638 2817 1254 3639 947 4303 422 4768 346 4768 326 4768 301 4761 301 4729 301 4717 307 4710 314 4697 621 4378 1402 3568 1402 1584 1402-407 627-1217 314-1537 307-1549 301-1556 301-1568 301-1600 326-1600 346-1600 416-1600 960-1128 1274-426 1594 281 1683 969 1683 1581Z" id="CMR17-29" stroke-linecap="butt" stroke-linejoin="round" transform="scale(0.015625 0.015625)"/><path d="M2885-11693C2885-10989 2399-9907 1285-9344 1977-8973 2802-8224 2879-7027L2885-6989 2885-2554C2885-2029 2885-1914 2937-1670 3052-1158 3359-525 4172-45 4223-13 4229-6 4229 109 4229 250 4223 256 4082 256 3967 256 3954 256 3781 154 2348-659 2265-1850 2265-2074L2265-6624C2265-7085 2265-7603 1932-8192 1637-8717 1292-8979 1017-9165 927-9222 921-9229 921-9338 921-9453 927-9459 978-9491 1522-9850 2105-10419 2245-11462 2265-11603 2265-11616 2265-11693L2265-16608C2265-17126 2585-18202 3820-18854 3967-18938 3980-18938 4082-18938 4223-18938 4229-18931 4229-18790 4229-18675 4223-18669 4197-18656 3922-18483 3084-17978 2911-16864 2885-16698 2885-16685 2885-16602L2885-11693Z" id="CMEX10-28" stroke-linecap="butt" stroke-linejoin="round" transform="scale(0.015625 0.015625)"/><path d="M2822 2759C2822 2790 2797 2816 2765 2816 2714 2816 2464 2585 2342 2362 2227 2646 2029 2816 1754 2816 1030 2816 250 1884 250 939 250 307 621-64 1056-64 1395-64 1677 193 1811 339L1818 333 1574-615 1517-842C1459-1031 1363-1031 1062-1031 992-1031 928-1031 928-1152 928-1197 966-1216 1011-1216 1101-1216 1216-1216 1306-1216L1958-1216C2054-1216 2163-1216 2259-1216 2298-1216 2374-1216 2374-1095 2374-1031 2323-1031 2227-1031 1926-1031 1907-986 1907-935 1907-904 1914-898 1933-815L2822 2759ZM1920 762C1888 652 1888 640 1798 518 1658 339 1376 64 1075 64 813 64 666 301 666 678 666 1030 864 1747 986 2016 1203 2464 1504 2695 1754 2695 2176 2695 2259 2170 2259 2119 2259 2113 2240 2028 2234 2016L1920 762Z" id="CMMI12-71" stroke-linecap="butt" stroke-linejoin="round" transform="scale(0.015625 0.015625)"/><path d="M992 3909C992 4049 877 4170 730 4170 589 4170 467 4056 467 3909 467 3769 582 3648 730 3648 870 3648 992 3763 992 3909ZM243 2706 243 2541C602 2541 653 2502 653 2197L653 427C653 184 627 153 218 153L218-13C371 0 646 0 806 0 960 0 1222 0 1370-13L1370 153C992 153 979 191 979 420L979 2776 243 2706Z" id="CMR17-69" stroke-linecap="butt" stroke-linejoin="round" transform="scale(0.015625 0.015625)"/><path d="M979 2560 1709 2560 1709 2725 966 2725 966 3494C966 4022 1235 4352 1510 4352 1594 4352 1690 4327 1754 4282 1702 4269 1568 4225 1568 4067 1568 3901 1696 3850 1786 3850 1875 3850 2003 3901 2003 4067 2003 4308 1773 4454 1517 4454 1152 4454 653 4156 653 3481L653 2725 141 2725 141 2560 653 2560 653 427C653 184 627 153 218 153L218-13C371 0 666 0 832 0 1018 0 1344 0 1517-13L1517 153C1056 153 979 153 979 439L979 2560Z" id="CMR17-66" stroke-linecap="butt" stroke-linejoin="round" transform="scale(0.015625 0.015625)"/><path d="M2342 3921C2400 4160 2426 4160 2675 4160L3507 4160C4230 4160 4230 3544 4230 3485 4230 2966 3712 2304 2867 2304L1946 2304 2342 3921ZM3424 2275C4122 2402 4755 2886 4755 3473 4755 3970 4314 4352 3590 4352L1536 4352C1414 4352 1357 4352 1357 4226 1357 4160 1414 4160 1510 4160 1901 4160 1901 4112 1901 4044 1901 4032 1901 3993 1875 3897L1011 472C954 249 941 185 493 185 371 185 307 185 307 70 307 0 346 0 474 0L2669 0C3648 0 4403 739 4403 1383 4403 1906 3942 2224 3424 2275ZM2515 185 1651 185C1562 185 1549 185 1510 192 1440 198 1434 211 1434 261 1434 305 1446 343 1459 399L1907 2176 3110 2176C3866 2176 3866 1483 3866 1433 3866 828 3309 185 2515 185Z" id="CMMI12-42" stroke-linecap="butt" stroke-linejoin="round" transform="scale(0.015625 0.015625)"/><path d="M1619 3040C1651 3117 1677 3174 1677 3238 1677 3424 1510 3578 1312 3578 1133 3578 1018 3456 973 3290L211 493C211 480 186 410 186 403 186 333 352 288 403 288 442 288 448 307 486 390L1619 3040Z" id="CMSY10-30" stroke-linecap="butt" stroke-linejoin="round" transform="scale(0.015625 0.015625)"/><path d="M275-789C230-980 205-1031-58-1031-134-1031-198-1031-198-1152-198-1165-192-1216-122-1216-38-1216 51-1216 134-1216L410-1216C544-1216 870-1216 1005-1216 1043-1216 1120-1216 1120-1101 1120-1031 1075-1031 966-1031 672-1031 653-987 653-937 653-861 941 219 979 364 1050 185 1222-64 1555-64 2278-64 3059 875 3059 1814 3059 2401 2726 2816 2246 2816 1837 2816 1491 2420 1421 2331 1370 2650 1120 2816 864 2816 678 2816 531 2727 410 2484 294 2254 205 1865 205 1839 205 1814 230 1782 275 1782 326 1782 333 1788 371 1935 467 2312 589 2689 845 2689 992 2689 1043 2587 1043 2397 1043 2245 1024 2181 998 2067L275-789ZM1382 1993C1427 2171 1606 2357 1709 2446 1779 2510 1990 2689 2234 2689 2515 2689 2643 2408 2643 2076 2643 1769 2464 1047 2304 715 2144 370 1850 64 1555 64 1120 64 1050 613 1050 639 1050 658 1062 709 1069 741L1382 1993Z" id="CMMI12-70" stroke-linecap="butt" stroke-linejoin="round" transform="scale(0.015625 0.015625)"/><path d="M2688 2025C2688 2416 2682 3080 2413 3591 2176 4039 1798 4198 1466 4198 1158 4198 768 4058 525 3597 269 3118 243 2524 243 2025 243 1661 250 1106 448 619 723-39 1216-128 1466-128 1760-128 2208-7 2470 600 2662 1042 2688 1559 2688 2025ZM1466-26C1056-26 813 325 723 812 653 1188 653 1738 653 2096 653 2588 653 2997 736 3387 858 3929 1216 4096 1466 4096 1728 4096 2067 3923 2189 3400 2272 3036 2278 2607 2278 2096 2278 1680 2278 1169 2202 792 2067 95 1690-26 1466-26Z" id="CMR17-30" stroke-linecap="butt" stroke-linejoin="round" transform="scale(0.015625 0.015625)"/></defs><use width="100%" height="100%" xlink:href="#CMMI12-50" stroke-linecap="butt" stroke-linejoin="round" transform="scale(0.996264 0.996264)"></use><use width="100%" height="100%" xlink:href="#CMR17-28" stroke-linecap="butt" stroke-linejoin="round" transform="matrix(0.996264 0 0 0.996264 76.4258 0)"></use><use width="100%" height="100%" xlink:href="#CMMI12-53" stroke-linecap="butt" stroke-linejoin="round" transform="matrix(0.996264 0 0 0.996264 111.707 0)"></use><use width="100%" height="100%" xlink:href="#CMMI12-69" stroke-linecap="butt" stroke-linejoin="round" transform="matrix(0.697382 0 0 0.697382 171.701 -14.9439)"></use><use width="100%" height="100%" xlink:href="#CMR17-3d" stroke-linecap="butt" stroke-linejoin="round" transform="matrix(0.996264 0 0 0.996264 223.168 0)"></use><use width="100%" height="100%" xlink:href="#CMR17-31" stroke-linecap="butt" stroke-linejoin="round" transform="matrix(0.996264 0 0 0.996264 322.557 0)"></use><use width="100%" height="100%" xlink:href="#CMR17-29" stroke-linecap="butt" stroke-linejoin="round" transform="matrix(0.996264 0 0 0.996264 368.247 0)"></use><use width="100%" height="100%" xlink:href="#CMR17-3d" stroke-linecap="butt" stroke-linejoin="round" transform="matrix(0.996264 0 0 0.996264 431.202 0)"></use><use width="100%" height="100%" xlink:href="#CMEX10-28" stroke-linecap="butt" stroke-linejoin="round" transform="matrix(0.996264 0 0 0.996264 530.591 170.363)"></use><use width="100%" height="100%" xlink:href="#CMMI12-71" stroke-linecap="butt" stroke-linejoin="round" transform="matrix(0.996264 0 0 0.996264 610.846 69.7388)"></use><use width="100%" height="100%" xlink:href="#CMR17-69" stroke-linecap="butt" stroke-linejoin="round" transform="matrix(0.996264 0 0 0.996264 751.187 69.7388)"></use><use width="100%" height="100%" xlink:href="#CMR17-66" stroke-linecap="butt" stroke-linejoin="round" transform="matrix(0.996264 0 0 0.996264 776.058 69.7388)"></use><use width="100%" height="100%" xlink:href="#CMMI12-42" stroke-linecap="butt" stroke-linejoin="round" transform="matrix(0.996264 0 0 0.996264 833.607 69.7388)"></use><use width="100%" height="100%" xlink:href="#CMSY10-30" stroke-linecap="butt" stroke-linejoin="round" transform="matrix(0.697382 0 0 0.697382 912.743 105.892)"></use><use width="100%" height="100%" xlink:href="#CMMI12-69" stroke-linecap="butt" stroke-linejoin="round" transform="matrix(0.697382 0 0 0.697382 907.715 44.233)"></use><use width="100%" height="100%" xlink:href="#CMR17-3d" stroke-linecap="butt" stroke-linejoin="round" transform="matrix(0.996264 0 0 0.996264 960.093 69.7388)"></use><use width="100%" height="100%" xlink:href="#CMR17-31" stroke-linecap="butt" stroke-linejoin="round" transform="matrix(0.996264 0 0 0.996264 1059.48 69.7388)"></use><use width="100%" height="100%" xlink:href="#CMMI12-70" stroke-linecap="butt" stroke-linejoin="round" transform="matrix(0.996264 0 0 0.996264 610.846 -79.7004)"></use><use width="100%" height="100%" xlink:href="#CMR17-69" stroke-linecap="butt" stroke-linejoin="round" transform="matrix(0.996264 0 0 0.996264 751.187 -79.7004)"></use><use width="100%" height="100%" xlink:href="#CMR17-66" stroke-linecap="butt" stroke-linejoin="round" transform="matrix(0.996264 0 0 0.996264 776.058 -79.7004)"></use><use width="100%" height="100%" xlink:href="#CMMI12-42" stroke-linecap="butt" stroke-linejoin="round" transform="matrix(0.996264 0 0 0.996264 833.607 -79.7004)"></use><use width="100%" height="100%" xlink:href="#CMSY10-30" stroke-linecap="butt" stroke-linejoin="round" transform="matrix(0.697382 0 0 0.697382 912.743 -43.5468)"></use><use width="100%" height="100%" xlink:href="#CMMI12-69" stroke-linecap="butt" stroke-linejoin="round" transform="matrix(0.697382 0 0 0.697382 907.715 -105.206)"></use><use width="100%" height="100%" xlink:href="#CMR17-3d" stroke-linecap="butt" stroke-linejoin="round" transform="matrix(0.996264 0 0 0.996264 960.093 -79.7004)"></use><use width="100%" height="100%" xlink:href="#CMR17-30" stroke-linecap="butt" stroke-linejoin="round" transform="matrix(0.996264 0 0 0.996264 1059.48 -79.7004)"></use></g></g></g></g></svg>