<svg width="763.2" height="167.04" viewBox="0 0 572.4 125.28" xmlns="http://www.w3.org/2000/svg" xmlns:xlink="http://www.w3.org/1999/xlink" stroke-linecap="butt" stroke-linejoin="round" overflow="hidden"><defs stroke-linecap="butt" stroke-linejoin="round"></defs><g id="figure_1" stroke-linecap="butt" stroke-linejoin="round"><g id="patch_1" stroke-linecap="butt" stroke-linejoin="round"><path d="M0 125.28 572.4 125.28 572.4 0 0 0 0 125.28Z" stroke-linecap="butt" stroke-linejoin="round" fill="none" opacity="0"/></g><g id="axes_1" stroke-linecap="butt" stroke-linejoin="round"><g id="text_1" stroke-linecap="butt" stroke-linejoin="round"><g stroke-linecap="butt" stroke-linejoin="round" transform="matrix(0.2 0 0 -0.2 236.696 67.6207)"><defs stroke-linecap="butt" stroke-linejoin="round"><path d="M4326 1933C4326 2252 4269 2790 3507 2790 3072 2790 2771 2496 2656 2151L2650 2151C2573 2676 2195 2790 1837 2790 1331 2790 1069 2400 973 2144L966 2144 966 2790 211 2720 211 2554C589 2554 646 2515 646 2208L646 428C646 184 621 153 211 153L211-13C365 0 646 0 813 0 979 0 1267 0 1421-13L1421 153C1011 153 986 178 986 428L986 1658C986 2247 1344 2688 1792 2688 2266 2688 2317 2266 2317 1958L2317 428C2317 184 2291 153 1882 153L1882-13C2035 0 2317 0 2483 0 2650 0 2938 0 3091-13L3091 153C2682 153 2656 178 2656 428L2656 1658C2656 2247 3014 2688 3462 2688 3936 2688 3987 2266 3987 1958L3987 428C3987 184 3962 153 3552 153L3552-13C3706 0 3987 0 4154 0 4320 0 4608 0 4762-13L4762 153C4352 153 4326 178 4326 428L4326 1933Z" id="CMR17-6d" stroke-linecap="butt" stroke-linejoin="round" transform="scale(0.015625 0.015625)"/><path d="M2304 1653C2304 2072 2304 2294 2035 2543 1798 2752 1523 2816 1306 2816 800 2816 435 2407 435 1971 435 1728 627 1728 666 1728 749 1728 896 1778 896 1954 896 2112 774 2181 666 2181 640 2181 608 2174 589 2168 723 2592 1069 2714 1293 2714 1613 2714 1965 2429 1965 1885L1965 1600C1587 1600 1133 1549 774 1357 371 1133 256 813 256 570 256 77 832-64 1171-64 1523-64 1850 139 1990 511 2003 233 2182-18 2464-18 2598-18 2938 70 2938 567L2938 920 2822 920 2822 562C2822 178 2650 128 2566 128 2304 128 2304 458 2304 738L2304 1653ZM1965 870C1965 317 1568 38 1216 38 896 38 646 275 646 570 646 761 730 1100 1101 1305 1408 1478 1760 1504 1965 1504L1965 870Z" id="CMR17-61" stroke-linecap="butt" stroke-linejoin="round" transform="scale(0.015625 0.015625)"/><path d="M1664 1477C1856 1726 2074 2006 2253 2216 2464 2458 2707 2560 2989 2560L2989 2726C2880 2726 2656 2726 2541 2726 2368 2726 2170 2726 2022 2732L2022 2566C2112 2553 2163 2489 2163 2400 2163 2285 2099 2215 2067 2171L1594 1573 1030 2306C973 2376 973 2388 973 2420 973 2497 1037 2560 1146 2560L1146 2732C992 2726 717 2726 557 2726 384 2726 179 2726 38 2732L38 2560C384 2560 461 2534 614 2343L1350 1395C1363 1382 1395 1344 1395 1325 1395 1299 838 619 768 530 480 185 179 160 6 160L6 0C115 0 339 0 454 0 582 0 864 0 979-6L979 160C941 166 838 179 838 325 838 440 890 510 947 586L1478 1236 2035 512C2086 442 2163 346 2163 301 2163 211 2086 160 1984 160L1984-6C2138 0 2413 0 2573 0 2746 0 2950 0 3091-6L3091 160C2771 160 2675 172 2522 370L1664 1477Z" id="CMR17-78" stroke-linecap="butt" stroke-linejoin="round" transform="scale(0.015625 0.015625)"/><path d="M4698 3822C4838 3969 4986 4065 5414 4065 5485 4065 5600 4065 5600 4256 5600 4294 5568 4371 5485 4371 5299 4371 5088 4352 4896 4352 4659 4352 4416 4371 4186 4371 4141 4371 4013 4371 4013 4182 4013 4065 4122 4065 4186 4065 4250 4065 4378 4054 4474 4027L2739 2179 1920 4046C2099 4065 2106 4065 2278 4065 2387 4065 2496 4065 2496 4239 2496 4321 2426 4352 2355 4352 2138 4352 1581 4352 1363 4352 1216 4352 1062 4352 922 4352 768 4352 608 4371 461 4371 397 4371 282 4371 282 4182 282 4065 371 4065 544 4065 627 4065 704 4065 794 4059 870 4046 883 4046 922 3963L1894 1746 1562 433C1536 325 1530 319 1414 312 1306 299 1197 299 1082 299 890 299 877 299 851 274 813 242 787 159 787 115 787 102 794 0 928 0 1088 0 1254 0 1414 0 1568 0 1728 0 1882 0 2099 0 2643 0 2861 0 2918 0 3046 0 3046 185 3046 299 2957 299 2778 299 2643 299 2522 299 2387 299L2746 1738 4698 3822Z" id="CMMIB10-59" stroke-linecap="butt" stroke-linejoin="round" transform="scale(0.015625 0.015625)"/><path d="M4774 4423C4774 4480 4730 4480 4717 4480 4704 4480 4678 4480 4627 4416L4186 3889C4154 3940 4026 4163 3776 4309 3501 4480 3226 4480 3130 4480 1760 4480 320 3095 320 1595 320 546 1050-128 2010-128 2470-128 3053 25 3373 427 3443 185 3584 12 3629 12 3661 12 3667 32 3674 32 3680 44 3731 270 3763 385L3866 797C3917 1009 3942 1099 3987 1291 4051 1536 4064 1536 4416 1536 4442 1536 4518 1536 4518 1666 4518 1734 4454 1734 4435 1734 4326 1734 4205 1734 4090 1734L3744 1734C3475 1734 3194 1734 2931 1734 2874 1734 2797 1734 2797 1611 2797 1542 2848 1542 2848 1536L3008 1536C3514 1536 3514 1489 3514 1402 3514 1395 3392 751 3270 561 3027 204 2522 57 2144 57 1651 57 851 312 851 1410 851 1836 1005 2808 1626 3526 2029 3984 2624 4295 3187 4295 3942 4295 4211 3655 4211 3071 4211 2970 4186 2831 4186 2742 4186 2685 4250 2685 4269 2685 4339 2685 4346 2691 4371 2805L4774 4423Z" id="CMMI12-47" stroke-linecap="butt" stroke-linejoin="round" transform="scale(0.015625 0.015625)"/><path d="M1958-1561C1958-1555 1958-1542 1939-1523 1645-1224 858-407 858 1581 858 3569 1632 4379 1946 4697 1946 4704 1958 4717 1958 4736 1958 4755 1939 4768 1914 4768 1843 4768 1299 4296 986 3594 666 2887 576 2199 576 1588 576 1128 621 351 1005-471 1312-1135 1837-1600 1914-1600 1946-1600 1958-1587 1958-1561Z" id="CMR17-28" stroke-linecap="butt" stroke-linejoin="round" transform="scale(0.015625 0.015625)"/><path d="M1683 1581C1683 2040 1638 2817 1254 3639 947 4303 422 4768 346 4768 326 4768 301 4761 301 4729 301 4717 307 4710 314 4697 621 4378 1402 3568 1402 1584 1402-407 627-1217 314-1537 307-1549 301-1556 301-1568 301-1600 326-1600 346-1600 416-1600 960-1128 1274-426 1594 281 1683 969 1683 1581Z" id="CMR17-29" stroke-linecap="butt" stroke-linejoin="round" transform="scale(0.015625 0.015625)"/></defs><use width="100%" height="100%" xlink:href="#CMR17-6d" stroke-linecap="butt" stroke-linejoin="round" transform="scale(0.996264 0.996264)"></use><use width="100%" height="100%" xlink:href="#CMR17-61" stroke-linecap="butt" stroke-linejoin="round" transform="matrix(0.996264 0 0 0.996264 76.9196 0)"></use><use width="100%" height="100%" xlink:href="#CMR17-78" stroke-linecap="butt" stroke-linejoin="round" transform="matrix(0.996264 0 0 0.996264 122.61 0)"></use><use width="100%" height="100%" xlink:href="#CMMIB10-59" stroke-linecap="butt" stroke-linejoin="round" transform="matrix(0.697382 0 0 0.697382 170.903 -14.9439)"></use><use width="100%" height="100%" xlink:href="#CMMI12-47" stroke-linecap="butt" stroke-linejoin="round" transform="matrix(0.996264 0 0 0.996264 252.871 0)"></use><use width="100%" height="100%" xlink:href="#CMR17-28" stroke-linecap="butt" stroke-linejoin="round" transform="matrix(0.996264 0 0 0.996264 329.818 0)"></use><use width="100%" height="100%" xlink:href="#CMMIB10-59" stroke-linecap="butt" stroke-linejoin="round" transform="matrix(0.996264 0 0 0.996264 365.099 0)"></use><use width="100%" height="100%" xlink:href="#CMR17-29" stroke-linecap="butt" stroke-linejoin="round" transform="matrix(0.996264 0 0 0.996264 457.765 0)"></use></g></g></g></g></svg>