<svg width="763.2" height="167.04" viewBox="0 0 572.4 125.28" xmlns="http://www.w3.org/2000/svg" xmlns:xlink="http://www.w3.org/1999/xlink" stroke-linecap="butt" stroke-linejoin="round" overflow="hidden"><defs stroke-linecap="butt" stroke-linejoin="round"></defs><g id="figure_1" stroke-linecap="butt" stroke-linejoin="round"><g id="patch_1" stroke-linecap="butt" stroke-linejoin="round"><path d="M0 125.28 572.4 125.28 572.4 0 0 0 0 125.28Z" stroke-linecap="butt" stroke-linejoin="round" fill="none" opacity="0"/></g><g id="axes_1" stroke-linecap="butt" stroke-linejoin="round"><g id="text_1" stroke-linecap="butt" stroke-linejoin="round"><g stroke-linecap="butt" stroke-linejoin="round" transform="matrix(0.2 0 0 -0.2 208.726 69.7963)"><defs stroke-linecap="butt" stroke-linejoin="round"><path d="M2400 4184C2182 3980 2061 3865 1862 3865 1722 3865 1626 3932 1491 4024 1363 4111 1261 4184 1120 4184 890 4184 730 4004 461 3718L531 3648C749 3850 870 3968 1069 3968 1210 3968 1306 3900 1440 3808 1568 3722 1670 3648 1811 3648 2042 3648 2202 3828 2470 4114L2400 4184Z" id="CMR17-7e" stroke-linecap="butt" stroke-linejoin="round" transform="scale(0.015625 0.015625)"/><path d="M2854 2566C2982 2566 3034 2566 3034 2688 3034 2752 2982 2752 2867 2752L2349 2752C2470 3429 2560 3897 2611 4107 2650 4265 2784 4416 2950 4416 3085 4416 3219 4358 3283 4298 3034 4272 2957 4082 2957 3969 2957 3837 3053 3759 3174 3759 3302 3759 3494 3870 3494 4119 3494 4393 3226 4544 2944 4544 2669 4544 2400 4334 2272 4078 2157 3848 2093 3611 1946 2752L1517 2752C1395 2752 1331 2752 1331 2637 1331 2566 1370 2566 1498 2566L1907 2566C1792 1976 1530 542 1382-137 1274-689 1178-1152 858-1152 838-1152 653-1152 538-1031 864-1005 864-726 864-720 864-593 768-517 646-517 518-517 326-625 326-867 326-1140 608-1280 858-1280 1510-1280 1779-118 1850 199 1965 688 2278 2376 2310 2566L2854 2566Z" id="CMMI12-66" stroke-linecap="butt" stroke-linejoin="round" transform="scale(0.015625 0.015625)"/><path d="M2925 2389C2925 2791 2720 2816 2669 2816 2515 2816 2374 2663 2374 2535 2374 2459 2419 2414 2445 2389 2509 2331 2675 2159 2675 1827 2675 1558 2291 64 1523 64 1133 64 1056 390 1056 626 1056 945 1203 1392 1376 1852 1478 2114 1504 2178 1504 2305 1504 2574 1312 2816 998 2816 410 2816 173 1890 173 1839 173 1814 198 1782 243 1782 301 1782 307 1807 333 1897 486 2446 736 2689 979 2689 1037 2689 1146 2689 1146 2478 1146 2312 1075 2127 979 1884 672 1067 672 869 672 715 672 575 691 313 890 134 1120-64 1440-64 1498-64 2560-64 2925 2024 2925 2389Z" id="CMMI12-76" stroke-linecap="butt" stroke-linejoin="round" transform="scale(0.015625 0.015625)"/><path d="M4115 2017C4211 2017 4307 2017 4307 2125 4307 2240 4198 2240 4090 2240L512 2240C403 2240 294 2240 294 2125 294 2017 390 2017 486 2017L4115 2017ZM4090 896C4198 896 4307 896 4307 1011 4307 1119 4211 1119 4115 1119L486 1119C390 1119 294 1119 294 1011 294 896 403 896 512 896L4090 896Z" id="CMR17-3d" stroke-linecap="butt" stroke-linejoin="round" transform="scale(0.015625 0.015625)"/><path d="M1702 4058C1702 4192 1696 4192 1606 4192 1357 3916 979 3827 621 3827 602 3827 570 3827 563 3808 557 3795 557 3782 557 3648 755 3648 1088 3686 1344 3839L1344 461C1344 236 1331 160 781 160L589 160 589 0C896 0 1216 0 1523 0 1830 0 2150 0 2458 0L2458 160 2266 160C1715 160 1702 230 1702 458L1702 4058Z" id="CMR17-31" stroke-linecap="butt" stroke-linejoin="round" transform="scale(0.015625 0.015625)"/><path d="M1318 1871C1331 1910 1491 2229 1728 2433 1894 2586 2112 2689 2362 2689 2618 2689 2707 2497 2707 2242 2707 1878 2445 1150 2317 805 2259 651 2227 568 2227 453 2227 166 2426-64 2733-64 3328-64 3552 875 3552 913 3552 945 3526 971 3488 971 3430 971 3424 952 3392 843 3245 319 3002 64 2752 64 2688 64 2586 64 2586 269 2586 429 2656 621 2694 710 2822 1063 3091 1780 3091 2145 3091 2528 2867 2816 2381 2816 1811 2816 1510 2415 1395 2255 1376 2618 1114 2816 832 2816 627 2816 486 2695 378 2478 262 2248 173 1865 173 1839 173 1814 198 1782 243 1782 294 1782 301 1788 339 1935 442 2325 557 2689 813 2689 960 2689 1011 2586 1011 2395 1011 2254 947 2005 902 1807L723 1118C698 996 627 709 595 594 550 428 480 128 480 96 480 6 550-64 646-64 723-64 813-26 864 70 877 102 934 326 966 453L1107 1028 1318 1871Z" id="CMMI12-6e" stroke-linecap="butt" stroke-linejoin="round" transform="scale(0.015625 0.015625)"/><path d="M2694-3418 422-6227C371-6291 365-6304 365-6330 365-6400 422-6400 538-6400L5843-6400 6394-4806 6234-4806C6074-5286 5645-5677 5101-5862 4998-5894 4557-6048 3616-6048L896-6048 3117-3302C3162-3245 3174-3226 3174-3200 3174-3174 3168-3168 3130-3110L1050-256 3584-256C4314-256 5786-301 6234-1498L6394-1498 5843 0 538 0C365 0 358-6 358-205L2694-3418Z" id="CMEX10-50" stroke-linecap="butt" stroke-linejoin="round" transform="scale(0.015625 0.015625)"/><path d="M1811 913C1811 945 1786 971 1747 971 1690 971 1683 952 1651 843 1485 262 1222 64 1011 64 934 64 845 83 845 275 845 447 922 639 992 830L1440 2018C1459 2069 1504 2184 1504 2305 1504 2574 1312 2816 998 2816 410 2816 173 1890 173 1839 173 1814 198 1782 243 1782 301 1782 307 1807 333 1896 486 2428 730 2682 979 2682 1037 2682 1146 2682 1146 2478 1146 2312 1062 2101 1011 1961L563 773C525 671 486 568 486 453 486 166 685-64 992-64 1581-64 1811 869 1811 913ZM1760 4013C1760 4109 1683 4224 1542 4224 1395 4224 1229 4083 1229 3917 1229 3758 1363 3707 1440 3707 1613 3707 1760 3873 1760 4013Z" id="CMMI12-69" stroke-linecap="butt" stroke-linejoin="round" transform="scale(0.015625 0.015625)"/><path d="M2214 3975C2214 4160 2202 4160 1997 4160 1523 3776 813 3776 672 3776L550 3776 550 3503 672 3503C896 3503 1235 3541 1491 3624L1491 267 602 267 602 0C870 0 1542 0 1843 0 2144 0 2822 0 3091 0L3091 267 2214 267 2214 3975Z" id="CMBX12-31" stroke-linecap="butt" stroke-linejoin="round" transform="scale(0.015625 0.015625)"/><path d="M4064 4423C4064 4480 4019 4480 4006 4480 3981 4480 3974 4474 3898 4378 3859 4333 3597 4001 3590 3995 3379 4410 2957 4480 2688 4480 1875 4480 1139 3743 1139 3025 1139 2549 1427 2269 1741 2161 1811 2135 2189 2033 2381 1989 2707 1900 2790 1875 2925 1735 2950 1703 3078 1557 3078 1258 3078 667 2528 57 1888 57 1363 57 781 280 781 991 781 1112 806 1265 826 1328 826 1348 832 1378 832 1391 832 1417 819 1449 768 1449 710 1449 704 1436 678 1328L352 24C352 18 326-64 326-71 326-128 378-128 390-128 416-128 422-122 499-26L794 356C947 126 1280-128 1875-128 2701-128 3456 666 3456 1460 3456 1728 3392 1963 3149 2197 3014 2331 2899 2363 2310 2516 1882 2630 1824 2649 1709 2751 1600 2858 1517 3011 1517 3227 1517 3761 2061 4308 2669 4308 3296 4308 3590 3926 3590 3323 3590 3158 3558 2986 3558 2961 3558 2903 3610 2903 3629 2903 3686 2903 3693 2922 3718 3024L4064 4423Z" id="CMMI12-53" stroke-linecap="butt" stroke-linejoin="round" transform="scale(0.015625 0.015625)"/><path d="M1958-1561C1958-1555 1958-1542 1939-1523 1645-1224 858-407 858 1581 858 3569 1632 4379 1946 4697 1946 4704 1958 4717 1958 4736 1958 4755 1939 4768 1914 4768 1843 4768 1299 4296 986 3594 666 2887 576 2199 576 1588 576 1128 621 351 1005-471 1312-1135 1837-1600 1914-1600 1946-1600 1958-1587 1958-1561Z" id="CMR17-28" stroke-linecap="butt" stroke-linejoin="round" transform="scale(0.015625 0.015625)"/><path d="M1683-700C1510-939 1261-1152 947-1152 870-1152 563-1152 467-889 486-895 518-895 531-895 723-895 851-729 851-582 851-435 730-384 634-384 531-384 307-458 307-759 307-1071 582-1286 947-1286 1587-1286 2234-700 2413 6L3040 2485C3046 2517 3059 2556 3059 2594 3059 2689 2982 2753 2886 2753 2829 2753 2694 2727 2643 2535L2170 658C2138 543 2138 530 2086 460 1958 281 1747 64 1440 64 1082 64 1050 415 1050 588 1050 952 1222 1443 1395 1903 1466 2088 1504 2178 1504 2305 1504 2574 1312 2816 998 2816 410 2816 173 1890 173 1839 173 1814 198 1782 243 1782 301 1782 307 1807 333 1897 486 2433 730 2689 979 2689 1037 2689 1146 2689 1146 2478 1146 2312 1075 2127 979 1884 666 1047 666 837 666 683 666 77 1101-64 1421-64 1606-64 1837-6 2061 230L2067 224C1971-147 1907-392 1683-700Z" id="CMMI12-79" stroke-linecap="butt" stroke-linejoin="round" transform="scale(0.015625 0.015625)"/><path d="M1683 1581C1683 2040 1638 2817 1254 3639 947 4303 422 4768 346 4768 326 4768 301 4761 301 4729 301 4717 307 4710 314 4697 621 4378 1402 3568 1402 1584 1402-407 627-1217 314-1537 307-1549 301-1556 301-1568 301-1600 326-1600 346-1600 416-1600 960-1128 1274-426 1594 281 1683 969 1683 1581Z" id="CMR17-29" stroke-linecap="butt" stroke-linejoin="round" transform="scale(0.015625 0.015625)"/><path d="M4218 1472C4326 1472 4442 1472 4442 1600 4442 1728 4326 1728 4218 1728L755 1728C646 1728 531 1728 531 1600 531 1472 646 1472 755 1472L4218 1472Z" id="CMSY10-0" stroke-linecap="butt" stroke-linejoin="round" transform="scale(0.015625 0.015625)"/><path d="M2822 2759C2822 2790 2797 2816 2765 2816 2714 2816 2464 2585 2342 2362 2227 2646 2029 2816 1754 2816 1030 2816 250 1884 250 939 250 307 621-64 1056-64 1395-64 1677 193 1811 339L1818 333 1574-615 1517-842C1459-1031 1363-1031 1062-1031 992-1031 928-1031 928-1152 928-1197 966-1216 1011-1216 1101-1216 1216-1216 1306-1216L1958-1216C2054-1216 2163-1216 2259-1216 2298-1216 2374-1216 2374-1095 2374-1031 2323-1031 2227-1031 1926-1031 1907-986 1907-935 1907-904 1914-898 1933-815L2822 2759ZM1920 762C1888 652 1888 640 1798 518 1658 339 1376 64 1075 64 813 64 666 301 666 678 666 1030 864 1747 986 2016 1203 2464 1504 2695 1754 2695 2176 2695 2259 2170 2259 2119 2259 2113 2240 2028 2234 2016L1920 762Z" id="CMMI12-71" stroke-linecap="butt" stroke-linejoin="round" transform="scale(0.015625 0.015625)"/><path d="M275-789C230-980 205-1031-58-1031-134-1031-198-1031-198-1152-198-1165-192-1216-122-1216-38-1216 51-1216 134-1216L410-1216C544-1216 870-1216 1005-1216 1043-1216 1120-1216 1120-1101 1120-1031 1075-1031 966-1031 672-1031 653-987 653-937 653-861 941 219 979 364 1050 185 1222-64 1555-64 2278-64 3059 875 3059 1814 3059 2401 2726 2816 2246 2816 1837 2816 1491 2420 1421 2331 1370 2650 1120 2816 864 2816 678 2816 531 2727 410 2484 294 2254 205 1865 205 1839 205 1814 230 1782 275 1782 326 1782 333 1788 371 1935 467 2312 589 2689 845 2689 992 2689 1043 2587 1043 2397 1043 2245 1024 2181 998 2067L275-789ZM1382 1993C1427 2171 1606 2357 1709 2446 1779 2510 1990 2689 2234 2689 2515 2689 2643 2408 2643 2076 2643 1769 2464 1047 2304 715 2144 370 1850 64 1555 64 1120 64 1050 613 1050 639 1050 658 1062 709 1069 741L1382 1993Z" id="CMMI12-70" stroke-linecap="butt" stroke-linejoin="round" transform="scale(0.015625 0.015625)"/></defs><use width="100%" height="100%" xlink:href="#CMR17-7e" stroke-linecap="butt" stroke-linejoin="round" transform="matrix(0.996264 0 0 0.996264 22.7732 26.2966)"></use><use width="100%" height="100%" xlink:href="#CMMI12-66" stroke-linecap="butt" stroke-linejoin="round" transform="scale(0.996264 0.996264)"></use><use width="100%" height="100%" xlink:href="#CMMI12-76" stroke-linecap="butt" stroke-linejoin="round" transform="matrix(0.697382 0 0 0.697382 48.0832 -14.9439)"></use><use width="100%" height="100%" xlink:href="#CMR17-3d" stroke-linecap="butt" stroke-linejoin="round" transform="matrix(0.996264 0 0 0.996264 111.77 0)"></use><use width="100%" height="100%" xlink:href="#CMR17-31" stroke-linecap="butt" stroke-linejoin="round" transform="matrix(0.498132 0 0 0.498132 216.685 87.1355)"></use><use width="100%" height="100%" xlink:href="#CMMI12-6e" stroke-linecap="butt" stroke-linejoin="round" transform="matrix(0.498132 0 0 0.498132 213.55 35.6288)"></use><use width="100%" height="100%" xlink:href="#CMEX10-50" stroke-linecap="butt" stroke-linejoin="round" transform="matrix(0.697382 0 0 0.697382 255.483 111.981)"></use><use width="100%" height="100%" xlink:href="#CMMI12-6e" stroke-linecap="butt" stroke-linejoin="round" transform="matrix(0.498132 0 0 0.498132 329.096 92.7482)"></use><use width="100%" height="100%" xlink:href="#CMMI12-69" stroke-linecap="butt" stroke-linejoin="round" transform="matrix(0.498132 0 0 0.498132 329.096 39.7517)"></use><use width="100%" height="100%" xlink:href="#CMR17-3d" stroke-linecap="butt" stroke-linejoin="round" transform="matrix(0.498132 0 0 0.498132 345.735 39.7517)"></use><use width="100%" height="100%" xlink:href="#CMR17-31" stroke-linecap="butt" stroke-linejoin="round" transform="matrix(0.498132 0 0 0.498132 381.593 39.7517)"></use><use width="100%" height="100%" xlink:href="#CMBX12-31" stroke-linecap="butt" stroke-linejoin="round" transform="matrix(0.697382 0 0 0.697382 416.559 59.6774)"></use><use width="100%" height="100%" xlink:href="#CMMI12-53" stroke-linecap="butt" stroke-linejoin="round" transform="matrix(0.498132 0 0 0.498132 455.787 46.3832)"></use><use width="100%" height="100%" xlink:href="#CMR17-28" stroke-linecap="butt" stroke-linejoin="round" transform="matrix(0.498132 0 0 0.498132 488.684 46.3832)"></use><use width="100%" height="100%" xlink:href="#CMMI12-79" stroke-linecap="butt" stroke-linejoin="round" transform="matrix(0.498132 0 0 0.498132 506.324 46.3832)"></use><use width="100%" height="100%" xlink:href="#CMMI12-69" stroke-linecap="butt" stroke-linejoin="round" transform="matrix(0.498132 0 0 0.498132 530.106 30.884)"></use><use width="100%" height="100%" xlink:href="#CMR17-29" stroke-linecap="butt" stroke-linejoin="round" transform="matrix(0.498132 0 0 0.498132 547.244 46.3832)"></use><use width="100%" height="100%" xlink:href="#CMR17-28" stroke-linecap="butt" stroke-linejoin="round" transform="matrix(0.697382 0 0 0.697382 565.382 59.6774)"></use><use width="100%" height="100%" xlink:href="#CMMI12-76" stroke-linecap="butt" stroke-linejoin="round" transform="matrix(0.697382 0 0 0.697382 590.079 59.6774)"></use><use width="100%" height="100%" xlink:href="#CMR17-29" stroke-linecap="butt" stroke-linejoin="round" transform="matrix(0.697382 0 0 0.697382 625.593 59.6774)"></use><use width="100%" height="100%" xlink:href="#CMSY10-0" stroke-linecap="butt" stroke-linejoin="round" transform="matrix(0.697382 0 0 0.697382 650.29 59.6774)"></use><use width="100%" height="100%" xlink:href="#CMMI12-71" stroke-linecap="butt" stroke-linejoin="round" transform="matrix(0.697382 0 0 0.697382 704.531 59.6774)"></use><use width="100%" height="100%" xlink:href="#CMMI12-70" stroke-linecap="butt" stroke-linejoin="round" transform="matrix(0.697382 0 0 0.697382 414.186 -34.3553)"></use><use width="100%" height="100%" xlink:href="#CMSY10-0" stroke-linecap="butt" stroke-linejoin="round" transform="matrix(0.697382 0 0 0.697382 448.458 -34.3553)"></use><use width="100%" height="100%" xlink:href="#CMMI12-71" stroke-linecap="butt" stroke-linejoin="round" transform="matrix(0.697382 0 0 0.697382 502.699 -34.3553)"></use><path d="M213.55 75.7172 242.665 75.7172 242.665 78.5066 213.55 78.5066 213.55 75.7172Z" stroke-linecap="butt" stroke-linejoin="round"/><path d="M212.354 22.9141 737.309 22.9141 737.309 26.8991 212.354 26.8991 212.354 22.9141Z" stroke-linecap="butt" stroke-linejoin="round"/></g></g></g></g></svg>