<svg width="763.2" height="167.04" viewBox="0 0 572.4 125.28" xmlns="http://www.w3.org/2000/svg" xmlns:xlink="http://www.w3.org/1999/xlink" stroke-linecap="butt" stroke-linejoin="round" overflow="hidden"><defs stroke-linecap="butt" stroke-linejoin="round"></defs><g id="figure_1" stroke-linecap="butt" stroke-linejoin="round"><g id="patch_1" stroke-linecap="butt" stroke-linejoin="round"><path d="M0 125.28 572.4 125.28 572.4 0 0 0 0 125.28Z" stroke-linecap="butt" stroke-linejoin="round" fill="none" opacity="0"/></g><g id="axes_1" stroke-linecap="butt" stroke-linejoin="round"><g id="text_1" stroke-linecap="butt" stroke-linejoin="round"><g stroke-linecap="butt" stroke-linejoin="round" transform="matrix(0.2 0 0 -0.2 128.29 67.6207)"><defs stroke-linecap="butt" stroke-linejoin="round"><path d="M1894 2023 2970 2023C3853 2023 4736 2673 4736 3401 4736 3898 4314 4352 3507 4352L1530 4352C1408 4352 1350 4352 1350 4231 1350 4167 1408 4167 1504 4167 1894 4167 1894 4116 1894 4046 1894 4034 1894 3995 1869 3899L1005 472C947 249 934 185 486 185 365 185 301 185 301 70 301 0 358 0 397 0 518 0 646 0 768 0L1517 0C1638 0 1773 0 1894 0 1946 0 2016 0 2016 121 2016 185 1958 185 1862 185 1478 185 1472 230 1472 293 1472 325 1478 369 1485 401L1894 2023ZM2355 3930C2413 4167 2438 4167 2688 4167L3322 4167C3802 4167 4198 4013 4198 3535 4198 3369 4115 2827 3821 2534 3712 2419 3405 2176 2822 2176L1920 2176 2355 3930Z" id="CMMI12-50" stroke-linecap="butt" stroke-linejoin="round" transform="scale(0.015625 0.015625)"/><path d="M2490 2612C2291 2574 2189 2433 2189 2293 2189 2139 2310 2088 2400 2088 2579 2088 2726 2242 2726 2433 2726 2638 2528 2816 2208 2816 1952 2816 1658 2701 1389 2312 1344 2650 1088 2816 832 2816 582 2816 454 2625 378 2484 269 2254 173 1871 173 1839 173 1814 198 1782 243 1782 294 1782 301 1788 339 1935 435 2318 557 2689 813 2689 966 2689 1011 2580 1011 2395 1011 2254 947 2005 902 1807L723 1118C698 996 627 709 595 594 550 428 480 128 480 96 480 6 550-64 646-64 717-64 838-19 877 109 896 160 1133 1124 1171 1271 1203 1411 1242 1546 1274 1686 1299 1775 1325 1878 1344 1961 1363 2018 1536 2331 1696 2472 1773 2542 1939 2689 2202 2689 2304 2689 2406 2670 2490 2612Z" id="CMMI12-72" stroke-linecap="butt" stroke-linejoin="round" transform="scale(0.015625 0.015625)"/><path d="M1504-1600 1504-1377 902-1377 902 4544 1504 4544 1504 4767 678 4767 678-1600 1504-1600Z" id="CMR17-5b" stroke-linecap="butt" stroke-linejoin="round" transform="scale(0.015625 0.015625)"/><path d="M2464 3629C2637 2797 2918 1427 3283 685 3424 409 3494 269 3558 269 3584 269 3597 269 3712 384 4198 849 4531 1219 4979 1730L6381 3357C6291 2814 6061 1378 6061 631 6061 459 6067 293 6086 120 6093 51 6118-135 6387-135 6656-135 7142 147 7142 275 7142 313 7104 320 7085 320 7002 320 6874 263 6803 218 6650 238 6637 340 6624 486 6605 690 6605 882 6605 908 6605 1615 6886 3548 7072 4340 7078 4385 7085 4397 7085 4448 7085 4473 7078 4544 7034 4544 7008 4544 7002 4537 6880 4396 6278 3670 4410 1436 3776 900 3616 1237 3501 1480 3277 2372 3091 3092 2982 3620 2874 4238 2854 4327 2822 4499 2822 4512 2803 4544 2771 4544 2752 4544 2637 4544 2368 4404 2349 4270 2272 3735 2144 2893 1696 1677 1184 320 1043 320 922 320 838 320 602 371 461 498 429 530 416 530 403 530 314 530 173 240 173 60 173 2 173-76 378-184 538-269 691-269 723-269 1120-269 1498 646 1626 973 1926 1696 2285 2707 2464 3629Z" id="CMSY10-4d" stroke-linecap="butt" stroke-linejoin="round" transform="scale(0.015625 0.015625)"/><path d="M1958-1561C1958-1555 1958-1542 1939-1523 1645-1224 858-407 858 1581 858 3569 1632 4379 1946 4697 1946 4704 1958 4717 1958 4736 1958 4755 1939 4768 1914 4768 1843 4768 1299 4296 986 3594 666 2887 576 2199 576 1588 576 1128 621 351 1005-471 1312-1135 1837-1600 1914-1600 1946-1600 1958-1587 1958-1561Z" id="CMR17-28" stroke-linecap="butt" stroke-linejoin="round" transform="scale(0.015625 0.015625)"/><path d="M3034 2606C2829 2567 2752 2414 2752 2293 2752 2139 2874 2088 2963 2088 3155 2088 3290 2254 3290 2427 3290 2695 2982 2816 2714 2816 2323 2816 2106 2433 2048 2312 1901 2816 1504 2816 1389 2816 736 2816 390 1980 390 1839 390 1814 416 1782 461 1782 512 1782 525 1820 538 1846 755 2555 1184 2689 1370 2689 1658 2689 1715 2420 1715 2267 1715 2127 1677 1980 1600 1673L1382 798C1286 415 1101 64 762 64 730 64 570 64 435 147 666 192 717 383 717 460 717 588 621 664 499 664 346 664 179 530 179 326 179 57 480-64 755-64 1062-64 1280 179 1414 441 1517 64 1837-64 2074-64 2726-64 3072 773 3072 913 3072 945 3046 971 3008 971 2950 971 2944 939 2925 888 2752 326 2381 64 2093 64 1869 64 1747 230 1747 492 1747 632 1773 734 1875 1156L2099 2024C2195 2408 2413 2689 2707 2689 2720 2689 2899 2689 3034 2606Z" id="CMMI12-78" stroke-linecap="butt" stroke-linejoin="round" transform="scale(0.015625 0.015625)"/><path d="M1683 1581C1683 2040 1638 2817 1254 3639 947 4303 422 4768 346 4768 326 4768 301 4761 301 4729 301 4717 307 4710 314 4697 621 4378 1402 3568 1402 1584 1402-407 627-1217 314-1537 307-1549 301-1556 301-1568 301-1600 326-1600 346-1600 416-1600 960-1128 1274-426 1594 281 1683 969 1683 1581Z" id="CMR17-29" stroke-linecap="butt" stroke-linejoin="round" transform="scale(0.015625 0.015625)"/><path d="M3506 1472C3615 1472 3730 1472 3730 1600 3730 1728 3615 1728 3506 1728L792 1728C869 2586 1605 3200 2507 3200L3506 3200C3615 3200 3730 3200 3730 3328 3730 3456 3615 3456 3506 3456L2495 3456C1400 3456 530 2624 530 1600 530 576 1400-256 2495-256L3506-256C3615-256 3730-256 3730-128 3730 0 3615 0 3506 0L2507 0C1605 0 869 614 792 1472L3506 1472Z" id="CMSY10-32" stroke-linecap="butt" stroke-linejoin="round" transform="scale(0.015625 0.015625)"/><path d="M736 1421C813 1453 1037 1594 1037 1684 1037 1729 998 1729 960 1729 742 1729 115 1453 115 811 115 348 634-128 1414-128 2458-128 3667 599 3667 1475 3667 2087 3027 2383 2509 2615 2061 2820 1766 3085 1766 3452 1766 3587 1824 3838 2022 4011 2214 4179 2573 4179 2662 4179 2733 4179 3002 4179 3277 4057 3398 4000 3565 3924 3565 3649 3565 3560 3558 3528 3539 3458 3533 3439 3526 3414 3526 3394 3526 3350 3565 3350 3590 3350 3674 3350 3827 3414 3955 3523 4038 3587 4109 3671 4109 3921 4109 4236 3942 4325 3770 4403 3469 4544 3174 4544 3085 4544 2246 4544 1222 3901 1222 3168 1222 2629 1779 2371 2086 2236 2541 2031 3123 1735 3123 1195 3123 764 2810 224 1837 224 1184 224 659 649 659 1086 659 1202 691 1317 736 1421Z" id="CMSY10-53" stroke-linecap="butt" stroke-linejoin="round" transform="scale(0.015625 0.015625)"/><path d="M915 4767 90 4767 90 4544 691 4544 691-1377 90-1377 90-1600 915-1600 915 4767Z" id="CMR17-5d" stroke-linecap="butt" stroke-linejoin="round" transform="scale(0.015625 0.015625)"/><path d="M4320 3812C4390 3844 4442 3876 4442 3952 4442 4023 4390 4080 4314 4080 4282 4080 4224 4055 4198 4042L659 2372C550 2320 531 2276 531 2224 531 2167 570 2122 659 2084L4198 420C4282 375 4294 375 4314 375 4384 375 4442 432 4442 503 4442 560 4416 599 4307 650L960 2224 4320 3812ZM4218-891C4326-891 4442-891 4442-763 4442-635 4307-635 4211-635L762-635C666-635 531-635 531-763 531-891 646-891 755-891L4218-891Z" id="CMSY10-14" stroke-linecap="butt" stroke-linejoin="round" transform="scale(0.015625 0.015625)"/><path d="M1146 1479C1318 1479 1754 1479 2061 1595 2547 1783 2592 2158 2592 2274 2592 2558 2349 2816 1926 2816 1254 2816 288 2210 288 1073 288 402 672-64 1254-64 2125-64 2675 609 2675 692 2675 730 2637 762 2611 762 2592 762 2586 756 2528 699 2118 159 1510 64 1267 64 902 64 710 350 710 822 710 911 710 1071 806 1479L1146 1479ZM838 1600C1114 2592 1722 2689 1926 2689 2208 2689 2400 2522 2400 2277 2400 1600 1376 1600 1107 1600L838 1600Z" id="CMMI12-65" stroke-linecap="butt" stroke-linejoin="round" transform="scale(0.015625 0.015625)"/><path d="M1862 1467C1958 1467 2067 1467 2067 1569 2067 1652 2003 1652 1888 1652L851 1652C1011 2226 1389 2573 1958 2573L2144 2573C2253 2573 2349 2573 2349 2675 2349 2758 2278 2758 2163 2758L1946 2758C1158 2758 294 2131 294 1126 294 416 774-64 1408-64 1818-64 2221 194 2221 258 2221 296 2202 336 2163 336 2144 336 2131 329 2099 304 1856 142 1619 64 1427 64 1088 64 730 290 730 918 730 1040 742 1208 800 1467L1862 1467Z" id="CMMI12-f" stroke-linecap="butt" stroke-linejoin="round" transform="scale(0.015625 0.015625)"/><path d="M1683-700C1510-939 1261-1152 947-1152 870-1152 563-1152 467-889 486-895 518-895 531-895 723-895 851-729 851-582 851-435 730-384 634-384 531-384 307-458 307-759 307-1071 582-1286 947-1286 1587-1286 2234-700 2413 6L3040 2485C3046 2517 3059 2556 3059 2594 3059 2689 2982 2753 2886 2753 2829 2753 2694 2727 2643 2535L2170 658C2138 543 2138 530 2086 460 1958 281 1747 64 1440 64 1082 64 1050 415 1050 588 1050 952 1222 1443 1395 1903 1466 2088 1504 2178 1504 2305 1504 2574 1312 2816 998 2816 410 2816 173 1890 173 1839 173 1814 198 1782 243 1782 301 1782 307 1807 333 1897 486 2433 730 2689 979 2689 1037 2689 1146 2689 1146 2478 1146 2312 1075 2127 979 1884 666 1047 666 837 666 683 666 77 1101-64 1421-64 1606-64 1837-6 2061 230L2067 224C1971-147 1907-392 1683-700Z" id="CMMI12-79" stroke-linecap="butt" stroke-linejoin="round" transform="scale(0.015625 0.015625)"/><path d="M2413 1472 4109 1472C4198 1472 4307 1472 4307 1580 4307 1695 4205 1695 4109 1695L2413 1695 2413 3386C2413 3475 2413 3584 2304 3584 2189 3584 2189 3482 2189 3386L2189 1695 493 1695C403 1695 294 1695 294 1587 294 1472 397 1472 493 1472L2189 1472 2189-218C2189-307 2189-416 2298-416 2413-416 2413-314 2413-218L2413 1472Z" id="CMR17-2b" stroke-linecap="butt" stroke-linejoin="round" transform="scale(0.015625 0.015625)"/><path d="M1664 2795C845 2597 256 1748 256 1001 256 319 717-64 1229-64 1984-64 2496 970 2496 1818 2496 2392 2227 2744 2067 2954 1830 3254 1446 3746 1446 4052 1446 4161 1530 4352 1811 4352 2010 4352 2131 4282 2323 4173 2381 4134 2528 4052 2611 4052 2746 4052 2842 4185 2842 4287 2842 4409 2746 4428 2522 4479 2221 4543 2131 4543 2022 4543 1914 4543 1286 4543 1286 3892 1286 3579 1446 3216 1664 2795ZM1734 2669C1978 2165 2074 1974 2074 1560 2074 1063 1805 63 1235 63 986 63 627 229 627 821 627 1235 864 2439 1734 2669Z" id="CMMI12-e" stroke-linecap="butt" stroke-linejoin="round" transform="scale(0.015625 0.015625)"/></defs><use width="100%" height="100%" xlink:href="#CMMI12-50" stroke-linecap="butt" stroke-linejoin="round" transform="scale(0.996264 0.996264)"></use><use width="100%" height="100%" xlink:href="#CMMI12-72" stroke-linecap="butt" stroke-linejoin="round" transform="matrix(0.996264 0 0 0.996264 76.4258 0)"></use><use width="100%" height="100%" xlink:href="#CMR17-5b" stroke-linecap="butt" stroke-linejoin="round" transform="matrix(0.996264 0 0 0.996264 123.096 0)"></use><use width="100%" height="100%" xlink:href="#CMSY10-4d" stroke-linecap="butt" stroke-linejoin="round" transform="matrix(0.996264 0 0 0.996264 147.967 0)"></use><use width="100%" height="100%" xlink:href="#CMR17-28" stroke-linecap="butt" stroke-linejoin="round" transform="matrix(0.996264 0 0 0.996264 267.609 0)"></use><use width="100%" height="100%" xlink:href="#CMMI12-78" stroke-linecap="butt" stroke-linejoin="round" transform="matrix(0.996264 0 0 0.996264 302.89 0)"></use><use width="100%" height="100%" xlink:href="#CMR17-29" stroke-linecap="butt" stroke-linejoin="round" transform="matrix(0.996264 0 0 0.996264 358.324 0)"></use><use width="100%" height="100%" xlink:href="#CMSY10-32" stroke-linecap="butt" stroke-linejoin="round" transform="matrix(0.996264 0 0 0.996264 421.278 0)"></use><use width="100%" height="100%" xlink:href="#CMSY10-53" stroke-linecap="butt" stroke-linejoin="round" transform="matrix(0.996264 0 0 0.996264 515.37 0)"></use><use width="100%" height="100%" xlink:href="#CMR17-5d" stroke-linecap="butt" stroke-linejoin="round" transform="matrix(0.996264 0 0 0.996264 583.171 0)"></use><use width="100%" height="100%" xlink:href="#CMSY10-14" stroke-linecap="butt" stroke-linejoin="round" transform="matrix(0.996264 0 0 0.996264 635.716 0)"></use><use width="100%" height="100%" xlink:href="#CMMI12-65" stroke-linecap="butt" stroke-linejoin="round" transform="matrix(0.996264 0 0 0.996264 740.878 0)"></use><use width="100%" height="100%" xlink:href="#CMMI12-f" stroke-linecap="butt" stroke-linejoin="round" transform="matrix(0.697382 0 0 0.697382 786.09 36.1536)"></use><use width="100%" height="100%" xlink:href="#CMMI12-50" stroke-linecap="butt" stroke-linejoin="round" transform="matrix(0.996264 0 0 0.996264 814.16 0)"></use><use width="100%" height="100%" xlink:href="#CMMI12-72" stroke-linecap="butt" stroke-linejoin="round" transform="matrix(0.996264 0 0 0.996264 890.586 0)"></use><use width="100%" height="100%" xlink:href="#CMR17-5b" stroke-linecap="butt" stroke-linejoin="round" transform="matrix(0.996264 0 0 0.996264 937.257 0)"></use><use width="100%" height="100%" xlink:href="#CMSY10-4d" stroke-linecap="butt" stroke-linejoin="round" transform="matrix(0.996264 0 0 0.996264 962.128 0)"></use><use width="100%" height="100%" xlink:href="#CMR17-28" stroke-linecap="butt" stroke-linejoin="round" transform="matrix(0.996264 0 0 0.996264 1081.77 0)"></use><use width="100%" height="100%" xlink:href="#CMMI12-79" stroke-linecap="butt" stroke-linejoin="round" transform="matrix(0.996264 0 0 0.996264 1117.05 0)"></use><use width="100%" height="100%" xlink:href="#CMR17-29" stroke-linecap="butt" stroke-linejoin="round" transform="matrix(0.996264 0 0 0.996264 1168.19 0)"></use><use width="100%" height="100%" xlink:href="#CMSY10-32" stroke-linecap="butt" stroke-linejoin="round" transform="matrix(0.996264 0 0 0.996264 1231.14 0)"></use><use width="100%" height="100%" xlink:href="#CMSY10-53" stroke-linecap="butt" stroke-linejoin="round" transform="matrix(0.996264 0 0 0.996264 1325.24 0)"></use><use width="100%" height="100%" xlink:href="#CMR17-5d" stroke-linecap="butt" stroke-linejoin="round" transform="matrix(0.996264 0 0 0.996264 1393.04 0)"></use><use width="100%" height="100%" xlink:href="#CMR17-2b" stroke-linecap="butt" stroke-linejoin="round" transform="matrix(0.996264 0 0 0.996264 1440.05 0)"></use><use width="100%" height="100%" xlink:href="#CMMI12-e" stroke-linecap="butt" stroke-linejoin="round" transform="matrix(0.996264 0 0 0.996264 1533.9 0)"></use></g></g></g></g></svg>