<svg width="763.2" height="167.04" viewBox="0 0 572.4 125.28" xmlns="http://www.w3.org/2000/svg" xmlns:xlink="http://www.w3.org/1999/xlink" stroke-linecap="butt" stroke-linejoin="round" overflow="hidden"><defs stroke-linecap="butt" stroke-linejoin="round"></defs><g id="figure_1" stroke-linecap="butt" stroke-linejoin="round"><g id="patch_1" stroke-linecap="butt" stroke-linejoin="round"><path d="M0 125.28 572.4 125.28 572.4 0 0 0 0 125.28Z" stroke-linecap="butt" stroke-linejoin="round" fill="none" opacity="0"/></g><g id="axes_1" stroke-linecap="butt" stroke-linejoin="round"><g id="text_1" stroke-linecap="butt" stroke-linejoin="round"><g stroke-linecap="butt" stroke-linejoin="round" transform="matrix(0.2 0 0 -0.2 62.5139 67.6207)"><defs stroke-linecap="butt" stroke-linejoin="round"><path d="M3526 4195C3558 4266 3558 4279 3558 4311 3558 4375 3507 4439 3430 4439 3347 4439 3309 4362 3283 4291L2752 2883 806 2883 275 4291C243 4381 211 4439 128 4439 64 4439 0 4375 0 4311 0 4298 0 4285 38 4195L1632 3C1664-86 1696-144 1779-144 1869-144 1894-73 1920-9L3526 4195ZM909 2627 2650 2627 1779 349 909 2627Z" id="CMSY10-38" stroke-linecap="butt" stroke-linejoin="round" transform="scale(0.015625 0.015625)"/><path d="M1683-700C1510-939 1261-1152 947-1152 870-1152 563-1152 467-889 486-895 518-895 531-895 723-895 851-729 851-582 851-435 730-384 634-384 531-384 307-458 307-759 307-1071 582-1286 947-1286 1587-1286 2234-700 2413 6L3040 2485C3046 2517 3059 2556 3059 2594 3059 2689 2982 2753 2886 2753 2829 2753 2694 2727 2643 2535L2170 658C2138 543 2138 530 2086 460 1958 281 1747 64 1440 64 1082 64 1050 415 1050 588 1050 952 1222 1443 1395 1903 1466 2088 1504 2178 1504 2305 1504 2574 1312 2816 998 2816 410 2816 173 1890 173 1839 173 1814 198 1782 243 1782 301 1782 307 1807 333 1897 486 2433 730 2689 979 2689 1037 2689 1146 2689 1146 2478 1146 2312 1075 2127 979 1884 666 1047 666 837 666 683 666 77 1101-64 1421-64 1606-64 1837-6 2061 230L2067 224C1971-147 1907-392 1683-700Z" id="CMMI12-79" stroke-linecap="butt" stroke-linejoin="round" transform="scale(0.015625 0.015625)"/><path d="M3506 1472C3615 1472 3730 1472 3730 1600 3730 1728 3615 1728 3506 1728L792 1728C869 2586 1605 3200 2507 3200L3506 3200C3615 3200 3730 3200 3730 3328 3730 3456 3615 3456 3506 3456L2495 3456C1400 3456 530 2624 530 1600 530 576 1400-256 2495-256L3506-256C3615-256 3730-256 3730-128 3730 0 3615 0 3506 0L2507 0C1605 0 869 614 792 1472L3506 1472Z" id="CMSY10-32" stroke-linecap="butt" stroke-linejoin="round" transform="scale(0.015625 0.015625)"/><path d="M2355 3924C2413 4160 2438 4160 2688 4160L3149 4160C3699 4160 4109 3995 4109 3499 4109 3175 3942 2240 2656 2240L1933 2240 2355 3924ZM3245 2169C4038 2341 4659 2851 4659 3398 4659 3894 4154 4352 3264 4352L1530 4352C1402 4352 1344 4352 1344 4226 1344 4160 1389 4160 1510 4160 1894 4160 1894 4112 1894 4045 1894 4033 1894 3994 1869 3899L1005 479C947 256 934 192 493 192 346 192 301 192 301 71 301 7 371 7 390 7 506 7 640 7 762 7L1517 7C1632 7 1766 7 1882 7 1933 7 2003 7 2003 128 2003 192 1946 192 1850 192 1459 192 1459 243 1459 306 1459 313 1459 357 1472 407L1901 2112 2669 2112C3277 2112 3392 1731 3392 1522 3392 1427 3328 1179 3283 1014 3213 723 3194 652 3194 532 3194 82 3565-128 3994-128 4512-128 4736 501 4736 591 4736 635 4704 654 4666 654 4614 654 4602 616 4589 565 4435 114 4173 0 4013 0 3853 0 3750 70 3750 356 3750 509 3827 1088 3834 1120 3866 1355 3866 1380 3866 1432 3866 1896 3488 2093 3245 2169Z" id="CMMI12-52" stroke-linecap="butt" stroke-linejoin="round" transform="scale(0.015625 0.015625)"/><path d="M1926 760C1894 651 1894 639 1805 517 1664 338 1382 64 1082 64 819 64 672 300 672 677 672 1028 870 1743 992 2012 1210 2459 1510 2689 1760 2689 2182 2689 2266 2165 2266 2114 2266 2108 2246 2024 2240 2012L1926 760ZM2336 2395C2266 2561 2093 2816 1760 2816 1037 2816 256 1884 256 939 256 307 627-64 1062-64 1414-64 1715 211 1894 422 1958 45 2259-64 2451-64 2643-64 2797 51 2912 281 3014 498 3104 888 3104 913 3104 945 3078 971 3040 971 2982 971 2976 939 2950 843 2854 466 2733 64 2470 64 2285 64 2272 230 2272 358 2272 505 2291 575 2349 824 2394 984 2426 1124 2477 1309 2714 2267 2771 2497 2771 2535 2771 2625 2701 2695 2605 2695 2400 2695 2349 2472 2336 2395Z" id="CMMI12-61" stroke-linecap="butt" stroke-linejoin="round" transform="scale(0.015625 0.015625)"/><path d="M1318 1871C1331 1910 1491 2229 1728 2433 1894 2586 2112 2689 2362 2689 2618 2689 2707 2497 2707 2242 2707 1878 2445 1150 2317 805 2259 651 2227 568 2227 453 2227 166 2426-64 2733-64 3328-64 3552 875 3552 913 3552 945 3526 971 3488 971 3430 971 3424 952 3392 843 3245 319 3002 64 2752 64 2688 64 2586 64 2586 269 2586 429 2656 621 2694 710 2822 1063 3091 1780 3091 2145 3091 2528 2867 2816 2381 2816 1811 2816 1510 2415 1395 2255 1376 2618 1114 2816 832 2816 627 2816 486 2695 378 2478 262 2248 173 1865 173 1839 173 1814 198 1782 243 1782 294 1782 301 1788 339 1935 442 2325 557 2689 813 2689 960 2689 1011 2586 1011 2395 1011 2254 947 2005 902 1807L723 1118C698 996 627 709 595 594 550 428 480 128 480 96 480 6 550-64 646-64 723-64 813-26 864 70 877 102 934 326 966 453L1107 1028 1318 1871Z" id="CMMI12-6e" stroke-linecap="butt" stroke-linejoin="round" transform="scale(0.015625 0.015625)"/><path d="M2163 811C2138 709 2125 683 2042 588 1779 249 1510 128 1312 128 1101 128 902 294 902 734 902 1073 1094 1788 1235 2076 1421 2433 1709 2689 1978 2689 2400 2689 2483 2165 2483 2127L2464 2037 2163 811ZM2560 2395C2477 2580 2298 2816 1978 2816 1280 2816 486 1941 486 990 486 326 890 0 1299 0 1638 0 1939 268 2054 396L1914-171C1824-516 1786-674 1555-894 1293-1152 1050-1152 909-1152 717-1152 557-1139 397-1089 602-1033 653-858 653-789 653-689 576-588 435-588 282-588 115-714 115-922 115-1180 378-1280 922-1280 1747-1280 2176-753 2259-410L2970 2435C2989 2511 2989 2524 2989 2536 2989 2625 2918 2695 2822 2695 2669 2695 2579 2567 2560 2395Z" id="CMMI12-67" stroke-linecap="butt" stroke-linejoin="round" transform="scale(0.015625 0.015625)"/><path d="M1146 1479C1318 1479 1754 1479 2061 1595 2547 1783 2592 2158 2592 2274 2592 2558 2349 2816 1926 2816 1254 2816 288 2210 288 1073 288 402 672-64 1254-64 2125-64 2675 609 2675 692 2675 730 2637 762 2611 762 2592 762 2586 756 2528 699 2118 159 1510 64 1267 64 902 64 710 350 710 822 710 911 710 1071 806 1479L1146 1479ZM838 1600C1114 2592 1722 2689 1926 2689 2208 2689 2400 2522 2400 2277 2400 1600 1376 1600 1107 1600L838 1600Z" id="CMMI12-65" stroke-linecap="butt" stroke-linejoin="round" transform="scale(0.015625 0.015625)"/><path d="M1958-1561C1958-1555 1958-1542 1939-1523 1645-1224 858-407 858 1581 858 3569 1632 4379 1946 4697 1946 4704 1958 4717 1958 4736 1958 4755 1939 4768 1914 4768 1843 4768 1299 4296 986 3594 666 2887 576 2199 576 1588 576 1128 621 351 1005-471 1312-1135 1837-1600 1914-1600 1946-1600 1958-1587 1958-1561Z" id="CMR17-28" stroke-linecap="butt" stroke-linejoin="round" transform="scale(0.015625 0.015625)"/><path d="M2464 3629C2637 2797 2918 1427 3283 685 3424 409 3494 269 3558 269 3584 269 3597 269 3712 384 4198 849 4531 1219 4979 1730L6381 3357C6291 2814 6061 1378 6061 631 6061 459 6067 293 6086 120 6093 51 6118-135 6387-135 6656-135 7142 147 7142 275 7142 313 7104 320 7085 320 7002 320 6874 263 6803 218 6650 238 6637 340 6624 486 6605 690 6605 882 6605 908 6605 1615 6886 3548 7072 4340 7078 4385 7085 4397 7085 4448 7085 4473 7078 4544 7034 4544 7008 4544 7002 4537 6880 4396 6278 3670 4410 1436 3776 900 3616 1237 3501 1480 3277 2372 3091 3092 2982 3620 2874 4238 2854 4327 2822 4499 2822 4512 2803 4544 2771 4544 2752 4544 2637 4544 2368 4404 2349 4270 2272 3735 2144 2893 1696 1677 1184 320 1043 320 922 320 838 320 602 371 461 498 429 530 416 530 403 530 314 530 173 240 173 60 173 2 173-76 378-184 538-269 691-269 723-269 1120-269 1498 646 1626 973 1926 1696 2285 2707 2464 3629Z" id="CMSY10-4d" stroke-linecap="butt" stroke-linejoin="round" transform="scale(0.015625 0.015625)"/><path d="M1683 1581C1683 2040 1638 2817 1254 3639 947 4303 422 4768 346 4768 326 4768 301 4761 301 4729 301 4717 307 4710 314 4697 621 4378 1402 3568 1402 1584 1402-407 627-1217 314-1537 307-1549 301-1556 301-1568 301-1600 326-1600 346-1600 416-1600 960-1128 1274-426 1594 281 1683 969 1683 1581Z" id="CMR17-29" stroke-linecap="butt" stroke-linejoin="round" transform="scale(0.015625 0.015625)"/><path d="M1062 2491C1062 2650 934 2752 800 2752 672 2752 538 2650 538 2491 538 2332 666 2230 800 2230 928 2230 1062 2332 1062 2491ZM1062 261C1062 420 934 522 800 522 672 522 538 420 538 261 538 102 666 0 800 0 928 0 1062 102 1062 261Z" id="CMR17-3a" stroke-linecap="butt" stroke-linejoin="round" transform="scale(0.015625 0.015625)"/><path d="M1894 2023 2970 2023C3853 2023 4736 2673 4736 3401 4736 3898 4314 4352 3507 4352L1530 4352C1408 4352 1350 4352 1350 4231 1350 4167 1408 4167 1504 4167 1894 4167 1894 4116 1894 4046 1894 4034 1894 3995 1869 3899L1005 472C947 249 934 185 486 185 365 185 301 185 301 70 301 0 358 0 397 0 518 0 646 0 768 0L1517 0C1638 0 1773 0 1894 0 1946 0 2016 0 2016 121 2016 185 1958 185 1862 185 1478 185 1472 230 1472 293 1472 325 1478 369 1485 401L1894 2023ZM2355 3930C2413 4167 2438 4167 2688 4167L3322 4167C3802 4167 4198 4013 4198 3535 4198 3369 4115 2827 3821 2534 3712 2419 3405 2176 2822 2176L1920 2176 2355 3930Z" id="CMMI12-50" stroke-linecap="butt" stroke-linejoin="round" transform="scale(0.015625 0.015625)"/><path d="M2490 2612C2291 2574 2189 2433 2189 2293 2189 2139 2310 2088 2400 2088 2579 2088 2726 2242 2726 2433 2726 2638 2528 2816 2208 2816 1952 2816 1658 2701 1389 2312 1344 2650 1088 2816 832 2816 582 2816 454 2625 378 2484 269 2254 173 1871 173 1839 173 1814 198 1782 243 1782 294 1782 301 1788 339 1935 435 2318 557 2689 813 2689 966 2689 1011 2580 1011 2395 1011 2254 947 2005 902 1807L723 1118C698 996 627 709 595 594 550 428 480 128 480 96 480 6 550-64 646-64 717-64 838-19 877 109 896 160 1133 1124 1171 1271 1203 1411 1242 1546 1274 1686 1299 1775 1325 1878 1344 1961 1363 2018 1536 2331 1696 2472 1773 2542 1939 2689 2202 2689 2304 2689 2406 2670 2490 2612Z" id="CMMI12-72" stroke-linecap="butt" stroke-linejoin="round" transform="scale(0.015625 0.015625)"/><path d="M1504-1600 1504-1377 902-1377 902 4544 1504 4544 1504 4767 678 4767 678-1600 1504-1600Z" id="CMR17-5b" stroke-linecap="butt" stroke-linejoin="round" transform="scale(0.015625 0.015625)"/><path d="M2925 2389C2925 2791 2720 2816 2669 2816 2515 2816 2374 2663 2374 2535 2374 2459 2419 2414 2445 2389 2509 2331 2675 2159 2675 1827 2675 1558 2291 64 1523 64 1133 64 1056 390 1056 626 1056 945 1203 1392 1376 1852 1478 2114 1504 2178 1504 2305 1504 2574 1312 2816 998 2816 410 2816 173 1890 173 1839 173 1814 198 1782 243 1782 301 1782 307 1807 333 1897 486 2446 736 2689 979 2689 1037 2689 1146 2689 1146 2478 1146 2312 1075 2127 979 1884 672 1067 672 869 672 715 672 575 691 313 890 134 1120-64 1440-64 1498-64 2560-64 2925 2024 2925 2389Z" id="CMMI12-76" stroke-linecap="butt" stroke-linejoin="round" transform="scale(0.015625 0.015625)"/><path d="M1702 4058C1702 4192 1696 4192 1606 4192 1357 3916 979 3827 621 3827 602 3827 570 3827 563 3808 557 3795 557 3782 557 3648 755 3648 1088 3686 1344 3839L1344 461C1344 236 1331 160 781 160L589 160 589 0C896 0 1216 0 1523 0 1830 0 2150 0 2458 0L2458 160 2266 160C1715 160 1702 230 1702 458L1702 4058Z" id="CMR17-31" stroke-linecap="butt" stroke-linejoin="round" transform="scale(0.015625 0.015625)"/><path d="M4115 2017C4211 2017 4307 2017 4307 2125 4307 2240 4198 2240 4090 2240L512 2240C403 2240 294 2240 294 2125 294 2017 390 2017 486 2017L4115 2017ZM4090 896C4198 896 4307 896 4307 1011 4307 1119 4211 1119 4115 1119L486 1119C390 1119 294 1119 294 1011 294 896 403 896 512 896L4090 896Z" id="CMR17-3d" stroke-linecap="butt" stroke-linejoin="round" transform="scale(0.015625 0.015625)"/><path d="M915 4767 90 4767 90 4544 691 4544 691-1377 90-1377 90-1600 915-1600 915 4767Z" id="CMR17-5d" stroke-linecap="butt" stroke-linejoin="round" transform="scale(0.015625 0.015625)"/><path d="M4320 3812C4390 3844 4442 3876 4442 3952 4442 4023 4390 4080 4314 4080 4282 4080 4224 4055 4198 4042L659 2372C550 2320 531 2276 531 2224 531 2167 570 2122 659 2084L4198 420C4282 375 4294 375 4314 375 4384 375 4442 432 4442 503 4442 560 4416 599 4307 650L960 2224 4320 3812ZM4218-891C4326-891 4442-891 4442-763 4442-635 4307-635 4211-635L762-635C666-635 531-635 531-763 531-891 646-891 755-891L4218-891Z" id="CMSY10-14" stroke-linecap="butt" stroke-linejoin="round" transform="scale(0.015625 0.015625)"/><path d="M1862 1467C1958 1467 2067 1467 2067 1569 2067 1652 2003 1652 1888 1652L851 1652C1011 2226 1389 2573 1958 2573L2144 2573C2253 2573 2349 2573 2349 2675 2349 2758 2278 2758 2163 2758L1946 2758C1158 2758 294 2131 294 1126 294 416 774-64 1408-64 1818-64 2221 194 2221 258 2221 296 2202 336 2163 336 2144 336 2131 329 2099 304 1856 142 1619 64 1427 64 1088 64 730 290 730 918 730 1040 742 1208 800 1467L1862 1467Z" id="CMMI12-f" stroke-linecap="butt" stroke-linejoin="round" transform="scale(0.015625 0.015625)"/><path d="M2669 989 2554 989C2490 536 2438 459 2413 420 2381 369 1920 369 1830 369L602 369C832 619 1280 1072 1824 1597 2214 1967 2669 2402 2669 3035 2669 3790 2067 4224 1395 4224 691 4224 262 3604 262 3030 262 2780 448 2748 525 2748 589 2748 781 2787 781 3010 781 3207 614 3264 525 3264 486 3264 448 3258 422 3245 544 3790 915 4058 1306 4058 1862 4058 2227 3617 2227 3035 2227 2479 1901 2000 1536 1584L262 146 262 0 2515 0 2669 989Z" id="CMR17-32" stroke-linecap="butt" stroke-linejoin="round" transform="scale(0.015625 0.015625)"/></defs><use width="100%" height="100%" xlink:href="#CMSY10-38" stroke-linecap="butt" stroke-linejoin="round" transform="scale(0.996264 0.996264)"></use><use width="100%" height="100%" xlink:href="#CMMI12-79" stroke-linecap="butt" stroke-linejoin="round" transform="matrix(0.996264 0 0 0.996264 55.3482 0)"></use><use width="100%" height="100%" xlink:href="#CMSY10-32" stroke-linecap="butt" stroke-linejoin="round" transform="matrix(0.996264 0 0 0.996264 134.161 0)"></use><use width="100%" height="100%" xlink:href="#CMMI12-52" stroke-linecap="butt" stroke-linejoin="round" transform="matrix(0.996264 0 0 0.996264 228.253 0)"></use><use width="100%" height="100%" xlink:href="#CMMI12-61" stroke-linecap="butt" stroke-linejoin="round" transform="matrix(0.996264 0 0 0.996264 303.324 0)"></use><use width="100%" height="100%" xlink:href="#CMMI12-6e" stroke-linecap="butt" stroke-linejoin="round" transform="matrix(0.996264 0 0 0.996264 354.532 0)"></use><use width="100%" height="100%" xlink:href="#CMMI12-67" stroke-linecap="butt" stroke-linejoin="round" transform="matrix(0.996264 0 0 0.996264 412.762 0)"></use><use width="100%" height="100%" xlink:href="#CMMI12-65" stroke-linecap="butt" stroke-linejoin="round" transform="matrix(0.996264 0 0 0.996264 463.047 0)"></use><use width="100%" height="100%" xlink:href="#CMR17-28" stroke-linecap="butt" stroke-linejoin="round" transform="matrix(0.996264 0 0 0.996264 508.259 0)"></use><use width="100%" height="100%" xlink:href="#CMSY10-4d" stroke-linecap="butt" stroke-linejoin="round" transform="matrix(0.996264 0 0 0.996264 543.54 0)"></use><use width="100%" height="100%" xlink:href="#CMR17-29" stroke-linecap="butt" stroke-linejoin="round" transform="matrix(0.996264 0 0 0.996264 663.181 0)"></use><use width="100%" height="100%" xlink:href="#CMR17-3a" stroke-linecap="butt" stroke-linejoin="round" transform="matrix(0.996264 0 0 0.996264 726.136 0)"></use><use width="100%" height="100%" xlink:href="#CMMI12-50" stroke-linecap="butt" stroke-linejoin="round" transform="matrix(0.996264 0 0 0.996264 778.681 0)"></use><use width="100%" height="100%" xlink:href="#CMMI12-72" stroke-linecap="butt" stroke-linejoin="round" transform="matrix(0.996264 0 0 0.996264 855.107 0)"></use><use width="100%" height="100%" xlink:href="#CMR17-5b" stroke-linecap="butt" stroke-linejoin="round" transform="matrix(0.996264 0 0 0.996264 901.778 0)"></use><use width="100%" height="100%" xlink:href="#CMSY10-4d" stroke-linecap="butt" stroke-linejoin="round" transform="matrix(0.996264 0 0 0.996264 926.649 0)"></use><use width="100%" height="100%" xlink:href="#CMR17-28" stroke-linecap="butt" stroke-linejoin="round" transform="matrix(0.996264 0 0 0.996264 1046.29 0)"></use><use width="100%" height="100%" xlink:href="#CMMI12-76" stroke-linecap="butt" stroke-linejoin="round" transform="matrix(0.996264 0 0 0.996264 1081.57 0)"></use><use width="100%" height="100%" xlink:href="#CMR17-31" stroke-linecap="butt" stroke-linejoin="round" transform="matrix(0.697382 0 0 0.697382 1128.73 -14.9439)"></use><use width="100%" height="100%" xlink:href="#CMR17-29" stroke-linecap="butt" stroke-linejoin="round" transform="matrix(0.996264 0 0 0.996264 1161.21 0)"></use><use width="100%" height="100%" xlink:href="#CMR17-3d" stroke-linecap="butt" stroke-linejoin="round" transform="matrix(0.996264 0 0 0.996264 1224.17 0)"></use><use width="100%" height="100%" xlink:href="#CMMI12-79" stroke-linecap="butt" stroke-linejoin="round" transform="matrix(0.996264 0 0 0.996264 1323.56 0)"></use><use width="100%" height="100%" xlink:href="#CMR17-5d" stroke-linecap="butt" stroke-linejoin="round" transform="matrix(0.996264 0 0 0.996264 1374.69 0)"></use><use width="100%" height="100%" xlink:href="#CMSY10-14" stroke-linecap="butt" stroke-linejoin="round" transform="matrix(0.996264 0 0 0.996264 1427.24 0)"></use><use width="100%" height="100%" xlink:href="#CMMI12-65" stroke-linecap="butt" stroke-linejoin="round" transform="matrix(0.996264 0 0 0.996264 1532.4 0)"></use><use width="100%" height="100%" xlink:href="#CMMI12-f" stroke-linecap="butt" stroke-linejoin="round" transform="matrix(0.697382 0 0 0.697382 1577.61 36.1536)"></use><use width="100%" height="100%" xlink:href="#CMMI12-50" stroke-linecap="butt" stroke-linejoin="round" transform="matrix(0.996264 0 0 0.996264 1605.68 0)"></use><use width="100%" height="100%" xlink:href="#CMMI12-72" stroke-linecap="butt" stroke-linejoin="round" transform="matrix(0.996264 0 0 0.996264 1682.11 0)"></use><use width="100%" height="100%" xlink:href="#CMR17-5b" stroke-linecap="butt" stroke-linejoin="round" transform="matrix(0.996264 0 0 0.996264 1728.78 0)"></use><use width="100%" height="100%" xlink:href="#CMSY10-4d" stroke-linecap="butt" stroke-linejoin="round" transform="matrix(0.996264 0 0 0.996264 1753.65 0)"></use><use width="100%" height="100%" xlink:href="#CMR17-28" stroke-linecap="butt" stroke-linejoin="round" transform="matrix(0.996264 0 0 0.996264 1873.29 0)"></use><use width="100%" height="100%" xlink:href="#CMMI12-76" stroke-linecap="butt" stroke-linejoin="round" transform="matrix(0.996264 0 0 0.996264 1908.57 0)"></use><use width="100%" height="100%" xlink:href="#CMR17-32" stroke-linecap="butt" stroke-linejoin="round" transform="matrix(0.697382 0 0 0.697382 1955.73 -14.9439)"></use><use width="100%" height="100%" xlink:href="#CMR17-29" stroke-linecap="butt" stroke-linejoin="round" transform="matrix(0.996264 0 0 0.996264 1988.22 0)"></use><use width="100%" height="100%" xlink:href="#CMR17-3d" stroke-linecap="butt" stroke-linejoin="round" transform="matrix(0.996264 0 0 0.996264 2051.17 0)"></use><use width="100%" height="100%" xlink:href="#CMMI12-79" stroke-linecap="butt" stroke-linejoin="round" transform="matrix(0.996264 0 0 0.996264 2150.56 0)"></use><use width="100%" height="100%" xlink:href="#CMR17-5d" stroke-linecap="butt" stroke-linejoin="round" transform="matrix(0.996264 0 0 0.996264 2201.7 0)"></use></g></g></g></g></svg>