<svg width="763.2" height="167.04" viewBox="0 0 572.4 125.28" xmlns="http://www.w3.org/2000/svg" xmlns:xlink="http://www.w3.org/1999/xlink" stroke-linecap="butt" stroke-linejoin="round" overflow="hidden"><defs stroke-linecap="butt" stroke-linejoin="round"></defs><g id="figure_1" stroke-linecap="butt" stroke-linejoin="round"><g id="patch_1" stroke-linecap="butt" stroke-linejoin="round"><path d="M0 125.28 572.4 125.28 572.4 0 0 0 0 125.28Z" stroke-linecap="butt" stroke-linejoin="round" fill="none" opacity="0"/></g><g id="axes_1" stroke-linecap="butt" stroke-linejoin="round"><g id="text_1" stroke-linecap="butt" stroke-linejoin="round"><g stroke-linecap="butt" stroke-linejoin="round" transform="matrix(0.2 0 0 -0.2 198.429 68.6929)"><defs stroke-linecap="butt" stroke-linejoin="round"><path d="M4774 4423C4774 4480 4730 4480 4717 4480 4704 4480 4678 4480 4627 4416L4186 3889C4154 3940 4026 4163 3776 4309 3501 4480 3226 4480 3130 4480 1760 4480 320 3095 320 1595 320 546 1050-128 2010-128 2470-128 3053 25 3373 427 3443 185 3584 12 3629 12 3661 12 3667 32 3674 32 3680 44 3731 270 3763 385L3866 797C3917 1009 3942 1099 3987 1291 4051 1536 4064 1536 4416 1536 4442 1536 4518 1536 4518 1666 4518 1734 4454 1734 4435 1734 4326 1734 4205 1734 4090 1734L3744 1734C3475 1734 3194 1734 2931 1734 2874 1734 2797 1734 2797 1611 2797 1542 2848 1542 2848 1536L3008 1536C3514 1536 3514 1489 3514 1402 3514 1395 3392 751 3270 561 3027 204 2522 57 2144 57 1651 57 851 312 851 1410 851 1836 1005 2808 1626 3526 2029 3984 2624 4295 3187 4295 3942 4295 4211 3655 4211 3071 4211 2970 4186 2831 4186 2742 4186 2685 4250 2685 4269 2685 4339 2685 4346 2691 4371 2805L4774 4423Z" id="CMMI12-47" stroke-linecap="butt" stroke-linejoin="round" transform="scale(0.015625 0.015625)"/><path d="M1958-1561C1958-1555 1958-1542 1939-1523 1645-1224 858-407 858 1581 858 3569 1632 4379 1946 4697 1946 4704 1958 4717 1958 4736 1958 4755 1939 4768 1914 4768 1843 4768 1299 4296 986 3594 666 2887 576 2199 576 1588 576 1128 621 351 1005-471 1312-1135 1837-1600 1914-1600 1946-1600 1958-1587 1958-1561Z" id="CMR17-28" stroke-linecap="butt" stroke-linejoin="round" transform="scale(0.015625 0.015625)"/><path d="M3763 3645 3910 3791C4192 4078 4429 4149 4653 4167 4723 4173 4781 4179 4781 4288 4781 4352 4717 4352 4704 4352 4627 4352 4544 4352 4467 4352L4205 4352C4019 4352 3821 4352 3642 4352 3597 4352 3526 4352 3526 4226 3526 4166 3590 4160 3610 4160 3802 4160 3802 4064 3802 4026 3802 3956 3750 3860 3622 3713L2099 1969 1376 3911C1338 4000 1338 4013 1338 4026 1338 4160 1600 4160 1677 4160 1754 4160 1824 4160 1824 4279 1824 4352 1766 4352 1728 4352 1619 4352 1491 4352 1382 4352L672 4352C557 4352 435 4352 326 4352 282 4352 211 4352 211 4226 211 4160 269 4160 365 4160 678 4160 736 4102 794 3956L1587 1835C1594 1816 1613 1745 1613 1726 1613 1707 1299 452 1280 388 1229 217 1165 185 755 185 646 185 595 185 595 64 595 0 666 0 685 0 800 0 934 0 1056 0L1811 0C1926 0 2061 0 2176 0 2221 0 2298 0 2298 115 2298 185 2253 185 2144 185 1747 185 1747 230 1747 300 1747 345 1798 548 1830 676L2061 1594C2099 1727 2099 1739 2157 1803L3763 3645Z" id="CMMI12-59" stroke-linecap="butt" stroke-linejoin="round" transform="scale(0.015625 0.015625)"/><path d="M1683 1581C1683 2040 1638 2817 1254 3639 947 4303 422 4768 346 4768 326 4768 301 4761 301 4729 301 4717 307 4710 314 4697 621 4378 1402 3568 1402 1584 1402-407 627-1217 314-1537 307-1549 301-1556 301-1568 301-1600 326-1600 346-1600 416-1600 960-1128 1274-426 1594 281 1683 969 1683 1581Z" id="CMR17-29" stroke-linecap="butt" stroke-linejoin="round" transform="scale(0.015625 0.015625)"/><path d="M4115 2017C4211 2017 4307 2017 4307 2125 4307 2240 4198 2240 4090 2240L512 2240C403 2240 294 2240 294 2125 294 2017 390 2017 486 2017L4115 2017ZM4090 896C4198 896 4307 896 4307 1011 4307 1119 4211 1119 4115 1119L486 1119C390 1119 294 1119 294 1011 294 896 403 896 512 896L4090 896Z" id="CMR17-3d" stroke-linecap="butt" stroke-linejoin="round" transform="scale(0.015625 0.015625)"/><path d="M2694-3418 422-6227C371-6291 365-6304 365-6330 365-6400 422-6400 538-6400L5843-6400 6394-4806 6234-4806C6074-5286 5645-5677 5101-5862 4998-5894 4557-6048 3616-6048L896-6048 3117-3302C3162-3245 3174-3226 3174-3200 3174-3174 3168-3168 3130-3110L1050-256 3584-256C4314-256 5786-301 6234-1498L6394-1498 5843 0 538 0C365 0 358-6 358-205L2694-3418Z" id="CMEX10-50" stroke-linecap="butt" stroke-linejoin="round" transform="scale(0.015625 0.015625)"/><path d="M1286 2566 1875 2566C1997 2566 2061 2566 2061 2681 2061 2752 2022 2752 1894 2752L1331 2752 1568 3692C1594 3781 1594 3794 1594 3840 1594 3943 1510 4000 1427 4000 1376 4000 1229 3981 1178 3775L928 2752 326 2752C198 2752 141 2752 141 2630 141 2566 186 2566 307 2566L877 2566 454 881C403 658 384 594 384 511 384 211 595-64 954-64 1600-64 1946 868 1946 912 1946 951 1920 970 1882 970 1869 970 1843 970 1830 944 1824 938 1818 931 1773 829 1638 511 1344 64 973 64 781 64 768 224 768 364 768 370 768 492 787 568L1286 2566Z" id="CMMI12-74" stroke-linecap="butt" stroke-linejoin="round" transform="scale(0.015625 0.015625)"/><path d="M3506 1472C3615 1472 3730 1472 3730 1600 3730 1728 3615 1728 3506 1728L792 1728C869 2586 1605 3200 2507 3200L3506 3200C3615 3200 3730 3200 3730 3328 3730 3456 3615 3456 3506 3456L2495 3456C1400 3456 530 2624 530 1600 530 576 1400-256 2495-256L3506-256C3615-256 3730-256 3730-128 3730 0 3615 0 3506 0L2507 0C1605 0 869 614 792 1472L3506 1472Z" id="CMSY10-32" stroke-linecap="butt" stroke-linejoin="round" transform="scale(0.015625 0.015625)"/><path d="M2669 3910C2707 4064 2720 4121 2816 4147 2867 4160 3078 4160 3213 4160 3853 4160 4154 4134 4154 3634 4154 3537 4128 3295 4090 3057L4083 2980C4083 2954 4109 2916 4147 2916 4211 2916 4211 2948 4230 3050L4416 4184C4429 4243 4429 4256 4429 4275 4429 4345 4390 4345 4262 4345L762 4345C614 4345 608 4339 570 4224L179 3070C173 3056 154 2986 154 2980 154 2948 179 2916 218 2916 269 2916 282 2941 307 3024 576 3801 710 4160 1562 4160L1990 4160C2144 4160 2208 4160 2208 4089 2208 4069 2208 4057 2176 3941L1318 499C1254 249 1242 185 563 185 403 185 358 185 358 64 358 0 429 0 461 0 621 0 787 0 947 0L1946 0C2106 0 2278 0 2438 0 2509 0 2573 0 2573 121 2573 185 2528 185 2362 185 1786 185 1786 243 1786 339 1786 346 1786 391 1811 494L2669 3910Z" id="CMMI12-54" stroke-linecap="butt" stroke-linejoin="round" transform="scale(0.015625 0.015625)"/><path d="M4448 1489C4454 1508 4474 1554 4474 1579 4474 1611 4448 1643 4410 1643 4384 1643 4371 1637 4352 1617 4339 1611 4339 1598 4282 1469 3904 570 3629 185 2605 185L1670 185C1581 185 1568 185 1530 192 1459 198 1453 211 1453 262 1453 307 1466 345 1478 403L1920 2176 2554 2176C3053 2176 3091 2066 3091 1874 3091 1810 3091 1752 3046 1560 3034 1534 3027 1508 3027 1489 3027 1444 3059 1425 3098 1425 3155 1425 3162 1469 3187 1559L3552 3042C3552 3073 3526 3105 3488 3105 3430 3105 3424 3080 3398 2990 3270 2501 3142 2361 2573 2361L1965 2361 2362 3930C2419 4154 2432 4154 2694 4154L3610 4154C4397 4154 4557 3943 4557 3458 4557 3451 4557 3273 4531 3062 4525 3036 4518 2998 4518 2985 4518 2934 4550 2915 4589 2915 4634 2915 4659 2941 4672 3055L4806 4174C4806 4195 4819 4263 4819 4277 4819 4352 4762 4352 4646 4352L1523 4352C1402 4352 1338 4352 1338 4229 1338 4154 1382 4154 1491 4154 1888 4154 1888 4114 1888 4052 1888 4020 1882 3994 1862 3924L998 473C941 249 928 185 480 185 358 185 294 185 294 70 294 0 333 0 461 0L3674 0C3814 0 3821 6 3866 110L4448 1489Z" id="CMMI12-45" stroke-linecap="butt" stroke-linejoin="round" transform="scale(0.015625 0.015625)"/><path d="M1504-1600 1504-1377 902-1377 902 4544 1504 4544 1504 4767 678 4767 678-1600 1504-1600Z" id="CMR17-5b" stroke-linecap="butt" stroke-linejoin="round" transform="scale(0.015625 0.015625)"/><path d="M2598 4403C2547 4512 2522 4512 2470 4512 2394 4512 2387 4499 2342 4409L269 109C262 96 237 38 237 32 237 6 243 0 358 0L4576 0C4691 0 4698 6 4698 32 4698 38 4672 96 4666 109L2598 4403ZM2310 4038 4083 358 531 358 2310 4038Z" id="CMR17-1" stroke-linecap="butt" stroke-linejoin="round" transform="scale(0.015625 0.015625)"/><path d="M2400 4184C2182 3980 2061 3865 1862 3865 1722 3865 1626 3932 1491 4024 1363 4111 1261 4184 1120 4184 890 4184 730 4004 461 3718L531 3648C749 3850 870 3968 1069 3968 1210 3968 1306 3900 1440 3808 1568 3722 1670 3648 1811 3648 2042 3648 2202 3828 2470 4114L2400 4184Z" id="CMR17-7e" stroke-linecap="butt" stroke-linejoin="round" transform="scale(0.015625 0.015625)"/><path d="M2854 2566C2982 2566 3034 2566 3034 2688 3034 2752 2982 2752 2867 2752L2349 2752C2470 3429 2560 3897 2611 4107 2650 4265 2784 4416 2950 4416 3085 4416 3219 4358 3283 4298 3034 4272 2957 4082 2957 3969 2957 3837 3053 3759 3174 3759 3302 3759 3494 3870 3494 4119 3494 4393 3226 4544 2944 4544 2669 4544 2400 4334 2272 4078 2157 3848 2093 3611 1946 2752L1517 2752C1395 2752 1331 2752 1331 2637 1331 2566 1370 2566 1498 2566L1907 2566C1792 1976 1530 542 1382-137 1274-689 1178-1152 858-1152 838-1152 653-1152 538-1031 864-1005 864-726 864-720 864-593 768-517 646-517 518-517 326-625 326-867 326-1140 608-1280 858-1280 1510-1280 1779-118 1850 199 1965 688 2278 2376 2310 2566L2854 2566Z" id="CMMI12-66" stroke-linecap="butt" stroke-linejoin="round" transform="scale(0.015625 0.015625)"/><path d="M915 4767 90 4767 90 4544 691 4544 691-1377 90-1377 90-1600 915-1600 915 4767Z" id="CMR17-5d" stroke-linecap="butt" stroke-linejoin="round" transform="scale(0.015625 0.015625)"/></defs><use width="100%" height="100%" xlink:href="#CMMI12-47" stroke-linecap="butt" stroke-linejoin="round" transform="scale(0.996264 0.996264)"></use><use width="100%" height="100%" xlink:href="#CMR17-28" stroke-linecap="butt" stroke-linejoin="round" transform="matrix(0.996264 0 0 0.996264 76.9469 0)"></use><use width="100%" height="100%" xlink:href="#CMMI12-59" stroke-linecap="butt" stroke-linejoin="round" transform="matrix(0.996264 0 0 0.996264 112.228 0)"></use><use width="100%" height="100%" xlink:href="#CMR17-29" stroke-linecap="butt" stroke-linejoin="round" transform="matrix(0.996264 0 0 0.996264 190.504 0)"></use><use width="100%" height="100%" xlink:href="#CMR17-3d" stroke-linecap="butt" stroke-linejoin="round" transform="matrix(0.996264 0 0 0.996264 253.459 0)"></use><use width="100%" height="100%" xlink:href="#CMEX10-50" stroke-linecap="butt" stroke-linejoin="round" transform="matrix(0.996264 0 0 0.996264 352.848 74.7205)"></use><use width="100%" height="100%" xlink:href="#CMMI12-74" stroke-linecap="butt" stroke-linejoin="round" transform="matrix(0.697382 0 0 0.697382 458.009 -28.3942)"></use><use width="100%" height="100%" xlink:href="#CMSY10-32" stroke-linecap="butt" stroke-linejoin="round" transform="matrix(0.697382 0 0 0.697382 482.667 -28.3942)"></use><use width="100%" height="100%" xlink:href="#CMMI12-54" stroke-linecap="butt" stroke-linejoin="round" transform="matrix(0.697382 0 0 0.697382 529.16 -28.3942)"></use><use width="100%" height="100%" xlink:href="#CMMI12-45" stroke-linecap="butt" stroke-linejoin="round" transform="matrix(0.996264 0 0 0.996264 595.769 0)"></use><use width="100%" height="100%" xlink:href="#CMR17-5b" stroke-linecap="butt" stroke-linejoin="round" transform="matrix(0.996264 0 0 0.996264 673.82 0)"></use><use width="100%" height="100%" xlink:href="#CMR17-1" stroke-linecap="butt" stroke-linejoin="round" transform="matrix(0.996264 0 0 0.996264 698.691 0)"></use><use width="100%" height="100%" xlink:href="#CMR17-7e" stroke-linecap="butt" stroke-linejoin="round" transform="matrix(0.996264 0 0 0.996264 798.384 26.2966)"></use><use width="100%" height="100%" xlink:href="#CMMI12-66" stroke-linecap="butt" stroke-linejoin="round" transform="matrix(0.996264 0 0 0.996264 775.611 0)"></use><use width="100%" height="100%" xlink:href="#CMMI12-74" stroke-linecap="butt" stroke-linejoin="round" transform="matrix(0.697382 0 0 0.697382 823.694 -14.9439)"></use><use width="100%" height="100%" xlink:href="#CMR17-5d" stroke-linecap="butt" stroke-linejoin="round" transform="matrix(0.996264 0 0 0.996264 848.851 0)"></use></g></g></g></g></svg>