<svg width="763.2" height="167.04" viewBox="0 0 572.4 125.28" xmlns="http://www.w3.org/2000/svg" xmlns:xlink="http://www.w3.org/1999/xlink" stroke-linecap="butt" stroke-linejoin="round" overflow="hidden"><defs stroke-linecap="butt" stroke-linejoin="round"></defs><g id="figure_1" stroke-linecap="butt" stroke-linejoin="round"><g id="patch_1" stroke-linecap="butt" stroke-linejoin="round"><path d="M0 125.28 572.4 125.28 572.4 0 0 0 0 125.28Z" stroke-linecap="butt" stroke-linejoin="round" fill="none" opacity="0"/></g><g id="axes_1" stroke-linecap="butt" stroke-linejoin="round"><g id="text_1" stroke-linecap="butt" stroke-linejoin="round"><g stroke-linecap="butt" stroke-linejoin="round" transform="matrix(0.2 0 0 -0.2 183.236 66.0591)"><defs stroke-linecap="butt" stroke-linejoin="round"><path d="M3776 3745C3834 3886 3936 4160 4365 4160L4365 4332C4218 4319 4051 4319 3891 4319 3738 4319 3475 4319 3328 4332L3328 4160C3648 4160 3661 3936 3661 3898 3661 3827 3642 3783 3622 3732L2362 446 1043 3886C1024 3931 1011 3963 1011 3994 1011 4160 1267 4160 1402 4160L1402 4319C1197 4319 896 4319 685 4319 518 4319 218 4319 64 4332L64 4160C435 4160 506 4135 582 3931L2106-26C2138-115 2144-128 2214-128 2285-128 2291-115 2323-26L3776 3745Z" id="CMR17-56" stroke-linecap="butt" stroke-linejoin="round" transform="scale(0.015625 0.015625)"/><path d="M2304 1653C2304 2072 2304 2294 2035 2543 1798 2752 1523 2816 1306 2816 800 2816 435 2407 435 1971 435 1728 627 1728 666 1728 749 1728 896 1778 896 1954 896 2112 774 2181 666 2181 640 2181 608 2174 589 2168 723 2592 1069 2714 1293 2714 1613 2714 1965 2429 1965 1885L1965 1600C1587 1600 1133 1549 774 1357 371 1133 256 813 256 570 256 77 832-64 1171-64 1523-64 1850 139 1990 511 2003 233 2182-18 2464-18 2598-18 2938 70 2938 567L2938 920 2822 920 2822 562C2822 178 2650 128 2566 128 2304 128 2304 458 2304 738L2304 1653ZM1965 870C1965 317 1568 38 1216 38 896 38 646 275 646 570 646 761 730 1100 1101 1305 1408 1478 1760 1504 1965 1504L1965 870Z" id="CMR17-61" stroke-linecap="butt" stroke-linejoin="round" transform="scale(0.015625 0.015625)"/><path d="M960 1497C960 2112 1222 2688 1702 2688 1747 2688 1792 2682 1837 2662 1837 2662 1696 2617 1696 2452 1696 2298 1818 2234 1914 2234 1990 2234 2131 2279 2131 2458 2131 2663 1926 2790 1709 2790 1222 2790 1011 2317 947 2093L941 2093 941 2790 198 2720 198 2554C576 2554 634 2515 634 2208L634 428C634 184 608 153 198 153L198-13C352 0 646 0 813 0 998 0 1325 0 1498-13L1498 153C1037 153 960 153 960 440L960 1497Z" id="CMR17-72" stroke-linecap="butt" stroke-linejoin="round" transform="scale(0.015625 0.015625)"/><path d="M1760 2719C1766 2808 1766 2962 1600 2962 1498 2962 1414 2879 1434 2795L1434 2712 1523 1720 704 2316C646 2348 634 2360 589 2360 499 2360 416 2271 416 2181 416 2079 480 2053 544 2021L1453 1586 570 1158C467 1107 416 1081 416 985 416 889 499 806 589 806 634 806 646 806 806 928L1523 1446 1427 371C1427 236 1542 204 1594 204 1670 204 1766 248 1766 371L1670 1446 2490 851C2547 819 2560 806 2605 806 2694 806 2778 896 2778 985 2778 1081 2720 1113 2643 1152 2259 1343 2246 1343 1741 1580L2624 2008C2726 2060 2778 2085 2778 2181 2778 2277 2694 2360 2605 2360 2560 2360 2547 2360 2387 2239L1670 1720 1760 2719Z" id="CMSY10-3" stroke-linecap="butt" stroke-linejoin="round" transform="scale(0.015625 0.015625)"/><path d="M1504-1600 1504-1377 902-1377 902 4544 1504 4544 1504 4767 678 4767 678-1600 1504-1600Z" id="CMR17-5b" stroke-linecap="butt" stroke-linejoin="round" transform="scale(0.015625 0.015625)"/><path d="M2400 4184C2182 3980 2061 3865 1862 3865 1722 3865 1626 3932 1491 4024 1363 4111 1261 4184 1120 4184 890 4184 730 4004 461 3718L531 3648C749 3850 870 3968 1069 3968 1210 3968 1306 3900 1440 3808 1568 3722 1670 3648 1811 3648 2042 3648 2202 3828 2470 4114L2400 4184Z" id="CMR17-7e" stroke-linecap="butt" stroke-linejoin="round" transform="scale(0.015625 0.015625)"/><path d="M2502 2431C2381 2431 2323 2431 2234 2355 2195 2323 2125 2227 2125 2125 2125 1997 2221 1920 2342 1920 2496 1920 2669 2044 2669 2292 2669 2588 2374 2816 1933 2816 1094 2816 256 1903 256 996 256 441 602-64 1254-64 2125-64 2675 622 2675 706 2675 744 2637 776 2611 776 2592 776 2586 770 2528 713 2118 162 1510 64 1267 64 826 64 685 446 685 764 685 988 794 1605 1024 2039 1190 2338 1536 2682 1939 2682 2022 2682 2374 2682 2502 2431Z" id="CMMI12-63" stroke-linecap="butt" stroke-linejoin="round" transform="scale(0.015625 0.015625)"/><path d="M4646 2797C4646 3848 3955 4492 3059 4492 1690 4492 307 3026 307 1554 307 554 973-128 1901-128 3245-128 4646 1268 4646 2797ZM1939 19C1414 19 858 401 858 1395 858 1974 1069 2924 1594 3562 2061 4123 2598 4352 3027 4352 3590 4352 4134 3944 4134 3026 4134 2459 3891 1573 3462 968 2995 318 2413 19 1939 19Z" id="CMMI12-4f" stroke-linecap="butt" stroke-linejoin="round" transform="scale(0.015625 0.015625)"/><path d="M2349 3861C2406 4103 2426 4167 2989 4167 3162 4167 3206 4167 3206 4288 3206 4352 3136 4352 3110 4352 2982 4352 2835 4352 2707 4352L1850 4352C1728 4352 1587 4352 1466 4352 1414 4352 1344 4352 1344 4231 1344 4167 1402 4167 1498 4167 1888 4167 1888 4116 1888 4046 1888 4034 1888 3995 1862 3899L998 472C941 249 928 185 480 185 358 185 294 185 294 70 294 0 333 0 461 0L3328 0C3469 0 3475 6 3520 121L4013 1478C4026 1510 4038 1548 4038 1567 4038 1605 4006 1631 3974 1631 3968 1631 3936 1631 3923 1605 3910 1599 3910 1586 3859 1465 3654 905 3366 185 2285 185L1670 185C1581 185 1568 185 1530 192 1459 198 1453 211 1453 262 1453 307 1466 345 1478 401L2349 3861Z" id="CMMI12-4c" stroke-linecap="butt" stroke-linejoin="round" transform="scale(0.015625 0.015625)"/><path d="M4787 3887C4845 4103 4858 4167 5312 4167 5427 4167 5491 4167 5491 4282 5491 4352 5434 4352 5395 4352 5280 4352 5146 4352 5024 4352L4269 4352C4147 4352 4013 4352 3891 4352 3846 4352 3770 4352 3770 4231 3770 4167 3814 4167 3936 4167 4320 4167 4320 4116 4320 4046 4320 4034 4320 3995 4294 3900L3904 2361 1971 2361 2355 3887C2413 4103 2426 4167 2880 4167 2995 4167 3059 4167 3059 4282 3059 4352 3002 4352 2963 4352 2848 4352 2714 4352 2592 4352L1837 4352C1715 4352 1581 4352 1459 4352 1414 4352 1338 4352 1338 4231 1338 4167 1382 4167 1504 4167 1888 4167 1888 4116 1888 4046 1888 4034 1888 3995 1862 3899L998 472C941 249 928 185 486 185 339 185 294 185 294 64 294 0 365 0 384 0 499 0 634 0 755 0L1510 0C1632 0 1766 0 1888 0 1939 0 2010 0 2010 121 2010 185 1952 185 1856 185 1466 185 1466 236 1466 300 1466 307 1466 351 1478 402L1920 2176 3859 2176C3750 1753 3424 416 3411 376 3341 185 3238 185 2861 185 2784 185 2726 185 2726 64 2726 0 2797 0 2816 0 2931 0 3066 0 3187 0L3942 0C4064 0 4198 0 4320 0 4371 0 4442 0 4442 121 4442 185 4384 185 4288 185 3898 185 3898 236 3898 300 3898 307 3898 351 3910 402L4787 3887Z" id="CMMI12-48" stroke-linecap="butt" stroke-linejoin="round" transform="scale(0.015625 0.015625)"/><path d="M1958-1561C1958-1555 1958-1542 1939-1523 1645-1224 858-407 858 1581 858 3569 1632 4379 1946 4697 1946 4704 1958 4717 1958 4736 1958 4755 1939 4768 1914 4768 1843 4768 1299 4296 986 3594 666 2887 576 2199 576 1588 576 1128 621 351 1005-471 1312-1135 1837-1600 1914-1600 1946-1600 1958-1587 1958-1561Z" id="CMR17-28" stroke-linecap="butt" stroke-linejoin="round" transform="scale(0.015625 0.015625)"/><path d="M1811 913C1811 945 1786 971 1747 971 1690 971 1683 952 1651 843 1485 262 1222 64 1011 64 934 64 845 83 845 275 845 447 922 639 992 830L1440 2018C1459 2069 1504 2184 1504 2305 1504 2574 1312 2816 998 2816 410 2816 173 1890 173 1839 173 1814 198 1782 243 1782 301 1782 307 1807 333 1896 486 2428 730 2682 979 2682 1037 2682 1146 2682 1146 2478 1146 2312 1062 2101 1011 1961L563 773C525 671 486 568 486 453 486 166 685-64 992-64 1581-64 1811 869 1811 913ZM1760 4013C1760 4109 1683 4224 1542 4224 1395 4224 1229 4083 1229 3917 1229 3758 1363 3707 1440 3707 1613 3707 1760 3873 1760 4013Z" id="CMMI12-69" stroke-linecap="butt" stroke-linejoin="round" transform="scale(0.015625 0.015625)"/><path d="M1683 1581C1683 2040 1638 2817 1254 3639 947 4303 422 4768 346 4768 326 4768 301 4761 301 4729 301 4717 307 4710 314 4697 621 4378 1402 3568 1402 1584 1402-407 627-1217 314-1537 307-1549 301-1556 301-1568 301-1600 326-1600 346-1600 416-1600 960-1128 1274-426 1594 281 1683 969 1683 1581Z" id="CMR17-29" stroke-linecap="butt" stroke-linejoin="round" transform="scale(0.015625 0.015625)"/><path d="M915 4767 90 4767 90 4544 691 4544 691-1377 90-1377 90-1600 915-1600 915 4767Z" id="CMR17-5d" stroke-linecap="butt" stroke-linejoin="round" transform="scale(0.015625 0.015625)"/><path d="M4115 2017C4211 2017 4307 2017 4307 2125 4307 2240 4198 2240 4090 2240L512 2240C403 2240 294 2240 294 2125 294 2017 390 2017 486 2017L4115 2017ZM4090 896C4198 896 4307 896 4307 1011 4307 1119 4211 1119 4115 1119L486 1119C390 1119 294 1119 294 1011 294 896 403 896 512 896L4090 896Z" id="CMR17-3d" stroke-linecap="butt" stroke-linejoin="round" transform="scale(0.015625 0.015625)"/><path d="M1318 1871C1331 1910 1491 2229 1728 2433 1894 2586 2112 2689 2362 2689 2618 2689 2707 2497 2707 2242 2707 1878 2445 1150 2317 805 2259 651 2227 568 2227 453 2227 166 2426-64 2733-64 3328-64 3552 875 3552 913 3552 945 3526 971 3488 971 3430 971 3424 952 3392 843 3245 319 3002 64 2752 64 2688 64 2586 64 2586 269 2586 429 2656 621 2694 710 2822 1063 3091 1780 3091 2145 3091 2528 2867 2816 2381 2816 1811 2816 1510 2415 1395 2255 1376 2618 1114 2816 832 2816 627 2816 486 2695 378 2478 262 2248 173 1865 173 1839 173 1814 198 1782 243 1782 294 1782 301 1788 339 1935 442 2325 557 2689 813 2689 960 2689 1011 2586 1011 2395 1011 2254 947 2005 902 1807L723 1118C698 996 627 709 595 594 550 428 480 128 480 96 480 6 550-64 646-64 723-64 813-26 864 70 877 102 934 326 966 453L1107 1028 1318 1871Z" id="CMMI12-6e" stroke-linecap="butt" stroke-linejoin="round" transform="scale(0.015625 0.015625)"/><path d="M1229 1619C1229 1805 1075 1958 890 1958 704 1958 550 1805 550 1619 550 1433 704 1280 890 1280 1075 1280 1229 1433 1229 1619Z" id="CMSY10-1" stroke-linecap="butt" stroke-linejoin="round" transform="scale(0.015625 0.015625)"/><path d="M2150 4122C2150 4256 2144 4256 2029 4256L128 1254 128 1088 1779 1088 1779 457C1779 224 1766 160 1318 160L1197 160 1197 0C1402 0 1747 0 1965 0 2182 0 2528 0 2733 0L2733 160 2611 160C2163 160 2150 224 2150 457L2150 1088 2803 1088 2803 1254 2150 1254 2150 4122ZM1798 3703 1798 1254 256 1254 1798 3703Z" id="CMR17-34" stroke-linecap="butt" stroke-linejoin="round" transform="scale(0.015625 0.015625)"/><path d="M1146 1479C1318 1479 1754 1479 2061 1595 2547 1783 2592 2158 2592 2274 2592 2558 2349 2816 1926 2816 1254 2816 288 2210 288 1073 288 402 672-64 1254-64 2125-64 2675 609 2675 692 2675 730 2637 762 2611 762 2592 762 2586 756 2528 699 2118 159 1510 64 1267 64 902 64 710 350 710 822 710 911 710 1071 806 1479L1146 1479ZM838 1600C1114 2592 1722 2689 1926 2689 2208 2689 2400 2522 2400 2277 2400 1600 1376 1600 1107 1600L838 1600Z" id="CMMI12-65" stroke-linecap="butt" stroke-linejoin="round" transform="scale(0.015625 0.015625)"/><path d="M890 1427C1094 1345 1312 1345 1434 1345 1600 1345 1933 1345 1933 1550 1933 1678 1811 1728 1485 1728 1325 1728 1133 1709 909 1613 710 1708 634 1852 634 1990 634 2379 1261 2606 1830 2606 1939 2606 2170 2606 2438 2411 2477 2387 2496 2367 2541 2367 2618 2367 2701 2449 2701 2526 2701 2639 2330 2880 1888 2880 1171 2880 493 2449 493 1972 493 1734 646 1586 755 1509 384 1301 166 961 166 652 166 219 563-128 1178-128 2022-128 2362 424 2362 512 2362 543 2336 568 2304 568 2272 568 2259 549 2234 512 2163 395 1997 146 1235 146 838 146 314 245 314 686 314 898 474 1214 890 1427ZM1088 1518C1261 1600 1427 1600 1472 1600 1651 1600 1683 1583 1786 1545 1677 1472 1664 1472 1434 1472 1318 1472 1216 1472 1088 1518Z" id="CMMI12-22" stroke-linecap="butt" stroke-linejoin="round" transform="scale(0.015625 0.015625)"/><path d="M4218 1472C4326 1472 4442 1472 4442 1600 4442 1728 4326 1728 4218 1728L755 1728C646 1728 531 1728 531 1600 531 1472 646 1472 755 1472L4218 1472Z" id="CMSY10-0" stroke-linecap="butt" stroke-linejoin="round" transform="scale(0.015625 0.015625)"/><path d="M1702 4058C1702 4192 1696 4192 1606 4192 1357 3916 979 3827 621 3827 602 3827 570 3827 563 3808 557 3795 557 3782 557 3648 755 3648 1088 3686 1344 3839L1344 461C1344 236 1331 160 781 160L589 160 589 0C896 0 1216 0 1523 0 1830 0 2150 0 2458 0L2458 160 2266 160C1715 160 1702 230 1702 458L1702 4058Z" id="CMR17-31" stroke-linecap="butt" stroke-linejoin="round" transform="scale(0.015625 0.015625)"/><path d="M2669 989 2554 989C2490 536 2438 459 2413 420 2381 369 1920 369 1830 369L602 369C832 619 1280 1072 1824 1597 2214 1967 2669 2402 2669 3035 2669 3790 2067 4224 1395 4224 691 4224 262 3604 262 3030 262 2780 448 2748 525 2748 589 2748 781 2787 781 3010 781 3207 614 3264 525 3264 486 3264 448 3258 422 3245 544 3790 915 4058 1306 4058 1862 4058 2227 3617 2227 3035 2227 2479 1901 2000 1536 1584L262 146 262 0 2515 0 2669 989Z" id="CMR17-32" stroke-linecap="butt" stroke-linejoin="round" transform="scale(0.015625 0.015625)"/></defs><use width="100%" height="100%" xlink:href="#CMR17-56" stroke-linecap="butt" stroke-linejoin="round" transform="scale(0.996264 0.996264)"></use><use width="100%" height="100%" xlink:href="#CMR17-61" stroke-linecap="butt" stroke-linejoin="round" transform="matrix(0.996264 0 0 0.996264 61.2652 0)"></use><use width="100%" height="100%" xlink:href="#CMR17-72" stroke-linecap="butt" stroke-linejoin="round" transform="matrix(0.996264 0 0 0.996264 106.956 0)"></use><use width="100%" height="100%" xlink:href="#CMSY10-3" stroke-linecap="butt" stroke-linejoin="round" transform="matrix(0.697382 0 0 0.697382 142.236 41.1375)"></use><use width="100%" height="100%" xlink:href="#CMR17-5b" stroke-linecap="butt" stroke-linejoin="round" transform="matrix(0.996264 0 0 0.996264 177.604 0)"></use><use width="100%" height="100%" xlink:href="#CMR17-7e" stroke-linecap="butt" stroke-linejoin="round" transform="matrix(0.996264 0 0 0.996264 206.041 0.006461)"></use><use width="100%" height="100%" xlink:href="#CMMI12-63" stroke-linecap="butt" stroke-linejoin="round" transform="matrix(0.996264 0 0 0.996264 202.475 0)"></use><use width="100%" height="100%" xlink:href="#CMMI12-4f" stroke-linecap="butt" stroke-linejoin="round" transform="matrix(0.697382 0 0 0.697382 244.458 -14.9439)"></use><use width="100%" height="100%" xlink:href="#CMMI12-4c" stroke-linecap="butt" stroke-linejoin="round" transform="matrix(0.697382 0 0 0.697382 298.54 -14.9439)"></use><use width="100%" height="100%" xlink:href="#CMMI12-48" stroke-linecap="butt" stroke-linejoin="round" transform="matrix(0.697382 0 0 0.697382 344.999 -14.9439)"></use><use width="100%" height="100%" xlink:href="#CMR17-28" stroke-linecap="butt" stroke-linejoin="round" transform="matrix(0.996264 0 0 0.996264 407.463 0)"></use><use width="100%" height="100%" xlink:href="#CMMI12-69" stroke-linecap="butt" stroke-linejoin="round" transform="matrix(0.996264 0 0 0.996264 442.743 0)"></use><use width="100%" height="100%" xlink:href="#CMR17-29" stroke-linecap="butt" stroke-linejoin="round" transform="matrix(0.996264 0 0 0.996264 476.022 0)"></use><use width="100%" height="100%" xlink:href="#CMR17-5d" stroke-linecap="butt" stroke-linejoin="round" transform="matrix(0.996264 0 0 0.996264 511.303 0)"></use><use width="100%" height="100%" xlink:href="#CMR17-3d" stroke-linecap="butt" stroke-linejoin="round" transform="matrix(0.996264 0 0 0.996264 563.848 0)"></use><use width="100%" height="100%" xlink:href="#CMMI12-6e" stroke-linecap="butt" stroke-linejoin="round" transform="matrix(0.996264 0 0 0.996264 663.237 0)"></use><use width="100%" height="100%" xlink:href="#CMSY10-1" stroke-linecap="butt" stroke-linejoin="round" transform="matrix(0.996264 0 0 0.996264 743.606 0)"></use><use width="100%" height="100%" xlink:href="#CMR17-34" stroke-linecap="butt" stroke-linejoin="round" transform="matrix(0.697382 0 0 0.697382 858.103 39.2261)"></use><use width="100%" height="100%" xlink:href="#CMMI12-65" stroke-linecap="butt" stroke-linejoin="round" transform="matrix(0.697382 0 0 0.697382 890.086 39.2261)"></use><use width="100%" height="100%" xlink:href="#CMMI12-22" stroke-linecap="butt" stroke-linejoin="round" transform="matrix(0.498132 0 0 0.498132 921.735 64.5335)"></use><use width="100%" height="100%" xlink:href="#CMR17-28" stroke-linecap="butt" stroke-linejoin="round" transform="matrix(0.697382 0 0 0.697382 794.615 -34.3553)"></use><use width="100%" height="100%" xlink:href="#CMMI12-65" stroke-linecap="butt" stroke-linejoin="round" transform="matrix(0.697382 0 0 0.697382 819.311 -34.3553)"></use><use width="100%" height="100%" xlink:href="#CMMI12-22" stroke-linecap="butt" stroke-linejoin="round" transform="matrix(0.498132 0 0 0.498132 850.959 -14.2087)"></use><use width="100%" height="100%" xlink:href="#CMSY10-0" stroke-linecap="butt" stroke-linejoin="round" transform="matrix(0.697382 0 0 0.697382 874.283 -34.3553)"></use><use width="100%" height="100%" xlink:href="#CMR17-31" stroke-linecap="butt" stroke-linejoin="round" transform="matrix(0.697382 0 0 0.697382 928.524 -34.3553)"></use><use width="100%" height="100%" xlink:href="#CMR17-29" stroke-linecap="butt" stroke-linejoin="round" transform="matrix(0.697382 0 0 0.697382 960.507 -34.3553)"></use><use width="100%" height="100%" xlink:href="#CMR17-32" stroke-linecap="butt" stroke-linejoin="round" transform="matrix(0.498132 0 0 0.498132 985.203 -14.2087)"></use><path d="M794.615 22.9141 1008.55 22.9141 1008.55 26.8991 794.615 26.8991 794.615 22.9141Z" stroke-linecap="butt" stroke-linejoin="round"/></g></g></g></g></svg>