<svg version="1.1" xmlns="http://www.w3.org/2000/svg" xmlns:xlink="http://www.w3.org/1999/xlink" width="800" height="400" viewBox="0 0 800 400">
  <defs>
    <g id="stickFigure">
      <circle cx="25" cy="20" r="10" stroke="black" fill="white" stroke-width="2"/>
      <path d="M25,30 L25,70 M10,70 L25,50 L40,70 M25,70 L15,110 L35,110 L25,70" stroke="black" fill="white" stroke-width="2" stroke-linecap="round" stroke-linejoin="round"/>
    </g>
    <g id="stickFigureAttacker">
      <circle cx="25" cy="20" r="10" stroke="black" fill="white" stroke-width="2"/>
      <path d="M25,30 L25,70 M10,50 L25,30 L40,50 M25,70 L15,110 L35,110 L25,70" stroke="black" fill="white" stroke-width="2" stroke-linecap="round" stroke-linejoin="round"/>
    </g>
    <g id="cube">
      <path d="M10,10 L40,10 L50,0 L20,0 Z M10,10 L10,40 L40,40 L40,10 Z M40,40 L50,30 L50,0 L40,10 Z" stroke="black" fill="white" stroke-width="2" stroke-linejoin="round"/>
    </g>
    <g id="arrowDown">
      <path d="M10,0 L10,20 M0,20 L10,30 L20,20" stroke="black" fill="none" stroke-width="2"/>
    </g>
    <g id="binaryBox">
      <rect x="0" y="0" width="125" height="30" stroke="black" fill="white" stroke-width="2"/>
      <line x1="25" y1="0" x2="25" y2="30" stroke="black" stroke-width="1"/>
      <line x1="50" y1="0" x2="50" y2="30" stroke="black" stroke-width="1"/>
      <line x1="75" y1="0" x2="75" y2="30" stroke="black" stroke-width="1"/>
      <line x1="100" y1="0" x2="100" y2="30" stroke="black" stroke-width="1"/>
    </g>
    <g id="gears">
      <circle cx="28" cy="16" r="6" stroke="black" fill="white" stroke-width="2"/>
      <circle cx="18" cy="26" r="6" stroke="black" fill="white" stroke-width="2"/>
      <path d="M28,8 L28,6 M36,16 L38,16 M28,24 L28,26 M20,16 L18,16" stroke="black" stroke-width="2"/>
    </g>
  </defs>

  <rect x="0" y="0" width="800" height="400" fill="#cce5ff"/>

  <line x1="400" y1="20" x2="400" y2="380" stroke="black" stroke-width="3"/>
  <line x1="408" y1="20" x2="408" y2="380" stroke="black" stroke-width="3"/>

  <g transform="translate(0, 0)">
    <text x="200" y="40" font-family="Arial, sans-serif" font-size="24" font-weight="bold" text-anchor="middle" fill="black">Honest User</text>
    
    <g transform="translate(50, 80) scale(1.5)">
      <use xlink:href="#stickFigure"/>
    </g>

    <g transform="translate(150, 80)">
      <use xlink:href="#cube"/>
      <text x="30" y="25" font-family="Arial, sans-serif" font-size="10" text-anchor="middle">Item A</text>
    </g>
    <g transform="translate(210, 80)">
      <use xlink:href="#cube"/>
      <text x="30" y="25" font-family="Arial, sans-serif" font-size="10" text-anchor="middle">Item B</text>
    </g>

    <path d="M125,160 L240,160 L240,175" stroke="black" fill="none" stroke-width="2"/>
    <polygon points="235,175 245,175 240,185" fill="black" />

    <path d="M220,190 L260,190 L250,230 L230,230 L220,190 Z" stroke="black" fill="white" stroke-width="2"/>
    <text x="270" y="215" font-family="Arial, sans-serif" font-size="14" font-weight="bold">Perturbation</text>
    
    <line x1="240" y1="230" x2="240" y2="250" stroke="black" stroke-width="2"/>
    <polygon points="235,250 245,250 240,260" fill="black" />

    <g transform="translate(177, 270)">
      <use xlink:href="#binaryBox"/>
      <text x="12.5" y="20" font-family="Arial, sans-serif" font-size="16" text-anchor="middle">1</text>
      <text x="37.5" y="20" font-family="Arial, sans-serif" font-size="16" text-anchor="middle">1</text>
      <text x="62.5" y="20" font-family="Arial, sans-serif" font-size="16" text-anchor="middle">0</text>
      <text x="87.5" y="20" font-family="Arial, sans-serif" font-size="16" text-anchor="middle">0</text>
      <text x="112.5" y="20" font-family="Arial, sans-serif" font-size="16" text-anchor="middle">0</text>
    </g>
  </g>

  <g transform="translate(420, 0)">
    <text x="200" y="40" font-family="Arial, sans-serif" font-size="24" font-weight="bold" text-anchor="middle" fill="black">MGA Attacker</text>

    <g transform="translate(250, 80) scale(1.5)">
      <use xlink:href="#stickFigureAttacker"/>
    </g>

    <g transform="translate(160, 80)">
      <use xlink:href="#cube"/>
      <text x="30" y="25" font-family="Arial, sans-serif" font-size="10" text-anchor="middle">Target C</text>
    </g>

    <path d="M220,160 L140,160 L140,175" stroke="black" fill="none" stroke-width="2"/>
    <polygon points="135,175 145,175 140,185" fill="black" />

    <g transform="translate(110, 190) scale(1.5)">
      <use xlink:href="#gears"/>
    </g>
    <text x="100" y="215" font-family="Arial, sans-serif" font-size="14" font-weight="bold" text-anchor="end">Optimization</text>

    <rect x="180" y="195" width="190" height="35" fill="none" stroke="black" stroke-dasharray="4,2"/>
    <text x="275" y="218" font-family="Arial, sans-serif" font-size="14" text-anchor="middle" font-style="italic">
      y* = argmax Σ 1(t)
    </text>

    <line x1="140" y1="240" x2="140" y2="260" stroke="black" stroke-width="2"/>
    <polygon points="135,260 145,260 140,270" fill="black" />

    <text x="120" y="255" font-family="Arial, sans-serif" font-size="12" text-anchor="end">Setting</text>
    <text x="120" y="270" font-family="Arial, sans-serif" font-size="12" text-anchor="end">Target Bits</text>

    <path d="M125,270 Q135,280 150,285" fill="none" stroke="black" stroke-width="1.5" marker-end="url(#arrowhead)"/>

    <g transform="translate(130, 280)">
      <use xlink:href="#binaryBox"/>
      <text x="12.5" y="20" font-family="Arial, sans-serif" font-size="16" text-anchor="middle">0</text>
      <text x="37.5" y="20" font-family="Arial, sans-serif" font-size="16" text-anchor="middle">0</text>
      <text x="62.5" y="20" font-family="Arial, sans-serif" font-size="16" text-anchor="middle" font-weight="bold">1</text>
      <text x="87.5" y="20" font-family="Arial, sans-serif" font-size="16" text-anchor="middle">0</text>
      <text x="112.5" y="20" font-family="Arial, sans-serif" font-size="16" text-anchor="middle" font-weight="bold">1</text>
    </g>

    <path d="M260,330 L260,315" stroke="black" fill="none" stroke-width="1.5"/>
    <polygon points="257,315 263,315 260,310" fill="black" />
    <text x="260" y="345" font-family="Arial, sans-serif" font-size="12" text-anchor="middle">Setting</text>
    <text x="260" y="360" font-family="Arial, sans-serif" font-size="12" text-anchor="middle">Non-Target Bits</text>
  </g>
</svg>