<?xml version="1.0" standalone="no"?>
<!DOCTYPE svg PUBLIC "-//W3C//DTD SVG 20010904//EN"
 "http://www.w3.org/TR/2001/REC-SVG-20010904/DTD/svg10.dtd">
<svg version="1.0" xmlns="http://www.w3.org/2000/svg"
 width="2880.000000pt" height="1472.000000pt" viewBox="0 0 2880.000000 1472.000000"
 preserveAspectRatio="xMidYMid meet">
<metadata>
Created by potrace 1.16, written by Peter Selinger 2001-2019
</metadata>
<g transform="translate(0.000000,1472.000000) scale(0.100000,-0.100000)"
fill="#000000" stroke="none">
<path d="M12341 14336 c-9 -11 -11 -1626 -7 -6763 3 -3711 6 -6817 6 -6901 0
-153 0 -153 23 -150 l22 3 3 6904 c2 5517 0 6906 -10 6913 -18 11 -24 10 -37
-6z"/>
<path d="M12552 14333 c-4 -10 -7 -3121 -7 -6913 l0 -6895 25 0 25 0 3 6899
c1 5092 -1 6902 -9 6912 -15 19 -28 17 -37 -3z"/>
<path d="M20108 13515 c-2 -146 -1 -270 0 -275 2 -6 26 -10 53 -10 l49 0 0 54
c0 38 6 61 19 77 l18 23 31 -55 c55 -97 57 -99 117 -99 57 0 67 10 41 39 -20
24 -116 181 -116 191 0 5 27 40 60 78 65 76 64 82 -10 82 -35 0 -44 -6 -99
-67 l-61 -68 0 148 0 147 -50 0 -49 0 -3 -265z"/>
<path d="M16632 13493 l3 -258 54 -3 54 -3 -5 180 c-3 100 -3 180 -2 178 2 -1
30 -81 62 -177 l59 -175 43 0 42 0 59 169 c32 93 60 170 62 172 2 3 2 -75 -1
-171 l-5 -175 57 0 56 0 0 260 0 260 -68 0 c-78 0 -60 27 -143 -212 -29 -82
-56 -148 -60 -148 -5 0 -9 5 -9 11 0 9 -48 148 -106 307 l-16 42 -69 0 -69 0
2 -257z"/>
<path d="M17357 13729 c-81 -43 -123 -139 -115 -266 5 -89 29 -145 79 -188 46
-38 74 -47 156 -47 55 0 84 6 126 25 63 29 64 32 59 170 l-3 87 -100 0 -100 0
3 -42 3 -43 48 -3 47 -3 0 -38 c0 -46 -16 -61 -67 -67 -51 -7 -103 21 -125 66
-20 39 -25 170 -9 213 18 47 50 67 107 67 44 0 56 -4 73 -26 11 -14 21 -29 23
-35 2 -5 25 -12 52 -15 l49 -6 -6 37 c-8 47 -46 98 -90 119 -50 23 -161 21
-210 -5z"/>
<path d="M17876 13708 c-44 -122 -164 -445 -171 -460 -6 -16 0 -18 54 -18 l60
0 16 55 16 55 93 0 93 0 19 -52 19 -53 53 -3 c41 -2 52 0 52 12 0 16 -162 452
-180 487 -8 15 -22 19 -60 19 -48 0 -48 0 -64 -42z m104 -185 c28 -86 28 -88
9 -95 -17 -6 -100 -2 -104 5 -4 5 58 187 62 183 3 -2 17 -44 33 -93z"/>
<path d="M18539 13723 c-20 -51 -179 -486 -179 -490 0 -2 26 -3 58 -1 l57 3
16 50 16 50 90 3 c100 3 102 2 122 -65 l12 -43 54 0 c30 0 55 2 55 5 0 8 -171
478 -181 497 -7 14 -22 18 -60 18 -45 0 -51 -3 -60 -27z m95 -194 c14 -44 26
-84 26 -90 0 -5 -27 -9 -60 -9 -33 0 -60 1 -60 3 0 3 44 136 55 165 8 22 12
14 39 -69z"/>
<path d="M4275 13718 c-3 -7 -4 -126 -3 -263 l3 -250 52 -3 52 -3 3 113 3 113
95 0 95 0 5 -110 5 -110 53 -3 52 -3 0 260 0 259 -27 6 c-16 3 -39 4 -53 3
-25 -2 -25 -3 -28 -104 l-3 -103 -99 0 -99 0 -3 103 -3 102 -48 3 c-32 2 -49
-1 -52 -10z"/>
<path d="M6648 13718 c-2 -7 -3 -99 -2 -204 2 -199 7 -226 51 -266 48 -44 152
-61 235 -38 45 13 94 66 108 119 6 23 9 114 8 218 l-3 178 -50 0 -50 0 -5
-198 c-5 -194 -6 -199 -29 -218 -34 -28 -101 -26 -129 4 -20 22 -22 34 -24
217 l-3 195 -51 3 c-36 2 -53 -1 -56 -10z"/>
<path d="M18896 13712 c-3 -3 -6 -25 -6 -48 0 -39 -2 -43 -27 -46 -25 -3 -28
-7 -28 -38 0 -31 4 -35 29 -40 l29 -5 -2 -102 c-3 -172 8 -195 99 -208 56 -7
71 3 73 46 2 29 -2 34 -23 37 -14 2 -28 7 -32 10 -3 4 -8 54 -9 112 l-3 105
33 3 c30 3 32 5 29 40 -3 32 -7 38 -33 42 -28 5 -30 8 -29 48 1 40 -1 42 -30
43 -17 0 -39 2 -48 4 -9 2 -19 0 -22 -3z"/>
<path d="M19148 13712 c-14 -3 -18 -14 -18 -48 0 -40 -2 -44 -25 -44 -22 0
-25 -4 -25 -39 0 -35 3 -40 25 -43 l26 -3 2 -127 c2 -123 3 -128 28 -154 18
-18 41 -28 73 -31 56 -7 76 7 76 53 0 30 -3 33 -32 36 l-33 3 -3 113 -3 112
31 0 c30 0 31 2 28 38 -3 32 -7 37 -30 40 -24 3 -27 8 -30 45 -3 39 -5 42 -38
47 -19 3 -43 4 -52 2z"/>
<path d="M6423 13693 c-19 -4 -23 -11 -23 -42 0 -40 -12 -56 -45 -63 -31 -5
-28 -62 3 -66 33 -5 42 -38 37 -133 -6 -112 6 -156 50 -175 43 -18 111 -18
118 -1 11 29 -5 63 -34 74 l-29 11 0 111 0 111 31 0 c29 0 30 2 27 38 -3 34
-5 37 -30 34 -26 -2 -27 -1 -30 50 -3 49 -5 53 -28 54 -14 1 -35 0 -47 -3z"/>
<path d="M19425 13606 c-36 -16 -72 -54 -77 -81 -5 -32 67 -33 110 -2 40 30
79 25 93 -10 14 -38 11 -43 -28 -43 -70 -1 -117 -17 -150 -54 -27 -29 -33 -44
-33 -81 0 -55 27 -87 88 -106 35 -10 48 -9 88 6 33 13 49 14 57 6 6 -6 30 -11
53 -11 l42 0 -4 98 c-10 226 -16 247 -75 278 -35 17 -124 18 -164 0z m135
-229 c0 -46 -27 -69 -77 -65 -32 3 -38 7 -41 28 -3 36 11 52 54 60 63 12 64
12 64 -23z"/>
<path d="M19806 13597 c-82 -46 -113 -177 -68 -280 47 -107 208 -128 282 -38
33 39 39 75 14 85 -35 13 -63 5 -84 -24 -26 -36 -77 -41 -105 -10 -20 22 -30
93 -21 144 13 70 90 86 124 26 15 -26 23 -30 60 -30 35 0 42 3 42 19 0 38 -20
71 -61 101 -53 38 -124 41 -183 7z"/>
<path d="M20575 13604 c-76 -39 -110 -106 -103 -203 8 -111 77 -176 188 -175
60 1 125 26 140 55 8 13 4 24 -13 45 l-24 27 -37 -22 c-28 -18 -46 -22 -73
-18 -41 7 -73 32 -73 59 0 16 10 18 121 18 l122 0 -6 56 c-8 74 -35 124 -83
151 -46 27 -115 30 -159 7z m129 -96 c9 -12 16 -27 16 -33 0 -12 -124 -14
-136 -3 -3 4 1 19 10 33 22 34 87 36 110 3z"/>
<path d="M20885 13613 c-6 -5 -10 -81 -10 -193 l0 -185 53 -3 52 -3 0 135 c0
97 4 137 13 143 6 4 32 10 57 13 l45 5 0 45 c0 45 0 45 -37 48 -27 2 -43 -3
-57 -17 -16 -16 -22 -18 -28 -7 -9 17 -73 30 -88 19z"/>
<path d="M4877 13586 c-77 -29 -117 -91 -117 -183 1 -92 44 -166 113 -192 40
-15 123 -14 155 3 126 66 138 275 21 353 -48 31 -118 39 -172 19z m124 -95
c18 -14 23 -30 26 -77 4 -67 -9 -101 -49 -123 -24 -14 -30 -14 -62 1 -28 14
-37 26 -46 60 -14 49 -8 100 15 134 20 30 81 33 116 5z"/>
<path d="M5325 13580 c-47 -24 -45 -24 -45 -5 0 11 -12 15 -45 15 l-45 0 2
-192 3 -193 45 0 45 0 5 136 c3 94 9 141 19 153 16 19 84 22 99 3 7 -8 13 -71
14 -153 l3 -139 50 0 50 0 -1 151 c-1 118 -5 157 -18 182 -31 61 -109 79 -181
42z"/>
<path d="M5695 13584 c-78 -43 -105 -91 -105 -186 0 -76 20 -119 73 -162 36
-29 45 -31 117 -31 64 0 84 4 106 21 46 34 52 51 27 76 -22 21 -23 21 -58 5
-20 -9 -53 -17 -74 -17 -32 0 -44 6 -66 32 -36 43 -24 48 114 48 l114 0 -5 64
c-9 104 -58 155 -157 162 -40 3 -65 0 -86 -12z m122 -87 c6 -7 13 -21 15 -32
3 -18 -3 -20 -64 -23 -78 -3 -87 9 -42 54 19 20 31 24 52 19 15 -3 32 -12 39
-18z"/>
<path d="M6089 13591 c-45 -14 -68 -31 -84 -61 -39 -76 9 -147 110 -165 47 -9
95 -31 95 -45 0 -5 -10 -19 -22 -30 -29 -27 -75 -20 -103 15 -16 19 -30 25
-63 25 -37 0 -42 -3 -42 -23 0 -57 77 -106 168 -107 123 0 193 81 147 169 -15
31 -76 64 -135 76 -73 15 -90 41 -46 70 29 19 72 11 89 -16 9 -14 24 -19 60
-19 47 0 47 0 41 28 -9 38 -23 52 -69 73 -41 19 -101 23 -146 10z"/>
<path d="M7195 13581 c-115 -52 -91 -181 38 -211 104 -25 131 -54 82 -86 -31
-20 -68 -12 -101 21 -32 32 -104 36 -104 6 0 -27 48 -81 87 -97 72 -30 195 -8
227 41 25 38 20 98 -10 134 -24 29 -61 44 -155 65 -37 8 -46 36 -18 59 27 22
66 16 91 -13 12 -15 29 -20 62 -20 52 0 56 9 27 56 -37 61 -144 83 -226 45z"/>
<path d="M7615 13593 c-31 -8 -84 -51 -99 -82 -38 -73 -24 -211 26 -258 56
-53 159 -68 233 -34 56 25 70 44 53 70 -18 30 -42 35 -77 17 -46 -24 -97 -20
-127 9 -43 43 -29 50 100 53 l118 3 -4 64 c-4 69 -21 101 -71 139 -26 19 -111
30 -152 19z m88 -84 c27 -14 37 -28 37 -51 0 -16 -10 -18 -70 -18 -79 0 -89
12 -45 55 27 28 45 31 78 14z"/>
<path d="M8032 13583 c-17 -12 -26 -13 -34 -5 -7 7 -31 12 -55 12 l-43 0 2
-192 3 -193 40 -1 c67 -1 65 -4 65 136 0 145 5 155 71 155 l39 0 0 52 0 53
-32 -1 c-18 0 -43 -7 -56 -16z"/>
<path d="M2585 11826 c-117 -28 -243 -121 -313 -228 -140 -217 -104 -510 83
-684 103 -95 224 -144 360 -144 151 0 276 51 380 155 170 170 203 421 87 650
-34 67 -144 175 -212 208 -114 55 -267 72 -385 43z m260 -51 c85 -23 147 -60
214 -129 94 -98 141 -210 141 -336 0 -129 -44 -240 -136 -339 -176 -190 -483
-198 -673 -16 -196 187 -202 489 -14 686 119 125 301 177 468 134z"/>
<path d="M22006 11824 c-185 -45 -341 -208 -381 -399 -40 -193 10 -363 149
-501 108 -107 220 -154 371 -154 98 1 152 12 231 51 330 163 401 603 140 865
-39 39 -95 83 -123 98 -108 54 -263 70 -387 40z m259 -49 c215 -57 355 -241
355 -470 0 -142 -45 -248 -146 -345 -75 -72 -165 -117 -263 -133 -232 -36
-474 127 -531 358 -18 76 -14 200 10 277 34 111 134 225 247 282 89 45 224 58
328 31z"/>
<path d="M7285 11720 c-33 -5 -109 -13 -170 -20 -60 -6 -202 -23 -315 -36
-113 -13 -270 -31 -350 -39 -154 -17 -180 -21 -180 -35 0 -8 145 -95 393 -235
l137 -77 88 5 c89 5 1048 113 1090 122 13 3 22 11 19 18 -4 13 -106 72 -367
213 -192 103 -193 103 -345 84z m248 -93 c139 -73 322 -180 311 -184 -5 -1
-110 -14 -234 -28 -124 -14 -342 -39 -485 -56 -143 -17 -274 -28 -292 -26 -33
6 -395 208 -400 224 -2 5 126 24 289 42 161 18 379 43 483 56 105 12 198 23
208 24 9 0 63 -23 120 -52z"/>
<path d="M5055 11689 c-33 -4 -244 -28 -470 -53 -225 -25 -420 -48 -433 -51
-48 -12 -19 -34 243 -180 254 -142 239 -138 436 -111 57 8 223 29 369 45 490
56 535 62 544 71 9 9 -85 66 -334 204 l-155 86 -70 -1 c-38 -1 -97 -5 -130
-10z m291 -101 c187 -104 254 -143 254 -148 0 -3 -51 -11 -112 -18 -62 -7
-230 -26 -373 -42 -527 -61 -458 -58 -518 -27 -141 72 -336 185 -330 190 3 4
22 7 40 7 37 0 470 49 703 80 200 26 217 24 336 -42z"/>
<path d="M20060 11693 c-19 -2 -107 -12 -195 -23 -88 -11 -281 -33 -430 -50
-254 -29 -340 -42 -352 -53 -5 -6 126 -84 306 -182 68 -37 138 -75 155 -86 42
-25 99 -24 342 6 205 25 346 42 639 76 93 11 173 23 177 27 9 9 -80 64 -262
163 -63 34 -142 77 -175 95 -61 34 -96 39 -205 27z m206 -90 c135 -72 284
-157 284 -163 0 -3 -69 -13 -152 -23 -84 -9 -285 -32 -446 -52 -162 -19 -307
-35 -322 -35 -36 0 -406 201 -388 210 7 4 69 13 138 19 69 7 265 30 435 51
171 21 321 38 336 39 14 1 65 -20 115 -46z"/>
<path d="M6199 11428 c-2 -206 -2 -240 0 -664 l1 -421 78 -45 c42 -24 164 -98
271 -162 107 -65 202 -121 213 -123 22 -6 20 -77 18 647 -1 416 -4 558 -13
567 -12 11 -189 115 -420 246 -64 37 -124 67 -132 67 -12 0 -15 -20 -16 -112z
m305 -107 l221 -126 3 -548 c1 -301 -1 -547 -6 -547 -4 0 -111 62 -237 138
l-230 138 -3 542 c-2 504 -1 541 15 535 9 -4 116 -63 237 -132z"/>
<path d="M4066 11522 c-6 -11 -8 -199 -7 -694 l1 -427 208 -124 c307 -183 321
-191 327 -175 3 7 4 265 3 573 l-3 560 -175 98 c-96 54 -206 118 -245 140 -83
50 -103 59 -109 49z m269 -200 l210 -118 3 -518 2 -518 -22 14 c-13 8 -112 68
-220 133 l-198 118 0 503 c0 277 3 504 8 504 4 0 102 -53 217 -118z"/>
<path d="M19024 11519 c-7 -11 -6 -1108 1 -1120 5 -7 421 -252 484 -284 19
-10 37 -13 42 -8 5 5 8 249 7 567 l-3 558 -100 58 c-55 31 -166 95 -247 142
-166 97 -175 101 -184 87z m134 -118 c37 -21 131 -76 210 -121 l142 -83 0
-508 c0 -280 -3 -509 -7 -509 -5 1 -102 56 -218 123 l-210 123 -3 507 c-1 346
1 507 8 507 6 0 41 -17 78 -39z"/>
<path d="M7770 11335 c-146 -18 -400 -50 -565 -69 -165 -20 -315 -39 -332 -42
l-33 -6 0 -609 c0 -355 4 -610 9 -613 10 -6 292 24 691 74 129 16 300 36 380
45 106 12 148 20 157 32 9 12 12 159 13 594 0 318 -2 590 -6 604 -7 30 18 31
-314 -10z m260 -590 c0 -311 -3 -565 -7 -565 -5 0 -143 -16 -308 -35 -165 -20
-397 -47 -515 -60 -118 -14 -236 -28 -262 -31 l-48 -6 0 561 0 561 23 4 c12 2
103 13 202 25 99 11 326 39 505 60 179 22 341 42 360 44 19 2 38 5 43 5 4 1 7
-252 7 -563z"/>
<path d="M7068 11032 c-16 -3 -18 -19 -18 -158 l0 -154 30 0 30 0 0 154 c0
160 -2 167 -42 158z"/>
<path d="M7178 10983 c-2 -17 -9 -28 -18 -28 -8 0 -16 -10 -18 -22 -3 -18 2
-23 17 -23 20 0 21 -6 21 -84 0 -76 2 -86 22 -100 25 -18 46 -20 66 -8 16 10
5 42 -14 42 -10 0 -14 14 -15 48 -1 26 -3 58 -4 71 -2 16 4 25 16 28 26 7 24
39 -2 46 -15 4 -20 12 -17 29 2 19 -2 24 -24 26 -23 3 -27 -1 -30 -25z"/>
<path d="M7360 10942 c-87 -43 -69 -204 24 -228 34 -8 91 3 106 21 20 25 2 36
-48 29 -40 -5 -50 -3 -66 14 -28 32 -11 45 53 40 31 -3 62 -3 69 -1 31 11 2
107 -39 128 -36 19 -56 19 -99 -3z m82 -49 c29 -26 22 -33 -32 -33 -52 0 -60
8 -34 34 20 21 43 20 66 -1z"/>
<path d="M7556 10952 c-3 -5 -6 -57 -7 -118 l-2 -109 27 -3 26 -3 0 83 c0 90
8 108 47 108 32 0 45 -38 42 -120 -3 -64 -2 -65 24 -68 l27 -3 0 84 c0 92 10
111 52 105 22 -3 23 -8 26 -95 l3 -93 30 0 31 0 -4 101 c-3 92 -5 103 -27 120
-28 23 -69 25 -98 4 -19 -13 -24 -13 -52 2 -25 15 -35 16 -61 6 -21 -8 -40 -9
-55 -3 -14 5 -26 6 -29 2z"/>
<path d="M7354 10587 c-2 -7 -3 -80 -2 -162 l3 -150 80 3 c105 4 129 19 133
90 2 42 -1 53 -18 65 -17 11 -18 16 -6 20 8 3 17 19 21 36 9 44 -13 84 -55 98
-49 17 -149 17 -156 0z m144 -49 c15 -15 16 -54 2 -63 -6 -4 -28 -8 -50 -10
l-40 -4 0 45 0 44 38 0 c21 0 43 -5 50 -12z m6 -134 c37 -36 14 -74 -48 -81
l-46 -6 0 52 0 51 39 0 c23 0 46 -7 55 -16z"/>
<path d="M20655 11354 c-60 -8 -312 -39 -560 -69 -247 -31 -456 -58 -463 -60
-10 -4 -12 -124 -10 -577 l3 -573 60 1 c60 1 999 109 1065 123 28 5 35 12 34
29 0 12 -1 274 -2 582 -1 308 -5 559 -9 559 -5 -1 -57 -7 -118 -15z m77 -575
c2 -338 0 -523 -7 -528 -5 -5 -75 -16 -155 -24 -296 -33 -836 -97 -867 -103
l-33 -6 0 443 0 444 45 -3 45 -4 0 -110 c0 -108 0 -109 23 -106 21 3 22 8 25
110 l3 107 32 3 c20 2 33 9 35 20 4 21 -56 32 -147 26 l-61 -3 0 68 c0 55 3
67 16 67 10 0 193 22 408 49 474 60 539 68 593 70 l43 1 2 -521z"/>
<path d="M20630 11001 c0 -10 -9 -21 -20 -24 -11 -3 -20 -10 -20 -17 0 -7 9
-14 20 -17 18 -5 20 -14 20 -73 0 -72 16 -100 58 -100 31 0 39 21 14 38 -18
12 -22 24 -22 72 0 49 3 58 20 63 11 3 20 10 20 17 0 7 -9 14 -20 17 -11 3
-20 14 -20 24 0 14 -7 19 -25 19 -18 0 -25 -5 -25 -19z"/>
<path d="M19912 10964 c-12 -8 -22 -24 -22 -35 0 -23 9 -24 36 -4 29 22 64 19
64 -5 0 -16 -7 -20 -33 -20 -45 0 -77 -25 -77 -59 0 -39 22 -64 56 -63 16 1
47 1 69 2 l40 0 -3 83 c-3 68 -7 85 -24 100 -25 21 -76 22 -106 1z m82 -103
c19 -30 -35 -64 -61 -38 -13 12 -12 16 2 31 18 17 50 21 59 7z"/>
<path d="M20090 10878 c0 -91 1 -98 20 -98 17 0 19 8 22 72 3 68 5 73 28 78
15 4 26 14 28 27 3 19 -2 21 -47 20 l-51 -1 0 -98z"/>
<path d="M20231 10953 c-32 -39 -29 -121 5 -158 22 -23 31 -27 64 -22 30 4 37
2 33 -9 -7 -18 -38 -27 -72 -19 -37 8 -48 -9 -19 -29 28 -20 61 -20 97 -1 38
19 41 30 41 154 l0 107 -64 2 c-59 1 -67 -1 -85 -25z m99 -33 c6 -10 8 -36 6
-56 -10 -78 -80 -68 -80 11 0 58 50 89 74 45z"/>
<path d="M20460 10967 c-34 -17 -54 -79 -40 -122 16 -47 45 -70 91 -70 46 0
81 27 61 47 -10 10 -17 10 -32 0 -11 -6 -26 -12 -33 -12 -14 0 -47 31 -47 43
0 4 30 7 66 7 l67 0 -6 42 c-9 69 -64 97 -127 65z m64 -33 c30 -12 18 -34 -19
-34 -38 0 -38 0 -29 24 6 17 22 20 48 10z"/>
<path d="M20125 10617 c-56 -56 -68 -150 -29 -233 29 -61 117 -80 181 -39 26
17 47 61 39 81 -7 19 -46 4 -56 -22 -18 -45 -98 -44 -118 1 -15 32 -16 114 -2
149 18 50 101 61 115 16 8 -25 37 -41 54 -30 21 13 -1 62 -39 88 -51 34 -104
30 -145 -11z"/>
<path d="M5650 11349 c-883 -108 -975 -120 -984 -129 -7 -7 -9 -295 -6 -1064
l0 -89 63 6 c34 4 217 24 407 46 190 22 421 49 514 60 111 13 172 24 177 33 5
7 8 267 6 578 l-2 565 -50 1 c-27 1 -84 -2 -125 -7z m120 -573 l0 -524 -22 -5
c-33 -8 -419 -54 -1013 -120 -20 -2 -20 5 -23 526 -1 290 0 527 3 527 4 0 169
20 368 45 430 53 599 72 650 74 l37 1 0 -524z"/>
<path d="M4847 11072 c-16 -3 -17 -17 -15 -155 l3 -152 25 0 25 0 3 151 c3
158 1 166 -41 156z"/>
<path d="M4960 11031 c0 -21 -5 -31 -15 -31 -8 0 -15 -9 -15 -20 0 -11 7 -20
15 -20 12 0 15 -15 15 -78 0 -95 16 -125 63 -120 38 4 49 33 18 43 -19 6 -21
14 -21 81 0 67 2 74 20 74 12 0 20 7 20 16 0 9 -9 18 -20 21 -11 3 -21 12 -21
19 -1 8 -2 20 -3 27 0 6 -13 13 -28 15 -25 3 -28 0 -28 -27z"/>
<path d="M5545 10994 c-26 -8 -44 -10 -56 -3 -25 13 -83 11 -97 -3 -9 -9 -12
-9 -12 0 0 7 -11 12 -25 12 l-26 0 3 -117 3 -118 25 0 c23 0 24 3 25 55 2 123
3 129 32 136 41 11 53 -16 53 -113 0 -82 0 -83 25 -83 25 0 25 1 25 90 0 86 1
91 25 102 42 19 54 -2 57 -100 l3 -87 28 -3 29 -4 -4 100 c-4 134 -30 165
-113 136z"/>
<path d="M5125 10978 c-31 -28 -46 -84 -34 -135 11 -52 49 -83 102 -83 46 0
87 22 87 47 0 16 -15 15 -77 -3 -14 -4 -28 1 -42 15 -34 34 -26 41 55 41 l77
0 -6 47 c-4 35 -12 53 -32 70 -35 31 -95 31 -130 1z m100 -40 c15 -23 15 -23
-25 -32 -50 -11 -66 1 -44 32 20 28 49 28 69 0z"/>
<path d="M5215 10638 c-3 -7 -29 -78 -59 -158 -30 -79 -53 -147 -51 -151 3 -3
15 -4 28 -2 16 3 28 16 36 39 12 33 13 34 71 34 58 0 59 0 70 -35 10 -29 16
-35 41 -35 16 0 29 3 29 6 0 9 -100 275 -111 296 -11 21 -47 24 -54 6z m64
-183 c-9 -8 -79 -14 -79 -6 0 8 22 75 36 111 4 9 14 -7 26 -43 11 -32 18 -60
17 -62z"/>
<path d="M2450 10635 c-286 -41 -525 -143 -651 -278 -53 -56 -76 -124 -184
-538 -108 -414 -328 -1295 -340 -1361 -4 -23 -1 -57 9 -92 60 -206 333 -231
430 -39 9 18 55 180 101 360 112 433 202 763 209 770 3 4 6 -822 6 -1834 l0
-1840 23 -34 c40 -61 70 -69 262 -69 193 0 224 8 260 70 20 35 20 49 23 1174
2 814 5 1143 13 1153 16 18 202 18 218 0 7 -10 11 -342 13 -1153 3 -1258 -1
-1175 65 -1220 25 -17 48 -19 225 -19 l197 0 35 34 c25 24 38 48 45 83 8 33
11 674 11 2003 0 1075 3 1955 8 1955 10 0 30 -35 221 -401 100 -191 130 -230
206 -265 59 -28 168 -33 232 -10 88 31 829 398 883 437 60 44 94 122 87 198
-15 168 -162 263 -314 202 -26 -11 -182 -85 -347 -165 -164 -80 -306 -146
-315 -146 -30 0 -54 38 -161 245 -192 376 -239 454 -312 527 -112 112 -330
206 -568 244 -133 22 -468 27 -590 9z m642 -74 c244 -51 446 -152 525 -263 29
-41 150 -261 304 -553 41 -77 85 -150 98 -162 47 -45 74 -36 418 133 175 85
338 160 363 166 40 9 53 7 98 -12 123 -53 145 -222 39 -304 -42 -34 -796 -407
-866 -429 -29 -9 -74 -17 -100 -17 -59 0 -143 40 -175 84 -13 17 -85 150 -160
296 -76 146 -147 275 -159 287 -34 34 -71 39 -96 12 l-21 -23 0 -1992 c0
-1882 -1 -1993 -17 -2013 -25 -31 -79 -40 -226 -41 -137 0 -186 12 -206 48 -8
15 -11 359 -11 1147 0 1205 1 1178 -48 1204 -26 14 -237 14 -263 1 -51 -28
-50 18 -49 -1200 1 -1225 3 -1179 -52 -1194 -13 -3 -92 -6 -176 -6 -168 0
-205 9 -222 56 -6 16 -10 718 -10 1866 0 1699 -1 1843 -17 1860 -36 40 -83 8
-107 -74 -8 -29 -30 -114 -50 -188 -19 -74 -51 -196 -71 -270 -20 -74 -65
-246 -100 -382 -68 -265 -81 -295 -145 -328 -122 -62 -260 24 -260 162 0 37
186 799 294 1203 24 94 66 253 91 354 52 208 66 248 107 309 75 110 289 217
538 267 180 37 550 35 732 -4z"/>
<path d="M21950 10643 c-99 -10 -235 -35 -314 -58 -162 -47 -367 -165 -431
-249 -31 -41 -161 -280 -282 -519 -68 -134 -102 -192 -119 -199 -20 -10 -63 8
-336 142 -172 84 -330 159 -352 166 -111 40 -236 -8 -288 -109 -28 -56 -34
-125 -14 -184 30 -91 55 -107 485 -320 218 -107 424 -206 459 -219 121 -46
248 -25 328 54 27 27 167 278 264 472 43 85 78 140 90 140 7 0 10 -424 10
-1220 0 -1189 1 -1222 19 -1259 35 -68 54 -74 246 -79 195 -5 241 3 279 49
l26 31 0 398 0 398 23 6 c41 11 183 7 200 -6 14 -12 16 -55 19 -405 l3 -393
31 -31 c41 -40 69 -45 269 -44 187 2 213 8 244 59 19 30 20 71 23 1113 2 595
5 1079 7 1077 2 -2 25 -86 51 -187 26 -100 65 -247 87 -327 53 -189 107 -394
133 -501 27 -106 53 -154 107 -195 94 -72 221 -64 307 19 47 45 66 92 66 166
0 41 -83 379 -282 1146 -44 171 -100 387 -123 482 -24 95 -53 194 -66 220 -82
171 -408 327 -758 363 -96 9 -331 11 -411 3z m364 -54 c335 -25 658 -164 750
-322 16 -27 60 -181 121 -422 53 -209 135 -528 181 -710 186 -729 178 -693
165 -749 -13 -58 -33 -85 -82 -115 -68 -42 -192 -17 -237 46 -26 37 -30 52
-114 373 -203 784 -208 802 -241 825 -28 19 -33 19 -57 -5 -20 -20 -20 -33
-20 -1109 l0 -1090 -23 -26 -22 -26 -185 1 c-174 0 -185 2 -207 22 l-23 21 0
362 c0 200 -3 376 -6 394 -4 17 -17 42 -30 56 -22 24 -28 25 -142 25 -113 0
-121 -1 -146 -25 l-26 -24 0 -394 c0 -382 -1 -394 -20 -415 -12 -12 -28 -22
-38 -22 -153 -3 -352 1 -365 6 -50 19 -48 -24 -46 1282 2 927 0 1222 -9 1239
-15 28 -42 36 -75 24 -29 -11 -57 -57 -212 -351 -139 -264 -148 -278 -214
-312 -61 -32 -124 -37 -191 -13 -66 23 -841 405 -877 432 -61 46 -85 152 -50
220 39 74 127 115 200 94 45 -14 288 -126 532 -247 169 -83 199 -89 244 -46
17 15 94 150 182 317 83 160 164 312 178 339 94 175 415 322 756 345 164 12
198 12 349 0z"/>
<path d="M3804 8556 c-3 -8 -4 -23 -2 -33 3 -17 64 -18 1456 -21 l1452 -2 0
-270 c0 -149 -3 -270 -7 -270 -5 0 -46 12 -92 25 -47 14 -86 23 -89 21 -5 -6
3 -22 119 -233 52 -95 97 -173 101 -173 9 0 219 402 213 408 -3 3 -33 -4 -68
-16 -34 -11 -73 -22 -87 -24 l-25 -3 4 285 c3 263 2 287 -14 300 -27 22 -2953
28 -2961 6z"/>
<path d="M18236 8554 c-14 -13 -16 -55 -16 -305 0 -159 -4 -289 -8 -289 -5 0
-33 8 -63 18 -82 29 -109 34 -109 22 0 -10 169 -325 207 -388 14 -23 19 -16
124 183 61 114 108 209 106 212 -3 2 -31 -5 -63 -15 -33 -11 -74 -22 -91 -25
l-33 -6 0 269 0 270 1384 0 c962 0 1387 3 1391 11 4 5 4 21 1 35 l-6 24 -1404
0 c-1264 0 -1406 -2 -1420 -16z"/>
<path d="M18643 7440 c-14 -6 -26 -24 -34 -52 -13 -46 -41 -78 -68 -78 -9 0
-33 12 -54 26 -23 15 -45 23 -56 19 -26 -8 -111 -100 -111 -120 0 -8 11 -33
26 -54 41 -62 23 -98 -58 -115 -49 -11 -61 -32 -56 -104 4 -55 8 -68 32 -88
15 -13 38 -24 52 -24 27 0 64 -32 64 -57 0 -9 -24 -40 -53 -69 l-53 -53 -55
20 -55 20 -11 60 c-17 88 -18 89 -144 89 -123 0 -119 3 -138 -91 l-12 -55 -54
-18 -54 -19 -50 33 c-65 41 -82 37 -166 -41 -78 -73 -82 -94 -30 -162 l35 -46
-21 -54 -21 -54 -54 -7 c-31 -3 -66 -14 -80 -22 -23 -15 -24 -21 -24 -114 0
-120 11 -138 94 -149 31 -4 57 -10 59 -12 1 -2 13 -26 25 -53 l23 -49 -28 -40
c-15 -22 -32 -45 -37 -52 -14 -19 1 -61 37 -102 36 -41 104 -93 121 -93 7 0
35 15 65 34 l53 34 51 -23 c50 -22 52 -24 63 -79 18 -88 29 -96 144 -96 87 0
99 2 118 23 13 13 23 42 28 75 7 53 7 54 61 78 l54 24 52 -35 c28 -19 62 -35
75 -35 16 0 45 21 88 66 80 82 83 97 32 169 l-31 44 24 58 25 58 53 5 c78 8
91 28 91 143 0 109 -8 122 -91 139 -57 12 -58 13 -78 61 -12 27 -21 54 -21 58
0 5 13 28 30 50 22 31 28 48 23 70 -6 31 4 37 36 19 11 -5 21 -26 25 -49 10
-62 25 -71 119 -71 92 0 100 5 112 74 5 25 15 41 33 50 22 12 30 10 69 -11 56
-32 78 -26 136 36 51 54 51 59 9 124 -33 49 -21 81 33 91 58 11 85 45 85 105
0 86 -17 109 -91 125 -17 4 -31 16 -38 35 -11 26 -9 33 19 73 38 54 35 63 -41
132 -55 49 -70 54 -89 32 -18 -23 -76 -39 -97 -27 -10 5 -22 30 -28 57 -7 36
-17 52 -35 61 -28 14 -124 16 -157 3z m119 -112 c3 -42 4 -43 72 -76 l68 -33
36 21 c39 23 82 20 82 -6 0 -8 -11 -30 -25 -48 l-25 -33 30 -69 c17 -38 33
-70 35 -73 3 -2 22 -7 42 -10 35 -6 38 -9 38 -41 0 -32 -3 -36 -44 -50 -40
-14 -47 -21 -72 -77 l-27 -61 29 -40 30 -41 -22 -20 c-23 -21 -26 -20 -71 12
-26 19 -26 19 -96 -8 -70 -27 -71 -28 -82 -76 -11 -47 -14 -49 -46 -49 -21 0
-34 5 -34 13 0 6 -5 28 -10 47 -8 31 -18 39 -76 64 -64 28 -68 29 -95 13 -26
-15 -30 -14 -51 3 -22 18 -22 18 -5 55 18 37 18 38 -12 101 -28 60 -32 64 -76
75 -43 11 -46 14 -43 42 3 26 9 32 49 43 43 13 48 18 63 61 29 81 30 90 7 119
-26 33 -26 46 -2 68 18 17 21 16 59 -5 37 -21 43 -22 81 -9 75 24 100 46 107
90 6 39 8 40 45 40 37 0 38 0 41 -42z m-676 -604 l9 -67 85 -33 c47 -18 91
-33 97 -33 7 -1 30 15 51 34 l38 34 57 -40 57 -40 -41 -54 -40 -54 29 -68 c16
-37 33 -78 36 -90 7 -21 14 -24 99 -38 l37 -6 0 -69 0 -70 -54 0 c-31 0 -58
-5 -64 -13 -22 -26 -82 -180 -77 -197 3 -9 19 -30 35 -46 16 -16 30 -35 30
-41 0 -15 -68 -93 -81 -93 -5 0 -32 16 -59 36 -55 40 -51 40 -155 -4 l-70 -29
-15 -62 c-8 -34 -22 -66 -30 -71 -22 -14 -110 -12 -115 3 -2 6 -6 38 -10 69
-6 55 -8 57 -43 69 -20 6 -56 22 -79 35 -56 32 -72 30 -128 -12 l-47 -37 -45
46 -45 45 40 51 41 51 -28 63 c-16 34 -31 75 -35 90 -8 33 -39 47 -102 47
l-44 0 0 39 c0 21 -3 52 -6 69 -6 30 -5 31 42 37 89 11 95 14 110 53 9 20 24
56 35 79 10 24 19 47 19 53 0 9 -34 64 -65 106 -5 7 -7 14 -4 16 2 2 23 21 46
42 l43 40 54 -38 55 -37 85 33 c92 36 106 51 106 117 0 21 3 41 7 44 3 4 34 7
68 7 l62 0 9 -66z"/>
<path d="M18617 7124 c-52 -35 -91 -118 -84 -180 13 -121 146 -198 260 -151
46 20 103 87 111 131 11 58 -16 134 -64 181 -39 38 -44 40 -113 42 -63 3 -77
0 -110 -23z m161 -70 c36 -24 55 -78 42 -118 -22 -68 -82 -98 -143 -73 -61 26
-88 115 -49 164 40 51 97 61 150 27z"/>
<path d="M17910 6453 c-105 -45 -164 -134 -164 -248 0 -113 56 -204 153 -248
61 -28 169 -29 226 -2 56 27 129 104 143 152 19 64 15 160 -9 210 -26 54 -105
126 -157 141 -53 16 -149 14 -192 -5z m189 -77 c39 -21 87 -77 101 -121 26
-78 -17 -183 -93 -225 -82 -47 -202 -17 -255 62 -50 76 -38 194 24 249 55 48
164 65 223 35z"/>
<path d="M6385 7429 c-139 -8 -378 -48 -480 -79 -88 -27 -180 -76 -206 -108
-43 -56 -35 -71 280 -497 214 -289 275 -370 406 -539 l69 -89 7 -101 c4 -56 8
-210 8 -342 1 -264 3 -273 57 -260 32 8 295 123 383 168 36 18 74 45 84 60 21
29 26 82 27 329 l0 136 108 144 c60 79 191 254 292 389 100 135 210 279 244
320 145 179 166 233 109 292 -82 86 -346 155 -687 178 -161 11 -524 11 -701
-1z m631 -53 c212 -9 434 -42 574 -87 74 -23 160 -74 160 -95 0 -7 -21 -25
-48 -38 -256 -130 -947 -176 -1517 -101 -126 17 -340 67 -388 91 -37 19 -67
44 -67 55 0 15 103 69 170 89 103 31 323 68 475 80 215 17 345 18 641 6z
m-1096 -327 c466 -120 1298 -112 1715 15 27 8 50 14 51 13 1 -1 -30 -43 -70
-92 -89 -110 -622 -820 -638 -849 -8 -13 -13 -101 -16 -238 -3 -140 -8 -223
-16 -232 -11 -14 -396 -186 -416 -186 -6 0 -10 88 -10 248 0 260 -11 403 -32
432 -161 212 -675 898 -682 909 -7 11 -4 13 15 7 13 -4 58 -16 99 -27z"/>
<path d="M17991 7298 c-10 -27 1 -53 29 -68 32 -17 24 -25 -41 -37 -121 -23
-259 -118 -344 -238 -51 -70 -53 -95 -8 -95 22 0 35 11 62 51 38 56 113 123
181 162 50 28 167 63 177 53 4 -3 -6 -19 -20 -34 -34 -36 -35 -60 -1 -68 22
-6 35 2 90 57 35 35 67 72 70 82 7 22 -34 69 -107 123 -54 40 -76 43 -88 12z"/>
<path d="M9350 6505 l0 -205 34 0 c19 0 36 6 39 13 4 10 7 10 18 0 7 -7 33
-13 57 -13 79 0 123 73 107 178 -12 78 -34 106 -92 117 -21 4 -43 0 -63 -10
l-30 -16 0 71 0 70 -35 0 -35 0 0 -205z m154 29 c24 -9 38 -75 27 -125 -13
-60 -44 -75 -89 -43 -19 13 -22 24 -22 79 0 55 3 66 22 79 24 17 38 19 62 10z"/>
<path d="M10141 6688 c-17 -46 29 -79 59 -43 10 12 10 21 2 40 -15 32 -50 33
-61 3z"/>
<path d="M14962 6698 c-18 -18 -15 -56 7 -63 30 -9 51 5 51 35 0 36 -34 52
-58 28z"/>
<path d="M15572 6701 c-8 -5 -12 -21 -10 -37 2 -23 9 -30 30 -32 31 -4 46 25
28 58 -11 21 -27 25 -48 11z"/>
<path d="M16448 6685 c-8 -19 -8 -28 2 -40 30 -36 83 3 60 45 -15 28 -48 25
-62 -5z"/>
<path d="M14172 6683 c-96 -47 -130 -199 -69 -307 28 -51 75 -78 136 -79 64
-1 110 26 139 83 20 39 23 57 20 131 -3 76 -6 90 -32 123 -48 63 -126 83 -194
49z m102 -53 c36 -13 56 -59 56 -130 0 -80 -22 -127 -64 -138 -40 -11 -59 -6
-87 25 -32 33 -40 153 -14 202 23 45 61 60 109 41z"/>
<path d="M7844 6677 c-2 -7 -3 -94 -2 -192 l3 -180 33 -3 32 -3 0 70 0 71 60
0 c112 0 160 38 160 125 -1 54 -13 78 -57 107 -22 14 -48 18 -126 18 -70 0
-99 -4 -103 -13z m198 -64 c22 -20 23 -61 2 -91 -13 -19 -24 -22 -75 -22 l-59
0 0 63 c0 35 3 67 8 71 11 12 105 -4 124 -21z"/>
<path d="M14787 6664 c-4 -4 -7 -23 -7 -42 0 -29 -3 -34 -20 -29 -11 3 -23 1
-26 -4 -10 -17 7 -49 27 -49 17 0 19 -8 19 -98 0 -122 11 -142 76 -142 44 0
45 1 42 28 -2 19 -9 28 -25 30 -22 3 -23 8 -23 93 0 88 0 89 25 89 20 0 25 5
25 25 0 20 -5 25 -24 25 -21 0 -25 5 -28 38 -3 31 -7 37 -28 40 -14 2 -29 0
-33 -4z"/>
<path d="M8690 6625 c0 -31 -3 -35 -26 -35 -21 0 -25 -4 -22 -22 2 -15 11 -24
26 -26 21 -3 22 -7 22 -103 0 -117 13 -139 79 -139 45 0 53 7 44 38 -3 15 -13
22 -29 22 -24 0 -24 2 -24 90 0 89 0 90 25 90 20 0 25 5 25 25 0 20 -5 25 -25
25 -22 0 -25 4 -25 35 0 33 -2 35 -35 35 -33 0 -35 -2 -35 -35z"/>
<path d="M9960 6625 c0 -28 -4 -35 -20 -35 -15 0 -20 -7 -20 -25 0 -18 5 -25
20 -25 19 0 20 -7 20 -95 0 -121 12 -145 76 -145 48 0 56 6 47 38 -3 15 -13
22 -29 22 -24 0 -24 2 -24 90 0 89 0 90 25 90 20 0 25 5 25 25 0 20 -5 25 -25
25 -22 0 -25 4 -25 35 0 33 -2 35 -35 35 -33 0 -35 -2 -35 -35z"/>
<path d="M16270 6625 c0 -28 -4 -35 -20 -35 -15 0 -20 -7 -20 -25 0 -18 5 -25
20 -25 19 0 20 -7 20 -91 0 -122 14 -149 83 -149 34 0 37 2 37 29 0 23 -5 30
-22 33 -22 3 -23 8 -26 91 l-3 87 26 0 c20 0 25 5 25 25 0 14 -4 26 -10 26 -5
1 -16 2 -22 3 -7 0 -14 16 -16 34 -3 29 -6 32 -38 32 -32 0 -34 -2 -34 -35z"/>
<path d="M8229 6577 c-45 -30 -59 -61 -59 -132 0 -100 42 -144 140 -145 78 0
116 29 91 69 -8 12 -15 12 -45 -3 -39 -18 -68 -15 -98 12 -37 32 -22 41 74 44
l93 3 -3 40 c-6 65 -27 104 -66 120 -50 21 -88 19 -127 -8z m105 -53 c9 -8 16
-24 16 -35 0 -18 -6 -20 -52 -17 -58 3 -69 17 -39 47 25 25 54 27 75 5z"/>
<path d="M8585 6593 c-11 -3 -26 -10 -32 -15 -9 -7 -13 -7 -13 1 0 6 -16 11
-35 11 l-35 0 0 -145 0 -145 35 0 35 0 0 105 c0 93 2 105 19 115 11 5 29 10
40 10 17 0 21 6 21 35 0 19 -3 34 -7 34 -5 -1 -17 -4 -28 -6z"/>
<path d="M9246 6583 c-13 -13 -20 -15 -23 -5 -3 6 -21 12 -40 12 -36 0 -36 0
-29 -37 3 -21 6 -87 6 -146 l0 -108 32 3 32 3 3 100 c4 108 13 125 61 125 20
0 23 4 20 33 -4 38 -33 48 -62 20z"/>
<path d="M9704 6584 c-32 -16 -59 -58 -48 -76 9 -15 60 -2 83 21 23 23 57 18
72 -10 14 -28 3 -39 -40 -39 -50 0 -99 -18 -111 -40 -16 -29 -12 -86 8 -110
22 -28 103 -40 129 -19 13 11 17 11 20 2 3 -7 21 -13 40 -13 l36 0 -5 113 c-3
62 -10 123 -17 135 -26 48 -107 66 -167 36z m111 -179 c0 -21 -7 -33 -27 -45
-34 -19 -62 -5 -66 32 -2 21 3 28 25 36 47 18 68 11 68 -23z"/>
<path d="M10155 6593 c-19 -4 -20 -12 -20 -146 l0 -142 33 -3 32 -3 0 150 c0
115 -3 151 -12 150 -7 -1 -22 -4 -33 -6z"/>
<path d="M10322 6579 c-44 -29 -62 -67 -62 -134 0 -100 41 -145 132 -145 89 0
128 45 128 147 0 71 -26 118 -75 139 -47 19 -84 17 -123 -7z m110 -56 c23 -27
30 -69 18 -113 -16 -59 -62 -78 -100 -40 -25 25 -28 114 -4 148 19 27 64 29
86 5z"/>
<path d="M10675 6584 c-20 -12 -30 -13 -33 -5 -2 6 -19 11 -38 11 l-35 0 3
-142 3 -143 33 -3 32 -3 0 104 c0 88 3 106 18 120 21 19 45 21 73 7 17 -10 19
-22 19 -120 l0 -110 35 0 36 0 -2 96 c-2 107 -11 160 -31 180 -22 22 -80 26
-113 8z"/>
<path d="M14558 6586 c-16 -9 -30 -11 -33 -5 -4 5 -19 9 -36 9 l-29 0 0 -200
0 -200 35 0 35 0 0 65 c0 62 1 65 19 55 11 -5 37 -10 58 -10 31 0 46 7 68 30
26 27 30 39 33 104 5 85 -12 127 -58 151 -36 19 -57 19 -92 1z m66 -68 c24
-34 21 -123 -4 -148 -23 -23 -29 -24 -64 -10 -25 9 -26 13 -26 84 0 61 3 77
18 85 28 17 60 12 76 -11z"/>
<path d="M14950 6450 l0 -150 35 0 35 0 0 144 c0 141 0 144 -22 150 -49 13
-48 14 -48 -144z"/>
<path d="M15181 6582 c-18 -12 -25 -14 -29 -4 -2 6 -19 12 -38 12 l-34 0 0
-145 0 -145 35 0 35 0 0 103 c0 88 3 106 18 120 25 22 55 21 76 -2 14 -15 17
-36 16 -102 -2 -129 -4 -121 32 -117 l32 3 1 102 c1 108 10 133 49 133 41 0
45 -12 48 -125 l3 -110 33 -3 32 -3 0 121 c0 121 0 122 -29 151 -34 34 -72 37
-116 11 -29 -18 -31 -18 -60 0 -37 22 -72 22 -104 0z"/>
<path d="M15558 6593 c-3 -4 -3 -72 0 -150 l4 -143 29 0 c32 0 31 -7 33 205
l1 90 -32 3 c-17 2 -33 -1 -35 -5z"/>
<path d="M15793 6592 c-112 -3 -113 -3 -113 -27 0 -23 3 -24 71 -27 l70 -3
-70 -94 c-41 -54 -71 -104 -71 -118 0 -23 1 -23 120 -23 l120 0 0 30 0 29 -74
3 -75 3 70 92 c49 64 69 99 67 115 -3 23 -5 23 -115 20z"/>
<path d="M16024 6590 c-26 -10 -66 -59 -58 -71 9 -15 71 -10 78 6 7 18 47 20
64 3 7 -7 12 -20 12 -30 0 -15 -8 -18 -45 -18 -55 0 -101 -22 -111 -52 -23
-71 16 -128 90 -128 23 0 48 6 55 13 11 10 14 10 18 0 3 -7 20 -13 39 -13 l34
0 0 100 c0 117 -14 161 -59 184 -32 17 -83 20 -117 6z m106 -181 c0 -54 -93
-81 -100 -29 -5 31 1 40 33 48 42 11 67 4 67 -19z"/>
<path d="M16444 6585 c-3 -6 -3 -72 -2 -146 l3 -134 33 -3 32 -3 0 149 0 149
-31 0 c-17 0 -33 -5 -35 -12z"/>
<path d="M16633 6581 c-18 -11 -39 -34 -48 -50 -18 -36 -19 -137 -1 -169 45
-81 189 -83 231 -2 9 17 15 56 15 95 0 60 -3 68 -33 101 -28 31 -41 37 -83 41
-37 3 -57 -1 -81 -16z m109 -58 c23 -27 29 -90 13 -129 -26 -62 -96 -54 -114
12 -19 70 9 134 59 134 15 0 34 -8 42 -17z"/>
<path d="M16981 6584 c-18 -13 -26 -14 -29 -6 -2 7 -19 12 -38 12 l-35 0 3
-142 3 -143 33 -3 32 -3 0 105 c0 113 9 136 54 136 45 0 56 -28 56 -138 l0
-102 30 0 30 0 0 124 c0 103 -3 127 -17 145 -25 29 -91 37 -122 15z"/>
<path d="M8858 6473 c4 -142 15 -166 80 -171 23 -2 51 2 64 9 16 9 23 9 26 0
2 -6 19 -11 38 -11 l34 0 0 145 0 145 -35 0 -35 0 0 -98 c0 -99 -7 -123 -40
-134 -8 -3 -25 -2 -37 3 -22 8 -23 13 -23 119 l0 110 -38 0 -37 0 3 -117z"/>
<path d="M20062 6416 c5 -41 5 -41 -27 -20 -24 16 -45 12 -45 -7 0 -6 15 -16
32 -24 l33 -13 -27 -12 c-15 -7 -29 -19 -32 -26 -9 -24 14 -26 46 -3 l31 22
-7 -36 c-6 -33 -5 -37 13 -37 17 0 20 5 15 30 -7 34 -3 36 32 14 20 -13 28
-14 37 -5 12 12 -2 29 -37 46 -8 4 -8 6 0 10 35 17 49 34 37 45 -9 10 -17 9
-34 -4 -34 -23 -41 -20 -37 16 2 26 -1 34 -16 36 -16 3 -18 -1 -14 -32z"/>
<path d="M18996 6418 c-2 -7 -11 -51 -20 -98 -18 -100 -74 -220 -138 -297 -24
-28 -45 -52 -48 -52 -3 -1 -3 26 -2 59 3 54 2 60 -16 60 -11 0 -24 -6 -29 -12
-19 -24 -43 -113 -45 -172 l-3 -60 35 -7 c19 -4 70 -9 113 -11 l77 -5 0 39 c0
38 0 38 -40 38 l-40 0 56 73 c96 124 162 280 167 397 l2 55 -33 3 c-20 2 -34
-2 -36 -10z"/>
<path d="M24048 6423 c-10 -2 -18 -10 -18 -17 0 -7 35 -62 77 -122 113 -161
123 -176 123 -184 0 -5 -45 -67 -100 -139 -55 -71 -100 -135 -100 -141 0 -7
83 -10 248 -10 l248 0 17 53 c18 56 22 107 10 107 -5 -1 -17 -15 -28 -32 -43
-68 -58 -72 -251 -76 -95 -3 -174 -1 -174 3 0 3 22 34 50 68 118 148 149 190
144 198 -3 5 -44 64 -90 132 l-86 122 137 3 c170 3 207 -6 263 -65 47 -51 50
-46 26 39 -16 57 -17 58 -53 58 -20 0 -124 2 -231 4 -107 3 -203 2 -212 -1z"/>
<path d="M26650 6393 c-73 -83 -113 -235 -93 -355 16 -90 47 -168 89 -216 54
-63 78 -52 29 13 -50 65 -68 138 -68 275 0 136 16 199 68 270 45 61 25 71 -25
13z"/>
<path d="M27000 6423 c0 -5 14 -27 30 -51 39 -58 61 -138 67 -247 8 -129 -16
-213 -89 -317 -23 -32 2 -32 36 1 134 130 137 435 6 584 -30 35 -50 47 -50 30z"/>
<path d="M25615 6380 c-3 -5 -31 -17 -61 -26 -62 -18 -69 -41 -11 -36 l37 4 0
-175 c0 -189 1 -187 -56 -187 -24 0 -34 -15 -14 -22 22 -7 210 4 210 13 0 5
-15 9 -34 9 -19 0 -37 4 -40 9 -3 4 -6 99 -6 209 -1 183 -7 231 -25 202z"/>
<path d="M26814 6308 c-7 -44 -42 -88 -69 -88 -8 0 -15 -4 -15 -10 0 -5 14
-10 30 -10 l30 0 0 -110 c0 -104 1 -112 25 -135 50 -51 111 -21 121 58 5 32 3
47 -5 47 -6 0 -11 -11 -11 -24 0 -42 -18 -76 -39 -76 -32 0 -41 31 -41 139 l0
101 50 0 c77 0 63 23 -20 32 -23 3 -25 8 -28 61 -4 67 -19 75 -28 15z"/>
<path d="M21081 6216 c-30 -32 -25 -70 10 -74 31 -4 46 22 27 45 -9 11 -9 16
3 24 40 25 85 -2 91 -55 3 -28 0 -30 -50 -41 -92 -21 -137 -73 -116 -132 18
-52 117 -68 159 -27 15 15 17 15 28 -1 9 -11 24 -16 47 -13 29 3 35 8 43 37 4
18 6 40 3 48 -9 23 -26 5 -26 -28 0 -19 -5 -29 -15 -29 -12 0 -15 16 -15 84 0
118 -7 145 -44 167 -46 28 -116 26 -145 -5z m134 -173 c-8 -57 -29 -83 -65
-83 -33 0 -50 17 -50 50 0 45 40 79 94 80 28 0 28 0 21 -47z"/>
<path d="M21350 6232 c-18 -6 -11 -22 15 -32 24 -9 25 -12 25 -115 0 -103 -1
-106 -25 -115 -48 -18 -26 -30 56 -30 60 0 80 3 77 13 -3 6 -17 13 -31 15 -27
3 -27 4 -27 86 0 46 5 97 11 114 11 32 39 52 39 27 0 -8 10 -19 21 -26 30 -15
56 9 40 39 -15 29 -38 34 -78 17 -44 -18 -43 -18 -43 0 0 11 -9 14 -35 12 -19
-1 -39 -3 -45 -5z"/>
<path d="M21648 6223 c-34 -22 -53 -64 -43 -100 4 -16 8 -59 10 -97 3 -57 -1
-74 -17 -97 -25 -34 -15 -73 26 -103 22 -17 42 -21 101 -21 64 0 77 3 100 25
39 36 48 65 30 100 -21 40 -59 58 -130 61 -65 2 -85 12 -85 39 0 14 8 16 55
12 50 -4 56 -2 86 27 30 30 31 35 25 87 -7 57 2 68 33 40 23 -21 51 -4 35 21
-11 17 -27 19 -99 13 -5 0 -30 2 -55 5 -33 4 -52 1 -72 -12z m100 -74 c2 -42
-1 -61 -13 -73 -36 -35 -75 -6 -75 55 0 59 15 81 53 77 31 -3 32 -4 35 -59z
m54 -226 c23 -21 23 -34 -3 -67 -17 -22 -28 -26 -73 -26 -79 0 -122 43 -89 89
12 18 25 21 80 21 48 0 72 -5 85 -17z"/>
<path d="M21908 6233 c-22 -6 -12 -33 13 -33 18 0 19 -9 19 -116 0 -107 -1
-116 -20 -121 -43 -11 -17 -23 50 -23 44 0 70 4 70 11 0 6 -9 13 -21 16 -20 5
-21 11 -17 110 3 115 13 133 69 133 35 0 39 -12 39 -135 0 -95 -2 -104 -20
-110 -41 -13 -18 -25 50 -25 44 0 70 4 70 11 0 6 -9 13 -20 16 -18 5 -20 14
-20 89 0 120 16 154 73 154 34 0 34 -1 42 -127 6 -100 1 -117 -29 -118 -5 0
-11 -6 -13 -12 -4 -10 15 -13 71 -13 75 0 100 12 51 24 -24 6 -25 8 -25 100 0
137 -19 176 -85 176 -29 0 -85 -29 -85 -43 0 -5 -14 3 -32 18 -27 23 -39 26
-72 22 -24 -4 -48 -14 -58 -27 l-17 -20 -3 22 c-2 18 -10 23 -33 25 -16 0 -38
-1 -47 -4z"/>
<path d="M22456 6217 c-29 -29 -33 -58 -12 -76 11 -9 20 -10 35 -1 22 11 28
35 11 45 -16 10 8 35 32 35 27 0 70 -46 66 -72 -2 -17 -14 -24 -56 -34 -66
-14 -103 -41 -114 -80 -12 -44 -2 -68 37 -87 45 -21 65 -21 110 0 30 14 38 15
44 4 12 -20 62 -17 78 5 15 21 18 74 3 74 -5 0 -10 -4 -10 -9 0 -5 -5 -22 -11
-38 -18 -47 -29 -8 -29 103 0 94 -2 102 -25 124 -18 17 -40 25 -79 28 -48 4
-57 1 -80 -21z m132 -157 c5 -50 -6 -78 -36 -94 -56 -29 -103 26 -67 80 16 25
71 56 90 50 6 -1 11 -17 13 -36z"/>
<path d="M19640 6221 c0 -5 10 -15 22 -23 13 -9 39 -59 68 -134 52 -131 52
-146 3 -212 -28 -37 -43 -34 -43 9 0 23 -4 30 -16 27 -26 -5 -41 -35 -28 -55
13 -21 62 -35 84 -23 23 12 61 87 115 230 33 87 56 133 76 151 16 14 29 29 29
32 0 4 -22 7 -50 7 -50 0 -64 -12 -39 -37 8 -8 4 -28 -14 -75 -13 -34 -27 -72
-31 -83 -6 -16 -15 -2 -43 65 -31 75 -33 85 -19 96 32 23 17 34 -49 34 -36 0
-65 -4 -65 -9z"/>
<path d="M22710 6220 c0 -6 11 -15 24 -20 20 -7 79 -70 100 -107 11 -20 -52
-103 -90 -119 -51 -21 -41 -34 26 -34 60 0 70 6 49 27 -8 8 -5 22 12 52 12 23
25 41 28 41 3 0 18 -19 33 -42 22 -36 25 -44 13 -51 -32 -17 -12 -27 55 -27
69 0 93 14 45 26 -21 5 -98 93 -110 126 -7 18 71 106 97 110 12 2 23 9 26 16
3 9 -13 12 -58 12 -62 0 -62 0 -56 -26 7 -27 -15 -74 -34 -74 -16 0 -39 55
-33 78 5 21 2 22 -61 22 -38 0 -66 -4 -66 -10z"/>
<path d="M20424 6179 c-3 -6 0 -15 7 -20 16 -11 374 -8 384 3 4 4 4 11 0 17
-9 15 -381 15 -391 0z"/>
<path d="M26038 6103 c-60 -68 -84 -203 -55 -304 17 -56 69 -130 83 -116 5 4
4 14 -1 21 -39 53 -47 72 -56 133 -13 90 -3 164 32 230 28 53 26 69 -3 36z"/>
<path d="M26342 6113 c2 -5 16 -33 33 -63 26 -50 29 -64 30 -150 0 -88 -2 -99
-32 -153 -35 -64 -28 -85 11 -34 43 56 59 106 58 182 0 78 -20 142 -58 192
-22 29 -52 47 -42 26z"/>
<path d="M20420 6045 c0 -13 25 -15 198 -13 123 2 197 7 197 13 0 6 -74 11
-197 13 -173 2 -198 0 -198 -13z"/>
<path d="M23630 6038 c-42 -12 -60 -25 -70 -53 -13 -35 1 -38 31 -6 48 53 59
43 44 -38 -19 -100 -35 -153 -52 -180 l-15 -23 74 3 c62 4 83 10 124 34 87 54
123 138 88 203 -33 61 -129 87 -224 60z m156 -62 c26 -26 34 -43 34 -69 0 -68
-74 -137 -147 -137 -18 0 -33 2 -33 4 0 2 6 31 14 63 8 32 20 84 26 116 11 54
13 57 42 57 21 0 40 -10 64 -34z"/>
<path d="M25050 6024 c-12 -30 -13 -64 -2 -64 4 0 13 14 19 30 10 26 16 30 47
30 l37 0 -3 -127 -3 -128 -29 3 c-20 3 -27 0 -24 -10 3 -9 27 -14 71 -16 56
-2 67 0 67 13 0 10 -7 15 -17 13 -16 -3 -18 8 -18 122 l0 125 41 3 c37 3 42 0
48 -22 10 -40 26 -31 26 14 l0 40 -125 0 c-125 0 -125 0 -135 -26z"/>
<path d="M24651 5990 c-7 -23 -18 -40 -26 -40 -8 0 -15 -4 -15 -10 0 -5 7 -10
15 -10 12 0 15 -14 16 -62 1 -87 10 -111 43 -123 24 -8 31 -6 47 14 20 25 26
71 9 71 -5 0 -10 -11 -10 -24 0 -13 -6 -29 -14 -35 -24 -20 -37 11 -34 86 3
65 4 68 28 68 38 0 40 20 3 23 -31 3 -33 6 -33 43 0 50 -14 50 -29 -1z"/>
<path d="M27255 5983 c-5 -20 -2 -31 11 -40 10 -7 21 -13 24 -13 3 0 14 6 24
13 13 9 16 20 11 40 -6 21 -13 27 -35 27 -22 0 -29 -6 -35 -27z"/>
<path d="M25793 5987 c-33 -41 -14 -78 52 -100 66 -23 57 -80 -10 -63 -14 4
-28 14 -31 24 -15 44 -18 44 -24 2 -8 -52 -4 -66 15 -50 9 7 20 8 32 2 29 -15
82 4 89 33 12 47 -8 77 -62 94 -58 19 -67 44 -16 49 27 3 34 -1 42 -23 12 -32
30 -24 30 14 0 27 -2 28 -54 30 -32 0 -57 -4 -63 -12z"/>
<path d="M23395 5979 c-17 -4 -44 -22 -60 -39 -26 -27 -30 -39 -30 -85 0 -50
3 -58 38 -92 35 -36 41 -38 100 -38 82 0 90 19 10 25 -64 5 -105 30 -116 71
-5 18 1 19 84 19 72 0 89 3 89 15 0 12 -16 15 -85 15 -77 0 -85 2 -85 19 0 11
14 31 31 45 25 21 41 26 85 26 41 0 54 4 54 15 0 17 -63 20 -115 4z"/>
<path d="M24872 5973 c-90 -44 -105 -159 -29 -217 40 -31 77 -40 122 -32 51
10 43 26 -12 26 -55 0 -108 27 -118 60 -4 12 -5 24 -2 26 3 3 40 7 83 8 48 2
79 7 82 14 3 9 -21 12 -82 12 -95 0 -102 6 -65 53 23 30 86 51 124 41 19 -5
25 -2 25 10 0 22 -83 21 -128 -1z"/>
<path d="M26095 5971 c-3 -5 3 -12 12 -15 18 -6 83 -149 83 -181 0 -18 -29
-65 -40 -65 -4 0 -10 9 -13 20 -6 24 -25 26 -33 5 -9 -21 14 -45 42 -45 29 0
41 18 95 148 23 57 48 106 56 109 28 11 13 33 -22 33 -35 0 -43 -8 -26 -25 6
-6 1 -31 -11 -63 -11 -30 -24 -50 -28 -45 -15 17 -39 103 -29 108 5 4 9 10 9
16 0 12 -87 12 -95 0z"/>
<path d="M23050 5940 c0 -5 6 -13 13 -17 22 -13 79 -162 73 -188 -3 -12 -15
-33 -26 -46 l-19 -24 -1 22 c0 26 -18 39 -32 25 -19 -19 1 -52 31 -52 37 0 43
8 96 136 25 60 52 114 60 120 26 19 17 34 -20 34 -33 0 -35 -2 -29 -25 7 -27
-23 -121 -34 -110 -15 15 -41 100 -32 103 6 2 10 10 10 18 0 10 -13 14 -45 14
-25 0 -45 -4 -45 -10z"/>
<path d="M18225 5298 c-3 -8 -4 -177 -3 -376 2 -248 0 -362 -8 -362 -5 0 -48
11 -94 24 -47 14 -86 23 -88 21 -2 -2 33 -70 78 -152 46 -81 98 -177 117 -212
l35 -63 67 128 c37 71 89 166 115 212 27 46 46 85 43 88 -3 3 -42 -6 -87 -20
-44 -14 -87 -26 -95 -26 -12 0 -14 58 -14 373 l0 372 -30 3 c-19 2 -33 -2 -36
-10z"/>
<path d="M6710 4905 c0 -397 13 -360 -114 -320 -44 14 -81 23 -84 21 -2 -2 28
-60 66 -128 38 -67 91 -163 117 -212 l48 -89 19 39 c11 21 63 117 115 212 53
95 93 175 91 178 -3 2 -41 -7 -84 -21 -44 -13 -86 -25 -94 -25 -14 0 -16 39
-13 345 l3 345 -35 0 -35 0 0 -345z"/>
<path d="M14436 4924 c-9 -8 -16 -19 -16 -24 0 -13 30 -40 44 -40 35 0 48 53
17 70 -25 13 -27 13 -45 -6z"/>
<path d="M13515 4918 c-16 -6 -38 -17 -47 -26 -27 -23 -33 -78 -14 -118 16
-34 31 -43 143 -89 46 -19 60 -43 44 -74 -24 -44 -125 -33 -137 15 -5 19 -13
24 -40 24 -19 0 -34 -5 -34 -10 0 -24 30 -79 48 -89 41 -22 106 -30 154 -20
60 13 88 46 88 102 0 32 -6 46 -34 72 -19 17 -55 38 -81 45 -83 23 -116 67
-79 104 31 32 124 9 124 -30 0 -9 11 -14 35 -14 39 0 41 6 21 54 -24 56 -112
82 -191 54z"/>
<path d="M14078 4863 c-2 -31 -7 -39 -25 -41 -17 -3 -23 -10 -23 -28 0 -19 5
-24 26 -24 l27 0 -6 -82 c-9 -133 14 -172 96 -160 24 4 28 9 25 31 -2 21 -8
25 -25 23 -22 -3 -23 -1 -23 92 0 91 1 95 23 98 14 2 23 11 25 25 3 17 -2 22
-25 25 -25 3 -28 7 -28 38 0 32 -3 35 -32 38 -30 3 -32 1 -35 -35z"/>
<path d="M14258 4863 c-2 -31 -7 -39 -26 -41 -31 -5 -27 -46 6 -50 21 -3 22
-7 22 -106 0 -86 3 -105 18 -118 25 -22 50 -29 78 -22 20 5 24 12 22 33 -2 18
-9 26 -23 26 -18 0 -20 8 -23 93 l-3 92 26 0 c20 0 25 5 25 25 0 20 -5 25 -25
25 -22 0 -25 4 -25 40 0 39 -1 40 -34 40 -33 0 -35 -2 -38 -37z"/>
<path d="M13831 4812 c-66 -35 -92 -140 -55 -218 21 -45 60 -64 128 -64 44 0
61 5 83 24 26 23 27 26 11 42 -16 17 -19 17 -51 -1 -42 -22 -80 -15 -103 20
-9 14 -15 28 -12 30 2 3 45 6 94 7 l89 3 -2 42 c-2 58 -28 102 -68 119 -46 19
-73 18 -114 -4z m90 -52 c10 -6 19 -20 19 -30 0 -18 -7 -20 -55 -20 -59 0 -63
4 -39 38 16 24 44 28 75 12z"/>
<path d="M14448 4822 c-16 -3 -18 -18 -18 -148 l0 -144 35 0 35 0 0 144 c0
129 -2 144 -17 148 -10 2 -26 2 -35 0z"/>
<path d="M14573 4823 c-10 -4 -13 -43 -13 -149 l0 -144 35 0 35 0 0 100 c0 87
3 103 20 120 26 26 66 26 80 1 5 -11 10 -65 10 -120 l0 -101 35 0 35 0 0 93
c0 103 -12 159 -41 188 -23 23 -69 25 -111 3 -24 -13 -32 -13 -39 -3 -8 14
-27 19 -46 12z"/>
<path d="M14922 4817 c-78 -44 -93 -188 -26 -254 26 -27 40 -33 76 -33 24 0
49 5 55 11 19 19 26 -10 9 -36 -13 -20 -25 -25 -56 -25 -22 0 -49 6 -60 12
-16 10 -23 10 -36 -4 -45 -45 89 -92 161 -57 61 30 67 51 70 228 3 154 2 161
-18 167 -14 4 -25 1 -33 -11 -12 -17 -15 -17 -38 -1 -30 19 -72 20 -104 3z
m112 -69 c10 -14 16 -44 16 -80 0 -47 -4 -59 -22 -72 -54 -38 -98 -3 -98 77 0
65 20 97 60 97 18 0 34 -8 44 -22z"/>
<path d="M12988 4334 c-12 -4 -18 -15 -18 -35 0 -29 0 -29 60 -29 l60 0 0
-171 0 -170 38 3 37 3 0 168 0 167 57 0 c58 0 58 0 58 30 0 26 -4 30 -27 30
-16 1 -77 3 -138 5 -60 2 -118 1 -127 -1z"/>
<path d="M15030 4325 c-20 -24 0 -50 36 -50 26 0 29 4 29 30 0 25 -4 31 -26
33 -15 2 -31 -4 -39 -13z"/>
<path d="M14687 4143 c2 -104 5 -193 7 -200 3 -8 29 -12 74 -12 140 1 194 32
196 113 1 30 -5 53 -19 72 -21 27 -21 28 -2 65 16 33 17 44 7 74 -19 58 -57
75 -170 75 l-95 0 2 -187z m187 105 c33 -47 7 -78 -65 -78 l-49 0 0 50 0 50
49 0 c40 0 53 -4 65 -22z m4 -150 c7 -7 12 -27 12 -44 0 -42 -30 -64 -87 -64
l-43 0 0 60 0 60 53 0 c29 0 58 -5 65 -12z"/>
<path d="M14380 4271 c0 -37 -2 -41 -26 -41 -21 0 -25 -4 -22 -22 2 -15 11
-24 26 -26 21 -3 22 -7 22 -106 0 -123 8 -139 71 -140 41 -1 44 1 47 27 3 23
0 27 -22 27 l-26 0 0 95 c0 95 0 95 25 95 20 0 25 5 25 25 0 20 -5 25 -24 25
-21 0 -25 5 -28 38 -3 34 -6 37 -35 40 -32 3 -33 2 -33 -37z"/>
<path d="M15180 4275 c0 -29 -5 -37 -25 -45 -15 -6 -25 -17 -25 -30 0 -15 7
-20 25 -20 l25 0 0 -109 c0 -124 5 -134 73 -135 39 -1 42 1 45 27 3 23 0 27
-22 27 l-26 0 0 95 c0 95 0 95 25 95 20 0 25 5 25 25 0 20 -5 25 -24 25 -21 0
-25 5 -28 38 -3 34 -6 37 -35 40 -32 3 -33 2 -33 -33z"/>
<path d="M13356 4230 c-42 -8 -76 -40 -76 -71 0 -27 55 -26 70 1 16 29 65 27
86 -5 22 -33 11 -45 -42 -45 -51 0 -81 -12 -106 -44 -59 -72 42 -170 126 -122
16 9 32 13 35 8 3 -5 21 -12 40 -15 l33 -7 -7 117 c-4 65 -11 128 -16 140 -14
38 -75 57 -143 43z m87 -183 c-3 -39 -20 -57 -53 -57 -56 0 -65 59 -12 79 46
17 67 10 65 -22z"/>
<path d="M13673 4225 c-18 -8 -33 -10 -33 -5 0 6 -15 10 -34 10 l-33 0 1 -147
c1 -160 -3 -150 56 -145 19 2 20 9 20 105 0 112 6 127 53 127 26 0 28 3 25 32
-4 38 -13 42 -55 23z"/>
<path d="M13822 4224 c-58 -29 -85 -117 -62 -199 22 -78 84 -112 154 -85 34
12 34 -3 1 -35 -28 -29 -47 -31 -85 -8 -24 14 -31 14 -44 4 -27 -22 -18 -41
28 -62 81 -36 165 -4 186 69 5 20 10 101 10 180 l0 143 -47 -1 c-27 -1 -61 1
-78 4 -19 4 -42 0 -63 -10z m102 -60 c11 -11 16 -35 16 -79 0 -70 -14 -95 -54
-95 -64 0 -89 117 -36 170 24 24 53 26 74 4z"/>
<path d="M14155 4233 c-50 -13 -95 -82 -95 -147 0 -118 99 -186 205 -141 42
17 54 41 32 62 -14 14 -17 14 -38 -1 -32 -22 -81 -20 -107 4 -44 41 -31 50 74
50 l97 0 -6 51 c-7 55 -26 92 -55 108 -24 13 -82 20 -107 14z m81 -78 c22 -34
12 -43 -51 -44 -61 0 -69 10 -35 47 28 29 65 28 86 -3z"/>
<path d="M15394 4226 c-36 -16 -59 -64 -50 -101 6 -25 36 -43 124 -76 25 -9
32 -17 30 -33 -5 -34 -98 -35 -98 -1 0 10 -11 15 -35 15 -41 0 -45 -15 -15
-52 27 -36 72 -51 126 -45 60 6 95 40 97 91 1 46 -8 55 -90 81 -59 19 -68 26
-68 46 0 20 6 25 34 27 25 3 37 -2 48 -17 14 -21 73 -30 73 -12 0 70 -96 112
-176 77z"/>
<path d="M15030 4086 l0 -144 30 -4 c17 -3 32 -2 35 0 3 3 5 70 5 149 l0 143
-35 0 -35 0 0 -144z"/>
<path d="M15799 4148 c-6 -27 -6 -59 1 -63 5 -3 463 -5 1018 -5 l1009 0 52
-122 c28 -68 51 -126 51 -130 0 -5 -34 -8 -75 -8 -41 0 -75 -4 -75 -8 0 -12
97 -96 238 -207 7 -5 22 -18 34 -28 11 -10 21 -17 22 -15 5 4 44 253 52 322 8
63 5 65 -41 26 -11 -9 -37 -26 -57 -37 l-36 -21 -56 131 c-31 73 -61 139 -66
147 -8 13 -137 15 -1040 18 -566 1 -1030 1 -1031 0z"/>
<path d="M3738 3426 c-57 -15 -109 -53 -140 -103 l-23 -38 -3 -449 c-2 -395
-1 -454 14 -498 20 -63 67 -116 121 -140 40 -18 147 -18 3198 -18 3099 0 3157
1 3194 20 49 24 94 76 115 131 15 39 16 94 14 489 -3 414 -4 448 -22 483 -24
49 -64 89 -113 113 -37 19 -117 19 -3173 21 -2499 1 -3144 -1 -3182 -11z
m1060 -43 l92 -6 0 -573 0 -574 -560 0 c-448 0 -567 3 -593 14 -44 18 -94 77
-107 126 -7 27 -10 182 -8 463 3 380 5 425 20 454 25 44 77 82 129 93 48 9
876 12 1027 3z m1412 -573 l0 -580 -632 2 -633 3 1 35 c1 19 2 279 3 578 l1
542 630 0 630 0 0 -580z m1316 565 c2 -5 5 -265 6 -578 l3 -567 -632 0 -633 0
0 573 c0 316 3 577 7 581 12 12 1245 3 1249 -9z m1332 -567 l2 -578 -635 0
-635 0 0 573 c0 316 3 577 7 580 4 4 288 6 632 5 l626 -3 3 -577z m1144 572
c51 -6 77 -14 103 -34 72 -55 70 -40 70 -536 0 -503 2 -488 -78 -545 l-42 -30
-572 -3 -573 -3 0 574 c0 316 3 576 6 580 8 8 1006 6 1086 -3z"/>
<path d="M4260 3060 c-130 -50 -160 -68 -156 -92 3 -19 9 -22 31 -20 16 2 41
10 56 18 16 8 33 14 38 14 7 0 12 -75 13 -212 l3 -213 28 -3 c16 -2 29 2 32
10 3 7 4 126 3 265 l-3 251 -45 -18z"/>
<path d="M5513 3032 c-75 -33 -83 -39 -83 -64 0 -32 5 -33 51 -14 19 7 44 17
57 20 l22 7 0 -213 0 -214 35 -2 35 -3 0 261 c0 301 12 278 -117 222z"/>
<path d="M6835 3065 c-22 -8 -41 -15 -42 -15 -1 0 -15 -21 -30 -47 -25 -43
-28 -58 -31 -167 -5 -148 6 -197 58 -248 36 -36 41 -38 101 -38 82 0 118 21
149 86 20 43 22 63 22 178 -1 113 -4 134 -24 175 -37 74 -122 106 -203 76z
m100 -55 c45 -17 57 -65 53 -216 -3 -124 -5 -134 -27 -158 -17 -18 -35 -26
-58 -26 -80 0 -103 43 -103 192 0 122 11 170 47 198 29 22 49 25 88 10z"/>
<path d="M8166 3070 c-42 -13 -85 -58 -98 -105 -6 -22 -12 -94 -12 -160 -1
-106 2 -126 23 -168 35 -73 91 -100 179 -87 89 14 132 96 132 254 0 50 -5 111
-11 136 -11 46 -47 103 -77 119 -27 15 -104 21 -136 11z m111 -72 c32 -26 43
-75 43 -187 0 -60 -4 -121 -10 -135 -25 -66 -94 -87 -145 -43 -21 18 -28 36
-37 97 -11 81 -4 199 13 233 28 55 93 71 136 35z"/>
<path d="M9476 3066 c-43 -16 -49 -22 -78 -86 -18 -37 -21 -65 -22 -170 0
-114 2 -129 25 -175 32 -64 70 -86 145 -86 126 0 172 86 162 304 -4 105 -30
172 -75 199 -42 24 -111 30 -157 14z m123 -70 c29 -23 41 -75 41 -178 0 -158
-23 -208 -93 -208 -77 0 -101 47 -101 200 -1 137 18 191 69 201 34 7 63 2 84
-15z"/>
<path d="M15098 3426 c-63 -17 -111 -56 -139 -113 l-24 -48 0 -455 c0 -409 2
-459 17 -491 27 -57 64 -95 114 -119 l47 -22 3155 2 3156 1 43 21 c44 22 75
56 109 118 18 33 19 65 22 463 3 493 2 506 -71 581 -80 83 236 76 -3266 75
-2473 0 -3126 -3 -3163 -13z m1140 -44 l22 -4 0 -574 0 -575 -577 3 -578 3
-38 29 c-78 60 -77 50 -77 541 0 343 3 442 14 468 15 38 76 95 109 101 12 3
31 7 42 10 24 6 1051 4 1083 -2z m1335 -4 c-2 -5 -3 -264 -3 -578 l0 -570
-630 0 -630 0 0 573 c0 316 3 577 7 581 10 10 1259 3 1256 -6z m1315 -570 l2
-578 -630 0 -630 0 0 574 c0 450 3 575 13 580 6 3 289 4 627 3 l615 -2 3 -577z
m1230 576 l102 -7 0 -573 0 -574 -635 0 -635 0 0 580 0 580 533 0 c292 0 578
-3 635 -6z m1314 -18 c52 -25 86 -62 98 -105 6 -22 10 -206 10 -461 0 -485 0
-483 -81 -537 l-43 -28 -573 -3 -573 -2 0 573 c0 316 2 576 5 579 3 3 256 5
563 4 519 -1 560 -2 594 -20z"/>
<path d="M15563 3069 c-43 -13 -90 -72 -103 -131 -12 -60 -13 -209 0 -262 19
-84 74 -128 155 -127 118 1 164 63 172 234 9 170 -30 263 -121 286 -51 13 -59
13 -103 0z m91 -59 c37 -14 55 -58 62 -152 12 -158 -24 -252 -96 -250 -81 2
-104 55 -99 223 4 123 17 161 62 179 29 12 41 12 71 0z"/>
<path d="M16892 3070 c-43 -10 -88 -53 -104 -99 -7 -21 -12 -90 -12 -166 -1
-116 2 -134 22 -173 31 -58 73 -82 142 -82 73 0 115 26 143 88 18 40 21 65 21
177 0 120 -2 134 -24 174 -14 24 -36 52 -50 62 -30 21 -93 30 -138 19z m82
-60 c51 -19 73 -111 61 -256 -6 -70 -12 -91 -32 -115 -35 -41 -91 -41 -126 1
-21 25 -26 44 -32 123 -11 149 9 228 65 250 23 8 36 8 64 -3z"/>
<path d="M18200 3035 c-46 -19 -85 -35 -87 -35 -2 0 -3 -13 -3 -30 0 -16 2
-30 3 -30 2 0 30 9 62 20 32 11 62 20 67 20 4 0 8 -97 8 -215 l0 -215 35 0 35
0 0 260 c0 241 -1 260 -17 260 -10 0 -56 -16 -103 -35z"/>
<path d="M19526 3070 c-39 -12 -66 -38 -87 -85 -25 -53 -27 -284 -4 -336 31
-72 70 -99 147 -100 75 -2 112 21 144 90 24 51 26 61 22 185 -4 148 -22 202
-78 231 -38 20 -107 27 -144 15z m83 -56 c55 -11 71 -59 71 -207 0 -113 -2
-127 -23 -158 -18 -27 -30 -35 -61 -37 -86 -7 -109 43 -104 227 l3 123 33 29
c35 32 35 32 81 23z"/>
<path d="M20845 3036 c-75 -30 -80 -34 -83 -65 -4 -36 0 -36 77 -5 18 8 37 14
42 14 5 0 10 -96 11 -212 l3 -213 30 0 30 0 3 258 c3 297 14 274 -113 223z"/>
<path d="M20926 2069 c-6 -18 -56 -336 -56 -355 0 -9 15 -3 48 20 87 62 79 70
146 -142 33 -103 61 -189 63 -191 1 -2 14 1 27 7 l25 11 -19 68 c-11 37 -37
121 -59 187 -22 65 -38 122 -36 127 3 4 34 11 70 14 36 4 65 10 65 13 0 7 -27
33 -178 171 -59 54 -93 78 -96 70z"/>
<path d="M22358 1849 c-10 -5 -18 -21 -18 -34 0 -32 44 -46 67 -22 15 14 15
18 -1 41 -18 29 -23 30 -48 15z"/>
<path d="M21436 1840 c-62 -19 -97 -79 -77 -132 15 -39 48 -65 105 -84 79 -26
98 -42 94 -78 -4 -37 -37 -52 -93 -42 -29 6 -40 14 -48 37 -10 24 -17 29 -45
29 -32 0 -34 -2 -27 -27 20 -81 131 -126 218 -89 61 25 85 77 63 130 -19 43
-53 71 -111 90 -91 29 -117 63 -77 99 35 32 122 16 122 -23 0 -13 10 -21 31
-25 44 -10 52 4 28 52 -30 61 -103 86 -183 63z"/>
<path d="M21990 1780 c0 -36 -2 -40 -25 -40 -14 0 -25 -4 -25 -9 0 -23 14 -41
31 -41 17 0 19 -9 19 -105 0 -93 2 -107 21 -126 14 -14 30 -19 57 -17 32 3 37
7 40 30 3 21 -1 27 -20 30 -20 3 -24 10 -28 58 -3 30 -3 72 -1 93 3 31 7 37
27 37 19 0 24 5 24 25 0 20 -5 25 -25 25 -22 0 -25 4 -25 40 0 39 -1 40 -35
40 -34 0 -35 -1 -35 -40z"/>
<path d="M22170 1780 c0 -33 -4 -40 -19 -40 -17 0 -31 -18 -31 -41 0 -5 11 -9
25 -9 25 0 25 0 25 -99 0 -84 3 -102 21 -125 27 -34 94 -38 104 -6 7 22 -2 43
-15 35 -4 -3 -15 -2 -24 1 -13 5 -16 23 -16 100 0 94 0 94 25 94 20 0 25 5 25
25 0 20 -5 25 -25 25 -22 0 -25 4 -25 40 0 39 -1 40 -35 40 -34 0 -35 -1 -35
-40z"/>
<path d="M21739 1727 c-92 -61 -92 -220 1 -269 46 -24 105 -23 146 3 38 23 43
39 16 55 -14 9 -22 8 -37 -2 -28 -21 -82 -17 -105 6 -40 40 -28 49 73 52 l92
3 -2 44 c-6 110 -99 165 -184 108z m106 -53 c18 -18 16 -50 -3 -48 -6 1 -32 2
-57 3 -49 1 -55 11 -25 41 24 24 63 26 85 4z"/>
<path d="M22578 1734 c-16 -8 -28 -10 -28 -4 0 5 -16 10 -35 10 l-35 0 0 -144
c0 -91 4 -147 11 -151 5 -4 21 -4 35 -1 25 7 25 8 23 112 -1 92 1 107 17 119
24 18 58 19 72 2 6 -7 13 -62 14 -123 l3 -109 33 -3 32 -3 0 120 c0 67 -5 131
-11 144 -20 45 -81 59 -131 31z"/>
<path d="M22840 1733 c-40 -20 -61 -57 -68 -120 -5 -50 18 -121 49 -149 22
-20 89 -25 122 -10 24 12 23 -18 -3 -44 -24 -24 -67 -26 -98 -4 -18 12 -26 13
-37 4 -24 -20 -18 -38 18 -57 45 -23 120 -22 155 4 47 35 52 56 52 226 l0 157
-30 0 c-16 0 -30 -5 -30 -11 0 -8 -4 -8 -12 -1 -26 21 -82 23 -118 5z m104
-59 c20 -19 22 -144 4 -162 -13 -13 -57 -16 -74 -4 -20 13 -34 50 -34 90 0 72
63 118 104 76z"/>
<path d="M22342 1593 l3 -148 33 -3 32 -3 0 150 0 151 -35 0 -36 0 3 -147z"/>
<path d="M23540 1255 c-22 -26 -8 -50 30 -50 25 0 36 5 38 18 5 23 -15 47 -38
47 -10 0 -23 -7 -30 -15z"/>
<path d="M20317 1254 c-4 -4 -7 -94 -7 -201 l0 -193 35 0 35 0 0 133 c1 153
-8 155 101 -20 67 -108 72 -113 105 -113 l34 0 0 200 0 200 -35 0 -35 0 0
-137 0 -137 -83 135 c-74 119 -87 134 -113 137 -16 2 -33 0 -37 -4z"/>
<path d="M21478 1255 c-3 -3 -3 -16 0 -30 4 -21 10 -24 56 -27 l51 -3 3 -167
2 -168 35 0 35 0 0 170 0 170 60 0 60 0 0 30 0 30 -148 0 c-82 0 -151 -2 -154
-5z"/>
<path d="M23197 1253 c-4 -3 -7 -94 -7 -201 l0 -194 111 4 111 3 29 33 c36 41
40 105 8 146 -19 24 -19 27 -5 48 9 12 16 39 16 60 0 48 -33 86 -85 98 -46 11
-169 13 -178 3z m184 -74 c29 -46 -5 -89 -73 -89 l-48 0 0 48 c0 27 3 52 8 56
12 13 103 0 113 -15z m7 -162 c15 -12 16 -69 0 -85 -7 -7 -38 -12 -70 -12
l-58 0 0 53 c0 30 3 56 6 60 9 8 107 -4 122 -16z"/>
<path d="M22887 1223 c-4 -3 -7 -19 -7 -35 0 -21 -5 -28 -20 -28 -16 0 -20 -7
-20 -30 0 -23 4 -30 20 -30 22 0 23 -4 21 -102 -3 -115 39 -170 105 -139 32
14 28 43 -6 51 -24 6 -25 9 -28 98 l-3 92 25 0 c30 0 37 9 29 39 -4 15 -12 21
-27 19 -18 -3 -21 3 -24 35 -3 33 -6 37 -31 37 -15 0 -31 -3 -34 -7z"/>
<path d="M23690 1196 c0 -28 -4 -35 -22 -38 -17 -2 -23 -10 -23 -28 0 -18 6
-26 23 -28 21 -3 22 -7 22 -103 0 -55 4 -109 10 -119 11 -21 60 -35 90 -25 13
4 20 15 20 31 0 19 -5 24 -25 24 -25 0 -25 0 -25 94 0 90 1 95 23 98 16 2 22
10 22 28 0 18 -6 26 -22 28 -19 3 -23 10 -23 38 0 32 -2 34 -35 34 -33 0 -35
-2 -35 -34z"/>
<path d="M20743 1140 c-43 -26 -63 -68 -63 -130 0 -96 49 -150 135 -150 83 0
135 56 135 145 0 50 -37 123 -71 140 -39 21 -98 19 -136 -5z m121 -62 c24 -34
21 -123 -4 -148 -49 -49 -110 -4 -110 81 0 36 5 54 20 69 27 27 75 26 94 -2z"/>
<path d="M21000 1010 l0 -150 35 0 35 0 0 110 c0 100 2 110 20 120 12 6 33 10
48 8 23 -3 28 -9 34 -43 4 -22 7 -75 7 -117 l1 -78 31 0 31 0 -4 126 c-3 124
-3 126 -31 150 -33 28 -97 33 -117 9 -7 -8 -16 -15 -21 -15 -5 0 -9 7 -9 15 0
10 -10 15 -30 15 l-30 0 0 -150z"/>
<path d="M21828 1143 c-25 -16 -48 -51 -48 -74 0 -18 54 -5 78 19 27 27 46 28
72 2 34 -34 26 -50 -24 -50 -62 0 -104 -18 -121 -51 -22 -41 -18 -65 14 -101
24 -27 36 -33 70 -32 22 1 48 8 58 15 13 11 17 11 20 2 3 -7 21 -13 41 -13
l37 0 -7 112 c-3 62 -7 116 -7 120 -1 3 -13 20 -27 37 -23 27 -32 31 -77 31
-31 0 -63 -7 -79 -17z m122 -172 c0 -56 -80 -84 -102 -36 -18 39 7 59 80 64
18 1 22 -4 22 -28z"/>
<path d="M22087 1153 c-4 -3 -7 -71 -7 -150 l0 -143 33 0 32 0 2 101 c1 59 7
107 14 115 6 8 27 14 46 14 33 0 34 2 31 33 -4 38 -35 48 -74 23 -21 -15 -24
-15 -24 -1 0 15 -40 22 -53 8z"/>
<path d="M22322 1147 c-58 -27 -83 -167 -42 -234 27 -45 54 -56 117 -50 57 6
63 1 35 -32 -20 -25 -66 -30 -101 -11 -20 10 -26 9 -44 -8 l-20 -20 41 -21
c60 -31 124 -28 163 7 36 32 44 79 44 262 0 113 -1 115 -24 118 -13 2 -27 -2
-31 -8 -6 -9 -13 -9 -28 -1 -26 14 -80 13 -110 -2z m112 -63 c11 -11 16 -35
16 -79 0 -70 -14 -95 -56 -95 -42 0 -64 33 -64 97 0 38 5 62 17 75 20 22 66
24 87 2z"/>
<path d="M22641 1147 c-40 -20 -64 -62 -69 -120 -9 -115 36 -167 145 -167 51
0 63 4 83 25 18 20 21 28 12 37 -9 9 -20 9 -48 -1 -64 -23 -124 2 -124 53 0
13 15 16 90 16 l90 0 0 40 c0 48 -20 92 -52 114 -27 19 -94 21 -127 3z m103
-69 c9 -12 16 -26 16 -30 0 -5 -27 -8 -60 -8 -64 0 -73 9 -43 42 23 25 68 23
87 -4z"/>
<path d="M23537 1153 c-4 -3 -7 -71 -7 -150 l0 -143 35 0 35 0 0 150 0 150
-28 0 c-16 0 -32 -3 -35 -7z"/>
<path d="M23880 1132 c-36 -36 -40 -82 -10 -112 10 -10 44 -26 74 -35 66 -19
86 -39 64 -61 -24 -24 -79 -21 -96 4 -19 28 -72 31 -72 4 0 -27 50 -70 92 -77
40 -8 102 8 131 33 10 9 17 29 17 53 0 46 -28 71 -105 94 -65 18 -76 32 -46
56 17 14 28 16 48 8 15 -5 31 -17 38 -25 14 -20 59 -15 63 7 2 9 -8 29 -21 45
-20 23 -34 28 -85 32 -58 4 -63 3 -92 -26z"/>
<path d="M21300 1030 l0 -30 70 0 70 0 0 30 0 30 -70 0 -70 0 0 -30z"/>
</g>
</svg>
