<?xml version="1.0" encoding="utf-8" standalone="no"?>
<!DOCTYPE svg PUBLIC "-//W3C//DTD SVG 1.1//EN"
  "http://www.w3.org/Graphics/SVG/1.1/DTD/svg11.dtd">
<svg xmlns:xlink="http://www.w3.org/1999/xlink" width="572.4pt" height="125.28pt" viewBox="0 0 572.4 125.28" xmlns="http://www.w3.org/2000/svg" version="1.1">
 <metadata>
  <rdf:RDF xmlns:dc="http://purl.org/dc/elements/1.1/" xmlns:cc="http://creativecommons.org/ns#" xmlns:rdf="http://www.w3.org/1999/02/22-rdf-syntax-ns#">
   <cc:Work>
    <dc:type rdf:resource="http://purl.org/dc/dcmitype/StillImage"/>
    <dc:date>2025-11-27T22:03:56.537288</dc:date>
    <dc:format>image/svg+xml</dc:format>
    <dc:creator>
     <cc:Agent>
      <dc:title>Matplotlib v3.10.7, https://matplotlib.org/</dc:title>
     </cc:Agent>
    </dc:creator>
   </cc:Work>
  </rdf:RDF>
 </metadata>
 <defs>
  <style type="text/css">*{stroke-linejoin: round; stroke-linecap: butt}</style>
 </defs>
 <g id="figure_1">
  <g id="patch_1">
   <path d="M 0 125.28 
L 572.4 125.28 
L 572.4 0 
L 0 0 
L 0 125.28 
z
" style="fill: none; opacity: 0"/>
  </g>
  <g id="axes_1">
   <g id="text_1">
    <!-- $\forall t \in Range(A): Pr[A(D) = t] \leq e^\epsilon Pr[A(D') = t]$ -->
    <g transform="translate(79.092741 67.647391) scale(0.2 -0.2)">
     <defs>
      <path id="CMSY10-38" d="M 3526 4195 
C 3558 4266 3558 4279 3558 4311 
C 3558 4375 3507 4439 3430 4439 
C 3347 4439 3309 4362 3283 4291 
L 2752 2883 
L 806 2883 
L 275 4291 
C 243 4381 211 4439 128 4439 
C 64 4439 0 4375 0 4311 
C 0 4298 0 4285 38 4195 
L 1632 3 
C 1664 -86 1696 -144 1779 -144 
C 1869 -144 1894 -73 1920 -9 
L 3526 4195 
z
M 909 2627 
L 2650 2627 
L 1779 349 
L 909 2627 
z
" transform="scale(0.015625)"/>
      <path id="CMMI12-74" d="M 1286 2566 
L 1875 2566 
C 1997 2566 2061 2566 2061 2681 
C 2061 2752 2022 2752 1894 2752 
L 1331 2752 
L 1568 3692 
C 1594 3781 1594 3794 1594 3840 
C 1594 3943 1510 4000 1427 4000 
C 1376 4000 1229 3981 1178 3775 
L 928 2752 
L 326 2752 
C 198 2752 141 2752 141 2630 
C 141 2566 186 2566 307 2566 
L 877 2566 
L 454 881 
C 403 658 384 594 384 511 
C 384 211 595 -64 954 -64 
C 1600 -64 1946 868 1946 912 
C 1946 951 1920 970 1882 970 
C 1869 970 1843 970 1830 944 
C 1824 938 1818 931 1773 829 
C 1638 511 1344 64 973 64 
C 781 64 768 224 768 364 
C 768 370 768 492 787 568 
L 1286 2566 
z
" transform="scale(0.015625)"/>
      <path id="CMSY10-32" d="M 3506 1472 
C 3615 1472 3730 1472 3730 1600 
C 3730 1728 3615 1728 3506 1728 
L 792 1728 
C 869 2586 1605 3200 2507 3200 
L 3506 3200 
C 3615 3200 3730 3200 3730 3328 
C 3730 3456 3615 3456 3506 3456 
L 2495 3456 
C 1400 3456 530 2624 530 1600 
C 530 576 1400 -256 2495 -256 
L 3506 -256 
C 3615 -256 3730 -256 3730 -128 
C 3730 0 3615 0 3506 0 
L 2507 0 
C 1605 0 869 614 792 1472 
L 3506 1472 
z
" transform="scale(0.015625)"/>
      <path id="CMMI12-52" d="M 2355 3924 
C 2413 4160 2438 4160 2688 4160 
L 3149 4160 
C 3699 4160 4109 3995 4109 3499 
C 4109 3175 3942 2240 2656 2240 
L 1933 2240 
L 2355 3924 
z
M 3245 2169 
C 4038 2341 4659 2851 4659 3398 
C 4659 3894 4154 4352 3264 4352 
L 1530 4352 
C 1402 4352 1344 4352 1344 4226 
C 1344 4160 1389 4160 1510 4160 
C 1894 4160 1894 4112 1894 4045 
C 1894 4033 1894 3994 1869 3899 
L 1005 479 
C 947 256 934 192 493 192 
C 346 192 301 192 301 71 
C 301 7 371 7 390 7 
C 506 7 640 7 762 7 
L 1517 7 
C 1632 7 1766 7 1882 7 
C 1933 7 2003 7 2003 128 
C 2003 192 1946 192 1850 192 
C 1459 192 1459 243 1459 306 
C 1459 313 1459 357 1472 407 
L 1901 2112 
L 2669 2112 
C 3277 2112 3392 1731 3392 1522 
C 3392 1427 3328 1179 3283 1014 
C 3213 723 3194 652 3194 532 
C 3194 82 3565 -128 3994 -128 
C 4512 -128 4736 501 4736 591 
C 4736 635 4704 654 4666 654 
C 4614 654 4602 616 4589 565 
C 4435 114 4173 0 4013 0 
C 3853 0 3750 70 3750 356 
C 3750 509 3827 1088 3834 1120 
C 3866 1355 3866 1380 3866 1432 
C 3866 1896 3488 2093 3245 2169 
z
" transform="scale(0.015625)"/>
      <path id="CMMI12-61" d="M 1926 760 
C 1894 651 1894 639 1805 517 
C 1664 338 1382 64 1082 64 
C 819 64 672 300 672 677 
C 672 1028 870 1743 992 2012 
C 1210 2459 1510 2689 1760 2689 
C 2182 2689 2266 2165 2266 2114 
C 2266 2108 2246 2024 2240 2012 
L 1926 760 
z
M 2336 2395 
C 2266 2561 2093 2816 1760 2816 
C 1037 2816 256 1884 256 939 
C 256 307 627 -64 1062 -64 
C 1414 -64 1715 211 1894 422 
C 1958 45 2259 -64 2451 -64 
C 2643 -64 2797 51 2912 281 
C 3014 498 3104 888 3104 913 
C 3104 945 3078 971 3040 971 
C 2982 971 2976 939 2950 843 
C 2854 466 2733 64 2470 64 
C 2285 64 2272 230 2272 358 
C 2272 505 2291 575 2349 824 
C 2394 984 2426 1124 2477 1309 
C 2714 2267 2771 2497 2771 2535 
C 2771 2625 2701 2695 2605 2695 
C 2400 2695 2349 2472 2336 2395 
z
" transform="scale(0.015625)"/>
      <path id="CMMI12-6e" d="M 1318 1871 
C 1331 1910 1491 2229 1728 2433 
C 1894 2586 2112 2689 2362 2689 
C 2618 2689 2707 2497 2707 2242 
C 2707 1878 2445 1150 2317 805 
C 2259 651 2227 568 2227 453 
C 2227 166 2426 -64 2733 -64 
C 3328 -64 3552 875 3552 913 
C 3552 945 3526 971 3488 971 
C 3430 971 3424 952 3392 843 
C 3245 319 3002 64 2752 64 
C 2688 64 2586 64 2586 269 
C 2586 429 2656 621 2694 710 
C 2822 1063 3091 1780 3091 2145 
C 3091 2528 2867 2816 2381 2816 
C 1811 2816 1510 2415 1395 2255 
C 1376 2618 1114 2816 832 2816 
C 627 2816 486 2695 378 2478 
C 262 2248 173 1865 173 1839 
C 173 1814 198 1782 243 1782 
C 294 1782 301 1788 339 1935 
C 442 2325 557 2689 813 2689 
C 960 2689 1011 2586 1011 2395 
C 1011 2254 947 2005 902 1807 
L 723 1118 
C 698 996 627 709 595 594 
C 550 428 480 128 480 96 
C 480 6 550 -64 646 -64 
C 723 -64 813 -26 864 70 
C 877 102 934 326 966 453 
L 1107 1028 
L 1318 1871 
z
" transform="scale(0.015625)"/>
      <path id="CMMI12-67" d="M 2163 811 
C 2138 709 2125 683 2042 588 
C 1779 249 1510 128 1312 128 
C 1101 128 902 294 902 734 
C 902 1073 1094 1788 1235 2076 
C 1421 2433 1709 2689 1978 2689 
C 2400 2689 2483 2165 2483 2127 
L 2464 2037 
L 2163 811 
z
M 2560 2395 
C 2477 2580 2298 2816 1978 2816 
C 1280 2816 486 1941 486 990 
C 486 326 890 0 1299 0 
C 1638 0 1939 268 2054 396 
L 1914 -171 
C 1824 -516 1786 -674 1555 -894 
C 1293 -1152 1050 -1152 909 -1152 
C 717 -1152 557 -1139 397 -1089 
C 602 -1033 653 -858 653 -789 
C 653 -689 576 -588 435 -588 
C 282 -588 115 -714 115 -922 
C 115 -1180 378 -1280 922 -1280 
C 1747 -1280 2176 -753 2259 -410 
L 2970 2435 
C 2989 2511 2989 2524 2989 2536 
C 2989 2625 2918 2695 2822 2695 
C 2669 2695 2579 2567 2560 2395 
z
" transform="scale(0.015625)"/>
      <path id="CMMI12-65" d="M 1146 1479 
C 1318 1479 1754 1479 2061 1595 
C 2547 1783 2592 2158 2592 2274 
C 2592 2558 2349 2816 1926 2816 
C 1254 2816 288 2210 288 1073 
C 288 402 672 -64 1254 -64 
C 2125 -64 2675 609 2675 692 
C 2675 730 2637 762 2611 762 
C 2592 762 2586 756 2528 699 
C 2118 159 1510 64 1267 64 
C 902 64 710 350 710 822 
C 710 911 710 1071 806 1479 
L 1146 1479 
z
M 838 1600 
C 1114 2592 1722 2689 1926 2689 
C 2208 2689 2400 2522 2400 2277 
C 2400 1600 1376 1600 1107 1600 
L 838 1600 
z
" transform="scale(0.015625)"/>
      <path id="CMR17-28" d="M 1958 -1561 
C 1958 -1555 1958 -1542 1939 -1523 
C 1645 -1224 858 -407 858 1581 
C 858 3569 1632 4379 1946 4697 
C 1946 4704 1958 4717 1958 4736 
C 1958 4755 1939 4768 1914 4768 
C 1843 4768 1299 4296 986 3594 
C 666 2887 576 2199 576 1588 
C 576 1128 621 351 1005 -471 
C 1312 -1135 1837 -1600 1914 -1600 
C 1946 -1600 1958 -1587 1958 -1561 
z
" transform="scale(0.015625)"/>
      <path id="CMMI12-41" d="M 1088 691 
C 864 314 646 186 339 186 
C 269 180 218 180 218 58 
C 218 24 250 0 294 0 
C 410 0 698 0 813 0 
C 998 0 1203 0 1382 0 
C 1421 0 1498 0 1498 122 
C 1498 180 1446 186 1408 186 
C 1261 186 1139 236 1139 388 
C 1139 476 1178 546 1261 685 
L 1747 1479 
L 3379 1479 
C 3386 1423 3386 1373 3392 1316 
C 3411 1152 3488 495 3488 376 
C 3488 186 3162 186 3059 186 
C 2989 186 2918 186 2918 70 
C 2918 0 2976 0 3014 0 
C 3123 0 3251 0 3360 0 
L 3725 0 
C 4115 0 4397 0 4403 0 
C 4448 0 4518 0 4518 122 
C 4518 186 4461 186 4365 186 
C 4013 186 4006 244 3987 434 
L 3597 4404 
C 3584 4531 3558 4544 3488 4544 
C 3424 4544 3386 4531 3328 4435 
L 1088 691 
z
M 1856 1664 
L 3142 3819 
L 3360 1664 
L 1856 1664 
z
" transform="scale(0.015625)"/>
      <path id="CMR17-29" d="M 1683 1581 
C 1683 2040 1638 2817 1254 3639 
C 947 4303 422 4768 346 4768 
C 326 4768 301 4761 301 4729 
C 301 4717 307 4710 314 4697 
C 621 4378 1402 3568 1402 1584 
C 1402 -407 627 -1217 314 -1537 
C 307 -1549 301 -1556 301 -1568 
C 301 -1600 326 -1600 346 -1600 
C 416 -1600 960 -1128 1274 -426 
C 1594 281 1683 969 1683 1581 
z
" transform="scale(0.015625)"/>
      <path id="CMR17-3a" d="M 1062 2491 
C 1062 2650 934 2752 800 2752 
C 672 2752 538 2650 538 2491 
C 538 2332 666 2230 800 2230 
C 928 2230 1062 2332 1062 2491 
z
M 1062 261 
C 1062 420 934 522 800 522 
C 672 522 538 420 538 261 
C 538 102 666 0 800 0 
C 928 0 1062 102 1062 261 
z
" transform="scale(0.015625)"/>
      <path id="CMMI12-50" d="M 1894 2023 
L 2970 2023 
C 3853 2023 4736 2673 4736 3401 
C 4736 3898 4314 4352 3507 4352 
L 1530 4352 
C 1408 4352 1350 4352 1350 4231 
C 1350 4167 1408 4167 1504 4167 
C 1894 4167 1894 4116 1894 4046 
C 1894 4034 1894 3995 1869 3899 
L 1005 472 
C 947 249 934 185 486 185 
C 365 185 301 185 301 70 
C 301 0 358 0 397 0 
C 518 0 646 0 768 0 
L 1517 0 
C 1638 0 1773 0 1894 0 
C 1946 0 2016 0 2016 121 
C 2016 185 1958 185 1862 185 
C 1478 185 1472 230 1472 293 
C 1472 325 1478 369 1485 401 
L 1894 2023 
z
M 2355 3930 
C 2413 4167 2438 4167 2688 4167 
L 3322 4167 
C 3802 4167 4198 4013 4198 3535 
C 4198 3369 4115 2827 3821 2534 
C 3712 2419 3405 2176 2822 2176 
L 1920 2176 
L 2355 3930 
z
" transform="scale(0.015625)"/>
      <path id="CMMI12-72" d="M 2490 2612 
C 2291 2574 2189 2433 2189 2293 
C 2189 2139 2310 2088 2400 2088 
C 2579 2088 2726 2242 2726 2433 
C 2726 2638 2528 2816 2208 2816 
C 1952 2816 1658 2701 1389 2312 
C 1344 2650 1088 2816 832 2816 
C 582 2816 454 2625 378 2484 
C 269 2254 173 1871 173 1839 
C 173 1814 198 1782 243 1782 
C 294 1782 301 1788 339 1935 
C 435 2318 557 2689 813 2689 
C 966 2689 1011 2580 1011 2395 
C 1011 2254 947 2005 902 1807 
L 723 1118 
C 698 996 627 709 595 594 
C 550 428 480 128 480 96 
C 480 6 550 -64 646 -64 
C 717 -64 838 -19 877 109 
C 896 160 1133 1124 1171 1271 
C 1203 1411 1242 1546 1274 1686 
C 1299 1775 1325 1878 1344 1961 
C 1363 2018 1536 2331 1696 2472 
C 1773 2542 1939 2689 2202 2689 
C 2304 2689 2406 2670 2490 2612 
z
" transform="scale(0.015625)"/>
      <path id="CMR17-5b" d="M 1504 -1600 
L 1504 -1377 
L 902 -1377 
L 902 4544 
L 1504 4544 
L 1504 4767 
L 678 4767 
L 678 -1600 
L 1504 -1600 
z
" transform="scale(0.015625)"/>
      <path id="CMMI12-44" d="M 1005 472 
C 947 249 934 185 486 185 
C 365 185 301 185 301 70 
C 301 0 339 0 467 0 
L 2496 0 
C 3789 0 5050 1332 5050 2753 
C 5050 3671 4499 4352 3584 4352 
L 1530 4352 
C 1408 4352 1350 4352 1350 4231 
C 1350 4167 1408 4167 1504 4167 
C 1894 4167 1894 4116 1894 4046 
C 1894 4034 1894 3995 1869 3899 
L 1005 472 
z
M 2355 3931 
C 2413 4167 2438 4167 2688 4167 
L 3392 4167 
C 3994 4167 4544 3842 4544 2963 
C 4544 2644 4416 1536 3795 835 
C 3616 625 3130 185 2394 185 
L 1664 185 
C 1574 185 1562 185 1523 192 
C 1453 198 1446 211 1446 262 
C 1446 307 1459 345 1472 402 
L 2355 3931 
z
" transform="scale(0.015625)"/>
      <path id="CMR17-3d" d="M 4115 2017 
C 4211 2017 4307 2017 4307 2125 
C 4307 2240 4198 2240 4090 2240 
L 512 2240 
C 403 2240 294 2240 294 2125 
C 294 2017 390 2017 486 2017 
L 4115 2017 
z
M 4090 896 
C 4198 896 4307 896 4307 1011 
C 4307 1119 4211 1119 4115 1119 
L 486 1119 
C 390 1119 294 1119 294 1011 
C 294 896 403 896 512 896 
L 4090 896 
z
" transform="scale(0.015625)"/>
      <path id="CMR17-5d" d="M 915 4767 
L 90 4767 
L 90 4544 
L 691 4544 
L 691 -1377 
L 90 -1377 
L 90 -1600 
L 915 -1600 
L 915 4767 
z
" transform="scale(0.015625)"/>
      <path id="CMSY10-14" d="M 4320 3812 
C 4390 3844 4442 3876 4442 3952 
C 4442 4023 4390 4080 4314 4080 
C 4282 4080 4224 4055 4198 4042 
L 659 2372 
C 550 2320 531 2276 531 2224 
C 531 2167 570 2122 659 2084 
L 4198 420 
C 4282 375 4294 375 4314 375 
C 4384 375 4442 432 4442 503 
C 4442 560 4416 599 4307 650 
L 960 2224 
L 4320 3812 
z
M 4218 -891 
C 4326 -891 4442 -891 4442 -763 
C 4442 -635 4307 -635 4211 -635 
L 762 -635 
C 666 -635 531 -635 531 -763 
C 531 -891 646 -891 755 -891 
L 4218 -891 
z
" transform="scale(0.015625)"/>
      <path id="CMMI12-f" d="M 1862 1467 
C 1958 1467 2067 1467 2067 1569 
C 2067 1652 2003 1652 1888 1652 
L 851 1652 
C 1011 2226 1389 2573 1958 2573 
L 2144 2573 
C 2253 2573 2349 2573 2349 2675 
C 2349 2758 2278 2758 2163 2758 
L 1946 2758 
C 1158 2758 294 2131 294 1126 
C 294 416 774 -64 1408 -64 
C 1818 -64 2221 194 2221 258 
C 2221 296 2202 336 2163 336 
C 2144 336 2131 329 2099 304 
C 1856 142 1619 64 1427 64 
C 1088 64 730 290 730 918 
C 730 1040 742 1208 800 1467 
L 1862 1467 
z
" transform="scale(0.015625)"/>
      <path id="CMSY10-30" d="M 1619 3040 
C 1651 3117 1677 3174 1677 3238 
C 1677 3424 1510 3578 1312 3578 
C 1133 3578 1018 3456 973 3290 
L 211 493 
C 211 480 186 410 186 403 
C 186 333 352 288 403 288 
C 442 288 448 307 486 390 
L 1619 3040 
z
" transform="scale(0.015625)"/>
     </defs>
     <use xlink:href="#CMSY10-38" transform="scale(0.996264)"/>
     <use xlink:href="#CMMI12-74" transform="translate(55.348169 0) scale(0.996264)"/>
     <use xlink:href="#CMSY10-32" transform="translate(118.248508 0) scale(0.996264)"/>
     <use xlink:href="#CMMI12-52" transform="translate(212.340336 0) scale(0.996264)"/>
     <use xlink:href="#CMMI12-61" transform="translate(287.411298 0) scale(0.996264)"/>
     <use xlink:href="#CMMI12-6e" transform="translate(338.619155 0) scale(0.996264)"/>
     <use xlink:href="#CMMI12-67" transform="translate(396.849203 0) scale(0.996264)"/>
     <use xlink:href="#CMMI12-65" transform="translate(447.134692 0) scale(0.996264)"/>
     <use xlink:href="#CMR17-28" transform="translate(492.346693 0) scale(0.996264)"/>
     <use xlink:href="#CMMI12-41" transform="translate(527.627461 0) scale(0.996264)"/>
     <use xlink:href="#CMR17-29" transform="translate(600.755346 0) scale(0.996264)"/>
     <use xlink:href="#CMR17-3a" transform="translate(663.710123 0) scale(0.996264)"/>
     <use xlink:href="#CMMI12-50" transform="translate(716.25519 0) scale(0.996264)"/>
     <use xlink:href="#CMMI12-72" transform="translate(792.681011 0) scale(0.996264)"/>
     <use xlink:href="#CMR17-5b" transform="translate(839.351623 0) scale(0.996264)"/>
     <use xlink:href="#CMMI12-41" transform="translate(864.222681 0) scale(0.996264)"/>
     <use xlink:href="#CMR17-28" transform="translate(937.350566 0) scale(0.996264)"/>
     <use xlink:href="#CMMI12-44" transform="translate(972.631334 0) scale(0.996264)"/>
     <use xlink:href="#CMR17-29" transform="translate(1056.335282 0) scale(0.996264)"/>
     <use xlink:href="#CMR17-3d" transform="translate(1119.290059 0) scale(0.996264)"/>
     <use xlink:href="#CMMI12-74" transform="translate(1218.678856 0) scale(0.996264)"/>
     <use xlink:href="#CMR17-5d" transform="translate(1253.905186 0) scale(0.996264)"/>
     <use xlink:href="#CMSY10-14" transform="translate(1306.450253 0) scale(0.996264)"/>
     <use xlink:href="#CMMI12-65" transform="translate(1411.611729 0) scale(0.996264)"/>
     <use xlink:href="#CMMI12-f" transform="translate(1456.82373 36.153639) scale(0.697382)"/>
     <use xlink:href="#CMMI12-50" transform="translate(1484.894004 0) scale(0.996264)"/>
     <use xlink:href="#CMMI12-72" transform="translate(1561.319825 0) scale(0.996264)"/>
     <use xlink:href="#CMR17-5b" transform="translate(1607.990437 0) scale(0.996264)"/>
     <use xlink:href="#CMMI12-41" transform="translate(1632.861495 0) scale(0.996264)"/>
     <use xlink:href="#CMR17-28" transform="translate(1705.989381 0) scale(0.996264)"/>
     <use xlink:href="#CMMI12-44" transform="translate(1741.270148 0) scale(0.996264)"/>
     <use xlink:href="#CMSY10-30" transform="translate(1824.974096 36.153639) scale(0.697382)"/>
     <use xlink:href="#CMR17-29" transform="translate(1844.650189 0) scale(0.996264)"/>
     <use xlink:href="#CMR17-3d" transform="translate(1907.604965 0) scale(0.996264)"/>
     <use xlink:href="#CMMI12-74" transform="translate(2006.993762 0) scale(0.996264)"/>
     <use xlink:href="#CMR17-5d" transform="translate(2042.220093 0) scale(0.996264)"/>
    </g>
   </g>
  </g>
 </g>
</svg>
