<?xml version="1.0" encoding="utf-8" standalone="no"?>
<!DOCTYPE svg PUBLIC "-//W3C//DTD SVG 1.1//EN"
  "http://www.w3.org/Graphics/SVG/1.1/DTD/svg11.dtd">
<svg xmlns:xlink="http://www.w3.org/1999/xlink" width="572.4pt" height="125.28pt" viewBox="0 0 572.4 125.28" xmlns="http://www.w3.org/2000/svg" version="1.1">
 <metadata>
  <rdf:RDF xmlns:dc="http://purl.org/dc/elements/1.1/" xmlns:cc="http://creativecommons.org/ns#" xmlns:rdf="http://www.w3.org/1999/02/22-rdf-syntax-ns#">
   <cc:Work>
    <dc:type rdf:resource="http://purl.org/dc/dcmitype/StillImage"/>
    <dc:date>2025-11-27T22:04:01.280416</dc:date>
    <dc:format>image/svg+xml</dc:format>
    <dc:creator>
     <cc:Agent>
      <dc:title>Matplotlib v3.10.7, https://matplotlib.org/</dc:title>
     </cc:Agent>
    </dc:creator>
   </cc:Work>
  </rdf:RDF>
 </metadata>
 <defs>
  <style type="text/css">*{stroke-linejoin: round; stroke-linecap: butt}</style>
 </defs>
 <g id="figure_1">
  <g id="patch_1">
   <path d="M 0 125.28 
L 572.4 125.28 
L 572.4 0 
L 0 0 
L 0 125.28 
z
" style="fill: none; opacity: 0"/>
  </g>
  <g id="axes_1">
   <g id="text_1">
    <!-- $Var(\hat{T}_i) = \frac{p(1 - p)N}{(q - p)^2}$ -->
    <g transform="translate(212.701108 67.523246) scale(0.2 -0.2)">
     <defs>
      <path id="CMMI12-56" d="M 3962 3640 
C 4179 3984 4378 4136 4704 4162 
C 4768 4168 4819 4168 4819 4282 
C 4819 4308 4806 4346 4749 4346 
C 4634 4346 4358 4346 4243 4346 
C 4058 4346 3866 4346 3686 4346 
C 3635 4346 3571 4346 3571 4226 
C 3571 4168 3629 4162 3654 4162 
C 3891 4143 3917 4029 3917 3952 
C 3917 3857 3827 3710 3821 3704 
L 1811 540 
L 1363 3969 
C 1363 4160 1696 4160 1766 4160 
C 1862 4160 1920 4160 1920 4282 
C 1920 4346 1850 4346 1830 4346 
C 1722 4346 1594 4346 1485 4346 
L 1126 4346 
C 659 4346 467 4346 461 4346 
C 422 4346 346 4346 346 4230 
C 346 4160 390 4160 493 4160 
C 819 4160 838 4102 858 3944 
L 1370 24 
C 1389 -109 1389 -128 1478 -128 
C 1555 -128 1587 -109 1651 -8 
L 3962 3640 
z
" transform="scale(0.015625)"/>
      <path id="CMMI12-61" d="M 1926 760 
C 1894 651 1894 639 1805 517 
C 1664 338 1382 64 1082 64 
C 819 64 672 300 672 677 
C 672 1028 870 1743 992 2012 
C 1210 2459 1510 2689 1760 2689 
C 2182 2689 2266 2165 2266 2114 
C 2266 2108 2246 2024 2240 2012 
L 1926 760 
z
M 2336 2395 
C 2266 2561 2093 2816 1760 2816 
C 1037 2816 256 1884 256 939 
C 256 307 627 -64 1062 -64 
C 1414 -64 1715 211 1894 422 
C 1958 45 2259 -64 2451 -64 
C 2643 -64 2797 51 2912 281 
C 3014 498 3104 888 3104 913 
C 3104 945 3078 971 3040 971 
C 2982 971 2976 939 2950 843 
C 2854 466 2733 64 2470 64 
C 2285 64 2272 230 2272 358 
C 2272 505 2291 575 2349 824 
C 2394 984 2426 1124 2477 1309 
C 2714 2267 2771 2497 2771 2535 
C 2771 2625 2701 2695 2605 2695 
C 2400 2695 2349 2472 2336 2395 
z
" transform="scale(0.015625)"/>
      <path id="CMMI12-72" d="M 2490 2612 
C 2291 2574 2189 2433 2189 2293 
C 2189 2139 2310 2088 2400 2088 
C 2579 2088 2726 2242 2726 2433 
C 2726 2638 2528 2816 2208 2816 
C 1952 2816 1658 2701 1389 2312 
C 1344 2650 1088 2816 832 2816 
C 582 2816 454 2625 378 2484 
C 269 2254 173 1871 173 1839 
C 173 1814 198 1782 243 1782 
C 294 1782 301 1788 339 1935 
C 435 2318 557 2689 813 2689 
C 966 2689 1011 2580 1011 2395 
C 1011 2254 947 2005 902 1807 
L 723 1118 
C 698 996 627 709 595 594 
C 550 428 480 128 480 96 
C 480 6 550 -64 646 -64 
C 717 -64 838 -19 877 109 
C 896 160 1133 1124 1171 1271 
C 1203 1411 1242 1546 1274 1686 
C 1299 1775 1325 1878 1344 1961 
C 1363 2018 1536 2331 1696 2472 
C 1773 2542 1939 2689 2202 2689 
C 2304 2689 2406 2670 2490 2612 
z
" transform="scale(0.015625)"/>
      <path id="CMR17-28" d="M 1958 -1561 
C 1958 -1555 1958 -1542 1939 -1523 
C 1645 -1224 858 -407 858 1581 
C 858 3569 1632 4379 1946 4697 
C 1946 4704 1958 4717 1958 4736 
C 1958 4755 1939 4768 1914 4768 
C 1843 4768 1299 4296 986 3594 
C 666 2887 576 2199 576 1588 
C 576 1128 621 351 1005 -471 
C 1312 -1135 1837 -1600 1914 -1600 
C 1946 -1600 1958 -1587 1958 -1561 
z
" transform="scale(0.015625)"/>
      <path id="CMR17-5e" d="M 1466 4421 
L 678 3555 
L 755 3478 
L 1466 4166 
L 2176 3478 
L 2253 3555 
L 1466 4421 
z
" transform="scale(0.015625)"/>
      <path id="CMMI12-54" d="M 2669 3910 
C 2707 4064 2720 4121 2816 4147 
C 2867 4160 3078 4160 3213 4160 
C 3853 4160 4154 4134 4154 3634 
C 4154 3537 4128 3295 4090 3057 
L 4083 2980 
C 4083 2954 4109 2916 4147 2916 
C 4211 2916 4211 2948 4230 3050 
L 4416 4184 
C 4429 4243 4429 4256 4429 4275 
C 4429 4345 4390 4345 4262 4345 
L 762 4345 
C 614 4345 608 4339 570 4224 
L 179 3070 
C 173 3056 154 2986 154 2980 
C 154 2948 179 2916 218 2916 
C 269 2916 282 2941 307 3024 
C 576 3801 710 4160 1562 4160 
L 1990 4160 
C 2144 4160 2208 4160 2208 4089 
C 2208 4069 2208 4057 2176 3941 
L 1318 499 
C 1254 249 1242 185 563 185 
C 403 185 358 185 358 64 
C 358 0 429 0 461 0 
C 621 0 787 0 947 0 
L 1946 0 
C 2106 0 2278 0 2438 0 
C 2509 0 2573 0 2573 121 
C 2573 185 2528 185 2362 185 
C 1786 185 1786 243 1786 339 
C 1786 346 1786 391 1811 494 
L 2669 3910 
z
" transform="scale(0.015625)"/>
      <path id="CMMI12-69" d="M 1811 913 
C 1811 945 1786 971 1747 971 
C 1690 971 1683 952 1651 843 
C 1485 262 1222 64 1011 64 
C 934 64 845 83 845 275 
C 845 447 922 639 992 830 
L 1440 2018 
C 1459 2069 1504 2184 1504 2305 
C 1504 2574 1312 2816 998 2816 
C 410 2816 173 1890 173 1839 
C 173 1814 198 1782 243 1782 
C 301 1782 307 1807 333 1896 
C 486 2428 730 2682 979 2682 
C 1037 2682 1146 2682 1146 2478 
C 1146 2312 1062 2101 1011 1961 
L 563 773 
C 525 671 486 568 486 453 
C 486 166 685 -64 992 -64 
C 1581 -64 1811 869 1811 913 
z
M 1760 4013 
C 1760 4109 1683 4224 1542 4224 
C 1395 4224 1229 4083 1229 3917 
C 1229 3758 1363 3707 1440 3707 
C 1613 3707 1760 3873 1760 4013 
z
" transform="scale(0.015625)"/>
      <path id="CMR17-29" d="M 1683 1581 
C 1683 2040 1638 2817 1254 3639 
C 947 4303 422 4768 346 4768 
C 326 4768 301 4761 301 4729 
C 301 4717 307 4710 314 4697 
C 621 4378 1402 3568 1402 1584 
C 1402 -407 627 -1217 314 -1537 
C 307 -1549 301 -1556 301 -1568 
C 301 -1600 326 -1600 346 -1600 
C 416 -1600 960 -1128 1274 -426 
C 1594 281 1683 969 1683 1581 
z
" transform="scale(0.015625)"/>
      <path id="CMR17-3d" d="M 4115 2017 
C 4211 2017 4307 2017 4307 2125 
C 4307 2240 4198 2240 4090 2240 
L 512 2240 
C 403 2240 294 2240 294 2125 
C 294 2017 390 2017 486 2017 
L 4115 2017 
z
M 4090 896 
C 4198 896 4307 896 4307 1011 
C 4307 1119 4211 1119 4115 1119 
L 486 1119 
C 390 1119 294 1119 294 1011 
C 294 896 403 896 512 896 
L 4090 896 
z
" transform="scale(0.015625)"/>
      <path id="CMMI12-70" d="M 275 -789 
C 230 -980 205 -1031 -58 -1031 
C -134 -1031 -198 -1031 -198 -1152 
C -198 -1165 -192 -1216 -122 -1216 
C -38 -1216 51 -1216 134 -1216 
L 410 -1216 
C 544 -1216 870 -1216 1005 -1216 
C 1043 -1216 1120 -1216 1120 -1101 
C 1120 -1031 1075 -1031 966 -1031 
C 672 -1031 653 -987 653 -937 
C 653 -861 941 219 979 364 
C 1050 185 1222 -64 1555 -64 
C 2278 -64 3059 875 3059 1814 
C 3059 2401 2726 2816 2246 2816 
C 1837 2816 1491 2420 1421 2331 
C 1370 2650 1120 2816 864 2816 
C 678 2816 531 2727 410 2484 
C 294 2254 205 1865 205 1839 
C 205 1814 230 1782 275 1782 
C 326 1782 333 1788 371 1935 
C 467 2312 589 2689 845 2689 
C 992 2689 1043 2587 1043 2397 
C 1043 2245 1024 2181 998 2067 
L 275 -789 
z
M 1382 1993 
C 1427 2171 1606 2357 1709 2446 
C 1779 2510 1990 2689 2234 2689 
C 2515 2689 2643 2408 2643 2076 
C 2643 1769 2464 1047 2304 715 
C 2144 370 1850 64 1555 64 
C 1120 64 1050 613 1050 639 
C 1050 658 1062 709 1069 741 
L 1382 1993 
z
" transform="scale(0.015625)"/>
      <path id="CMR17-31" d="M 1702 4058 
C 1702 4192 1696 4192 1606 4192 
C 1357 3916 979 3827 621 3827 
C 602 3827 570 3827 563 3808 
C 557 3795 557 3782 557 3648 
C 755 3648 1088 3686 1344 3839 
L 1344 461 
C 1344 236 1331 160 781 160 
L 589 160 
L 589 0 
C 896 0 1216 0 1523 0 
C 1830 0 2150 0 2458 0 
L 2458 160 
L 2266 160 
C 1715 160 1702 230 1702 458 
L 1702 4058 
z
" transform="scale(0.015625)"/>
      <path id="CMSY10-0" d="M 4218 1472 
C 4326 1472 4442 1472 4442 1600 
C 4442 1728 4326 1728 4218 1728 
L 755 1728 
C 646 1728 531 1728 531 1600 
C 531 1472 646 1472 755 1472 
L 4218 1472 
z
" transform="scale(0.015625)"/>
      <path id="CMMI12-4e" d="M 4736 3698 
C 4806 3974 4909 4166 5395 4166 
C 5414 4166 5491 4166 5491 4279 
C 5491 4352 5434 4352 5408 4352 
C 5280 4352 4954 4352 4826 4352 
L 4518 4352 
C 4429 4352 4314 4352 4224 4352 
C 4186 4352 4109 4352 4109 4230 
C 4109 4166 4160 4166 4205 4166 
C 4589 4166 4614 4019 4614 3903 
C 4614 3846 4608 3826 4589 3737 
L 3866 850 
L 2496 4249 
C 2451 4352 2445 4352 2304 4352 
L 1523 4352 
C 1395 4352 1338 4352 1338 4230 
C 1338 4166 1382 4166 1504 4166 
C 1536 4166 1914 4166 1914 4115 
C 1914 4102 1901 4051 1894 4032 
L 1043 635 
C 966 320 813 186 390 186 
C 358 186 294 186 294 67 
C 294 0 358 0 378 0 
C 506 0 832 0 960 0 
L 1267 0 
C 1357 0 1466 0 1555 0 
C 1600 0 1670 0 1670 122 
C 1670 180 1606 186 1581 186 
C 1370 186 1165 224 1165 454 
C 1165 505 1178 562 1190 613 
L 2054 4032 
C 2093 3968 2093 3956 2118 3898 
L 3642 115 
C 3674 38 3686 0 3744 0 
C 3808 0 3814 19 3840 128 
L 4736 3698 
z
" transform="scale(0.015625)"/>
      <path id="CMMI12-71" d="M 2822 2759 
C 2822 2790 2797 2816 2765 2816 
C 2714 2816 2464 2585 2342 2362 
C 2227 2646 2029 2816 1754 2816 
C 1030 2816 250 1884 250 939 
C 250 307 621 -64 1056 -64 
C 1395 -64 1677 193 1811 339 
L 1818 333 
L 1574 -615 
L 1517 -842 
C 1459 -1031 1363 -1031 1062 -1031 
C 992 -1031 928 -1031 928 -1152 
C 928 -1197 966 -1216 1011 -1216 
C 1101 -1216 1216 -1216 1306 -1216 
L 1958 -1216 
C 2054 -1216 2163 -1216 2259 -1216 
C 2298 -1216 2374 -1216 2374 -1095 
C 2374 -1031 2323 -1031 2227 -1031 
C 1926 -1031 1907 -986 1907 -935 
C 1907 -904 1914 -898 1933 -815 
L 2822 2759 
z
M 1920 762 
C 1888 652 1888 640 1798 518 
C 1658 339 1376 64 1075 64 
C 813 64 666 301 666 678 
C 666 1030 864 1747 986 2016 
C 1203 2464 1504 2695 1754 2695 
C 2176 2695 2259 2170 2259 2119 
C 2259 2113 2240 2028 2234 2016 
L 1920 762 
z
" transform="scale(0.015625)"/>
      <path id="CMR17-32" d="M 2669 989 
L 2554 989 
C 2490 536 2438 459 2413 420 
C 2381 369 1920 369 1830 369 
L 602 369 
C 832 619 1280 1072 1824 1597 
C 2214 1967 2669 2402 2669 3035 
C 2669 3790 2067 4224 1395 4224 
C 691 4224 262 3604 262 3030 
C 262 2780 448 2748 525 2748 
C 589 2748 781 2787 781 3010 
C 781 3207 614 3264 525 3264 
C 486 3264 448 3258 422 3245 
C 544 3790 915 4058 1306 4058 
C 1862 4058 2227 3617 2227 3035 
C 2227 2479 1901 2000 1536 1584 
L 262 146 
L 262 0 
L 2515 0 
L 2669 989 
z
" transform="scale(0.015625)"/>
     </defs>
     <use xlink:href="#CMMI12-56" transform="scale(0.996264)"/>
     <use xlink:href="#CMMI12-61" transform="translate(78.547321 0) scale(0.996264)"/>
     <use xlink:href="#CMMI12-72" transform="translate(129.755178 0) scale(0.996264)"/>
     <use xlink:href="#CMR17-28" transform="translate(176.42579 0) scale(0.996264)"/>
     <use xlink:href="#CMR17-5e" transform="translate(232.352296 25.189733) scale(0.996264)"/>
     <use xlink:href="#CMMI12-54" transform="translate(211.706558 0) scale(0.996264)"/>
     <use xlink:href="#CMMI12-69" transform="translate(268.881602 -14.943915) scale(0.697382)"/>
     <use xlink:href="#CMR17-29" transform="translate(292.674641 0) scale(0.996264)"/>
     <use xlink:href="#CMR17-3d" transform="translate(355.629418 0) scale(0.996264)"/>
     <use xlink:href="#CMMI12-70" transform="translate(456.213729 48.260247) scale(0.697382)"/>
     <use xlink:href="#CMR17-28" transform="translate(490.485235 48.260247) scale(0.697382)"/>
     <use xlink:href="#CMR17-31" transform="translate(515.181655 48.260247) scale(0.697382)"/>
     <use xlink:href="#CMSY10-0" transform="translate(547.164837 48.260247) scale(0.697382)"/>
     <use xlink:href="#CMMI12-70" transform="translate(601.40583 48.260247) scale(0.697382)"/>
     <use xlink:href="#CMR17-29" transform="translate(635.677337 48.260247) scale(0.697382)"/>
     <use xlink:href="#CMMI12-4e" transform="translate(660.373757 48.260247) scale(0.697382)"/>
     <use xlink:href="#CMR17-28" transform="translate(492.262749 -34.355253) scale(0.697382)"/>
     <use xlink:href="#CMMI12-71" transform="translate(516.959169 -34.355253) scale(0.697382)"/>
     <use xlink:href="#CMSY10-0" transform="translate(549.737435 -34.355253) scale(0.697382)"/>
     <use xlink:href="#CMMI12-70" transform="translate(603.978428 -34.355253) scale(0.697382)"/>
     <use xlink:href="#CMR17-29" transform="translate(638.249934 -34.355253) scale(0.697382)"/>
     <use xlink:href="#CMR17-32" transform="translate(662.946355 -14.20868) scale(0.498132)"/>
     <path d="M 456.213729 22.914133 
L 722.33873 22.914133 
L 722.33873 26.899083 
L 456.213729 26.899083 
L 456.213729 22.914133 
z
"/>
    </g>
   </g>
  </g>
 </g>
</svg>
