<?xml version="1.0" encoding="utf-8" standalone="no"?>
<!DOCTYPE svg PUBLIC "-//W3C//DTD SVG 1.1//EN"
  "http://www.w3.org/Graphics/SVG/1.1/DTD/svg11.dtd">
<svg xmlns:xlink="http://www.w3.org/1999/xlink" width="572.4pt" height="125.28pt" viewBox="0 0 572.4 125.28" xmlns="http://www.w3.org/2000/svg" version="1.1">
 <metadata>
  <rdf:RDF xmlns:dc="http://purl.org/dc/elements/1.1/" xmlns:cc="http://creativecommons.org/ns#" xmlns:rdf="http://www.w3.org/1999/02/22-rdf-syntax-ns#">
   <cc:Work>
    <dc:type rdf:resource="http://purl.org/dc/dcmitype/StillImage"/>
    <dc:date>2025-11-27T22:03:59.418934</dc:date>
    <dc:format>image/svg+xml</dc:format>
    <dc:creator>
     <cc:Agent>
      <dc:title>Matplotlib v3.10.7, https://matplotlib.org/</dc:title>
     </cc:Agent>
    </dc:creator>
   </cc:Work>
  </rdf:RDF>
 </metadata>
 <defs>
  <style type="text/css">*{stroke-linejoin: round; stroke-linecap: butt}</style>
 </defs>
 <g id="figure_1">
  <g id="patch_1">
   <path d="M 0 125.28 
L 572.4 125.28 
L 572.4 0 
L 0 0 
L 0 125.28 
z
" style="fill: none; opacity: 0"/>
  </g>
  <g id="axes_1">
   <g id="text_1">
    <!-- $\epsilon_1 = h \log\left(\frac{q^*(1 - p^*)}{p^*(1 - q^*)}\right)$ -->
    <g transform="translate(205.770835 67.621312) scale(0.2 -0.2)">
     <defs>
      <path id="CMMI12-f" d="M 1862 1467 
C 1958 1467 2067 1467 2067 1569 
C 2067 1652 2003 1652 1888 1652 
L 851 1652 
C 1011 2226 1389 2573 1958 2573 
L 2144 2573 
C 2253 2573 2349 2573 2349 2675 
C 2349 2758 2278 2758 2163 2758 
L 1946 2758 
C 1158 2758 294 2131 294 1126 
C 294 416 774 -64 1408 -64 
C 1818 -64 2221 194 2221 258 
C 2221 296 2202 336 2163 336 
C 2144 336 2131 329 2099 304 
C 1856 142 1619 64 1427 64 
C 1088 64 730 290 730 918 
C 730 1040 742 1208 800 1467 
L 1862 1467 
z
" transform="scale(0.015625)"/>
      <path id="CMR17-31" d="M 1702 4058 
C 1702 4192 1696 4192 1606 4192 
C 1357 3916 979 3827 621 3827 
C 602 3827 570 3827 563 3808 
C 557 3795 557 3782 557 3648 
C 755 3648 1088 3686 1344 3839 
L 1344 461 
C 1344 236 1331 160 781 160 
L 589 160 
L 589 0 
C 896 0 1216 0 1523 0 
C 1830 0 2150 0 2458 0 
L 2458 160 
L 2266 160 
C 1715 160 1702 230 1702 458 
L 1702 4058 
z
" transform="scale(0.015625)"/>
      <path id="CMR17-3d" d="M 4115 2017 
C 4211 2017 4307 2017 4307 2125 
C 4307 2240 4198 2240 4090 2240 
L 512 2240 
C 403 2240 294 2240 294 2125 
C 294 2017 390 2017 486 2017 
L 4115 2017 
z
M 4090 896 
C 4198 896 4307 896 4307 1011 
C 4307 1119 4211 1119 4115 1119 
L 486 1119 
C 390 1119 294 1119 294 1011 
C 294 896 403 896 512 896 
L 4090 896 
z
" transform="scale(0.015625)"/>
      <path id="CMMI12-68" d="M 1798 4257 
C 1805 4283 1818 4321 1818 4352 
C 1818 4416 1754 4416 1741 4416 
C 1734 4416 1421 4388 1389 4380 
C 1280 4373 1184 4358 1069 4358 
C 909 4345 864 4339 864 4224 
C 864 4160 915 4160 1005 4160 
C 1318 4160 1325 4103 1325 4040 
C 1325 4002 1312 3951 1306 3932 
L 378 248 
C 352 152 352 140 352 101 
C 352 -38 461 -64 525 -64 
C 634 -64 717 19 749 89 
L 1037 1245 
C 1069 1386 1107 1520 1139 1660 
C 1210 1929 1210 1935 1331 2120 
C 1453 2305 1741 2689 2234 2689 
C 2490 2689 2579 2497 2579 2242 
C 2579 1884 2330 1188 2189 805 
C 2131 651 2099 568 2099 453 
C 2099 166 2298 -64 2605 -64 
C 3200 -64 3424 875 3424 913 
C 3424 945 3398 971 3360 971 
C 3302 971 3296 952 3264 843 
C 3117 332 2880 64 2624 64 
C 2560 64 2458 64 2458 269 
C 2458 436 2534 640 2560 710 
C 2675 1018 2963 1773 2963 2145 
C 2963 2528 2739 2816 2253 2816 
C 1888 2816 1568 2644 1306 2312 
L 1798 4257 
z
" transform="scale(0.015625)"/>
      <path id="CMR17-6c" d="M 979 4396 
L 218 4326 
L 218 4160 
C 595 4160 653 4122 653 3817 
L 653 426 
C 653 184 627 153 218 153 
L 218 -13 
C 371 0 653 0 813 0 
C 979 0 1261 0 1414 -13 
L 1414 153 
C 1005 153 979 178 979 426 
L 979 4396 
z
" transform="scale(0.015625)"/>
      <path id="CMR17-6f" d="M 2758 1356 
C 2758 2176 2163 2816 1466 2816 
C 768 2816 173 2176 173 1356 
C 173 551 768 -64 1466 -64 
C 2163 -64 2758 551 2758 1356 
z
M 1466 51 
C 1165 51 909 230 762 480 
C 602 767 582 1126 582 1408 
C 582 1677 595 2010 762 2298 
C 890 2509 1139 2714 1466 2714 
C 1754 2714 1997 2554 2150 2330 
C 2349 2029 2349 1607 2349 1408 
C 2349 1158 2336 775 2163 467 
C 1984 173 1709 51 1466 51 
z
" transform="scale(0.015625)"/>
      <path id="CMR17-67" d="M 710 1164 
C 832 1068 1043 960 1299 960 
C 1805 960 2240 1357 2240 1888 
C 2240 2054 2189 2310 1997 2509 
C 2176 2692 2438 2752 2586 2752 
C 2611 2752 2650 2752 2682 2734 
C 2656 2728 2598 2703 2598 2605 
C 2598 2527 2656 2471 2739 2471 
C 2835 2471 2886 2533 2886 2614 
C 2886 2731 2790 2854 2586 2854 
C 2330 2854 2106 2738 1926 2580 
C 1734 2753 1504 2816 1299 2816 
C 794 2816 358 2419 358 1888 
C 358 1522 570 1292 634 1228 
C 442 1004 442 743 442 711 
C 442 545 506 302 723 168 
C 390 85 128 -169 128 -486 
C 128 -943 736 -1280 1466 -1280 
C 2170 -1280 2803 -956 2803 -479 
C 2803 384 1856 384 1363 384 
C 1216 384 954 384 922 391 
C 723 423 589 602 589 826 
C 589 883 589 1024 710 1164 
z
M 1299 1068 
C 736 1068 736 1760 736 1889 
C 736 2016 736 2708 1299 2708 
C 1862 2708 1862 2016 1862 1889 
C 1862 1760 1862 1068 1299 1068 
z
M 1466 -1171 
C 826 -1171 384 -835 384 -486 
C 384 -289 493 -105 634 -4 
C 794 104 858 104 1293 104 
C 1818 104 2547 104 2547 -486 
C 2547 -835 2106 -1171 1466 -1171 
z
" transform="scale(0.015625)"/>
      <path id="CMEX10-10" d="M 3296 -11187 
C 3309 -11194 3366 -11258 3373 -11258 
L 3514 -11258 
C 3533 -11258 3584 -11251 3584 -11194 
C 3584 -11168 3571 -11155 3558 -11136 
C 3328 -10906 2982 -10554 2586 -9850 
C 1894 -8621 1638 -7040 1638 -5504 
C 1638 -2662 2445 -992 3565 141 
C 3584 160 3584 179 3584 192 
C 3584 256 3539 256 3462 256 
C 3379 256 3366 256 3309 205 
C 2701 -320 2016 -1210 1574 -2560 
C 1299 -3405 1152 -4435 1152 -5498 
C 1152 -7014 1427 -8730 2432 -10214 
C 2605 -10464 2842 -10726 2842 -10733 
C 2906 -10810 2995 -10912 3046 -10957 
L 3296 -11187 
z
" transform="scale(0.015625)"/>
      <path id="CMMI12-71" d="M 2822 2759 
C 2822 2790 2797 2816 2765 2816 
C 2714 2816 2464 2585 2342 2362 
C 2227 2646 2029 2816 1754 2816 
C 1030 2816 250 1884 250 939 
C 250 307 621 -64 1056 -64 
C 1395 -64 1677 193 1811 339 
L 1818 333 
L 1574 -615 
L 1517 -842 
C 1459 -1031 1363 -1031 1062 -1031 
C 992 -1031 928 -1031 928 -1152 
C 928 -1197 966 -1216 1011 -1216 
C 1101 -1216 1216 -1216 1306 -1216 
L 1958 -1216 
C 2054 -1216 2163 -1216 2259 -1216 
C 2298 -1216 2374 -1216 2374 -1095 
C 2374 -1031 2323 -1031 2227 -1031 
C 1926 -1031 1907 -986 1907 -935 
C 1907 -904 1914 -898 1933 -815 
L 2822 2759 
z
M 1920 762 
C 1888 652 1888 640 1798 518 
C 1658 339 1376 64 1075 64 
C 813 64 666 301 666 678 
C 666 1030 864 1747 986 2016 
C 1203 2464 1504 2695 1754 2695 
C 2176 2695 2259 2170 2259 2119 
C 2259 2113 2240 2028 2234 2016 
L 1920 762 
z
" transform="scale(0.015625)"/>
      <path id="CMSY10-3" d="M 1760 2719 
C 1766 2808 1766 2962 1600 2962 
C 1498 2962 1414 2879 1434 2795 
L 1434 2712 
L 1523 1720 
L 704 2316 
C 646 2348 634 2360 589 2360 
C 499 2360 416 2271 416 2181 
C 416 2079 480 2053 544 2021 
L 1453 1586 
L 570 1158 
C 467 1107 416 1081 416 985 
C 416 889 499 806 589 806 
C 634 806 646 806 806 928 
L 1523 1446 
L 1427 371 
C 1427 236 1542 204 1594 204 
C 1670 204 1766 248 1766 371 
L 1670 1446 
L 2490 851 
C 2547 819 2560 806 2605 806 
C 2694 806 2778 896 2778 985 
C 2778 1081 2720 1113 2643 1152 
C 2259 1343 2246 1343 1741 1580 
L 2624 2008 
C 2726 2060 2778 2085 2778 2181 
C 2778 2277 2694 2360 2605 2360 
C 2560 2360 2547 2360 2387 2239 
L 1670 1720 
L 1760 2719 
z
" transform="scale(0.015625)"/>
      <path id="CMR17-28" d="M 1958 -1561 
C 1958 -1555 1958 -1542 1939 -1523 
C 1645 -1224 858 -407 858 1581 
C 858 3569 1632 4379 1946 4697 
C 1946 4704 1958 4717 1958 4736 
C 1958 4755 1939 4768 1914 4768 
C 1843 4768 1299 4296 986 3594 
C 666 2887 576 2199 576 1588 
C 576 1128 621 351 1005 -471 
C 1312 -1135 1837 -1600 1914 -1600 
C 1946 -1600 1958 -1587 1958 -1561 
z
" transform="scale(0.015625)"/>
      <path id="CMSY10-0" d="M 4218 1472 
C 4326 1472 4442 1472 4442 1600 
C 4442 1728 4326 1728 4218 1728 
L 755 1728 
C 646 1728 531 1728 531 1600 
C 531 1472 646 1472 755 1472 
L 4218 1472 
z
" transform="scale(0.015625)"/>
      <path id="CMMI12-70" d="M 275 -789 
C 230 -980 205 -1031 -58 -1031 
C -134 -1031 -198 -1031 -198 -1152 
C -198 -1165 -192 -1216 -122 -1216 
C -38 -1216 51 -1216 134 -1216 
L 410 -1216 
C 544 -1216 870 -1216 1005 -1216 
C 1043 -1216 1120 -1216 1120 -1101 
C 1120 -1031 1075 -1031 966 -1031 
C 672 -1031 653 -987 653 -937 
C 653 -861 941 219 979 364 
C 1050 185 1222 -64 1555 -64 
C 2278 -64 3059 875 3059 1814 
C 3059 2401 2726 2816 2246 2816 
C 1837 2816 1491 2420 1421 2331 
C 1370 2650 1120 2816 864 2816 
C 678 2816 531 2727 410 2484 
C 294 2254 205 1865 205 1839 
C 205 1814 230 1782 275 1782 
C 326 1782 333 1788 371 1935 
C 467 2312 589 2689 845 2689 
C 992 2689 1043 2587 1043 2397 
C 1043 2245 1024 2181 998 2067 
L 275 -789 
z
M 1382 1993 
C 1427 2171 1606 2357 1709 2446 
C 1779 2510 1990 2689 2234 2689 
C 2515 2689 2643 2408 2643 2076 
C 2643 1769 2464 1047 2304 715 
C 2144 370 1850 64 1555 64 
C 1120 64 1050 613 1050 639 
C 1050 658 1062 709 1069 741 
L 1382 1993 
z
" transform="scale(0.015625)"/>
      <path id="CMR17-29" d="M 1683 1581 
C 1683 2040 1638 2817 1254 3639 
C 947 4303 422 4768 346 4768 
C 326 4768 301 4761 301 4729 
C 301 4717 307 4710 314 4697 
C 621 4378 1402 3568 1402 1584 
C 1402 -407 627 -1217 314 -1537 
C 307 -1549 301 -1556 301 -1568 
C 301 -1600 326 -1600 346 -1600 
C 416 -1600 960 -1128 1274 -426 
C 1594 281 1683 969 1683 1581 
z
" transform="scale(0.015625)"/>
      <path id="CMEX10-11" d="M 2662 -5498 
C 2662 -3661 2234 -1709 973 -269 
C 883 -166 646 83 493 218 
C 448 256 435 256 352 256 
C 288 256 230 256 230 192 
C 230 166 256 141 269 128 
C 486 -96 832 -448 1229 -1152 
C 1920 -2381 2176 -3962 2176 -5498 
C 2176 -8275 1408 -9971 256 -11142 
C 243 -11155 230 -11174 230 -11194 
C 230 -11258 288 -11258 352 -11258 
C 435 -11258 448 -11258 506 -11206 
C 1114 -10682 1798 -9792 2240 -8442 
C 2522 -7565 2662 -6528 2662 -5498 
z
" transform="scale(0.015625)"/>
     </defs>
     <use xlink:href="#CMMI12-f" transform="scale(0.996264)"/>
     <use xlink:href="#CMR17-31" transform="translate(39.388958 -14.943915) scale(0.697382)"/>
     <use xlink:href="#CMR17-3d" transform="translate(99.544281 0) scale(0.996264)"/>
     <use xlink:href="#CMMI12-68" transform="translate(198.933078 0) scale(0.996264)"/>
     <use xlink:href="#CMR17-6c" transform="translate(271.692107 0) scale(0.996264)"/>
     <use xlink:href="#CMR17-6f" transform="translate(296.563166 0) scale(0.996264)"/>
     <use xlink:href="#CMR17-67" transform="translate(342.253643 0) scale(0.996264)"/>
     <use xlink:href="#CMEX10-10" transform="translate(405.849691 110.586308) scale(0.996264)"/>
     <use xlink:href="#CMMI12-71" transform="translate(466.544495 48.260247) scale(0.697382)"/>
     <use xlink:href="#CMSY10-3" transform="translate(499.322761 73.567673) scale(0.498132)"/>
     <use xlink:href="#CMR17-28" transform="translate(524.727584 48.260247) scale(0.697382)"/>
     <use xlink:href="#CMR17-31" transform="translate(549.424004 48.260247) scale(0.697382)"/>
     <use xlink:href="#CMSY10-0" transform="translate(581.407186 48.260247) scale(0.697382)"/>
     <use xlink:href="#CMMI12-70" transform="translate(635.64818 48.260247) scale(0.697382)"/>
     <use xlink:href="#CMSY10-3" transform="translate(669.919686 73.567673) scale(0.498132)"/>
     <use xlink:href="#CMR17-29" transform="translate(695.324509 48.260247) scale(0.697382)"/>
     <use xlink:href="#CMMI12-70" transform="translate(466.544495 -34.355253) scale(0.697382)"/>
     <use xlink:href="#CMSY10-3" transform="translate(500.816001 -14.20868) scale(0.498132)"/>
     <use xlink:href="#CMR17-28" transform="translate(526.220825 -34.355253) scale(0.697382)"/>
     <use xlink:href="#CMR17-31" transform="translate(550.917245 -34.355253) scale(0.697382)"/>
     <use xlink:href="#CMSY10-0" transform="translate(582.900427 -34.355253) scale(0.697382)"/>
     <use xlink:href="#CMMI12-71" transform="translate(637.14142 -34.355253) scale(0.697382)"/>
     <use xlink:href="#CMSY10-3" transform="translate(669.919686 -14.20868) scale(0.498132)"/>
     <use xlink:href="#CMR17-29" transform="translate(695.324509 -34.355253) scale(0.697382)"/>
     <use xlink:href="#CMEX10-11" transform="translate(721.216444 110.586308) scale(0.996264)"/>
     <path d="M 466.544495 22.914133 
L 720.02093 22.914133 
L 720.02093 26.899083 
L 466.544495 26.899083 
L 466.544495 22.914133 
z
"/>
    </g>
   </g>
  </g>
 </g>
</svg>
