<?xml version="1.0" encoding="utf-8" standalone="no"?>
<!DOCTYPE svg PUBLIC "-//W3C//DTD SVG 1.1//EN"
  "http://www.w3.org/Graphics/SVG/1.1/DTD/svg11.dtd">
<svg xmlns:xlink="http://www.w3.org/1999/xlink" width="684pt" height="153pt" viewBox="0 0 684 153" xmlns="http://www.w3.org/2000/svg" version="1.1">
 <metadata>
  <rdf:RDF xmlns:dc="http://purl.org/dc/elements/1.1/" xmlns:cc="http://creativecommons.org/ns#" xmlns:rdf="http://www.w3.org/1999/02/22-rdf-syntax-ns#">
   <cc:Work>
    <dc:type rdf:resource="http://purl.org/dc/dcmitype/StillImage"/>
    <dc:date>2025-11-30T12:34:48.006481</dc:date>
    <dc:format>image/svg+xml</dc:format>
    <dc:creator>
     <cc:Agent>
      <dc:title>Matplotlib v3.10.7, https://matplotlib.org/</dc:title>
     </cc:Agent>
    </dc:creator>
   </cc:Work>
  </rdf:RDF>
 </metadata>
 <defs>
  <style type="text/css">*{stroke-linejoin: round; stroke-linecap: butt}</style>
 </defs>
 <g id="figure_1">
  <g id="patch_1">
   <path d="M 0 153 
L 684 153 
L 684 0 
L 0 0 
L 0 153 
z
" style="fill: none; opacity: 0"/>
  </g>
  <g id="axes_1">
   <g id="text_1">
    <!-- $\text{Var}^* \text{ : worst-case variance}$ -->
    <g transform="translate(7.2 25.045056) scale(0.16 -0.16)">
     <defs>
      <path id="CMR17-56" d="M 3776 3745 
C 3834 3886 3936 4160 4365 4160 
L 4365 4332 
C 4218 4319 4051 4319 3891 4319 
C 3738 4319 3475 4319 3328 4332 
L 3328 4160 
C 3648 4160 3661 3936 3661 3898 
C 3661 3827 3642 3783 3622 3732 
L 2362 446 
L 1043 3886 
C 1024 3931 1011 3963 1011 3994 
C 1011 4160 1267 4160 1402 4160 
L 1402 4319 
C 1197 4319 896 4319 685 4319 
C 518 4319 218 4319 64 4332 
L 64 4160 
C 435 4160 506 4135 582 3931 
L 2106 -26 
C 2138 -115 2144 -128 2214 -128 
C 2285 -128 2291 -115 2323 -26 
L 3776 3745 
z
" transform="scale(0.015625)"/>
      <path id="CMR17-61" d="M 2304 1653 
C 2304 2072 2304 2294 2035 2543 
C 1798 2752 1523 2816 1306 2816 
C 800 2816 435 2407 435 1971 
C 435 1728 627 1728 666 1728 
C 749 1728 896 1778 896 1954 
C 896 2112 774 2181 666 2181 
C 640 2181 608 2174 589 2168 
C 723 2592 1069 2714 1293 2714 
C 1613 2714 1965 2429 1965 1885 
L 1965 1600 
C 1587 1600 1133 1549 774 1357 
C 371 1133 256 813 256 570 
C 256 77 832 -64 1171 -64 
C 1523 -64 1850 139 1990 511 
C 2003 233 2182 -18 2464 -18 
C 2598 -18 2938 70 2938 567 
L 2938 920 
L 2822 920 
L 2822 562 
C 2822 178 2650 128 2566 128 
C 2304 128 2304 458 2304 738 
L 2304 1653 
z
M 1965 870 
C 1965 317 1568 38 1216 38 
C 896 38 646 275 646 570 
C 646 761 730 1100 1101 1305 
C 1408 1478 1760 1504 1965 1504 
L 1965 870 
z
" transform="scale(0.015625)"/>
      <path id="CMR17-72" d="M 960 1497 
C 960 2112 1222 2688 1702 2688 
C 1747 2688 1792 2682 1837 2662 
C 1837 2662 1696 2617 1696 2452 
C 1696 2298 1818 2234 1914 2234 
C 1990 2234 2131 2279 2131 2458 
C 2131 2663 1926 2790 1709 2790 
C 1222 2790 1011 2317 947 2093 
L 941 2093 
L 941 2790 
L 198 2720 
L 198 2554 
C 576 2554 634 2515 634 2208 
L 634 428 
C 634 184 608 153 198 153 
L 198 -13 
C 352 0 646 0 813 0 
C 998 0 1325 0 1498 -13 
L 1498 153 
C 1037 153 960 153 960 440 
L 960 1497 
z
" transform="scale(0.015625)"/>
      <path id="CMSY10-3" d="M 1760 2719 
C 1766 2808 1766 2962 1600 2962 
C 1498 2962 1414 2879 1434 2795 
L 1434 2712 
L 1523 1720 
L 704 2316 
C 646 2348 634 2360 589 2360 
C 499 2360 416 2271 416 2181 
C 416 2079 480 2053 544 2021 
L 1453 1586 
L 570 1158 
C 467 1107 416 1081 416 985 
C 416 889 499 806 589 806 
C 634 806 646 806 806 928 
L 1523 1446 
L 1427 371 
C 1427 236 1542 204 1594 204 
C 1670 204 1766 248 1766 371 
L 1670 1446 
L 2490 851 
C 2547 819 2560 806 2605 806 
C 2694 806 2778 896 2778 985 
C 2778 1081 2720 1113 2643 1152 
C 2259 1343 2246 1343 1741 1580 
L 2624 2008 
C 2726 2060 2778 2085 2778 2181 
C 2778 2277 2694 2360 2605 2360 
C 2560 2360 2547 2360 2387 2239 
L 1670 1720 
L 1760 2719 
z
" transform="scale(0.015625)"/>
      <path id="CMR17-3a" d="M 1062 2491 
C 1062 2650 934 2752 800 2752 
C 672 2752 538 2650 538 2491 
C 538 2332 666 2230 800 2230 
C 928 2230 1062 2332 1062 2491 
z
M 1062 261 
C 1062 420 934 522 800 522 
C 672 522 538 420 538 261 
C 538 102 666 0 800 0 
C 928 0 1062 102 1062 261 
z
" transform="scale(0.015625)"/>
      <path id="CMR17-77" d="M 3725 2183 
C 3853 2560 4109 2560 4205 2560 
L 4205 2732 
C 4077 2732 3949 2732 3821 2732 
C 3699 2732 3424 2732 3315 2738 
L 3315 2560 
C 3514 2560 3622 2445 3622 2286 
C 3622 2241 3610 2184 3597 2140 
L 2995 407 
L 2342 2275 
C 2330 2319 2310 2370 2310 2395 
C 2310 2560 2528 2560 2630 2560 
L 2630 2738 
C 2483 2732 2214 2732 2061 2732 
C 1901 2732 1734 2732 1587 2738 
L 1587 2560 
C 1939 2560 1939 2547 2074 2149 
L 1485 451 
L 851 2281 
C 819 2363 819 2376 819 2395 
C 819 2560 1037 2560 1139 2560 
L 1139 2738 
C 986 2732 717 2732 557 2732 
C 416 2732 198 2732 64 2738 
L 64 2560 
C 346 2560 416 2541 486 2331 
L 1274 49 
C 1299 -33 1318 -52 1370 -52 
C 1414 -52 1440 -39 1472 56 
L 2131 1980 
L 2797 56 
C 2829 -39 2854 -52 2899 -52 
C 2950 -52 2970 -33 2995 50 
L 3725 2183 
z
" transform="scale(0.015625)"/>
      <path id="CMR17-6f" d="M 2758 1356 
C 2758 2176 2163 2816 1466 2816 
C 768 2816 173 2176 173 1356 
C 173 551 768 -64 1466 -64 
C 2163 -64 2758 551 2758 1356 
z
M 1466 51 
C 1165 51 909 230 762 480 
C 602 767 582 1126 582 1408 
C 582 1677 595 2010 762 2298 
C 890 2509 1139 2714 1466 2714 
C 1754 2714 1997 2554 2150 2330 
C 2349 2029 2349 1607 2349 1408 
C 2349 1158 2336 775 2163 467 
C 1984 173 1709 51 1466 51 
z
" transform="scale(0.015625)"/>
      <path id="CMR17-73" d="M 1978 2697 
C 1978 2813 1971 2819 1933 2819 
C 1907 2819 1901 2813 1824 2717 
C 1805 2691 1747 2626 1728 2601 
C 1523 2819 1235 2819 1126 2819 
C 416 2819 160 2447 160 2076 
C 160 1498 813 1365 998 1325 
C 1402 1243 1542 1217 1677 1101 
C 1760 1025 1901 884 1901 654 
C 1901 384 1747 38 1158 38 
C 602 38 403 460 288 1021 
C 269 1110 269 1117 218 1117 
C 166 1117 160 1110 160 983 
L 160 63 
C 160 -51 166 -58 205 -58 
C 237 -58 243 -51 275 0 
C 314 57 410 211 448 276 
C 576 103 800 -64 1158 -64 
C 1792 -64 2131 283 2131 784 
C 2131 1112 1958 1285 1875 1362 
C 1683 1561 1459 1606 1190 1657 
C 838 1735 390 1825 390 2217 
C 390 2383 480 2737 1126 2737 
C 1811 2737 1850 2094 1862 1888 
C 1869 1856 1901 1849 1920 1849 
C 1978 1849 1978 1869 1978 1978 
L 1978 2697 
z
" transform="scale(0.015625)"/>
      <path id="CMR17-74" d="M 966 2560 
L 1862 2560 
L 1862 2725 
L 966 2725 
L 966 3904 
L 851 3904 
C 838 3245 614 2668 70 2668 
L 70 2560 
L 627 2560 
L 627 771 
C 627 650 627 -64 1370 -64 
C 1747 -64 1965 306 1965 777 
L 1965 1140 
L 1850 1140 
L 1850 783 
C 1850 344 1677 51 1408 51 
C 1222 51 966 178 966 758 
L 966 2560 
z
" transform="scale(0.015625)"/>
      <path id="CMR17-2d" d="M 1632 1216 
L 1632 1496 
L 26 1496 
L 26 1216 
L 1632 1216 
z
" transform="scale(0.015625)"/>
      <path id="CMR17-63" d="M 2234 2240 
C 2112 2240 1933 2240 1933 2017 
C 1933 1838 2080 1787 2163 1787 
C 2208 1787 2394 1807 2394 2024 
C 2394 2467 1958 2803 1466 2803 
C 787 2803 211 2178 211 1363 
C 211 516 813 -64 1466 -64 
C 2259 -64 2458 677 2458 748 
C 2458 774 2451 793 2406 793 
C 2362 793 2355 787 2330 703 
C 2163 180 1798 51 1523 51 
C 1114 51 621 427 621 1369 
C 621 2338 1094 2688 1472 2688 
C 1722 2688 2093 2573 2234 2240 
z
" transform="scale(0.015625)"/>
      <path id="CMR17-65" d="M 2438 1472 
C 2464 1498 2464 1511 2464 1576 
C 2464 2238 2118 2816 1389 2816 
C 710 2816 173 2169 173 1383 
C 173 551 781 -64 1459 -64 
C 2176 -64 2458 607 2458 740 
C 2458 784 2419 784 2406 784 
C 2362 784 2355 771 2330 696 
C 2189 265 1837 51 1504 51 
C 1229 51 954 203 781 480 
C 582 803 582 1176 582 1472 
L 2438 1472 
z
M 589 1568 
C 634 2505 1126 2714 1382 2714 
C 1818 2714 2112 2297 2118 1568 
L 589 1568 
z
" transform="scale(0.015625)"/>
      <path id="CMR17-76" d="M 2502 2163 
C 2560 2304 2662 2560 3034 2560 
L 3034 2726 
C 2912 2726 2752 2726 2630 2726 
C 2496 2726 2285 2726 2157 2732 
L 2157 2566 
C 2317 2553 2406 2477 2406 2311 
C 2406 2253 2406 2240 2368 2151 
L 1664 377 
L 902 2286 
C 864 2369 864 2381 864 2407 
C 864 2560 1075 2560 1171 2560 
L 1171 2732 
C 1018 2726 736 2726 576 2726 
C 403 2726 205 2726 64 2732 
L 64 2560 
C 307 2560 442 2560 518 2362 
L 1446 44 
C 1485 -51 1491 -64 1549 -64 
C 1606 -64 1613 -51 1651 44 
L 2502 2163 
z
" transform="scale(0.015625)"/>
      <path id="CMR17-69" d="M 992 3909 
C 992 4049 877 4170 730 4170 
C 589 4170 467 4056 467 3909 
C 467 3769 582 3648 730 3648 
C 870 3648 992 3763 992 3909 
z
M 243 2706 
L 243 2541 
C 602 2541 653 2502 653 2197 
L 653 427 
C 653 184 627 153 218 153 
L 218 -13 
C 371 0 646 0 806 0 
C 960 0 1222 0 1370 -13 
L 1370 153 
C 992 153 979 191 979 420 
L 979 2776 
L 243 2706 
z
" transform="scale(0.015625)"/>
      <path id="CMR17-6e" d="M 2656 1933 
C 2656 2259 2592 2790 1837 2790 
C 1331 2790 1069 2400 973 2144 
L 966 2144 
L 966 2790 
L 211 2720 
L 211 2554 
C 589 2554 646 2515 646 2208 
L 646 428 
C 646 184 621 153 211 153 
L 211 -13 
C 365 0 646 0 813 0 
C 979 0 1267 0 1421 -13 
L 1421 153 
C 1011 153 986 178 986 428 
L 986 1658 
C 986 2247 1344 2688 1792 2688 
C 2266 2688 2317 2266 2317 1958 
L 2317 428 
C 2317 184 2291 153 1882 153 
L 1882 -13 
C 2035 0 2317 0 2483 0 
C 2650 0 2938 0 3091 -13 
L 3091 153 
C 2682 153 2656 178 2656 428 
L 2656 1933 
z
" transform="scale(0.015625)"/>
     </defs>
     <use xlink:href="#CMR17-56" transform="scale(0.996264)"/>
     <use xlink:href="#CMR17-61" transform="translate(61.265174 0) scale(0.996264)"/>
     <use xlink:href="#CMR17-72" transform="translate(106.955652 0) scale(0.996264)"/>
     <use xlink:href="#CMSY10-3" transform="translate(142.236419 41.137482) scale(0.697382)"/>
     <use xlink:href="#CMR17-3a" transform="translate(207.679728 0) scale(0.996264)"/>
     <use xlink:href="#CMR17-77" transform="translate(273.036447 0) scale(0.996264)"/>
     <use xlink:href="#CMR17-6f" transform="translate(336.943873 0) scale(0.996264)"/>
     <use xlink:href="#CMR17-72" transform="translate(382.63435 0) scale(0.996264)"/>
     <use xlink:href="#CMR17-73" transform="translate(417.915118 0) scale(0.996264)"/>
     <use xlink:href="#CMR17-74" transform="translate(453.716456 0) scale(0.996264)"/>
     <use xlink:href="#CMR17-2d" transform="translate(488.997224 0) scale(0.996264)"/>
     <use xlink:href="#CMR17-63" transform="translate(519.07319 0) scale(0.996264)"/>
     <use xlink:href="#CMR17-61" transform="translate(559.55885 0) scale(0.996264)"/>
     <use xlink:href="#CMR17-73" transform="translate(605.249327 0) scale(0.996264)"/>
     <use xlink:href="#CMR17-65" transform="translate(641.050665 0) scale(0.996264)"/>
     <use xlink:href="#CMR17-76" transform="translate(711.612292 0) scale(0.996264)"/>
     <use xlink:href="#CMR17-61" transform="translate(754.700391 0) scale(0.996264)"/>
     <use xlink:href="#CMR17-72" transform="translate(800.390868 0) scale(0.996264)"/>
     <use xlink:href="#CMR17-69" transform="translate(835.671636 0) scale(0.996264)"/>
     <use xlink:href="#CMR17-61" transform="translate(860.542695 0) scale(0.996264)"/>
     <use xlink:href="#CMR17-6e" transform="translate(906.233172 0) scale(0.996264)"/>
     <use xlink:href="#CMR17-63" transform="translate(957.128541 0) scale(0.996264)"/>
     <use xlink:href="#CMR17-65" transform="translate(997.614202 0) scale(0.996264)"/>
    </g>
   </g>
   <g id="text_2">
    <!-- $\tilde{c}_{DE}(i) \text{ : estimated count}$ -->
    <g transform="translate(7.2 52.765056) scale(0.16 -0.16)">
     <defs>
      <path id="CMR17-7e" d="M 2400 4184 
C 2182 3980 2061 3865 1862 3865 
C 1722 3865 1626 3932 1491 4024 
C 1363 4111 1261 4184 1120 4184 
C 890 4184 730 4004 461 3718 
L 531 3648 
C 749 3850 870 3968 1069 3968 
C 1210 3968 1306 3900 1440 3808 
C 1568 3722 1670 3648 1811 3648 
C 2042 3648 2202 3828 2470 4114 
L 2400 4184 
z
" transform="scale(0.015625)"/>
      <path id="CMMI12-63" d="M 2502 2431 
C 2381 2431 2323 2431 2234 2355 
C 2195 2323 2125 2227 2125 2125 
C 2125 1997 2221 1920 2342 1920 
C 2496 1920 2669 2044 2669 2292 
C 2669 2588 2374 2816 1933 2816 
C 1094 2816 256 1903 256 996 
C 256 441 602 -64 1254 -64 
C 2125 -64 2675 622 2675 706 
C 2675 744 2637 776 2611 776 
C 2592 776 2586 770 2528 713 
C 2118 162 1510 64 1267 64 
C 826 64 685 446 685 764 
C 685 988 794 1605 1024 2039 
C 1190 2338 1536 2682 1939 2682 
C 2022 2682 2374 2682 2502 2431 
z
" transform="scale(0.015625)"/>
      <path id="CMMI12-44" d="M 1005 472 
C 947 249 934 185 486 185 
C 365 185 301 185 301 70 
C 301 0 339 0 467 0 
L 2496 0 
C 3789 0 5050 1332 5050 2753 
C 5050 3671 4499 4352 3584 4352 
L 1530 4352 
C 1408 4352 1350 4352 1350 4231 
C 1350 4167 1408 4167 1504 4167 
C 1894 4167 1894 4116 1894 4046 
C 1894 4034 1894 3995 1869 3899 
L 1005 472 
z
M 2355 3931 
C 2413 4167 2438 4167 2688 4167 
L 3392 4167 
C 3994 4167 4544 3842 4544 2963 
C 4544 2644 4416 1536 3795 835 
C 3616 625 3130 185 2394 185 
L 1664 185 
C 1574 185 1562 185 1523 192 
C 1453 198 1446 211 1446 262 
C 1446 307 1459 345 1472 402 
L 2355 3931 
z
" transform="scale(0.015625)"/>
      <path id="CMMI12-45" d="M 4448 1489 
C 4454 1508 4474 1554 4474 1579 
C 4474 1611 4448 1643 4410 1643 
C 4384 1643 4371 1637 4352 1617 
C 4339 1611 4339 1598 4282 1469 
C 3904 570 3629 185 2605 185 
L 1670 185 
C 1581 185 1568 185 1530 192 
C 1459 198 1453 211 1453 262 
C 1453 307 1466 345 1478 403 
L 1920 2176 
L 2554 2176 
C 3053 2176 3091 2066 3091 1874 
C 3091 1810 3091 1752 3046 1560 
C 3034 1534 3027 1508 3027 1489 
C 3027 1444 3059 1425 3098 1425 
C 3155 1425 3162 1469 3187 1559 
L 3552 3042 
C 3552 3073 3526 3105 3488 3105 
C 3430 3105 3424 3080 3398 2990 
C 3270 2501 3142 2361 2573 2361 
L 1965 2361 
L 2362 3930 
C 2419 4154 2432 4154 2694 4154 
L 3610 4154 
C 4397 4154 4557 3943 4557 3458 
C 4557 3451 4557 3273 4531 3062 
C 4525 3036 4518 2998 4518 2985 
C 4518 2934 4550 2915 4589 2915 
C 4634 2915 4659 2941 4672 3055 
L 4806 4174 
C 4806 4195 4819 4263 4819 4277 
C 4819 4352 4762 4352 4646 4352 
L 1523 4352 
C 1402 4352 1338 4352 1338 4229 
C 1338 4154 1382 4154 1491 4154 
C 1888 4154 1888 4114 1888 4052 
C 1888 4020 1882 3994 1862 3924 
L 998 473 
C 941 249 928 185 480 185 
C 358 185 294 185 294 70 
C 294 0 333 0 461 0 
L 3674 0 
C 3814 0 3821 6 3866 110 
L 4448 1489 
z
" transform="scale(0.015625)"/>
      <path id="CMR17-28" d="M 1958 -1561 
C 1958 -1555 1958 -1542 1939 -1523 
C 1645 -1224 858 -407 858 1581 
C 858 3569 1632 4379 1946 4697 
C 1946 4704 1958 4717 1958 4736 
C 1958 4755 1939 4768 1914 4768 
C 1843 4768 1299 4296 986 3594 
C 666 2887 576 2199 576 1588 
C 576 1128 621 351 1005 -471 
C 1312 -1135 1837 -1600 1914 -1600 
C 1946 -1600 1958 -1587 1958 -1561 
z
" transform="scale(0.015625)"/>
      <path id="CMMI12-69" d="M 1811 913 
C 1811 945 1786 971 1747 971 
C 1690 971 1683 952 1651 843 
C 1485 262 1222 64 1011 64 
C 934 64 845 83 845 275 
C 845 447 922 639 992 830 
L 1440 2018 
C 1459 2069 1504 2184 1504 2305 
C 1504 2574 1312 2816 998 2816 
C 410 2816 173 1890 173 1839 
C 173 1814 198 1782 243 1782 
C 301 1782 307 1807 333 1896 
C 486 2428 730 2682 979 2682 
C 1037 2682 1146 2682 1146 2478 
C 1146 2312 1062 2101 1011 1961 
L 563 773 
C 525 671 486 568 486 453 
C 486 166 685 -64 992 -64 
C 1581 -64 1811 869 1811 913 
z
M 1760 4013 
C 1760 4109 1683 4224 1542 4224 
C 1395 4224 1229 4083 1229 3917 
C 1229 3758 1363 3707 1440 3707 
C 1613 3707 1760 3873 1760 4013 
z
" transform="scale(0.015625)"/>
      <path id="CMR17-29" d="M 1683 1581 
C 1683 2040 1638 2817 1254 3639 
C 947 4303 422 4768 346 4768 
C 326 4768 301 4761 301 4729 
C 301 4717 307 4710 314 4697 
C 621 4378 1402 3568 1402 1584 
C 1402 -407 627 -1217 314 -1537 
C 307 -1549 301 -1556 301 -1568 
C 301 -1600 326 -1600 346 -1600 
C 416 -1600 960 -1128 1274 -426 
C 1594 281 1683 969 1683 1581 
z
" transform="scale(0.015625)"/>
      <path id="CMR17-6d" d="M 4326 1933 
C 4326 2252 4269 2790 3507 2790 
C 3072 2790 2771 2496 2656 2151 
L 2650 2151 
C 2573 2676 2195 2790 1837 2790 
C 1331 2790 1069 2400 973 2144 
L 966 2144 
L 966 2790 
L 211 2720 
L 211 2554 
C 589 2554 646 2515 646 2208 
L 646 428 
C 646 184 621 153 211 153 
L 211 -13 
C 365 0 646 0 813 0 
C 979 0 1267 0 1421 -13 
L 1421 153 
C 1011 153 986 178 986 428 
L 986 1658 
C 986 2247 1344 2688 1792 2688 
C 2266 2688 2317 2266 2317 1958 
L 2317 428 
C 2317 184 2291 153 1882 153 
L 1882 -13 
C 2035 0 2317 0 2483 0 
C 2650 0 2938 0 3091 -13 
L 3091 153 
C 2682 153 2656 178 2656 428 
L 2656 1658 
C 2656 2247 3014 2688 3462 2688 
C 3936 2688 3987 2266 3987 1958 
L 3987 428 
C 3987 184 3962 153 3552 153 
L 3552 -13 
C 3706 0 3987 0 4154 0 
C 4320 0 4608 0 4762 -13 
L 4762 153 
C 4352 153 4326 178 4326 428 
L 4326 1933 
z
" transform="scale(0.015625)"/>
      <path id="CMR17-64" d="M 1869 4326 
L 1869 4160 
C 2246 4160 2304 4122 2304 3820 
L 2304 2345 
C 2278 2377 2016 2790 1498 2790 
C 845 2790 211 2208 211 1364 
C 211 525 806 -64 1434 -64 
C 1978 -64 2259 337 2291 380 
L 2291 -63 
L 3066 -63 
L 3066 128 
C 2688 128 2630 166 2630 473 
L 2630 4396 
L 1869 4326 
z
M 2291 755 
C 2291 563 2176 390 2029 262 
C 1811 70 1594 38 1472 38 
C 1286 38 621 134 621 1356 
C 621 2612 1363 2688 1530 2688 
C 1824 2688 2061 2522 2208 2291 
C 2291 2157 2291 2138 2291 2023 
L 2291 755 
z
" transform="scale(0.015625)"/>
      <path id="CMR17-75" d="M 1882 2693 
L 1882 2528 
C 2259 2528 2317 2489 2317 2186 
L 2317 1032 
C 2317 500 2029 38 1555 38 
C 1030 38 986 348 986 678 
L 986 2763 
L 211 2693 
L 211 2528 
C 467 2528 640 2528 646 2274 
L 646 1058 
C 646 633 646 361 813 183 
C 896 101 1056 -64 1517 -64 
C 2061 -64 2272 377 2323 506 
L 2330 506 
L 2330 -63 
L 3091 -63 
L 3091 128 
C 2714 128 2656 166 2656 473 
L 2656 2763 
L 1882 2693 
z
" transform="scale(0.015625)"/>
     </defs>
     <use xlink:href="#CMR17-7e" transform="translate(3.565821 0.006461) scale(0.996264)"/>
     <use xlink:href="#CMMI12-63" transform="scale(0.996264)"/>
     <use xlink:href="#CMMI12-44" transform="translate(41.983234 -14.943915) scale(0.697382)"/>
     <use xlink:href="#CMMI12-45" transform="translate(100.575737 -14.943915) scale(0.697382)"/>
     <use xlink:href="#CMR17-28" transform="translate(155.709774 0) scale(0.996264)"/>
     <use xlink:href="#CMMI12-69" transform="translate(190.990542 0) scale(0.996264)"/>
     <use xlink:href="#CMR17-29" transform="translate(224.269144 0) scale(0.996264)"/>
     <use xlink:href="#CMR17-3a" transform="translate(289.625878 0) scale(0.996264)"/>
     <use xlink:href="#CMR17-65" transform="translate(354.982597 0) scale(0.996264)"/>
     <use xlink:href="#CMR17-73" transform="translate(395.468257 0) scale(0.996264)"/>
     <use xlink:href="#CMR17-74" transform="translate(431.269595 0) scale(0.996264)"/>
     <use xlink:href="#CMR17-69" transform="translate(466.550363 0) scale(0.996264)"/>
     <use xlink:href="#CMR17-6d" transform="translate(491.421421 0) scale(0.996264)"/>
     <use xlink:href="#CMR17-61" transform="translate(568.341011 0) scale(0.996264)"/>
     <use xlink:href="#CMR17-74" transform="translate(614.031488 0) scale(0.996264)"/>
     <use xlink:href="#CMR17-65" transform="translate(649.312256 0) scale(0.996264)"/>
     <use xlink:href="#CMR17-64" transform="translate(689.797917 0) scale(0.996264)"/>
     <use xlink:href="#CMR17-63" transform="translate(770.769253 0) scale(0.996264)"/>
     <use xlink:href="#CMR17-6f" transform="translate(811.254913 0) scale(0.996264)"/>
     <use xlink:href="#CMR17-75" transform="translate(856.94539 0) scale(0.996264)"/>
     <use xlink:href="#CMR17-6e" transform="translate(907.84076 0) scale(0.996264)"/>
     <use xlink:href="#CMR17-74" transform="translate(956.133676 0) scale(0.996264)"/>
    </g>
   </g>
   <g id="text_3">
    <!-- $n \text{ : users}$ -->
    <g transform="translate(7.2 80.485056) scale(0.16 -0.16)">
     <defs>
      <path id="CMMI12-6e" d="M 1318 1871 
C 1331 1910 1491 2229 1728 2433 
C 1894 2586 2112 2689 2362 2689 
C 2618 2689 2707 2497 2707 2242 
C 2707 1878 2445 1150 2317 805 
C 2259 651 2227 568 2227 453 
C 2227 166 2426 -64 2733 -64 
C 3328 -64 3552 875 3552 913 
C 3552 945 3526 971 3488 971 
C 3430 971 3424 952 3392 843 
C 3245 319 3002 64 2752 64 
C 2688 64 2586 64 2586 269 
C 2586 429 2656 621 2694 710 
C 2822 1063 3091 1780 3091 2145 
C 3091 2528 2867 2816 2381 2816 
C 1811 2816 1510 2415 1395 2255 
C 1376 2618 1114 2816 832 2816 
C 627 2816 486 2695 378 2478 
C 262 2248 173 1865 173 1839 
C 173 1814 198 1782 243 1782 
C 294 1782 301 1788 339 1935 
C 442 2325 557 2689 813 2689 
C 960 2689 1011 2586 1011 2395 
C 1011 2254 947 2005 902 1807 
L 723 1118 
C 698 996 627 709 595 594 
C 550 428 480 128 480 96 
C 480 6 550 -64 646 -64 
C 723 -64 813 -26 864 70 
C 877 102 934 326 966 453 
L 1107 1028 
L 1318 1871 
z
" transform="scale(0.015625)"/>
     </defs>
     <use xlink:href="#CMMI12-6e" transform="scale(0.996264)"/>
     <use xlink:href="#CMR17-3a" transform="translate(88.306014 0) scale(0.996264)"/>
     <use xlink:href="#CMR17-75" transform="translate(153.662733 0) scale(0.996264)"/>
     <use xlink:href="#CMR17-73" transform="translate(204.558102 0) scale(0.996264)"/>
     <use xlink:href="#CMR17-65" transform="translate(240.35944 0) scale(0.996264)"/>
     <use xlink:href="#CMR17-72" transform="translate(280.845101 0) scale(0.996264)"/>
     <use xlink:href="#CMR17-73" transform="translate(316.125868 0) scale(0.996264)"/>
    </g>
   </g>
   <g id="text_4">
    <!-- $d \text{ : domain size}$ -->
    <g transform="translate(7.2 108.205056) scale(0.16 -0.16)">
     <defs>
      <path id="CMMI12-64" d="M 3219 4257 
C 3226 4282 3238 4320 3238 4352 
C 3238 4416 3174 4416 3162 4416 
C 3155 4416 2842 4388 2810 4380 
C 2701 4373 2605 4358 2490 4358 
C 2330 4345 2285 4339 2285 4224 
C 2285 4160 2336 4160 2426 4160 
C 2739 4160 2746 4103 2746 4040 
C 2746 4002 2733 3952 2726 3933 
L 2336 2395 
C 2266 2561 2093 2816 1760 2816 
C 1037 2816 256 1884 256 939 
C 256 307 627 -64 1062 -64 
C 1414 -64 1715 211 1894 422 
C 1958 45 2259 -64 2451 -64 
C 2643 -64 2797 51 2912 281 
C 3014 498 3104 888 3104 913 
C 3104 945 3078 971 3040 971 
C 2982 971 2976 939 2950 843 
C 2854 466 2733 64 2470 64 
C 2285 64 2272 229 2272 357 
C 2272 382 2272 515 2317 694 
L 3219 4257 
z
M 1926 760 
C 1894 651 1894 639 1805 517 
C 1664 338 1382 64 1082 64 
C 819 64 672 300 672 677 
C 672 1028 870 1743 992 2012 
C 1210 2459 1510 2689 1760 2689 
C 2182 2689 2266 2165 2266 2114 
C 2266 2108 2246 2024 2240 2012 
L 1926 760 
z
" transform="scale(0.015625)"/>
      <path id="CMR17-7a" d="M 2310 2605 
C 2362 2670 2362 2682 2362 2695 
C 2362 2752 2336 2752 2221 2752 
L 275 2752 
L 211 1760 
L 326 1760 
C 371 2381 442 2650 1178 2650 
L 1958 2650 
L 128 96 
C 128 0 134 0 269 0 
L 2291 0 
L 2381 1152 
L 2266 1152 
C 2214 442 2131 115 1350 115 
L 531 115 
L 2310 2605 
z
" transform="scale(0.015625)"/>
     </defs>
     <use xlink:href="#CMMI12-64" transform="scale(0.996264)"/>
     <use xlink:href="#CMR17-3a" transform="translate(80.765063 0) scale(0.996264)"/>
     <use xlink:href="#CMR17-64" transform="translate(146.121782 0) scale(0.996264)"/>
     <use xlink:href="#CMR17-6f" transform="translate(197.017152 0) scale(0.996264)"/>
     <use xlink:href="#CMR17-6d" transform="translate(242.707629 0) scale(0.996264)"/>
     <use xlink:href="#CMR17-61" transform="translate(319.627219 0) scale(0.996264)"/>
     <use xlink:href="#CMR17-69" transform="translate(365.317696 0) scale(0.996264)"/>
     <use xlink:href="#CMR17-6e" transform="translate(390.188754 0) scale(0.996264)"/>
     <use xlink:href="#CMR17-73" transform="translate(471.160091 0) scale(0.996264)"/>
     <use xlink:href="#CMR17-69" transform="translate(506.961428 0) scale(0.996264)"/>
     <use xlink:href="#CMR17-7a" transform="translate(531.832487 0) scale(0.996264)"/>
     <use xlink:href="#CMR17-65" transform="translate(572.318147 0) scale(0.996264)"/>
    </g>
   </g>
   <g id="text_5">
    <!-- $\varepsilon \text{ : privacy budget}$ -->
    <g transform="translate(7.2 135.925056) scale(0.16 -0.16)">
     <defs>
      <path id="CMMI12-22" d="M 890 1427 
C 1094 1345 1312 1345 1434 1345 
C 1600 1345 1933 1345 1933 1550 
C 1933 1678 1811 1728 1485 1728 
C 1325 1728 1133 1709 909 1613 
C 710 1708 634 1852 634 1990 
C 634 2379 1261 2606 1830 2606 
C 1939 2606 2170 2606 2438 2411 
C 2477 2387 2496 2367 2541 2367 
C 2618 2367 2701 2449 2701 2526 
C 2701 2639 2330 2880 1888 2880 
C 1171 2880 493 2449 493 1972 
C 493 1734 646 1586 755 1509 
C 384 1301 166 961 166 652 
C 166 219 563 -128 1178 -128 
C 2022 -128 2362 424 2362 512 
C 2362 543 2336 568 2304 568 
C 2272 568 2259 549 2234 512 
C 2163 395 1997 146 1235 146 
C 838 146 314 245 314 686 
C 314 898 474 1214 890 1427 
z
M 1088 1518 
C 1261 1600 1427 1600 1472 1600 
C 1651 1600 1683 1583 1786 1545 
C 1677 1472 1664 1472 1434 1472 
C 1318 1472 1216 1472 1088 1518 
z
" transform="scale(0.015625)"/>
      <path id="CMR17-70" d="M 1408 -1063 
C 998 -1063 973 -1037 973 -789 
L 973 402 
C 1158 134 1427 -38 1766 -38 
C 2406 -38 3053 523 3053 1388 
C 3053 2191 2496 2802 1837 2802 
C 1453 2802 1139 2592 960 2338 
L 960 2802 
L 198 2732 
L 198 2567 
C 576 2567 634 2528 634 2223 
L 634 -789 
C 634 -1031 608 -1063 198 -1063 
L 198 -1228 
C 352 -1216 634 -1216 800 -1216 
C 966 -1216 1254 -1216 1408 -1228 
L 1408 -1063 
z
M 973 2012 
C 973 2102 973 2235 1222 2471 
C 1254 2497 1472 2688 1792 2688 
C 2259 2688 2643 2108 2643 1382 
C 2643 656 2234 64 1728 64 
C 1498 64 1248 172 1056 472 
C 973 612 973 650 973 752 
L 973 2012 
z
" transform="scale(0.015625)"/>
      <path id="CMR17-79" d="M 2496 2197 
C 2656 2586 2944 2586 3034 2586 
L 3034 2752 
C 2912 2752 2752 2752 2630 2752 
C 2496 2752 2285 2752 2157 2758 
L 2157 2592 
C 2400 2573 2406 2394 2406 2343 
C 2406 2280 2394 2248 2362 2171 
L 1664 449 
L 902 2306 
C 870 2382 870 2426 870 2433 
C 870 2573 1018 2586 1171 2586 
L 1171 2758 
C 1018 2752 742 2752 582 2752 
C 410 2752 205 2752 64 2758 
L 64 2586 
C 410 2586 448 2554 531 2350 
L 1485 15 
C 1197 -738 1030 -1178 627 -1178 
C 557 -1178 397 -1159 282 -1044 
C 429 -1031 493 -942 493 -833 
C 493 -725 416 -629 288 -629 
C 147 -629 77 -725 77 -840 
C 77 -1095 339 -1280 627 -1280 
C 998 -1280 1229 -922 1357 -604 
L 2496 2197 
z
" transform="scale(0.015625)"/>
      <path id="CMR17-62" d="M 960 4396 
L 198 4326 
L 198 4160 
C 576 4160 634 4122 634 3817 
L 634 -13 
L 749 -13 
L 934 441 
C 1120 141 1395 -64 1766 -64 
C 2406 -64 3053 500 3053 1370 
C 3053 2188 2477 2790 1830 2790 
C 1434 2790 1152 2579 960 2330 
L 960 4396 
z
M 973 2004 
C 973 2118 973 2138 1062 2272 
C 1312 2657 1670 2688 1792 2688 
C 1984 2688 2643 2585 2643 1376 
C 2643 108 1888 38 1734 38 
C 1536 38 1248 114 1043 486 
C 973 608 973 621 973 735 
L 973 2004 
z
" transform="scale(0.015625)"/>
      <path id="CMR17-67" d="M 710 1164 
C 832 1068 1043 960 1299 960 
C 1805 960 2240 1357 2240 1888 
C 2240 2054 2189 2310 1997 2509 
C 2176 2692 2438 2752 2586 2752 
C 2611 2752 2650 2752 2682 2734 
C 2656 2728 2598 2703 2598 2605 
C 2598 2527 2656 2471 2739 2471 
C 2835 2471 2886 2533 2886 2614 
C 2886 2731 2790 2854 2586 2854 
C 2330 2854 2106 2738 1926 2580 
C 1734 2753 1504 2816 1299 2816 
C 794 2816 358 2419 358 1888 
C 358 1522 570 1292 634 1228 
C 442 1004 442 743 442 711 
C 442 545 506 302 723 168 
C 390 85 128 -169 128 -486 
C 128 -943 736 -1280 1466 -1280 
C 2170 -1280 2803 -956 2803 -479 
C 2803 384 1856 384 1363 384 
C 1216 384 954 384 922 391 
C 723 423 589 602 589 826 
C 589 883 589 1024 710 1164 
z
M 1299 1068 
C 736 1068 736 1760 736 1889 
C 736 2016 736 2708 1299 2708 
C 1862 2708 1862 2016 1862 1889 
C 1862 1760 1862 1068 1299 1068 
z
M 1466 -1171 
C 826 -1171 384 -835 384 -486 
C 384 -289 493 -105 634 -4 
C 794 104 858 104 1293 104 
C 1818 104 2547 104 2547 -486 
C 2547 -835 2106 -1171 1466 -1171 
z
" transform="scale(0.015625)"/>
     </defs>
     <use xlink:href="#CMMI12-22" transform="scale(0.996264)"/>
     <use xlink:href="#CMR17-3a" transform="translate(75.726159 0) scale(0.996264)"/>
     <use xlink:href="#CMR17-70" transform="translate(141.082878 0) scale(0.996264)"/>
     <use xlink:href="#CMR17-72" transform="translate(191.978247 0) scale(0.996264)"/>
     <use xlink:href="#CMR17-69" transform="translate(227.259015 0) scale(0.996264)"/>
     <use xlink:href="#CMR17-76" transform="translate(252.130074 0) scale(0.996264)"/>
     <use xlink:href="#CMR17-61" transform="translate(295.218173 0) scale(0.996264)"/>
     <use xlink:href="#CMR17-63" transform="translate(340.90865 0) scale(0.996264)"/>
     <use xlink:href="#CMR17-79" transform="translate(381.394311 0) scale(0.996264)"/>
     <use xlink:href="#CMR17-62" transform="translate(459.763193 0) scale(0.996264)"/>
     <use xlink:href="#CMR17-75" transform="translate(510.658562 0) scale(0.996264)"/>
     <use xlink:href="#CMR17-64" transform="translate(561.553932 0) scale(0.996264)"/>
     <use xlink:href="#CMR17-67" transform="translate(612.449302 0) scale(0.996264)"/>
     <use xlink:href="#CMR17-65" transform="translate(658.139779 0) scale(0.996264)"/>
     <use xlink:href="#CMR17-74" transform="translate(698.62544 0) scale(0.996264)"/>
    </g>
   </g>
  </g>
 </g>
</svg>
