<?xml version="1.0" encoding="utf-8" standalone="no"?>
<!DOCTYPE svg PUBLIC "-//W3C//DTD SVG 1.1//EN"
  "http://www.w3.org/Graphics/SVG/1.1/DTD/svg11.dtd">
<svg xmlns:xlink="http://www.w3.org/1999/xlink" width="572.4pt" height="125.28pt" viewBox="0 0 572.4 125.28" xmlns="http://www.w3.org/2000/svg" version="1.1">
 <metadata>
  <rdf:RDF xmlns:dc="http://purl.org/dc/elements/1.1/" xmlns:cc="http://creativecommons.org/ns#" xmlns:rdf="http://www.w3.org/1999/02/22-rdf-syntax-ns#">
   <cc:Work>
    <dc:type rdf:resource="http://purl.org/dc/dcmitype/StillImage"/>
    <dc:date>2025-11-30T12:27:39.344790</dc:date>
    <dc:format>image/svg+xml</dc:format>
    <dc:creator>
     <cc:Agent>
      <dc:title>Matplotlib v3.10.7, https://matplotlib.org/</dc:title>
     </cc:Agent>
    </dc:creator>
   </cc:Work>
  </rdf:RDF>
 </metadata>
 <defs>
  <style type="text/css">*{stroke-linejoin: round; stroke-linecap: butt}</style>
 </defs>
 <g id="figure_1">
  <g id="patch_1">
   <path d="M 0 125.28 
L 572.4 125.28 
L 572.4 0 
L 0 0 
L 0 125.28 
z
" style="fill: none; opacity: 0"/>
  </g>
  <g id="axes_1">
   <g id="text_1">
    <!-- $\Delta \tilde{f}_t = \tilde{f}_{t,a} - \tilde{f}_{t,b}$ -->
    <g transform="translate(221.023293 68.954554) scale(0.2 -0.2)">
     <defs>
      <path id="CMR17-1" d="M 2598 4403 
C 2547 4512 2522 4512 2470 4512 
C 2394 4512 2387 4499 2342 4409 
L 269 109 
C 262 96 237 38 237 32 
C 237 6 243 0 358 0 
L 4576 0 
C 4691 0 4698 6 4698 32 
C 4698 38 4672 96 4666 109 
L 2598 4403 
z
M 2310 4038 
L 4083 358 
L 531 358 
L 2310 4038 
z
" transform="scale(0.015625)"/>
      <path id="CMR17-7e" d="M 2400 4184 
C 2182 3980 2061 3865 1862 3865 
C 1722 3865 1626 3932 1491 4024 
C 1363 4111 1261 4184 1120 4184 
C 890 4184 730 4004 461 3718 
L 531 3648 
C 749 3850 870 3968 1069 3968 
C 1210 3968 1306 3900 1440 3808 
C 1568 3722 1670 3648 1811 3648 
C 2042 3648 2202 3828 2470 4114 
L 2400 4184 
z
" transform="scale(0.015625)"/>
      <path id="CMMI12-66" d="M 2854 2566 
C 2982 2566 3034 2566 3034 2688 
C 3034 2752 2982 2752 2867 2752 
L 2349 2752 
C 2470 3429 2560 3897 2611 4107 
C 2650 4265 2784 4416 2950 4416 
C 3085 4416 3219 4358 3283 4298 
C 3034 4272 2957 4082 2957 3969 
C 2957 3837 3053 3759 3174 3759 
C 3302 3759 3494 3870 3494 4119 
C 3494 4393 3226 4544 2944 4544 
C 2669 4544 2400 4334 2272 4078 
C 2157 3848 2093 3611 1946 2752 
L 1517 2752 
C 1395 2752 1331 2752 1331 2637 
C 1331 2566 1370 2566 1498 2566 
L 1907 2566 
C 1792 1976 1530 542 1382 -137 
C 1274 -689 1178 -1152 858 -1152 
C 838 -1152 653 -1152 538 -1031 
C 864 -1005 864 -726 864 -720 
C 864 -593 768 -517 646 -517 
C 518 -517 326 -625 326 -867 
C 326 -1140 608 -1280 858 -1280 
C 1510 -1280 1779 -118 1850 199 
C 1965 688 2278 2376 2310 2566 
L 2854 2566 
z
" transform="scale(0.015625)"/>
      <path id="CMMI12-74" d="M 1286 2566 
L 1875 2566 
C 1997 2566 2061 2566 2061 2681 
C 2061 2752 2022 2752 1894 2752 
L 1331 2752 
L 1568 3692 
C 1594 3781 1594 3794 1594 3840 
C 1594 3943 1510 4000 1427 4000 
C 1376 4000 1229 3981 1178 3775 
L 928 2752 
L 326 2752 
C 198 2752 141 2752 141 2630 
C 141 2566 186 2566 307 2566 
L 877 2566 
L 454 881 
C 403 658 384 594 384 511 
C 384 211 595 -64 954 -64 
C 1600 -64 1946 868 1946 912 
C 1946 951 1920 970 1882 970 
C 1869 970 1843 970 1830 944 
C 1824 938 1818 931 1773 829 
C 1638 511 1344 64 973 64 
C 781 64 768 224 768 364 
C 768 370 768 492 787 568 
L 1286 2566 
z
" transform="scale(0.015625)"/>
      <path id="CMR17-3d" d="M 4115 2017 
C 4211 2017 4307 2017 4307 2125 
C 4307 2240 4198 2240 4090 2240 
L 512 2240 
C 403 2240 294 2240 294 2125 
C 294 2017 390 2017 486 2017 
L 4115 2017 
z
M 4090 896 
C 4198 896 4307 896 4307 1011 
C 4307 1119 4211 1119 4115 1119 
L 486 1119 
C 390 1119 294 1119 294 1011 
C 294 896 403 896 512 896 
L 4090 896 
z
" transform="scale(0.015625)"/>
      <path id="CMMI12-3b" d="M 1248 -31 
C 1248 343 1126 619 864 619 
C 659 619 557 453 557 313 
C 557 172 653 0 870 0 
C 954 0 1024 26 1082 83 
C 1094 96 1101 96 1107 96 
C 1120 96 1120 5 1120 -27 
C 1120 -240 1082 -659 710 -1080 
C 640 -1157 640 -1170 640 -1183 
C 640 -1216 672 -1248 704 -1248 
C 755 -1248 1248 -771 1248 -31 
z
" transform="scale(0.015625)"/>
      <path id="CMMI12-61" d="M 1926 760 
C 1894 651 1894 639 1805 517 
C 1664 338 1382 64 1082 64 
C 819 64 672 300 672 677 
C 672 1028 870 1743 992 2012 
C 1210 2459 1510 2689 1760 2689 
C 2182 2689 2266 2165 2266 2114 
C 2266 2108 2246 2024 2240 2012 
L 1926 760 
z
M 2336 2395 
C 2266 2561 2093 2816 1760 2816 
C 1037 2816 256 1884 256 939 
C 256 307 627 -64 1062 -64 
C 1414 -64 1715 211 1894 422 
C 1958 45 2259 -64 2451 -64 
C 2643 -64 2797 51 2912 281 
C 3014 498 3104 888 3104 913 
C 3104 945 3078 971 3040 971 
C 2982 971 2976 939 2950 843 
C 2854 466 2733 64 2470 64 
C 2285 64 2272 230 2272 358 
C 2272 505 2291 575 2349 824 
C 2394 984 2426 1124 2477 1309 
C 2714 2267 2771 2497 2771 2535 
C 2771 2625 2701 2695 2605 2695 
C 2400 2695 2349 2472 2336 2395 
z
" transform="scale(0.015625)"/>
      <path id="CMSY10-0" d="M 4218 1472 
C 4326 1472 4442 1472 4442 1600 
C 4442 1728 4326 1728 4218 1728 
L 755 1728 
C 646 1728 531 1728 531 1600 
C 531 1472 646 1472 755 1472 
L 4218 1472 
z
" transform="scale(0.015625)"/>
      <path id="CMMI12-62" d="M 1478 4257 
C 1485 4283 1498 4321 1498 4352 
C 1498 4416 1434 4416 1421 4416 
C 1414 4416 1184 4393 1069 4377 
C 960 4377 864 4358 749 4358 
C 595 4345 550 4339 550 4224 
C 550 4160 614 4160 678 4160 
C 1005 4160 1005 4103 1005 4040 
C 1005 3996 954 3811 928 3696 
L 774 3085 
C 710 2831 346 1387 320 1272 
C 288 1114 288 1005 288 922 
C 288 274 653 -64 1069 -64 
C 1811 -64 2579 888 2579 1814 
C 2579 2401 2246 2816 1766 2816 
C 1434 2816 1133 2542 1011 2414 
L 1478 4257 
z
M 1075 64 
C 870 64 646 217 646 715 
C 646 926 666 1047 781 1494 
C 800 1577 902 1986 928 2069 
C 941 2120 1318 2689 1754 2689 
C 2035 2689 2163 2408 2163 2076 
C 2163 1769 1984 1047 1824 715 
C 1664 370 1370 64 1075 64 
z
" transform="scale(0.015625)"/>
     </defs>
     <use xlink:href="#CMR17-1" transform="scale(0.996264)"/>
     <use xlink:href="#CMR17-7e" transform="translate(99.692818 26.296621) scale(0.996264)"/>
     <use xlink:href="#CMMI12-66" transform="translate(76.91959 0) scale(0.996264)"/>
     <use xlink:href="#CMMI12-74" transform="translate(125.002828 -14.943915) scale(0.697382)"/>
     <use xlink:href="#CMR17-3d" transform="translate(177.833278 0) scale(0.996264)"/>
     <use xlink:href="#CMR17-7e" transform="translate(299.995303 26.296621) scale(0.996264)"/>
     <use xlink:href="#CMMI12-66" transform="translate(277.222075 0) scale(0.996264)"/>
     <use xlink:href="#CMMI12-74" transform="translate(325.305313 -14.943915) scale(0.697382)"/>
     <use xlink:href="#CMMI12-3b" transform="translate(349.963622 -14.943915) scale(0.697382)"/>
     <use xlink:href="#CMMI12-61" transform="translate(368.931555 -14.943915) scale(0.697382)"/>
     <use xlink:href="#CMSY10-0" transform="translate(427.414241 0) scale(0.996264)"/>
     <use xlink:href="#CMR17-7e" transform="translate(549.814143 26.296621) scale(0.996264)"/>
     <use xlink:href="#CMMI12-66" transform="translate(527.040915 0) scale(0.996264)"/>
     <use xlink:href="#CMMI12-74" transform="translate(575.124153 -14.943915) scale(0.697382)"/>
     <use xlink:href="#CMMI12-3b" transform="translate(599.782462 -14.943915) scale(0.697382)"/>
     <use xlink:href="#CMMI12-62" transform="translate(618.750395 -14.943915) scale(0.697382)"/>
    </g>
   </g>
  </g>
 </g>
</svg>
