<?xml version="1.0" encoding="utf-8" standalone="no"?>
<!DOCTYPE svg PUBLIC "-//W3C//DTD SVG 1.1//EN"
  "http://www.w3.org/Graphics/SVG/1.1/DTD/svg11.dtd">
<svg xmlns:xlink="http://www.w3.org/1999/xlink" width="572.4pt" height="125.28pt" viewBox="0 0 572.4 125.28" xmlns="http://www.w3.org/2000/svg" version="1.1">
 <metadata>
  <rdf:RDF xmlns:dc="http://purl.org/dc/elements/1.1/" xmlns:cc="http://creativecommons.org/ns#" xmlns:rdf="http://www.w3.org/1999/02/22-rdf-syntax-ns#">
   <cc:Work>
    <dc:type rdf:resource="http://purl.org/dc/dcmitype/StillImage"/>
    <dc:date>2025-11-30T12:27:39.119935</dc:date>
    <dc:format>image/svg+xml</dc:format>
    <dc:creator>
     <cc:Agent>
      <dc:title>Matplotlib v3.10.7, https://matplotlib.org/</dc:title>
     </cc:Agent>
    </dc:creator>
   </cc:Work>
  </rdf:RDF>
 </metadata>
 <defs>
  <style type="text/css">*{stroke-linejoin: round; stroke-linecap: butt}</style>
 </defs>
 <g id="figure_1">
  <g id="patch_1">
   <path d="M 0 125.28 
L 572.4 125.28 
L 572.4 0 
L 0 0 
L 0 125.28 
z
" style="fill: none; opacity: 0"/>
  </g>
  <g id="axes_1">
   <g id="text_1">
    <!-- $B_i' = \begin{cases} 1, &amp; \text{with probability } \frac{1}{2}f \\ 0, &amp; \text{with probability } \frac{1}{2}f \\ B_i, &amp; \text{with probability } 1-f \end{cases}$ -->
    <g transform="translate(143.9025 67.62132) scale(0.2 -0.2)">
     <defs>
      <path id="CMMI12-42" d="M 2342 3921 
C 2400 4160 2426 4160 2675 4160 
L 3507 4160 
C 4230 4160 4230 3544 4230 3485 
C 4230 2966 3712 2304 2867 2304 
L 1946 2304 
L 2342 3921 
z
M 3424 2275 
C 4122 2402 4755 2886 4755 3473 
C 4755 3970 4314 4352 3590 4352 
L 1536 4352 
C 1414 4352 1357 4352 1357 4226 
C 1357 4160 1414 4160 1510 4160 
C 1901 4160 1901 4112 1901 4044 
C 1901 4032 1901 3993 1875 3897 
L 1011 472 
C 954 249 941 185 493 185 
C 371 185 307 185 307 70 
C 307 0 346 0 474 0 
L 2669 0 
C 3648 0 4403 739 4403 1383 
C 4403 1906 3942 2224 3424 2275 
z
M 2515 185 
L 1651 185 
C 1562 185 1549 185 1510 192 
C 1440 198 1434 211 1434 261 
C 1434 305 1446 343 1459 399 
L 1907 2176 
L 3110 2176 
C 3866 2176 3866 1483 3866 1433 
C 3866 828 3309 185 2515 185 
z
" transform="scale(0.015625)"/>
      <path id="CMSY10-30" d="M 1619 3040 
C 1651 3117 1677 3174 1677 3238 
C 1677 3424 1510 3578 1312 3578 
C 1133 3578 1018 3456 973 3290 
L 211 493 
C 211 480 186 410 186 403 
C 186 333 352 288 403 288 
C 442 288 448 307 486 390 
L 1619 3040 
z
" transform="scale(0.015625)"/>
      <path id="CMMI12-69" d="M 1811 913 
C 1811 945 1786 971 1747 971 
C 1690 971 1683 952 1651 843 
C 1485 262 1222 64 1011 64 
C 934 64 845 83 845 275 
C 845 447 922 639 992 830 
L 1440 2018 
C 1459 2069 1504 2184 1504 2305 
C 1504 2574 1312 2816 998 2816 
C 410 2816 173 1890 173 1839 
C 173 1814 198 1782 243 1782 
C 301 1782 307 1807 333 1896 
C 486 2428 730 2682 979 2682 
C 1037 2682 1146 2682 1146 2478 
C 1146 2312 1062 2101 1011 1961 
L 563 773 
C 525 671 486 568 486 453 
C 486 166 685 -64 992 -64 
C 1581 -64 1811 869 1811 913 
z
M 1760 4013 
C 1760 4109 1683 4224 1542 4224 
C 1395 4224 1229 4083 1229 3917 
C 1229 3758 1363 3707 1440 3707 
C 1613 3707 1760 3873 1760 4013 
z
" transform="scale(0.015625)"/>
      <path id="CMR17-3d" d="M 4115 2017 
C 4211 2017 4307 2017 4307 2125 
C 4307 2240 4198 2240 4090 2240 
L 512 2240 
C 403 2240 294 2240 294 2125 
C 294 2017 390 2017 486 2017 
L 4115 2017 
z
M 4090 896 
C 4198 896 4307 896 4307 1011 
C 4307 1119 4211 1119 4115 1119 
L 486 1119 
C 390 1119 294 1119 294 1011 
C 294 896 403 896 512 896 
L 4090 896 
z
" transform="scale(0.015625)"/>
      <path id="CMEX10-38" d="M 3225 -2899 
C 3225 -2374 3365 -1152 4505 -346 
C 4588 -282 4594 -275 4594 -160 
C 4594 -13 4588 -6 4428 -6 
L 4325 -6 
C 2949 -749 2457 -1958 2457 -2899 
L 2457 -5651 
C 2457 -5818 2463 -5824 2636 -5824 
L 3045 -5824 
C 3218 -5824 3225 -5818 3225 -5651 
L 3225 -2899 
z
" transform="scale(0.015625)"/>
      <path id="CMEX10-3e" d="M 3225 -109 
C 3225 58 3218 64 3045 64 
L 2636 64 
C 2463 64 2457 58 2457 -109 
L 2457 -1811 
C 2457 -1978 2463 -1984 2636 -1984 
L 3045 -1984 
C 3218 -1984 3225 -1978 3225 -1811 
L 3225 -109 
z
" transform="scale(0.015625)"/>
      <path id="CMEX10-3c" d="M 2457 -11411 
C 2457 -11578 2463 -11584 2636 -11584 
L 3045 -11584 
C 3218 -11584 3225 -11578 3225 -11411 
L 3225 -8710 
C 3225 -7936 2898 -6630 1465 -5760 
C 2911 -4883 3225 -3565 3225 -2810 
L 3225 -109 
C 3225 58 3218 64 3045 64 
L 2636 64 
C 2463 64 2457 58 2457 -109 
L 2457 -2816 
C 2457 -3354 2341 -4685 1164 -5581 
C 1093 -5638 1087 -5645 1087 -5760 
C 1087 -5875 1093 -5882 1164 -5939 
C 1330 -6067 1772 -6406 2079 -7053 
C 2329 -7565 2457 -8134 2457 -8704 
L 2457 -11411 
z
" transform="scale(0.015625)"/>
      <path id="CMEX10-3a" d="M 4428 -5754 
C 4588 -5754 4594 -5747 4594 -5600 
C 4594 -5485 4588 -5478 4562 -5459 
C 4364 -5312 3903 -4986 3602 -4397 
C 3353 -3910 3225 -3418 3225 -2861 
L 3225 -109 
C 3225 58 3218 64 3045 64 
L 2636 64 
C 2463 64 2457 58 2457 -109 
L 2457 -2861 
C 2457 -3808 2949 -5018 4325 -5754 
L 4428 -5754 
z
" transform="scale(0.015625)"/>
      <path id="CMR17-31" d="M 1702 4058 
C 1702 4192 1696 4192 1606 4192 
C 1357 3916 979 3827 621 3827 
C 602 3827 570 3827 563 3808 
C 557 3795 557 3782 557 3648 
C 755 3648 1088 3686 1344 3839 
L 1344 461 
C 1344 236 1331 160 781 160 
L 589 160 
L 589 0 
C 896 0 1216 0 1523 0 
C 1830 0 2150 0 2458 0 
L 2458 160 
L 2266 160 
C 1715 160 1702 230 1702 458 
L 1702 4058 
z
" transform="scale(0.015625)"/>
      <path id="CMMI12-3b" d="M 1248 -31 
C 1248 343 1126 619 864 619 
C 659 619 557 453 557 313 
C 557 172 653 0 870 0 
C 954 0 1024 26 1082 83 
C 1094 96 1101 96 1107 96 
C 1120 96 1120 5 1120 -27 
C 1120 -240 1082 -659 710 -1080 
C 640 -1157 640 -1170 640 -1183 
C 640 -1216 672 -1248 704 -1248 
C 755 -1248 1248 -771 1248 -31 
z
" transform="scale(0.015625)"/>
      <path id="CMR17-77" d="M 3725 2183 
C 3853 2560 4109 2560 4205 2560 
L 4205 2732 
C 4077 2732 3949 2732 3821 2732 
C 3699 2732 3424 2732 3315 2738 
L 3315 2560 
C 3514 2560 3622 2445 3622 2286 
C 3622 2241 3610 2184 3597 2140 
L 2995 407 
L 2342 2275 
C 2330 2319 2310 2370 2310 2395 
C 2310 2560 2528 2560 2630 2560 
L 2630 2738 
C 2483 2732 2214 2732 2061 2732 
C 1901 2732 1734 2732 1587 2738 
L 1587 2560 
C 1939 2560 1939 2547 2074 2149 
L 1485 451 
L 851 2281 
C 819 2363 819 2376 819 2395 
C 819 2560 1037 2560 1139 2560 
L 1139 2738 
C 986 2732 717 2732 557 2732 
C 416 2732 198 2732 64 2738 
L 64 2560 
C 346 2560 416 2541 486 2331 
L 1274 49 
C 1299 -33 1318 -52 1370 -52 
C 1414 -52 1440 -39 1472 56 
L 2131 1980 
L 2797 56 
C 2829 -39 2854 -52 2899 -52 
C 2950 -52 2970 -33 2995 50 
L 3725 2183 
z
" transform="scale(0.015625)"/>
      <path id="CMR17-69" d="M 992 3909 
C 992 4049 877 4170 730 4170 
C 589 4170 467 4056 467 3909 
C 467 3769 582 3648 730 3648 
C 870 3648 992 3763 992 3909 
z
M 243 2706 
L 243 2541 
C 602 2541 653 2502 653 2197 
L 653 427 
C 653 184 627 153 218 153 
L 218 -13 
C 371 0 646 0 806 0 
C 960 0 1222 0 1370 -13 
L 1370 153 
C 992 153 979 191 979 420 
L 979 2776 
L 243 2706 
z
" transform="scale(0.015625)"/>
      <path id="CMR17-74" d="M 966 2560 
L 1862 2560 
L 1862 2725 
L 966 2725 
L 966 3904 
L 851 3904 
C 838 3245 614 2668 70 2668 
L 70 2560 
L 627 2560 
L 627 771 
C 627 650 627 -64 1370 -64 
C 1747 -64 1965 306 1965 777 
L 1965 1140 
L 1850 1140 
L 1850 783 
C 1850 344 1677 51 1408 51 
C 1222 51 966 178 966 758 
L 966 2560 
z
" transform="scale(0.015625)"/>
      <path id="CMR17-68" d="M 2656 1933 
C 2656 2259 2592 2790 1837 2790 
C 1312 2790 1056 2368 979 2157 
L 973 2157 
L 973 4396 
L 211 4326 
L 211 4160 
C 589 4160 646 4122 646 3817 
L 646 426 
C 646 184 621 153 211 153 
L 211 -13 
C 365 0 646 0 813 0 
C 979 0 1267 0 1421 -13 
L 1421 153 
C 1011 153 986 178 986 428 
L 986 1658 
C 986 2247 1344 2688 1792 2688 
C 2266 2688 2317 2266 2317 1958 
L 2317 428 
C 2317 184 2291 153 1882 153 
L 1882 -13 
C 2035 0 2317 0 2483 0 
C 2650 0 2938 0 3091 -13 
L 3091 153 
C 2682 153 2656 178 2656 428 
L 2656 1933 
z
" transform="scale(0.015625)"/>
      <path id="CMR17-70" d="M 1408 -1063 
C 998 -1063 973 -1037 973 -789 
L 973 402 
C 1158 134 1427 -38 1766 -38 
C 2406 -38 3053 523 3053 1388 
C 3053 2191 2496 2802 1837 2802 
C 1453 2802 1139 2592 960 2338 
L 960 2802 
L 198 2732 
L 198 2567 
C 576 2567 634 2528 634 2223 
L 634 -789 
C 634 -1031 608 -1063 198 -1063 
L 198 -1228 
C 352 -1216 634 -1216 800 -1216 
C 966 -1216 1254 -1216 1408 -1228 
L 1408 -1063 
z
M 973 2012 
C 973 2102 973 2235 1222 2471 
C 1254 2497 1472 2688 1792 2688 
C 2259 2688 2643 2108 2643 1382 
C 2643 656 2234 64 1728 64 
C 1498 64 1248 172 1056 472 
C 973 612 973 650 973 752 
L 973 2012 
z
" transform="scale(0.015625)"/>
      <path id="CMR17-72" d="M 960 1497 
C 960 2112 1222 2688 1702 2688 
C 1747 2688 1792 2682 1837 2662 
C 1837 2662 1696 2617 1696 2452 
C 1696 2298 1818 2234 1914 2234 
C 1990 2234 2131 2279 2131 2458 
C 2131 2663 1926 2790 1709 2790 
C 1222 2790 1011 2317 947 2093 
L 941 2093 
L 941 2790 
L 198 2720 
L 198 2554 
C 576 2554 634 2515 634 2208 
L 634 428 
C 634 184 608 153 198 153 
L 198 -13 
C 352 0 646 0 813 0 
C 998 0 1325 0 1498 -13 
L 1498 153 
C 1037 153 960 153 960 440 
L 960 1497 
z
" transform="scale(0.015625)"/>
      <path id="CMR17-6f" d="M 2758 1356 
C 2758 2176 2163 2816 1466 2816 
C 768 2816 173 2176 173 1356 
C 173 551 768 -64 1466 -64 
C 2163 -64 2758 551 2758 1356 
z
M 1466 51 
C 1165 51 909 230 762 480 
C 602 767 582 1126 582 1408 
C 582 1677 595 2010 762 2298 
C 890 2509 1139 2714 1466 2714 
C 1754 2714 1997 2554 2150 2330 
C 2349 2029 2349 1607 2349 1408 
C 2349 1158 2336 775 2163 467 
C 1984 173 1709 51 1466 51 
z
" transform="scale(0.015625)"/>
      <path id="CMR17-62" d="M 960 4396 
L 198 4326 
L 198 4160 
C 576 4160 634 4122 634 3817 
L 634 -13 
L 749 -13 
L 934 441 
C 1120 141 1395 -64 1766 -64 
C 2406 -64 3053 500 3053 1370 
C 3053 2188 2477 2790 1830 2790 
C 1434 2790 1152 2579 960 2330 
L 960 4396 
z
M 973 2004 
C 973 2118 973 2138 1062 2272 
C 1312 2657 1670 2688 1792 2688 
C 1984 2688 2643 2585 2643 1376 
C 2643 108 1888 38 1734 38 
C 1536 38 1248 114 1043 486 
C 973 608 973 621 973 735 
L 973 2004 
z
" transform="scale(0.015625)"/>
      <path id="CMR17-61" d="M 2304 1653 
C 2304 2072 2304 2294 2035 2543 
C 1798 2752 1523 2816 1306 2816 
C 800 2816 435 2407 435 1971 
C 435 1728 627 1728 666 1728 
C 749 1728 896 1778 896 1954 
C 896 2112 774 2181 666 2181 
C 640 2181 608 2174 589 2168 
C 723 2592 1069 2714 1293 2714 
C 1613 2714 1965 2429 1965 1885 
L 1965 1600 
C 1587 1600 1133 1549 774 1357 
C 371 1133 256 813 256 570 
C 256 77 832 -64 1171 -64 
C 1523 -64 1850 139 1990 511 
C 2003 233 2182 -18 2464 -18 
C 2598 -18 2938 70 2938 567 
L 2938 920 
L 2822 920 
L 2822 562 
C 2822 178 2650 128 2566 128 
C 2304 128 2304 458 2304 738 
L 2304 1653 
z
M 1965 870 
C 1965 317 1568 38 1216 38 
C 896 38 646 275 646 570 
C 646 761 730 1100 1101 1305 
C 1408 1478 1760 1504 1965 1504 
L 1965 870 
z
" transform="scale(0.015625)"/>
      <path id="CMR17-6c" d="M 979 4396 
L 218 4326 
L 218 4160 
C 595 4160 653 4122 653 3817 
L 653 426 
C 653 184 627 153 218 153 
L 218 -13 
C 371 0 653 0 813 0 
C 979 0 1261 0 1414 -13 
L 1414 153 
C 1005 153 979 178 979 426 
L 979 4396 
z
" transform="scale(0.015625)"/>
      <path id="CMR17-79" d="M 2496 2197 
C 2656 2586 2944 2586 3034 2586 
L 3034 2752 
C 2912 2752 2752 2752 2630 2752 
C 2496 2752 2285 2752 2157 2758 
L 2157 2592 
C 2400 2573 2406 2394 2406 2343 
C 2406 2280 2394 2248 2362 2171 
L 1664 449 
L 902 2306 
C 870 2382 870 2426 870 2433 
C 870 2573 1018 2586 1171 2586 
L 1171 2758 
C 1018 2752 742 2752 582 2752 
C 410 2752 205 2752 64 2758 
L 64 2586 
C 410 2586 448 2554 531 2350 
L 1485 15 
C 1197 -738 1030 -1178 627 -1178 
C 557 -1178 397 -1159 282 -1044 
C 429 -1031 493 -942 493 -833 
C 493 -725 416 -629 288 -629 
C 147 -629 77 -725 77 -840 
C 77 -1095 339 -1280 627 -1280 
C 998 -1280 1229 -922 1357 -604 
L 2496 2197 
z
" transform="scale(0.015625)"/>
      <path id="CMR17-32" d="M 2669 989 
L 2554 989 
C 2490 536 2438 459 2413 420 
C 2381 369 1920 369 1830 369 
L 602 369 
C 832 619 1280 1072 1824 1597 
C 2214 1967 2669 2402 2669 3035 
C 2669 3790 2067 4224 1395 4224 
C 691 4224 262 3604 262 3030 
C 262 2780 448 2748 525 2748 
C 589 2748 781 2787 781 3010 
C 781 3207 614 3264 525 3264 
C 486 3264 448 3258 422 3245 
C 544 3790 915 4058 1306 4058 
C 1862 4058 2227 3617 2227 3035 
C 2227 2479 1901 2000 1536 1584 
L 262 146 
L 262 0 
L 2515 0 
L 2669 989 
z
" transform="scale(0.015625)"/>
      <path id="CMMI12-66" d="M 2854 2566 
C 2982 2566 3034 2566 3034 2688 
C 3034 2752 2982 2752 2867 2752 
L 2349 2752 
C 2470 3429 2560 3897 2611 4107 
C 2650 4265 2784 4416 2950 4416 
C 3085 4416 3219 4358 3283 4298 
C 3034 4272 2957 4082 2957 3969 
C 2957 3837 3053 3759 3174 3759 
C 3302 3759 3494 3870 3494 4119 
C 3494 4393 3226 4544 2944 4544 
C 2669 4544 2400 4334 2272 4078 
C 2157 3848 2093 3611 1946 2752 
L 1517 2752 
C 1395 2752 1331 2752 1331 2637 
C 1331 2566 1370 2566 1498 2566 
L 1907 2566 
C 1792 1976 1530 542 1382 -137 
C 1274 -689 1178 -1152 858 -1152 
C 838 -1152 653 -1152 538 -1031 
C 864 -1005 864 -726 864 -720 
C 864 -593 768 -517 646 -517 
C 518 -517 326 -625 326 -867 
C 326 -1140 608 -1280 858 -1280 
C 1510 -1280 1779 -118 1850 199 
C 1965 688 2278 2376 2310 2566 
L 2854 2566 
z
" transform="scale(0.015625)"/>
      <path id="CMR17-30" d="M 2688 2025 
C 2688 2416 2682 3080 2413 3591 
C 2176 4039 1798 4198 1466 4198 
C 1158 4198 768 4058 525 3597 
C 269 3118 243 2524 243 2025 
C 243 1661 250 1106 448 619 
C 723 -39 1216 -128 1466 -128 
C 1760 -128 2208 -7 2470 600 
C 2662 1042 2688 1559 2688 2025 
z
M 1466 -26 
C 1056 -26 813 325 723 812 
C 653 1188 653 1738 653 2096 
C 653 2588 653 2997 736 3387 
C 858 3929 1216 4096 1466 4096 
C 1728 4096 2067 3923 2189 3400 
C 2272 3036 2278 2607 2278 2096 
C 2278 1680 2278 1169 2202 792 
C 2067 95 1690 -26 1466 -26 
z
" transform="scale(0.015625)"/>
      <path id="CMSY10-0" d="M 4218 1472 
C 4326 1472 4442 1472 4442 1600 
C 4442 1728 4326 1728 4218 1728 
L 755 1728 
C 646 1728 531 1728 531 1600 
C 531 1472 646 1472 755 1472 
L 4218 1472 
z
" transform="scale(0.015625)"/>
     </defs>
     <use xlink:href="#CMMI12-42" transform="scale(0.996264)"/>
     <use xlink:href="#CMSY10-30" transform="translate(79.135523 36.153639) scale(0.697382)"/>
     <use xlink:href="#CMMI12-69" transform="translate(74.10802 -25.505809) scale(0.697382)"/>
     <use xlink:href="#CMR17-3d" transform="translate(126.485625 0) scale(0.996264)"/>
     <use xlink:href="#CMEX10-38" transform="translate(225.874422 264.012395) scale(0.996264)"/>
     <use xlink:href="#CMEX10-3e" transform="translate(225.874422 174.347722) scale(0.996264)"/>
     <use xlink:href="#CMEX10-3e" transform="translate(225.874422 144.459498) scale(0.996264)"/>
     <use xlink:href="#CMEX10-3c" transform="translate(225.874422 114.571273) scale(0.996264)"/>
     <use xlink:href="#CMEX10-3e" transform="translate(225.874422 -64.758073) scale(0.996264)"/>
     <use xlink:href="#CMEX10-3e" transform="translate(225.874422 -94.646297) scale(0.996264)"/>
     <use xlink:href="#CMEX10-3a" transform="translate(225.874422 -124.534521) scale(0.996264)"/>
     <use xlink:href="#CMR17-31" transform="translate(314.431447 144.458418) scale(0.996264)"/>
     <use xlink:href="#CMMI12-3b" transform="translate(360.121924 144.458418) scale(0.996264)"/>
     <use xlink:href="#CMR17-77" transform="translate(530.810729 144.458418) scale(0.996264)"/>
     <use xlink:href="#CMR17-69" transform="translate(597.32061 144.458418) scale(0.996264)"/>
     <use xlink:href="#CMR17-74" transform="translate(622.191668 144.458418) scale(0.996264)"/>
     <use xlink:href="#CMR17-68" transform="translate(657.472436 144.458418) scale(0.996264)"/>
     <use xlink:href="#CMR17-70" transform="translate(738.443772 144.458418) scale(0.996264)"/>
     <use xlink:href="#CMR17-72" transform="translate(789.339142 144.458418) scale(0.996264)"/>
     <use xlink:href="#CMR17-6f" transform="translate(824.61991 144.458418) scale(0.996264)"/>
     <use xlink:href="#CMR17-62" transform="translate(870.310387 144.458418) scale(0.996264)"/>
     <use xlink:href="#CMR17-61" transform="translate(921.205757 144.458418) scale(0.996264)"/>
     <use xlink:href="#CMR17-62" transform="translate(966.896234 144.458418) scale(0.996264)"/>
     <use xlink:href="#CMR17-69" transform="translate(1017.791604 144.458418) scale(0.996264)"/>
     <use xlink:href="#CMR17-6c" transform="translate(1042.662662 144.458418) scale(0.996264)"/>
     <use xlink:href="#CMR17-69" transform="translate(1067.533721 144.458418) scale(0.996264)"/>
     <use xlink:href="#CMR17-74" transform="translate(1092.404779 144.458418) scale(0.996264)"/>
     <use xlink:href="#CMR17-79" transform="translate(1125.083093 144.458418) scale(0.996264)"/>
     <use xlink:href="#CMR17-31" transform="translate(1204.647489 183.68452) scale(0.697382)"/>
     <use xlink:href="#CMR17-32" transform="translate(1204.647489 110.103165) scale(0.697382)"/>
     <use xlink:href="#CMMI12-66" transform="translate(1237.826185 144.458418) scale(0.996264)"/>
     <use xlink:href="#CMR17-30" transform="translate(314.431447 -4.980788) scale(0.996264)"/>
     <use xlink:href="#CMMI12-3b" transform="translate(360.121924 -4.980788) scale(0.996264)"/>
     <use xlink:href="#CMR17-77" transform="translate(530.810729 -4.980788) scale(0.996264)"/>
     <use xlink:href="#CMR17-69" transform="translate(597.32061 -4.980788) scale(0.996264)"/>
     <use xlink:href="#CMR17-74" transform="translate(622.191668 -4.980788) scale(0.996264)"/>
     <use xlink:href="#CMR17-68" transform="translate(657.472436 -4.980788) scale(0.996264)"/>
     <use xlink:href="#CMR17-70" transform="translate(738.443772 -4.980788) scale(0.996264)"/>
     <use xlink:href="#CMR17-72" transform="translate(789.339142 -4.980788) scale(0.996264)"/>
     <use xlink:href="#CMR17-6f" transform="translate(824.61991 -4.980788) scale(0.996264)"/>
     <use xlink:href="#CMR17-62" transform="translate(870.310387 -4.980788) scale(0.996264)"/>
     <use xlink:href="#CMR17-61" transform="translate(921.205757 -4.980788) scale(0.996264)"/>
     <use xlink:href="#CMR17-62" transform="translate(966.896234 -4.980788) scale(0.996264)"/>
     <use xlink:href="#CMR17-69" transform="translate(1017.791604 -4.980788) scale(0.996264)"/>
     <use xlink:href="#CMR17-6c" transform="translate(1042.662662 -4.980788) scale(0.996264)"/>
     <use xlink:href="#CMR17-69" transform="translate(1067.533721 -4.980788) scale(0.996264)"/>
     <use xlink:href="#CMR17-74" transform="translate(1092.404779 -4.980788) scale(0.996264)"/>
     <use xlink:href="#CMR17-79" transform="translate(1125.083093 -4.980788) scale(0.996264)"/>
     <use xlink:href="#CMR17-31" transform="translate(1204.647489 34.245314) scale(0.697382)"/>
     <use xlink:href="#CMR17-32" transform="translate(1204.647489 -39.336041) scale(0.697382)"/>
     <use xlink:href="#CMMI12-66" transform="translate(1237.826185 -4.980788) scale(0.996264)"/>
     <use xlink:href="#CMMI12-42" transform="translate(314.431447 -154.419994) scale(0.996264)"/>
     <use xlink:href="#CMMI12-69" transform="translate(388.539467 -169.363909) scale(0.697382)"/>
     <use xlink:href="#CMMI12-3b" transform="translate(412.332507 -154.419994) scale(0.996264)"/>
     <use xlink:href="#CMR17-77" transform="translate(530.810729 -154.419994) scale(0.996264)"/>
     <use xlink:href="#CMR17-69" transform="translate(597.32061 -154.419994) scale(0.996264)"/>
     <use xlink:href="#CMR17-74" transform="translate(622.191668 -154.419994) scale(0.996264)"/>
     <use xlink:href="#CMR17-68" transform="translate(657.472436 -154.419994) scale(0.996264)"/>
     <use xlink:href="#CMR17-70" transform="translate(738.443772 -154.419994) scale(0.996264)"/>
     <use xlink:href="#CMR17-72" transform="translate(789.339142 -154.419994) scale(0.996264)"/>
     <use xlink:href="#CMR17-6f" transform="translate(824.61991 -154.419994) scale(0.996264)"/>
     <use xlink:href="#CMR17-62" transform="translate(870.310387 -154.419994) scale(0.996264)"/>
     <use xlink:href="#CMR17-61" transform="translate(921.205757 -154.419994) scale(0.996264)"/>
     <use xlink:href="#CMR17-62" transform="translate(966.896234 -154.419994) scale(0.996264)"/>
     <use xlink:href="#CMR17-69" transform="translate(1017.791604 -154.419994) scale(0.996264)"/>
     <use xlink:href="#CMR17-6c" transform="translate(1042.662662 -154.419994) scale(0.996264)"/>
     <use xlink:href="#CMR17-69" transform="translate(1067.533721 -154.419994) scale(0.996264)"/>
     <use xlink:href="#CMR17-74" transform="translate(1092.404779 -154.419994) scale(0.996264)"/>
     <use xlink:href="#CMR17-79" transform="translate(1125.083093 -154.419994) scale(0.996264)"/>
     <use xlink:href="#CMR17-31" transform="translate(1203.451975 -154.419994) scale(0.996264)"/>
     <use xlink:href="#CMSY10-0" transform="translate(1271.281659 -154.419994) scale(0.996264)"/>
     <use xlink:href="#CMMI12-66" transform="translate(1370.908334 -154.419994) scale(0.996264)"/>
     <path d="M 1204.647489 167.372551 
L 1236.630671 167.372551 
L 1236.630671 171.357501 
L 1204.647489 171.357501 
L 1204.647489 167.372551 
z
"/>
     <path d="M 1204.647489 17.933345 
L 1236.630671 17.933345 
L 1236.630671 21.918295 
L 1204.647489 21.918295 
L 1204.647489 17.933345 
z
"/>
    </g>
   </g>
  </g>
 </g>
</svg>
