<svg width="420" height="170" xmlns="http://www.w3.org/2000/svg">

  <!-- Column headers -->
  <rect x="10" y="10" width="120" height="30" fill="#f0f0f0" stroke="#000000" />
  <rect x="130" y="10" width="280" height="30" fill="#f0f0f0" stroke="#000000" />

  <!-- Header text -->
  <text x="20" y="30" font-family="Arial" font-size="14" font-weight="bold">Parameter</text>
  <text x="140" y="30" font-family="Arial" font-size="14" font-weight="bold">Meaning</text>

  <!-- Row 1 -->
  <rect x="10" y="40" width="120" height="25" fill="transparent" stroke="#000000" />
  <rect x="130" y="40" width="280" height="25" fill="transparent" stroke="#000000" />
  <text x="20" y="57" font-family="Arial" font-size="14">β</text>
  <text x="140" y="57" font-family="Arial" font-size="14">Fraction of fake users</text>

  <!-- Row 2 -->
  <rect x="10" y="65" width="120" height="25" fill="transparent" stroke="#000000" />
  <rect x="130" y="65" width="280" height="25" fill="transparent" stroke="#000000" />
  <text x="20" y="82" font-family="Arial" font-size="14">
    f<tspan baseline-shift="sub">T</tspan>
  </text>
  <text x="140" y="82" font-family="Arial" font-size="14">True frequency of targets</text>

  <!-- Row 3 -->
  <rect x="10" y="90" width="120" height="25" fill="transparent" stroke="#000000" />
  <rect x="130" y="90" width="280" height="25" fill="transparent" stroke="#000000" />
  <text x="20" y="107" font-family="Arial" font-size="14">d</text>
  <text x="140" y="107" font-family="Arial" font-size="14">Domain size</text>

  <!-- Row 4 -->
  <rect x="10" y="115" width="120" height="25" fill="transparent" stroke="#000000" />
  <rect x="130" y="115" width="280" height="25" fill="transparent" stroke="#000000" />
  <text x="20" y="132" font-family="Arial" font-size="14">r</text>
  <text x="140" y="132" font-family="Arial" font-size="14">Number of target items</text>

  <!-- Row 5 -->
  <rect x="10" y="140" width="120" height="25" fill="transparent" stroke="#000000" />
  <rect x="130" y="140" width="280" height="25" fill="transparent" stroke="#000000" />
  <text x="20" y="157" font-family="Arial" font-size="14">ε</text>
  <text x="140" y="157" font-family="Arial" font-size="14">Privacy level</text>
</svg>