<svg width="763.2" height="167.04" viewBox="0 0 572.4 125.28" xmlns="http://www.w3.org/2000/svg" xmlns:xlink="http://www.w3.org/1999/xlink" stroke-linecap="butt" stroke-linejoin="round" overflow="hidden"><defs stroke-linecap="butt" stroke-linejoin="round"></defs><g id="figure_1" stroke-linecap="butt" stroke-linejoin="round"><g id="patch_1" stroke-linecap="butt" stroke-linejoin="round"><path d="M0 125.28 572.4 125.28 572.4 0 0 0 0 125.28Z" stroke-linecap="butt" stroke-linejoin="round" fill="none" opacity="0"/></g><g id="axes_1" stroke-linecap="butt" stroke-linejoin="round"><g id="text_1" stroke-linecap="butt" stroke-linejoin="round"><g stroke-linecap="butt" stroke-linejoin="round" transform="matrix(0.2 0 0 -0.2 146.612 67.6213)"><defs stroke-linecap="butt" stroke-linejoin="round"><path d="M2342 3921C2400 4160 2426 4160 2675 4160L3507 4160C4230 4160 4230 3544 4230 3485 4230 2966 3712 2304 2867 2304L1946 2304 2342 3921ZM3424 2275C4122 2402 4755 2886 4755 3473 4755 3970 4314 4352 3590 4352L1536 4352C1414 4352 1357 4352 1357 4226 1357 4160 1414 4160 1510 4160 1901 4160 1901 4112 1901 4044 1901 4032 1901 3993 1875 3897L1011 472C954 249 941 185 493 185 371 185 307 185 307 70 307 0 346 0 474 0L2669 0C3648 0 4403 739 4403 1383 4403 1906 3942 2224 3424 2275ZM2515 185 1651 185C1562 185 1549 185 1510 192 1440 198 1434 211 1434 261 1434 305 1446 343 1459 399L1907 2176 3110 2176C3866 2176 3866 1483 3866 1433 3866 828 3309 185 2515 185Z" id="CMMI12-42" stroke-linecap="butt" stroke-linejoin="round" transform="scale(0.015625 0.015625)"/><path d="M1619 3040C1651 3117 1677 3174 1677 3238 1677 3424 1510 3578 1312 3578 1133 3578 1018 3456 973 3290L211 493C211 480 186 410 186 403 186 333 352 288 403 288 442 288 448 307 486 390L1619 3040Z" id="CMSY10-30" stroke-linecap="butt" stroke-linejoin="round" transform="scale(0.015625 0.015625)"/><path d="M1811 913C1811 945 1786 971 1747 971 1690 971 1683 952 1651 843 1485 262 1222 64 1011 64 934 64 845 83 845 275 845 447 922 639 992 830L1440 2018C1459 2069 1504 2184 1504 2305 1504 2574 1312 2816 998 2816 410 2816 173 1890 173 1839 173 1814 198 1782 243 1782 301 1782 307 1807 333 1896 486 2428 730 2682 979 2682 1037 2682 1146 2682 1146 2478 1146 2312 1062 2101 1011 1961L563 773C525 671 486 568 486 453 486 166 685-64 992-64 1581-64 1811 869 1811 913ZM1760 4013C1760 4109 1683 4224 1542 4224 1395 4224 1229 4083 1229 3917 1229 3758 1363 3707 1440 3707 1613 3707 1760 3873 1760 4013Z" id="CMMI12-69" stroke-linecap="butt" stroke-linejoin="round" transform="scale(0.015625 0.015625)"/><path d="M4115 2017C4211 2017 4307 2017 4307 2125 4307 2240 4198 2240 4090 2240L512 2240C403 2240 294 2240 294 2125 294 2017 390 2017 486 2017L4115 2017ZM4090 896C4198 896 4307 896 4307 1011 4307 1119 4211 1119 4115 1119L486 1119C390 1119 294 1119 294 1011 294 896 403 896 512 896L4090 896Z" id="CMR17-3d" stroke-linecap="butt" stroke-linejoin="round" transform="scale(0.015625 0.015625)"/><path d="M3225-2899C3225-2374 3365-1152 4505-346 4588-282 4594-275 4594-160 4594-13 4588-6 4428-6L4325-6C2949-749 2457-1958 2457-2899L2457-5651C2457-5818 2463-5824 2636-5824L3045-5824C3218-5824 3225-5818 3225-5651L3225-2899Z" id="CMEX10-38" stroke-linecap="butt" stroke-linejoin="round" transform="scale(0.015625 0.015625)"/><path d="M3225-109C3225 58 3218 64 3045 64L2636 64C2463 64 2457 58 2457-109L2457-1811C2457-1978 2463-1984 2636-1984L3045-1984C3218-1984 3225-1978 3225-1811L3225-109Z" id="CMEX10-3e" stroke-linecap="butt" stroke-linejoin="round" transform="scale(0.015625 0.015625)"/><path d="M2457-11411C2457-11578 2463-11584 2636-11584L3045-11584C3218-11584 3225-11578 3225-11411L3225-8710C3225-7936 2898-6630 1465-5760 2911-4883 3225-3565 3225-2810L3225-109C3225 58 3218 64 3045 64L2636 64C2463 64 2457 58 2457-109L2457-2816C2457-3354 2341-4685 1164-5581 1093-5638 1087-5645 1087-5760 1087-5875 1093-5882 1164-5939 1330-6067 1772-6406 2079-7053 2329-7565 2457-8134 2457-8704L2457-11411Z" id="CMEX10-3c" stroke-linecap="butt" stroke-linejoin="round" transform="scale(0.015625 0.015625)"/><path d="M4428-5754C4588-5754 4594-5747 4594-5600 4594-5485 4588-5478 4562-5459 4364-5312 3903-4986 3602-4397 3353-3910 3225-3418 3225-2861L3225-109C3225 58 3218 64 3045 64L2636 64C2463 64 2457 58 2457-109L2457-2861C2457-3808 2949-5018 4325-5754L4428-5754Z" id="CMEX10-3a" stroke-linecap="butt" stroke-linejoin="round" transform="scale(0.015625 0.015625)"/><path d="M1702 4058C1702 4192 1696 4192 1606 4192 1357 3916 979 3827 621 3827 602 3827 570 3827 563 3808 557 3795 557 3782 557 3648 755 3648 1088 3686 1344 3839L1344 461C1344 236 1331 160 781 160L589 160 589 0C896 0 1216 0 1523 0 1830 0 2150 0 2458 0L2458 160 2266 160C1715 160 1702 230 1702 458L1702 4058Z" id="CMR17-31" stroke-linecap="butt" stroke-linejoin="round" transform="scale(0.015625 0.015625)"/><path d="M3725 2183C3853 2560 4109 2560 4205 2560L4205 2732C4077 2732 3949 2732 3821 2732 3699 2732 3424 2732 3315 2738L3315 2560C3514 2560 3622 2445 3622 2286 3622 2241 3610 2184 3597 2140L2995 407 2342 2275C2330 2319 2310 2370 2310 2395 2310 2560 2528 2560 2630 2560L2630 2738C2483 2732 2214 2732 2061 2732 1901 2732 1734 2732 1587 2738L1587 2560C1939 2560 1939 2547 2074 2149L1485 451 851 2281C819 2363 819 2376 819 2395 819 2560 1037 2560 1139 2560L1139 2738C986 2732 717 2732 557 2732 416 2732 198 2732 64 2738L64 2560C346 2560 416 2541 486 2331L1274 49C1299-33 1318-52 1370-52 1414-52 1440-39 1472 56L2131 1980 2797 56C2829-39 2854-52 2899-52 2950-52 2970-33 2995 50L3725 2183Z" id="CMR17-77" stroke-linecap="butt" stroke-linejoin="round" transform="scale(0.015625 0.015625)"/><path d="M992 3909C992 4049 877 4170 730 4170 589 4170 467 4056 467 3909 467 3769 582 3648 730 3648 870 3648 992 3763 992 3909ZM243 2706 243 2541C602 2541 653 2502 653 2197L653 427C653 184 627 153 218 153L218-13C371 0 646 0 806 0 960 0 1222 0 1370-13L1370 153C992 153 979 191 979 420L979 2776 243 2706Z" id="CMR17-69" stroke-linecap="butt" stroke-linejoin="round" transform="scale(0.015625 0.015625)"/><path d="M966 2560 1862 2560 1862 2725 966 2725 966 3904 851 3904C838 3245 614 2668 70 2668L70 2560 627 2560 627 771C627 650 627-64 1370-64 1747-64 1965 306 1965 777L1965 1140 1850 1140 1850 783C1850 344 1677 51 1408 51 1222 51 966 178 966 758L966 2560Z" id="CMR17-74" stroke-linecap="butt" stroke-linejoin="round" transform="scale(0.015625 0.015625)"/><path d="M2656 1933C2656 2259 2592 2790 1837 2790 1312 2790 1056 2368 979 2157L973 2157 973 4396 211 4326 211 4160C589 4160 646 4122 646 3817L646 426C646 184 621 153 211 153L211-13C365 0 646 0 813 0 979 0 1267 0 1421-13L1421 153C1011 153 986 178 986 428L986 1658C986 2247 1344 2688 1792 2688 2266 2688 2317 2266 2317 1958L2317 428C2317 184 2291 153 1882 153L1882-13C2035 0 2317 0 2483 0 2650 0 2938 0 3091-13L3091 153C2682 153 2656 178 2656 428L2656 1933Z" id="CMR17-68" stroke-linecap="butt" stroke-linejoin="round" transform="scale(0.015625 0.015625)"/><path d="M1408-1063C998-1063 973-1037 973-789L973 402C1158 134 1427-38 1766-38 2406-38 3053 523 3053 1388 3053 2191 2496 2802 1837 2802 1453 2802 1139 2592 960 2338L960 2802 198 2732 198 2567C576 2567 634 2528 634 2223L634-789C634-1031 608-1063 198-1063L198-1228C352-1216 634-1216 800-1216 966-1216 1254-1216 1408-1228L1408-1063ZM973 2012C973 2102 973 2235 1222 2471 1254 2497 1472 2688 1792 2688 2259 2688 2643 2108 2643 1382 2643 656 2234 64 1728 64 1498 64 1248 172 1056 472 973 612 973 650 973 752L973 2012Z" id="CMR17-70" stroke-linecap="butt" stroke-linejoin="round" transform="scale(0.015625 0.015625)"/><path d="M960 1497C960 2112 1222 2688 1702 2688 1747 2688 1792 2682 1837 2662 1837 2662 1696 2617 1696 2452 1696 2298 1818 2234 1914 2234 1990 2234 2131 2279 2131 2458 2131 2663 1926 2790 1709 2790 1222 2790 1011 2317 947 2093L941 2093 941 2790 198 2720 198 2554C576 2554 634 2515 634 2208L634 428C634 184 608 153 198 153L198-13C352 0 646 0 813 0 998 0 1325 0 1498-13L1498 153C1037 153 960 153 960 440L960 1497Z" id="CMR17-72" stroke-linecap="butt" stroke-linejoin="round" transform="scale(0.015625 0.015625)"/><path d="M2758 1356C2758 2176 2163 2816 1466 2816 768 2816 173 2176 173 1356 173 551 768-64 1466-64 2163-64 2758 551 2758 1356ZM1466 51C1165 51 909 230 762 480 602 767 582 1126 582 1408 582 1677 595 2010 762 2298 890 2509 1139 2714 1466 2714 1754 2714 1997 2554 2150 2330 2349 2029 2349 1607 2349 1408 2349 1158 2336 775 2163 467 1984 173 1709 51 1466 51Z" id="CMR17-6f" stroke-linecap="butt" stroke-linejoin="round" transform="scale(0.015625 0.015625)"/><path d="M960 4396 198 4326 198 4160C576 4160 634 4122 634 3817L634-13 749-13 934 441C1120 141 1395-64 1766-64 2406-64 3053 500 3053 1370 3053 2188 2477 2790 1830 2790 1434 2790 1152 2579 960 2330L960 4396ZM973 2004C973 2118 973 2138 1062 2272 1312 2657 1670 2688 1792 2688 1984 2688 2643 2585 2643 1376 2643 108 1888 38 1734 38 1536 38 1248 114 1043 486 973 608 973 621 973 735L973 2004Z" id="CMR17-62" stroke-linecap="butt" stroke-linejoin="round" transform="scale(0.015625 0.015625)"/><path d="M2304 1653C2304 2072 2304 2294 2035 2543 1798 2752 1523 2816 1306 2816 800 2816 435 2407 435 1971 435 1728 627 1728 666 1728 749 1728 896 1778 896 1954 896 2112 774 2181 666 2181 640 2181 608 2174 589 2168 723 2592 1069 2714 1293 2714 1613 2714 1965 2429 1965 1885L1965 1600C1587 1600 1133 1549 774 1357 371 1133 256 813 256 570 256 77 832-64 1171-64 1523-64 1850 139 1990 511 2003 233 2182-18 2464-18 2598-18 2938 70 2938 567L2938 920 2822 920 2822 562C2822 178 2650 128 2566 128 2304 128 2304 458 2304 738L2304 1653ZM1965 870C1965 317 1568 38 1216 38 896 38 646 275 646 570 646 761 730 1100 1101 1305 1408 1478 1760 1504 1965 1504L1965 870Z" id="CMR17-61" stroke-linecap="butt" stroke-linejoin="round" transform="scale(0.015625 0.015625)"/><path d="M979 4396 218 4326 218 4160C595 4160 653 4122 653 3817L653 426C653 184 627 153 218 153L218-13C371 0 653 0 813 0 979 0 1261 0 1414-13L1414 153C1005 153 979 178 979 426L979 4396Z" id="CMR17-6c" stroke-linecap="butt" stroke-linejoin="round" transform="scale(0.015625 0.015625)"/><path d="M2496 2197C2656 2586 2944 2586 3034 2586L3034 2752C2912 2752 2752 2752 2630 2752 2496 2752 2285 2752 2157 2758L2157 2592C2400 2573 2406 2394 2406 2343 2406 2280 2394 2248 2362 2171L1664 449 902 2306C870 2382 870 2426 870 2433 870 2573 1018 2586 1171 2586L1171 2758C1018 2752 742 2752 582 2752 410 2752 205 2752 64 2758L64 2586C410 2586 448 2554 531 2350L1485 15C1197-738 1030-1178 627-1178 557-1178 397-1159 282-1044 429-1031 493-942 493-833 493-725 416-629 288-629 147-629 77-725 77-840 77-1095 339-1280 627-1280 998-1280 1229-922 1357-604L2496 2197Z" id="CMR17-79" stroke-linecap="butt" stroke-linejoin="round" transform="scale(0.015625 0.015625)"/><path d="M2669 989 2554 989C2490 536 2438 459 2413 420 2381 369 1920 369 1830 369L602 369C832 619 1280 1072 1824 1597 2214 1967 2669 2402 2669 3035 2669 3790 2067 4224 1395 4224 691 4224 262 3604 262 3030 262 2780 448 2748 525 2748 589 2748 781 2787 781 3010 781 3207 614 3264 525 3264 486 3264 448 3258 422 3245 544 3790 915 4058 1306 4058 1862 4058 2227 3617 2227 3035 2227 2479 1901 2000 1536 1584L262 146 262 0 2515 0 2669 989Z" id="CMR17-32" stroke-linecap="butt" stroke-linejoin="round" transform="scale(0.015625 0.015625)"/><path d="M2854 2566C2982 2566 3034 2566 3034 2688 3034 2752 2982 2752 2867 2752L2349 2752C2470 3429 2560 3897 2611 4107 2650 4265 2784 4416 2950 4416 3085 4416 3219 4358 3283 4298 3034 4272 2957 4082 2957 3969 2957 3837 3053 3759 3174 3759 3302 3759 3494 3870 3494 4119 3494 4393 3226 4544 2944 4544 2669 4544 2400 4334 2272 4078 2157 3848 2093 3611 1946 2752L1517 2752C1395 2752 1331 2752 1331 2637 1331 2566 1370 2566 1498 2566L1907 2566C1792 1976 1530 542 1382-137 1274-689 1178-1152 858-1152 838-1152 653-1152 538-1031 864-1005 864-726 864-720 864-593 768-517 646-517 518-517 326-625 326-867 326-1140 608-1280 858-1280 1510-1280 1779-118 1850 199 1965 688 2278 2376 2310 2566L2854 2566Z" id="CMMI12-66" stroke-linecap="butt" stroke-linejoin="round" transform="scale(0.015625 0.015625)"/><path d="M2688 2025C2688 2416 2682 3080 2413 3591 2176 4039 1798 4198 1466 4198 1158 4198 768 4058 525 3597 269 3118 243 2524 243 2025 243 1661 250 1106 448 619 723-39 1216-128 1466-128 1760-128 2208-7 2470 600 2662 1042 2688 1559 2688 2025ZM1466-26C1056-26 813 325 723 812 653 1188 653 1738 653 2096 653 2588 653 2997 736 3387 858 3929 1216 4096 1466 4096 1728 4096 2067 3923 2189 3400 2272 3036 2278 2607 2278 2096 2278 1680 2278 1169 2202 792 2067 95 1690-26 1466-26Z" id="CMR17-30" stroke-linecap="butt" stroke-linejoin="round" transform="scale(0.015625 0.015625)"/><path d="M4218 1472C4326 1472 4442 1472 4442 1600 4442 1728 4326 1728 4218 1728L755 1728C646 1728 531 1728 531 1600 531 1472 646 1472 755 1472L4218 1472Z" id="CMSY10-0" stroke-linecap="butt" stroke-linejoin="round" transform="scale(0.015625 0.015625)"/></defs><use width="100%" height="100%" xlink:href="#CMMI12-42" stroke-linecap="butt" stroke-linejoin="round" transform="scale(0.996264 0.996264)"></use><use width="100%" height="100%" xlink:href="#CMSY10-30" stroke-linecap="butt" stroke-linejoin="round" transform="matrix(0.697382 0 0 0.697382 79.1355 36.1536)"></use><use width="100%" height="100%" xlink:href="#CMMI12-69" stroke-linecap="butt" stroke-linejoin="round" transform="matrix(0.697382 0 0 0.697382 74.108 -25.5058)"></use><use width="100%" height="100%" xlink:href="#CMR17-3d" stroke-linecap="butt" stroke-linejoin="round" transform="matrix(0.996264 0 0 0.996264 126.486 0)"></use><use width="100%" height="100%" xlink:href="#CMEX10-38" stroke-linecap="butt" stroke-linejoin="round" transform="matrix(0.996264 0 0 0.996264 225.874 264.012)"></use><use width="100%" height="100%" xlink:href="#CMEX10-3e" stroke-linecap="butt" stroke-linejoin="round" transform="matrix(0.996264 0 0 0.996264 225.874 174.348)"></use><use width="100%" height="100%" xlink:href="#CMEX10-3e" stroke-linecap="butt" stroke-linejoin="round" transform="matrix(0.996264 0 0 0.996264 225.874 144.459)"></use><use width="100%" height="100%" xlink:href="#CMEX10-3c" stroke-linecap="butt" stroke-linejoin="round" transform="matrix(0.996264 0 0 0.996264 225.874 114.571)"></use><use width="100%" height="100%" xlink:href="#CMEX10-3e" stroke-linecap="butt" stroke-linejoin="round" transform="matrix(0.996264 0 0 0.996264 225.874 -64.7581)"></use><use width="100%" height="100%" xlink:href="#CMEX10-3e" stroke-linecap="butt" stroke-linejoin="round" transform="matrix(0.996264 0 0 0.996264 225.874 -94.6463)"></use><use width="100%" height="100%" xlink:href="#CMEX10-3a" stroke-linecap="butt" stroke-linejoin="round" transform="matrix(0.996264 0 0 0.996264 225.874 -124.535)"></use><use width="100%" height="100%" xlink:href="#CMR17-31" stroke-linecap="butt" stroke-linejoin="round" transform="matrix(0.996264 0 0 0.996264 314.431 144.458)"></use><use width="100%" height="100%" xlink:href="#CMR17-77" stroke-linecap="butt" stroke-linejoin="round" transform="matrix(0.996264 0 0 0.996264 503.714 144.458)"></use><use width="100%" height="100%" xlink:href="#CMR17-69" stroke-linecap="butt" stroke-linejoin="round" transform="matrix(0.996264 0 0 0.996264 570.223 144.458)"></use><use width="100%" height="100%" xlink:href="#CMR17-74" stroke-linecap="butt" stroke-linejoin="round" transform="matrix(0.996264 0 0 0.996264 595.094 144.458)"></use><use width="100%" height="100%" xlink:href="#CMR17-68" stroke-linecap="butt" stroke-linejoin="round" transform="matrix(0.996264 0 0 0.996264 630.375 144.458)"></use><use width="100%" height="100%" xlink:href="#CMR17-70" stroke-linecap="butt" stroke-linejoin="round" transform="matrix(0.996264 0 0 0.996264 711.347 144.458)"></use><use width="100%" height="100%" xlink:href="#CMR17-72" stroke-linecap="butt" stroke-linejoin="round" transform="matrix(0.996264 0 0 0.996264 762.242 144.458)"></use><use width="100%" height="100%" xlink:href="#CMR17-6f" stroke-linecap="butt" stroke-linejoin="round" transform="matrix(0.996264 0 0 0.996264 797.523 144.458)"></use><use width="100%" height="100%" xlink:href="#CMR17-62" stroke-linecap="butt" stroke-linejoin="round" transform="matrix(0.996264 0 0 0.996264 843.213 144.458)"></use><use width="100%" height="100%" xlink:href="#CMR17-61" stroke-linecap="butt" stroke-linejoin="round" transform="matrix(0.996264 0 0 0.996264 894.109 144.458)"></use><use width="100%" height="100%" xlink:href="#CMR17-62" stroke-linecap="butt" stroke-linejoin="round" transform="matrix(0.996264 0 0 0.996264 939.799 144.458)"></use><use width="100%" height="100%" xlink:href="#CMR17-69" stroke-linecap="butt" stroke-linejoin="round" transform="matrix(0.996264 0 0 0.996264 990.694 144.458)"></use><use width="100%" height="100%" xlink:href="#CMR17-6c" stroke-linecap="butt" stroke-linejoin="round" transform="matrix(0.996264 0 0 0.996264 1015.57 144.458)"></use><use width="100%" height="100%" xlink:href="#CMR17-69" stroke-linecap="butt" stroke-linejoin="round" transform="matrix(0.996264 0 0 0.996264 1040.44 144.458)"></use><use width="100%" height="100%" xlink:href="#CMR17-74" stroke-linecap="butt" stroke-linejoin="round" transform="matrix(0.996264 0 0 0.996264 1065.31 144.458)"></use><use width="100%" height="100%" xlink:href="#CMR17-79" stroke-linecap="butt" stroke-linejoin="round" transform="matrix(0.996264 0 0 0.996264 1097.99 144.458)"></use><use width="100%" height="100%" xlink:href="#CMR17-31" stroke-linecap="butt" stroke-linejoin="round" transform="matrix(0.697382 0 0 0.697382 1177.55 183.685)"></use><use width="100%" height="100%" xlink:href="#CMR17-32" stroke-linecap="butt" stroke-linejoin="round" transform="matrix(0.697382 0 0 0.697382 1177.55 110.103)"></use><use width="100%" height="100%" xlink:href="#CMMI12-66" stroke-linecap="butt" stroke-linejoin="round" transform="matrix(0.996264 0 0 0.996264 1210.73 144.458)"></use><use width="100%" height="100%" xlink:href="#CMR17-30" stroke-linecap="butt" stroke-linejoin="round" transform="matrix(0.996264 0 0 0.996264 314.431 -4.98079)"></use><use width="100%" height="100%" xlink:href="#CMR17-77" stroke-linecap="butt" stroke-linejoin="round" transform="matrix(0.996264 0 0 0.996264 503.714 -4.98079)"></use><use width="100%" height="100%" xlink:href="#CMR17-69" stroke-linecap="butt" stroke-linejoin="round" transform="matrix(0.996264 0 0 0.996264 570.223 -4.98079)"></use><use width="100%" height="100%" xlink:href="#CMR17-74" stroke-linecap="butt" stroke-linejoin="round" transform="matrix(0.996264 0 0 0.996264 595.094 -4.98079)"></use><use width="100%" height="100%" xlink:href="#CMR17-68" stroke-linecap="butt" stroke-linejoin="round" transform="matrix(0.996264 0 0 0.996264 630.375 -4.98079)"></use><use width="100%" height="100%" xlink:href="#CMR17-70" stroke-linecap="butt" stroke-linejoin="round" transform="matrix(0.996264 0 0 0.996264 711.347 -4.98079)"></use><use width="100%" height="100%" xlink:href="#CMR17-72" stroke-linecap="butt" stroke-linejoin="round" transform="matrix(0.996264 0 0 0.996264 762.242 -4.98079)"></use><use width="100%" height="100%" xlink:href="#CMR17-6f" stroke-linecap="butt" stroke-linejoin="round" transform="matrix(0.996264 0 0 0.996264 797.523 -4.98079)"></use><use width="100%" height="100%" xlink:href="#CMR17-62" stroke-linecap="butt" stroke-linejoin="round" transform="matrix(0.996264 0 0 0.996264 843.213 -4.98079)"></use><use width="100%" height="100%" xlink:href="#CMR17-61" stroke-linecap="butt" stroke-linejoin="round" transform="matrix(0.996264 0 0 0.996264 894.109 -4.98079)"></use><use width="100%" height="100%" xlink:href="#CMR17-62" stroke-linecap="butt" stroke-linejoin="round" transform="matrix(0.996264 0 0 0.996264 939.799 -4.98079)"></use><use width="100%" height="100%" xlink:href="#CMR17-69" stroke-linecap="butt" stroke-linejoin="round" transform="matrix(0.996264 0 0 0.996264 990.694 -4.98079)"></use><use width="100%" height="100%" xlink:href="#CMR17-6c" stroke-linecap="butt" stroke-linejoin="round" transform="matrix(0.996264 0 0 0.996264 1015.57 -4.98079)"></use><use width="100%" height="100%" xlink:href="#CMR17-69" stroke-linecap="butt" stroke-linejoin="round" transform="matrix(0.996264 0 0 0.996264 1040.44 -4.98079)"></use><use width="100%" height="100%" xlink:href="#CMR17-74" stroke-linecap="butt" stroke-linejoin="round" transform="matrix(0.996264 0 0 0.996264 1065.31 -4.98079)"></use><use width="100%" height="100%" xlink:href="#CMR17-79" stroke-linecap="butt" stroke-linejoin="round" transform="matrix(0.996264 0 0 0.996264 1097.99 -4.98079)"></use><use width="100%" height="100%" xlink:href="#CMR17-31" stroke-linecap="butt" stroke-linejoin="round" transform="matrix(0.697382 0 0 0.697382 1177.55 34.2453)"></use><use width="100%" height="100%" xlink:href="#CMR17-32" stroke-linecap="butt" stroke-linejoin="round" transform="matrix(0.697382 0 0 0.697382 1177.55 -39.336)"></use><use width="100%" height="100%" xlink:href="#CMMI12-66" stroke-linecap="butt" stroke-linejoin="round" transform="matrix(0.996264 0 0 0.996264 1210.73 -4.98079)"></use><use width="100%" height="100%" xlink:href="#CMMI12-42" stroke-linecap="butt" stroke-linejoin="round" transform="matrix(0.996264 0 0 0.996264 314.431 -154.42)"></use><use width="100%" height="100%" xlink:href="#CMMI12-69" stroke-linecap="butt" stroke-linejoin="round" transform="matrix(0.697382 0 0 0.697382 388.539 -169.364)"></use><use width="100%" height="100%" xlink:href="#CMR17-77" stroke-linecap="butt" stroke-linejoin="round" transform="matrix(0.996264 0 0 0.996264 503.714 -154.42)"></use><use width="100%" height="100%" xlink:href="#CMR17-69" stroke-linecap="butt" stroke-linejoin="round" transform="matrix(0.996264 0 0 0.996264 570.223 -154.42)"></use><use width="100%" height="100%" xlink:href="#CMR17-74" stroke-linecap="butt" stroke-linejoin="round" transform="matrix(0.996264 0 0 0.996264 595.094 -154.42)"></use><use width="100%" height="100%" xlink:href="#CMR17-68" stroke-linecap="butt" stroke-linejoin="round" transform="matrix(0.996264 0 0 0.996264 630.375 -154.42)"></use><use width="100%" height="100%" xlink:href="#CMR17-70" stroke-linecap="butt" stroke-linejoin="round" transform="matrix(0.996264 0 0 0.996264 711.347 -154.42)"></use><use width="100%" height="100%" xlink:href="#CMR17-72" stroke-linecap="butt" stroke-linejoin="round" transform="matrix(0.996264 0 0 0.996264 762.242 -154.42)"></use><use width="100%" height="100%" xlink:href="#CMR17-6f" stroke-linecap="butt" stroke-linejoin="round" transform="matrix(0.996264 0 0 0.996264 797.523 -154.42)"></use><use width="100%" height="100%" xlink:href="#CMR17-62" stroke-linecap="butt" stroke-linejoin="round" transform="matrix(0.996264 0 0 0.996264 843.213 -154.42)"></use><use width="100%" height="100%" xlink:href="#CMR17-61" stroke-linecap="butt" stroke-linejoin="round" transform="matrix(0.996264 0 0 0.996264 894.109 -154.42)"></use><use width="100%" height="100%" xlink:href="#CMR17-62" stroke-linecap="butt" stroke-linejoin="round" transform="matrix(0.996264 0 0 0.996264 939.799 -154.42)"></use><use width="100%" height="100%" xlink:href="#CMR17-69" stroke-linecap="butt" stroke-linejoin="round" transform="matrix(0.996264 0 0 0.996264 990.694 -154.42)"></use><use width="100%" height="100%" xlink:href="#CMR17-6c" stroke-linecap="butt" stroke-linejoin="round" transform="matrix(0.996264 0 0 0.996264 1015.57 -154.42)"></use><use width="100%" height="100%" xlink:href="#CMR17-69" stroke-linecap="butt" stroke-linejoin="round" transform="matrix(0.996264 0 0 0.996264 1040.44 -154.42)"></use><use width="100%" height="100%" xlink:href="#CMR17-74" stroke-linecap="butt" stroke-linejoin="round" transform="matrix(0.996264 0 0 0.996264 1065.31 -154.42)"></use><use width="100%" height="100%" xlink:href="#CMR17-79" stroke-linecap="butt" stroke-linejoin="round" transform="matrix(0.996264 0 0 0.996264 1097.99 -154.42)"></use><use width="100%" height="100%" xlink:href="#CMR17-31" stroke-linecap="butt" stroke-linejoin="round" transform="matrix(0.996264 0 0 0.996264 1176.35 -154.42)"></use><use width="100%" height="100%" xlink:href="#CMSY10-0" stroke-linecap="butt" stroke-linejoin="round" transform="matrix(0.996264 0 0 0.996264 1244.18 -154.42)"></use><use width="100%" height="100%" xlink:href="#CMMI12-66" stroke-linecap="butt" stroke-linejoin="round" transform="matrix(0.996264 0 0 0.996264 1343.81 -154.42)"></use><path d="M1177.55 167.373 1209.53 167.373 1209.53 171.357 1177.55 171.357 1177.55 167.373Z" stroke-linecap="butt" stroke-linejoin="round"/><path d="M1177.55 17.9333 1209.53 17.9333 1209.53 21.9183 1177.55 21.9183 1177.55 17.9333Z" stroke-linecap="butt" stroke-linejoin="round"/></g></g></g></g></svg>