<svg width="763.2" height="167.04" viewBox="0 0 572.4 125.28" xmlns="http://www.w3.org/2000/svg" xmlns:xlink="http://www.w3.org/1999/xlink" stroke-linecap="butt" stroke-linejoin="round" overflow="hidden"><defs stroke-linecap="butt" stroke-linejoin="round"></defs><g id="figure_1" stroke-linecap="butt" stroke-linejoin="round"><g id="patch_1" stroke-linecap="butt" stroke-linejoin="round"><path d="M0 125.28 572.4 125.28 572.4 0 0 0 0 125.28Z" stroke-linecap="butt" stroke-linejoin="round" fill="none" opacity="0"/></g><g id="axes_1" stroke-linecap="butt" stroke-linejoin="round"><g id="text_1" stroke-linecap="butt" stroke-linejoin="round"><g stroke-linecap="butt" stroke-linejoin="round" transform="matrix(0.2 0 0 -0.2 152.117 67.6213)"><defs stroke-linecap="butt" stroke-linejoin="round"><path d="M1267 2042 2291 2042C3117 2042 3718 2578 3718 3184 3718 3791 3130 4352 2291 4352L333 4352 333 4186C774 4186 845 4186 845 3899L845 446C845 160 774 160 333 160L333 0C518 0 858 0 1056 0 1254 0 1594 0 1779 0L1779 160C1338 160 1267 160 1267 446L1267 2042ZM1254 2176 1254 3938C1254 4155 1267 4186 1523 4186L2170 4186C2995 4186 3232 3714 3232 3184 3232 2604 2950 2176 2170 2176L1254 2176Z" id="CMR17-50" stroke-linecap="butt" stroke-linejoin="round" transform="scale(0.015625 0.015625)"/><path d="M960 1497C960 2112 1222 2688 1702 2688 1747 2688 1792 2682 1837 2662 1837 2662 1696 2617 1696 2452 1696 2298 1818 2234 1914 2234 1990 2234 2131 2279 2131 2458 2131 2663 1926 2790 1709 2790 1222 2790 1011 2317 947 2093L941 2093 941 2790 198 2720 198 2554C576 2554 634 2515 634 2208L634 428C634 184 608 153 198 153L198-13C352 0 646 0 813 0 998 0 1325 0 1498-13L1498 153C1037 153 960 153 960 440L960 1497Z" id="CMR17-72" stroke-linecap="butt" stroke-linejoin="round" transform="scale(0.015625 0.015625)"/><path d="M1958-1561C1958-1555 1958-1542 1939-1523 1645-1224 858-407 858 1581 858 3569 1632 4379 1946 4697 1946 4704 1958 4717 1958 4736 1958 4755 1939 4768 1914 4768 1843 4768 1299 4296 986 3594 666 2887 576 2199 576 1588 576 1128 621 351 1005-471 1312-1135 1837-1600 1914-1600 1946-1600 1958-1587 1958-1561Z" id="CMR17-28" stroke-linecap="butt" stroke-linejoin="round" transform="scale(0.015625 0.015625)"/><path d="M1894 2023 2970 2023C3853 2023 4736 2673 4736 3401 4736 3898 4314 4352 3507 4352L1530 4352C1408 4352 1350 4352 1350 4231 1350 4167 1408 4167 1504 4167 1894 4167 1894 4116 1894 4046 1894 4034 1894 3995 1869 3899L1005 472C947 249 934 185 486 185 365 185 301 185 301 70 301 0 358 0 397 0 518 0 646 0 768 0L1517 0C1638 0 1773 0 1894 0 1946 0 2016 0 2016 121 2016 185 1958 185 1862 185 1478 185 1472 230 1472 293 1472 325 1478 369 1485 401L1894 2023ZM2355 3930C2413 4167 2438 4167 2688 4167L3322 4167C3802 4167 4198 4013 4198 3535 4198 3369 4115 2827 3821 2534 3712 2419 3405 2176 2822 2176L1920 2176 2355 3930Z" id="CMMI12-50" stroke-linecap="butt" stroke-linejoin="round" transform="scale(0.015625 0.015625)"/><path d="M4448 1489C4454 1508 4474 1554 4474 1579 4474 1611 4448 1643 4410 1643 4384 1643 4371 1637 4352 1617 4339 1611 4339 1598 4282 1469 3904 570 3629 185 2605 185L1670 185C1581 185 1568 185 1530 192 1459 198 1453 211 1453 262 1453 307 1466 345 1478 403L1920 2176 2554 2176C3053 2176 3091 2066 3091 1874 3091 1810 3091 1752 3046 1560 3034 1534 3027 1508 3027 1489 3027 1444 3059 1425 3098 1425 3155 1425 3162 1469 3187 1559L3552 3042C3552 3073 3526 3105 3488 3105 3430 3105 3424 3080 3398 2990 3270 2501 3142 2361 2573 2361L1965 2361 2362 3930C2419 4154 2432 4154 2694 4154L3610 4154C4397 4154 4557 3943 4557 3458 4557 3451 4557 3273 4531 3062 4525 3036 4518 2998 4518 2985 4518 2934 4550 2915 4589 2915 4634 2915 4659 2941 4672 3055L4806 4174C4806 4195 4819 4263 4819 4277 4819 4352 4762 4352 4646 4352L1523 4352C1402 4352 1338 4352 1338 4229 1338 4154 1382 4154 1491 4154 1888 4154 1888 4114 1888 4052 1888 4020 1882 3994 1862 3924L998 473C941 249 928 185 480 185 358 185 294 185 294 70 294 0 333 0 461 0L3674 0C3814 0 3821 6 3866 110L4448 1489Z" id="CMMI12-45" stroke-linecap="butt" stroke-linejoin="round" transform="scale(0.015625 0.015625)"/><path d="M2925 2389C2925 2791 2720 2816 2669 2816 2515 2816 2374 2663 2374 2535 2374 2459 2419 2414 2445 2389 2509 2331 2675 2159 2675 1827 2675 1558 2291 64 1523 64 1133 64 1056 390 1056 626 1056 945 1203 1392 1376 1852 1478 2114 1504 2178 1504 2305 1504 2574 1312 2816 998 2816 410 2816 173 1890 173 1839 173 1814 198 1782 243 1782 301 1782 307 1807 333 1897 486 2446 736 2689 979 2689 1037 2689 1146 2689 1146 2478 1146 2312 1075 2127 979 1884 672 1067 672 869 672 715 672 575 691 313 890 134 1120-64 1440-64 1498-64 2560-64 2925 2024 2925 2389Z" id="CMMI12-76" stroke-linecap="butt" stroke-linejoin="round" transform="scale(0.015625 0.015625)"/><path d="M2669 989 2554 989C2490 536 2438 459 2413 420 2381 369 1920 369 1830 369L602 369C832 619 1280 1072 1824 1597 2214 1967 2669 2402 2669 3035 2669 3790 2067 4224 1395 4224 691 4224 262 3604 262 3030 262 2780 448 2748 525 2748 589 2748 781 2787 781 3010 781 3207 614 3264 525 3264 486 3264 448 3258 422 3245 544 3790 915 4058 1306 4058 1862 4058 2227 3617 2227 3035 2227 2479 1901 2000 1536 1584L262 146 262 0 2515 0 2669 989Z" id="CMR17-32" stroke-linecap="butt" stroke-linejoin="round" transform="scale(0.015625 0.015625)"/><path d="M1683 1581C1683 2040 1638 2817 1254 3639 947 4303 422 4768 346 4768 326 4768 301 4761 301 4729 301 4717 307 4710 314 4697 621 4378 1402 3568 1402 1584 1402-407 627-1217 314-1537 307-1549 301-1556 301-1568 301-1600 326-1600 346-1600 416-1600 960-1128 1274-426 1594 281 1683 969 1683 1581Z" id="CMR17-29" stroke-linecap="butt" stroke-linejoin="round" transform="scale(0.015625 0.015625)"/><path d="M3506 1472C3615 1472 3730 1472 3730 1600 3730 1728 3615 1728 3506 1728L792 1728C869 2586 1605 3200 2507 3200L3506 3200C3615 3200 3730 3200 3730 3328 3730 3456 3615 3456 3506 3456L2495 3456C1400 3456 530 2624 530 1600 530 576 1400-256 2495-256L3506-256C3615-256 3730-256 3730-128 3730 0 3615 0 3506 0L2507 0C1605 0 869 614 792 1472L3506 1472Z" id="CMSY10-32" stroke-linecap="butt" stroke-linejoin="round" transform="scale(0.015625 0.015625)"/><path d="M1811 3962C1811 4221 1978 4634 2675 4634 2707 4642 2733 4672 2733 4718 2733 4800 2682 4800 2611 4800 1971 4800 1389 4471 1382 3993L1382 2522C1382 2270 1382 2063 1126 1851 902 1664 659 1664 518 1664 486 1657 461 1626 461 1580 461 1504 499 1504 563 1504 986 1504 1293 1274 1363 960 1382 890 1382 877 1382 646L1382-621C1382-890 1382-1094 1690-1338 1939-1530 2362-1600 2611-1600 2682-1600 2733-1600 2733-1530 2733-1453 2694-1453 2630-1453 2227-1453 1914-1248 1830-920 1811-863 1811-850 1811-619L1811 727C1811 1023 1760 1132 1555 1337 1421 1472 1235 1536 1056 1587 1581 1736 1811 2034 1811 2409L1811 3962Z" id="CMSY10-66" stroke-linecap="butt" stroke-linejoin="round" transform="scale(0.015625 0.015625)"/><path d="M1683-700C1510-939 1261-1152 947-1152 870-1152 563-1152 467-889 486-895 518-895 531-895 723-895 851-729 851-582 851-435 730-384 634-384 531-384 307-458 307-759 307-1071 582-1286 947-1286 1587-1286 2234-700 2413 6L3040 2485C3046 2517 3059 2556 3059 2594 3059 2689 2982 2753 2886 2753 2829 2753 2694 2727 2643 2535L2170 658C2138 543 2138 530 2086 460 1958 281 1747 64 1440 64 1082 64 1050 415 1050 588 1050 952 1222 1443 1395 1903 1466 2088 1504 2178 1504 2305 1504 2574 1312 2816 998 2816 410 2816 173 1890 173 1839 173 1814 198 1782 243 1782 301 1782 307 1807 333 1897 486 2433 730 2689 979 2689 1037 2689 1146 2689 1146 2478 1146 2312 1075 2127 979 1884 666 1047 666 837 666 683 666 77 1101-64 1421-64 1606-64 1837-6 2061 230L2067 224C1971-147 1907-392 1683-700Z" id="CMMI12-79" stroke-linecap="butt" stroke-linejoin="round" transform="scale(0.015625 0.015625)"/><path d="M1018 4570C1018 4685 1018 4800 890 4800 762 4800 762 4685 762 4570L762-1370C762-1485 762-1600 890-1600 1018-1600 1018-1485 1018-1370L1018 4570Z" id="CMSY10-6a" stroke-linecap="butt" stroke-linejoin="round" transform="scale(0.015625 0.015625)"/><path d="M1702 4058C1702 4192 1696 4192 1606 4192 1357 3916 979 3827 621 3827 602 3827 570 3827 563 3808 557 3795 557 3782 557 3648 755 3648 1088 3686 1344 3839L1344 461C1344 236 1331 160 781 160L589 160 589 0C896 0 1216 0 1523 0 1830 0 2150 0 2458 0L2458 160 2266 160C1715 160 1702 230 1702 458L1702 4058Z" id="CMR17-31" stroke-linecap="butt" stroke-linejoin="round" transform="scale(0.015625 0.015625)"/><path d="M4064 4423C4064 4480 4019 4480 4006 4480 3981 4480 3974 4474 3898 4378 3859 4333 3597 4001 3590 3995 3379 4410 2957 4480 2688 4480 1875 4480 1139 3743 1139 3025 1139 2549 1427 2269 1741 2161 1811 2135 2189 2033 2381 1989 2707 1900 2790 1875 2925 1735 2950 1703 3078 1557 3078 1258 3078 667 2528 57 1888 57 1363 57 781 280 781 991 781 1112 806 1265 826 1328 826 1348 832 1378 832 1391 832 1417 819 1449 768 1449 710 1449 704 1436 678 1328L352 24C352 18 326-64 326-71 326-128 378-128 390-128 416-128 422-122 499-26L794 356C947 126 1280-128 1875-128 2701-128 3456 666 3456 1460 3456 1728 3392 1963 3149 2197 3014 2331 2899 2363 2310 2516 1882 2630 1824 2649 1709 2751 1600 2858 1517 3011 1517 3227 1517 3761 2061 4308 2669 4308 3296 4308 3590 3926 3590 3323 3590 3158 3558 2986 3558 2961 3558 2903 3610 2903 3629 2903 3686 2903 3693 2922 3718 3024L4064 4423Z" id="CMMI12-53" stroke-linecap="butt" stroke-linejoin="round" transform="scale(0.015625 0.015625)"/><path d="M1382-772C1382-1029 1216-1440 518-1440 486-1448 461-1476 461-1521 461-1600 531-1600 589-1600 1210-1600 1805-1287 1811-802L1811 655C1811 904 1811 1109 2067 1319 2291 1504 2534 1504 2675 1504 2707 1511 2733 1542 2733 1588 2733 1664 2694 1664 2630 1664 2208 1664 1901 1896 1830 2214 1811 2284 1811 2297 1811 2531L1811 3811C1811 4083 1811 4289 1504 4535 1248 4735 806 4800 589 4800 531 4800 461 4800 461 4720 461 4646 499 4646 563 4646 966 4646 1280 4439 1363 4110 1382 4052 1382 4039 1382 3807L1382 2452C1382 2155 1434 2045 1638 1839 1773 1703 1958 1638 2138 1587 1613 1439 1382 1143 1382 771L1382-772Z" id="CMSY10-67" stroke-linecap="butt" stroke-linejoin="round" transform="scale(0.015625 0.015625)"/><path d="M4115 2017C4211 2017 4307 2017 4307 2125 4307 2240 4198 2240 4090 2240L512 2240C403 2240 294 2240 294 2125 294 2017 390 2017 486 2017L4115 2017ZM4090 896C4198 896 4307 896 4307 1011 4307 1119 4211 1119 4115 1119L486 1119C390 1119 294 1119 294 1011 294 896 403 896 512 896L4090 896Z" id="CMR17-3d" stroke-linecap="butt" stroke-linejoin="round" transform="scale(0.015625 0.015625)"/><path d="M2822 2759C2822 2790 2797 2816 2765 2816 2714 2816 2464 2585 2342 2362 2227 2646 2029 2816 1754 2816 1030 2816 250 1884 250 939 250 307 621-64 1056-64 1395-64 1677 193 1811 339L1818 333 1574-615 1517-842C1459-1031 1363-1031 1062-1031 992-1031 928-1031 928-1152 928-1197 966-1216 1011-1216 1101-1216 1216-1216 1306-1216L1958-1216C2054-1216 2163-1216 2259-1216 2298-1216 2374-1216 2374-1095 2374-1031 2323-1031 2227-1031 1926-1031 1907-986 1907-935 1907-904 1914-898 1933-815L2822 2759ZM1920 762C1888 652 1888 640 1798 518 1658 339 1376 64 1075 64 813 64 666 301 666 678 666 1030 864 1747 986 2016 1203 2464 1504 2695 1754 2695 2176 2695 2259 2170 2259 2119 2259 2113 2240 2028 2234 2016L1920 762Z" id="CMMI12-71" stroke-linecap="butt" stroke-linejoin="round" transform="scale(0.015625 0.015625)"/></defs><use width="100%" height="100%" xlink:href="#CMR17-50" stroke-linecap="butt" stroke-linejoin="round" transform="scale(0.996264 0.996264)"></use><use width="100%" height="100%" xlink:href="#CMR17-72" stroke-linecap="butt" stroke-linejoin="round" transform="matrix(0.996264 0 0 0.996264 62.5863 0)"></use><use width="100%" height="100%" xlink:href="#CMR17-28" stroke-linecap="butt" stroke-linejoin="round" transform="matrix(0.996264 0 0 0.996264 97.8671 0)"></use><use width="100%" height="100%" xlink:href="#CMMI12-50" stroke-linecap="butt" stroke-linejoin="round" transform="matrix(0.996264 0 0 0.996264 133.148 0)"></use><use width="100%" height="100%" xlink:href="#CMMI12-45" stroke-linecap="butt" stroke-linejoin="round" transform="matrix(0.996264 0 0 0.996264 209.574 0)"></use><use width="100%" height="100%" xlink:href="#CMR17-28" stroke-linecap="butt" stroke-linejoin="round" transform="matrix(0.996264 0 0 0.996264 287.625 0)"></use><use width="100%" height="100%" xlink:href="#CMMI12-76" stroke-linecap="butt" stroke-linejoin="round" transform="matrix(0.996264 0 0 0.996264 322.906 0)"></use><use width="100%" height="100%" xlink:href="#CMR17-32" stroke-linecap="butt" stroke-linejoin="round" transform="matrix(0.697382 0 0 0.697382 370.067 -14.9439)"></use><use width="100%" height="100%" xlink:href="#CMR17-29" stroke-linecap="butt" stroke-linejoin="round" transform="matrix(0.996264 0 0 0.996264 402.548 0)"></use><use width="100%" height="100%" xlink:href="#CMSY10-32" stroke-linecap="butt" stroke-linejoin="round" transform="matrix(0.996264 0 0 0.996264 465.503 0)"></use><use width="100%" height="100%" xlink:href="#CMSY10-66" stroke-linecap="butt" stroke-linejoin="round" transform="matrix(0.996264 0 0 0.996264 559.595 0)"></use><use width="100%" height="100%" xlink:href="#CMMI12-79" stroke-linecap="butt" stroke-linejoin="round" transform="matrix(0.996264 0 0 0.996264 609.408 0)"></use><use width="100%" height="100%" xlink:href="#CMSY10-6a" stroke-linecap="butt" stroke-linejoin="round" transform="matrix(0.996264 0 0 0.996264 660.547 0)"></use><use width="100%" height="100%" xlink:href="#CMMI12-76" stroke-linecap="butt" stroke-linejoin="round" transform="matrix(0.996264 0 0 0.996264 688.221 0)"></use><use width="100%" height="100%" xlink:href="#CMR17-31" stroke-linecap="butt" stroke-linejoin="round" transform="matrix(0.697382 0 0 0.697382 735.381 -14.9439)"></use><use width="100%" height="100%" xlink:href="#CMSY10-32" stroke-linecap="butt" stroke-linejoin="round" transform="matrix(0.996264 0 0 0.996264 795.537 0)"></use><use width="100%" height="100%" xlink:href="#CMMI12-53" stroke-linecap="butt" stroke-linejoin="round" transform="matrix(0.996264 0 0 0.996264 889.629 0)"></use><use width="100%" height="100%" xlink:href="#CMR17-28" stroke-linecap="butt" stroke-linejoin="round" transform="matrix(0.996264 0 0 0.996264 955.423 0)"></use><use width="100%" height="100%" xlink:href="#CMMI12-79" stroke-linecap="butt" stroke-linejoin="round" transform="matrix(0.996264 0 0 0.996264 990.704 0)"></use><use width="100%" height="100%" xlink:href="#CMR17-29" stroke-linecap="butt" stroke-linejoin="round" transform="matrix(0.996264 0 0 0.996264 1041.84 0)"></use><use width="100%" height="100%" xlink:href="#CMSY10-67" stroke-linecap="butt" stroke-linejoin="round" transform="matrix(0.996264 0 0 0.996264 1077.12 0)"></use><use width="100%" height="100%" xlink:href="#CMR17-29" stroke-linecap="butt" stroke-linejoin="round" transform="matrix(0.996264 0 0 0.996264 1126.94 0)"></use><use width="100%" height="100%" xlink:href="#CMR17-3d" stroke-linecap="butt" stroke-linejoin="round" transform="matrix(0.996264 0 0 0.996264 1189.89 0)"></use><use width="100%" height="100%" xlink:href="#CMMI12-71" stroke-linecap="butt" stroke-linejoin="round" transform="matrix(0.996264 0 0 0.996264 1289.28 0)"></use></g></g></g></g></svg>