<svg width="763.2" height="167.04" viewBox="0 0 572.4 125.28" xmlns="http://www.w3.org/2000/svg" xmlns:xlink="http://www.w3.org/1999/xlink" stroke-linecap="butt" stroke-linejoin="round" overflow="hidden"><defs stroke-linecap="butt" stroke-linejoin="round"></defs><g id="figure_1" stroke-linecap="butt" stroke-linejoin="round"><g id="patch_1" stroke-linecap="butt" stroke-linejoin="round"><path d="M0 125.28 572.4 125.28 572.4 0 0 0 0 125.28Z" stroke-linecap="butt" stroke-linejoin="round" fill="none" opacity="0"/></g><g id="axes_1" stroke-linecap="butt" stroke-linejoin="round"><g id="text_1" stroke-linecap="butt" stroke-linejoin="round"><g stroke-linecap="butt" stroke-linejoin="round" transform="matrix(0.2 0 0 -0.2 191.378 65.8418)"><defs stroke-linecap="butt" stroke-linejoin="round"><path d="M4774 4423C4774 4480 4730 4480 4717 4480 4704 4480 4678 4480 4627 4416L4186 3889C4154 3940 4026 4163 3776 4309 3501 4480 3226 4480 3130 4480 1760 4480 320 3095 320 1595 320 546 1050-128 2010-128 2470-128 3053 25 3373 427 3443 185 3584 12 3629 12 3661 12 3667 32 3674 32 3680 44 3731 270 3763 385L3866 797C3917 1009 3942 1099 3987 1291 4051 1536 4064 1536 4416 1536 4442 1536 4518 1536 4518 1666 4518 1734 4454 1734 4435 1734 4326 1734 4205 1734 4090 1734L3744 1734C3475 1734 3194 1734 2931 1734 2874 1734 2797 1734 2797 1611 2797 1542 2848 1542 2848 1536L3008 1536C3514 1536 3514 1489 3514 1402 3514 1395 3392 751 3270 561 3027 204 2522 57 2144 57 1651 57 851 312 851 1410 851 1836 1005 2808 1626 3526 2029 3984 2624 4295 3187 4295 3942 4295 4211 3655 4211 3071 4211 2970 4186 2831 4186 2742 4186 2685 4250 2685 4269 2685 4339 2685 4346 2691 4371 2805L4774 4423Z" id="CMMI12-47" stroke-linecap="butt" stroke-linejoin="round" transform="scale(0.015625 0.015625)"/><path d="M4307 2135C4307 3437 3366 4416 2304 4416 1216 4416 294 3424 294 2135 294 845 1229-128 2298-128 3392-128 4307 864 4307 2135ZM2304-13C1574-13 781 711 781 2217 781 3716 1651 4301 2298 4301 2976 4301 3821 3698 3821 2217 3821 686 3008-13 2304-13Z" id="CMR17-4f" stroke-linecap="butt" stroke-linejoin="round" transform="scale(0.015625 0.015625)"/><path d="M3456 1433C3456 579 2899 38 2291 38 1965 38 1670 210 1491 477 1286 783 1261 1178 1261 1401L1261 3874C1261 4160 1331 4160 1773 4160L1773 4320C1587 4320 1248 4320 1050 4320 851 4320 512 4320 326 4320L326 4160C768 4160 838 4160 838 3874L838 1433C838 516 1536-128 2278-128 3110-128 3590 719 3590 1344L3590 3766C3590 4122 3917 4160 4102 4160L4102 4326C3955 4320 3686 4320 3526 4320 3366 4320 3091 4320 2944 4326L2944 4160C3456 4160 3456 3861 3456 3702L3456 1433Z" id="CMR17-55" stroke-linecap="butt" stroke-linejoin="round" transform="scale(0.015625 0.015625)"/><path d="M3885 1615 3770 1615C3629 676 3546 166 2419 166L1530 166C1274 166 1261 197 1261 414L1261 2176 1862 2176C2464 2176 2522 1960 2522 1430L2637 1430 2637 3081 2522 3081C2522 2557 2464 2342 1862 2342L1261 2342 1261 3913C1261 4128 1274 4160 1530 4160L2406 4160C3398 4160 3514 3769 3603 2929L3718 2929 3565 4325 326 4325 326 4160C768 4160 838 4160 838 3874L838 451C838 166 768 166 326 166L326 0 3654 0 3885 1615Z" id="CMR17-45" stroke-linecap="butt" stroke-linejoin="round" transform="scale(0.015625 0.015625)"/><path d="M2509 2146C3117 2268 3629 2676 3629 3186 3629 3785 2950 4326 2054 4326L333 4326 333 4160C774 4160 845 4160 845 3873L845 415C845 128 774 128 333 128L333-26C518-26 851-26 1050-26 1248-26 1581-26 1766-26L1766 128C1325 128 1254 128 1254 417L1254 2112 2003 2112C2368 2112 2573 1964 2662 1881 2918 1632 2918 1459 2918 1024 2918 595 2918 377 3110 160 3354-102 3680-128 3821-128 4294-128 4365 396 4365 503 4365 540 4365 585 4307 585 4256 585 4250 547 4250 522 4218 112 4032-26 3834-26 3482-26 3443 375 3405 764 3386 898 3373 993 3360 1133 3322 1452 3270 1917 2509 2146ZM1984 2214 1254 2214 1254 3913C1254 4129 1267 4160 1523 4160L1990 4160C2522 4160 3142 3977 3142 3190 3142 2372 2464 2214 1984 2214Z" id="CMR17-52" stroke-linecap="butt" stroke-linejoin="round" transform="scale(0.015625 0.015625)"/><path d="M1267 2042 2291 2042C3117 2042 3718 2578 3718 3184 3718 3791 3130 4352 2291 4352L333 4352 333 4186C774 4186 845 4186 845 3899L845 446C845 160 774 160 333 160L333 0C518 0 858 0 1056 0 1254 0 1594 0 1779 0L1779 160C1338 160 1267 160 1267 446L1267 2042ZM1254 2176 1254 3938C1254 4155 1267 4186 1523 4186L2170 4186C2995 4186 3232 3714 3232 3184 3232 2604 2950 2176 2170 2176L1254 2176Z" id="CMR17-50" stroke-linecap="butt" stroke-linejoin="round" transform="scale(0.015625 0.015625)"/><path d="M2323 4378C2291 4461 2278 4480 2214 4480 2150 4480 2138 4461 2106 4378L749 566C627 223 371 153 147 153L147-13C262 0 518 0 640 0 800 0 1056 0 1210-13L1210 153C909 153 864 361 864 439 864 497 877 530 890 569L1229 1536 2906 1536 3290 442C3322 365 3322 352 3322 327 3322 153 3046 153 2925 153L2925 0C3110 0 3443 0 3642 0 3808 0 4128 0 4282-13L4282 153C3942 153 3827 153 3744 387L2323 4378ZM2067 3893 2848 1702 1286 1702 2067 3893Z" id="CMR17-41" stroke-linecap="butt" stroke-linejoin="round" transform="scale(0.015625 0.015625)"/><path d="M4115 2017C4211 2017 4307 2017 4307 2125 4307 2240 4198 2240 4090 2240L512 2240C403 2240 294 2240 294 2125 294 2017 390 2017 486 2017L4115 2017ZM4090 896C4198 896 4307 896 4307 1011 4307 1119 4211 1119 4115 1119L486 1119C390 1119 294 1119 294 1011 294 896 403 896 512 896L4090 896Z" id="CMR17-3d" stroke-linecap="butt" stroke-linejoin="round" transform="scale(0.015625 0.015625)"/><path d="M2490 2612C2291 2574 2189 2433 2189 2293 2189 2139 2310 2088 2400 2088 2579 2088 2726 2242 2726 2433 2726 2638 2528 2816 2208 2816 1952 2816 1658 2701 1389 2312 1344 2650 1088 2816 832 2816 582 2816 454 2625 378 2484 269 2254 173 1871 173 1839 173 1814 198 1782 243 1782 294 1782 301 1788 339 1935 435 2318 557 2689 813 2689 966 2689 1011 2580 1011 2395 1011 2254 947 2005 902 1807L723 1118C698 996 627 709 595 594 550 428 480 128 480 96 480 6 550-64 646-64 717-64 838-19 877 109 896 160 1133 1124 1171 1271 1203 1411 1242 1546 1274 1686 1299 1775 1325 1878 1344 1961 1363 2018 1536 2331 1696 2472 1773 2542 1939 2689 2202 2689 2304 2689 2406 2670 2490 2612Z" id="CMMI12-72" stroke-linecap="butt" stroke-linejoin="round" transform="scale(0.015625 0.015625)"/><path d="M1318 1871C1331 1910 1491 2229 1728 2433 1894 2586 2112 2689 2362 2689 2618 2689 2707 2497 2707 2242 2707 2203 2707 2076 2630 1775L2470 1118C2419 926 2298 453 2285 383 2259 287 2221 121 2221 96 2221 6 2291-64 2387-64 2579-64 2611 83 2669 313L3053 1839C3066 1890 3398 2689 4102 2689 4358 2689 4448 2497 4448 2242 4448 1884 4198 1188 4058 805 4000 651 3968 568 3968 453 3968 166 4166-64 4474-64 5069-64 5293 875 5293 913 5293 945 5267 971 5229 971 5171 971 5165 952 5133 843 4986 332 4749 64 4493 64 4429 64 4326 64 4326 269 4326 436 4403 640 4429 710 4544 1018 4832 1773 4832 2145 4832 2528 4608 2816 4122 2816 3693 2816 3347 2574 3091 2197 3072 2542 2861 2816 2381 2816 1811 2816 1510 2415 1395 2255 1376 2618 1114 2816 832 2816 646 2816 499 2727 378 2484 262 2254 173 1865 173 1839 173 1814 198 1782 243 1782 294 1782 301 1788 339 1935 435 2312 557 2689 813 2689 960 2689 1011 2586 1011 2395 1011 2254 947 2005 902 1807L723 1118C698 996 627 709 595 594 550 428 480 128 480 96 480 6 550-64 646-64 723-64 813-26 864 70 877 102 934 326 966 453L1107 1028 1318 1871Z" id="CMMI12-6d" stroke-linecap="butt" stroke-linejoin="round" transform="scale(0.015625 0.015625)"/><path d="M2669 989 2554 989C2490 536 2438 459 2413 420 2381 369 1920 369 1830 369L602 369C832 619 1280 1072 1824 1597 2214 1967 2669 2402 2669 3035 2669 3790 2067 4224 1395 4224 691 4224 262 3604 262 3030 262 2780 448 2748 525 2748 589 2748 781 2787 781 3010 781 3207 614 3264 525 3264 486 3264 448 3258 422 3245 544 3790 915 4058 1306 4058 1862 4058 2227 3617 2227 3035 2227 2479 1901 2000 1536 1584L262 146 262 0 2515 0 2669 989Z" id="CMR17-32" stroke-linecap="butt" stroke-linejoin="round" transform="scale(0.015625 0.015625)"/><path d="M1958-1561C1958-1555 1958-1542 1939-1523 1645-1224 858-407 858 1581 858 3569 1632 4379 1946 4697 1946 4704 1958 4717 1958 4736 1958 4755 1939 4768 1914 4768 1843 4768 1299 4296 986 3594 666 2887 576 2199 576 1588 576 1128 621 351 1005-471 1312-1135 1837-1600 1914-1600 1946-1600 1958-1587 1958-1561Z" id="CMR17-28" stroke-linecap="butt" stroke-linejoin="round" transform="scale(0.015625 0.015625)"/><path d="M1318 1871C1331 1910 1491 2229 1728 2433 1894 2586 2112 2689 2362 2689 2618 2689 2707 2497 2707 2242 2707 1878 2445 1150 2317 805 2259 651 2227 568 2227 453 2227 166 2426-64 2733-64 3328-64 3552 875 3552 913 3552 945 3526 971 3488 971 3430 971 3424 952 3392 843 3245 319 3002 64 2752 64 2688 64 2586 64 2586 269 2586 429 2656 621 2694 710 2822 1063 3091 1780 3091 2145 3091 2528 2867 2816 2381 2816 1811 2816 1510 2415 1395 2255 1376 2618 1114 2816 832 2816 627 2816 486 2695 378 2478 262 2248 173 1865 173 1839 173 1814 198 1782 243 1782 294 1782 301 1788 339 1935 442 2325 557 2689 813 2689 960 2689 1011 2586 1011 2395 1011 2254 947 2005 902 1807L723 1118C698 996 627 709 595 594 550 428 480 128 480 96 480 6 550-64 646-64 723-64 813-26 864 70 877 102 934 326 966 453L1107 1028 1318 1871Z" id="CMMI12-6e" stroke-linecap="butt" stroke-linejoin="round" transform="scale(0.015625 0.015625)"/><path d="M2413 1472 4109 1472C4198 1472 4307 1472 4307 1580 4307 1695 4205 1695 4109 1695L2413 1695 2413 3386C2413 3475 2413 3584 2304 3584 2189 3584 2189 3482 2189 3386L2189 1695 493 1695C403 1695 294 1695 294 1587 294 1472 397 1472 493 1472L2189 1472 2189-218C2189-307 2189-416 2298-416 2413-416 2413-314 2413-218L2413 1472Z" id="CMR17-2b" stroke-linecap="butt" stroke-linejoin="round" transform="scale(0.015625 0.015625)"/><path d="M1683 1581C1683 2040 1638 2817 1254 3639 947 4303 422 4768 346 4768 326 4768 301 4761 301 4729 301 4717 307 4710 314 4697 621 4378 1402 3568 1402 1584 1402-407 627-1217 314-1537 307-1549 301-1556 301-1568 301-1600 326-1600 346-1600 416-1600 960-1128 1274-426 1594 281 1683 969 1683 1581Z" id="CMR17-29" stroke-linecap="butt" stroke-linejoin="round" transform="scale(0.015625 0.015625)"/><path d="M275-789C230-980 205-1031-58-1031-134-1031-198-1031-198-1152-198-1165-192-1216-122-1216-38-1216 51-1216 134-1216L410-1216C544-1216 870-1216 1005-1216 1043-1216 1120-1216 1120-1101 1120-1031 1075-1031 966-1031 672-1031 653-987 653-937 653-861 941 219 979 364 1050 185 1222-64 1555-64 2278-64 3059 875 3059 1814 3059 2401 2726 2816 2246 2816 1837 2816 1491 2420 1421 2331 1370 2650 1120 2816 864 2816 678 2816 531 2727 410 2484 294 2254 205 1865 205 1839 205 1814 230 1782 275 1782 326 1782 333 1788 371 1935 467 2312 589 2689 845 2689 992 2689 1043 2587 1043 2397 1043 2245 1024 2181 998 2067L275-789ZM1382 1993C1427 2171 1606 2357 1709 2446 1779 2510 1990 2689 2234 2689 2515 2689 2643 2408 2643 2076 2643 1769 2464 1047 2304 715 2144 370 1850 64 1555 64 1120 64 1050 613 1050 639 1050 658 1062 709 1069 741L1382 1993Z" id="CMMI12-70" stroke-linecap="butt" stroke-linejoin="round" transform="scale(0.015625 0.015625)"/><path d="M4218 1472C4326 1472 4442 1472 4442 1600 4442 1728 4326 1728 4218 1728L755 1728C646 1728 531 1728 531 1600 531 1472 646 1472 755 1472L4218 1472Z" id="CMSY10-0" stroke-linecap="butt" stroke-linejoin="round" transform="scale(0.015625 0.015625)"/><path d="M2822 2759C2822 2790 2797 2816 2765 2816 2714 2816 2464 2585 2342 2362 2227 2646 2029 2816 1754 2816 1030 2816 250 1884 250 939 250 307 621-64 1056-64 1395-64 1677 193 1811 339L1818 333 1574-615 1517-842C1459-1031 1363-1031 1062-1031 992-1031 928-1031 928-1152 928-1197 966-1216 1011-1216 1101-1216 1216-1216 1306-1216L1958-1216C2054-1216 2163-1216 2259-1216 2298-1216 2374-1216 2374-1095 2374-1031 2323-1031 2227-1031 1926-1031 1907-986 1907-935 1907-904 1914-898 1933-815L2822 2759ZM1920 762C1888 652 1888 640 1798 518 1658 339 1376 64 1075 64 813 64 666 301 666 678 666 1030 864 1747 986 2016 1203 2464 1504 2695 1754 2695 2176 2695 2259 2170 2259 2119 2259 2113 2240 2028 2234 2016L1920 762Z" id="CMMI12-71" stroke-linecap="butt" stroke-linejoin="round" transform="scale(0.015625 0.015625)"/><path d="M2502 2431C2381 2431 2323 2431 2234 2355 2195 2323 2125 2227 2125 2125 2125 1997 2221 1920 2342 1920 2496 1920 2669 2044 2669 2292 2669 2588 2374 2816 1933 2816 1094 2816 256 1903 256 996 256 441 602-64 1254-64 2125-64 2675 622 2675 706 2675 744 2637 776 2611 776 2592 776 2586 770 2528 713 2118 162 1510 64 1267 64 826 64 685 446 685 764 685 988 794 1605 1024 2039 1190 2338 1536 2682 1939 2682 2022 2682 2374 2682 2502 2431Z" id="CMMI12-63" stroke-linecap="butt" stroke-linejoin="round" transform="scale(0.015625 0.015625)"/></defs><use width="100%" height="100%" xlink:href="#CMMI12-47" stroke-linecap="butt" stroke-linejoin="round" transform="scale(0.996264 0.996264)"></use><use width="100%" height="100%" xlink:href="#CMR17-4f" stroke-linecap="butt" stroke-linejoin="round" transform="matrix(0.697382 0 0 0.697382 76.9469 36.1536)"></use><use width="100%" height="100%" xlink:href="#CMR17-55" stroke-linecap="butt" stroke-linejoin="round" transform="matrix(0.697382 0 0 0.697382 127.147 36.1536)"></use><use width="100%" height="100%" xlink:href="#CMR17-45" stroke-linecap="butt" stroke-linejoin="round" transform="matrix(0.697382 0 0 0.697382 175.497 36.1536)"></use><use width="100%" height="100%" xlink:href="#CMR17-52" stroke-linecap="butt" stroke-linejoin="round" transform="matrix(0.697382 0 0 0.697382 76.9469 -27.4307)"></use><use width="100%" height="100%" xlink:href="#CMR17-50" stroke-linecap="butt" stroke-linejoin="round" transform="matrix(0.697382 0 0 0.697382 124.4 -27.4307)"></use><use width="100%" height="100%" xlink:href="#CMR17-41" stroke-linecap="butt" stroke-linejoin="round" transform="matrix(0.697382 0 0 0.697382 162.746 -27.4307)"></use><use width="100%" height="100%" xlink:href="#CMR17-3d" stroke-linecap="butt" stroke-linejoin="round" transform="matrix(0.996264 0 0 0.996264 247.48 0)"></use><use width="100%" height="100%" xlink:href="#CMMI12-72" stroke-linecap="butt" stroke-linejoin="round" transform="matrix(0.697382 0 0 0.697382 503.24 39.2261)"></use><use width="100%" height="100%" xlink:href="#CMMI12-6d" stroke-linecap="butt" stroke-linejoin="round" transform="matrix(0.697382 0 0 0.697382 535.909 39.2261)"></use><use width="100%" height="100%" xlink:href="#CMR17-32" stroke-linecap="butt" stroke-linejoin="round" transform="matrix(0.697382 0 0 0.697382 348.064 -34.3553)"></use><use width="100%" height="100%" xlink:href="#CMR17-28" stroke-linecap="butt" stroke-linejoin="round" transform="matrix(0.697382 0 0 0.697382 380.047 -34.3553)"></use><use width="100%" height="100%" xlink:href="#CMMI12-6e" stroke-linecap="butt" stroke-linejoin="round" transform="matrix(0.697382 0 0 0.697382 404.744 -34.3553)"></use><use width="100%" height="100%" xlink:href="#CMR17-2b" stroke-linecap="butt" stroke-linejoin="round" transform="matrix(0.697382 0 0 0.697382 445.505 -34.3553)"></use><use width="100%" height="100%" xlink:href="#CMMI12-6d" stroke-linecap="butt" stroke-linejoin="round" transform="matrix(0.697382 0 0 0.697382 495.705 -34.3553)"></use><use width="100%" height="100%" xlink:href="#CMR17-29" stroke-linecap="butt" stroke-linejoin="round" transform="matrix(0.697382 0 0 0.697382 555.434 -34.3553)"></use><use width="100%" height="100%" xlink:href="#CMR17-28" stroke-linecap="butt" stroke-linejoin="round" transform="matrix(0.697382 0 0 0.697382 580.13 -34.3553)"></use><use width="100%" height="100%" xlink:href="#CMMI12-70" stroke-linecap="butt" stroke-linejoin="round" transform="matrix(0.697382 0 0 0.697382 604.826 -34.3553)"></use><use width="100%" height="100%" xlink:href="#CMSY10-0" stroke-linecap="butt" stroke-linejoin="round" transform="matrix(0.697382 0 0 0.697382 639.098 -34.3553)"></use><use width="100%" height="100%" xlink:href="#CMMI12-71" stroke-linecap="butt" stroke-linejoin="round" transform="matrix(0.697382 0 0 0.697382 693.339 -34.3553)"></use><use width="100%" height="100%" xlink:href="#CMR17-29" stroke-linecap="butt" stroke-linejoin="round" transform="matrix(0.697382 0 0 0.697382 726.117 -34.3553)"></use><use width="100%" height="100%" xlink:href="#CMSY10-0" stroke-linecap="butt" stroke-linejoin="round" transform="matrix(0.996264 0 0 0.996264 774.148 0)"></use><use width="100%" height="100%" xlink:href="#CMMI12-63" stroke-linecap="butt" stroke-linejoin="round" transform="matrix(0.996264 0 0 0.996264 873.775 0)"></use><path d="M348.064 22.9141 750.814 22.9141 750.814 26.8991 348.064 26.8991 348.064 22.9141Z" stroke-linecap="butt" stroke-linejoin="round"/></g></g></g></g></svg>