<svg width="763.2" height="167.04" viewBox="0 0 572.4 125.28" xmlns="http://www.w3.org/2000/svg" xmlns:xlink="http://www.w3.org/1999/xlink" stroke-linecap="butt" stroke-linejoin="round" overflow="hidden"><defs stroke-linecap="butt" stroke-linejoin="round"></defs><g id="figure_1" stroke-linecap="butt" stroke-linejoin="round"><g id="patch_1" stroke-linecap="butt" stroke-linejoin="round"><path d="M0 125.28 572.4 125.28 572.4 0 0 0 0 125.28Z" stroke-linecap="butt" stroke-linejoin="round" fill="none" opacity="0"/></g><g id="axes_1" stroke-linecap="butt" stroke-linejoin="round"><g id="text_1" stroke-linecap="butt" stroke-linejoin="round"><g stroke-linecap="butt" stroke-linejoin="round" transform="matrix(0.2 0 0 -0.2 251.477 65.597)"><defs stroke-linecap="butt" stroke-linejoin="round"><path d="M3622 3701C3622 4081 3296 4480 2714 4480 1888 4480 1363 3477 1197 2816L186-1172C173-1223 211-1236 243-1236 288-1236 320-1230 326-1198L774 586C838 229 1190-64 1568-64 2483-64 3347 650 3347 1599 3347 1841 3290 2083 3155 2287 3078 2408 2982 2497 2880 2574 3341 2815 3622 3200 3622 3701ZM2509 2580C2406 2542 2304 2529 2182 2529 2093 2529 2010 2523 1894 2561 1958 2606 2054 2618 2189 2618 2304 2618 2419 2606 2509 2580ZM3290 3758C3290 3410 3117 2903 2701 2669 2579 2718 2413 2752 2272 2752 2138 2752 1754 2752 1754 2555 1754 2389 2106 2389 2214 2389 2381 2389 2528 2432 2682 2484 2886 2318 2976 2101 2976 1783 2976 1413 2874 1115 2752 841 2541 369 2042 64 1600 64 1133 64 890 432 890 864 890 922 890 1005 915 1099L1331 2771C1542 3603 2080 4353 2701 4353 3162 4353 3290 4036 3290 3758Z" id="CMMI12-c" stroke-linecap="butt" stroke-linejoin="round" transform="scale(0.015625 0.015625)"/><path d="M4115 2017C4211 2017 4307 2017 4307 2125 4307 2240 4198 2240 4090 2240L512 2240C403 2240 294 2240 294 2125 294 2017 390 2017 486 2017L4115 2017ZM4090 896C4198 896 4307 896 4307 1011 4307 1119 4211 1119 4115 1119L486 1119C390 1119 294 1119 294 1011 294 896 403 896 512 896L4090 896Z" id="CMR17-3d" stroke-linecap="butt" stroke-linejoin="round" transform="scale(0.015625 0.015625)"/><path d="M1318 1871C1331 1910 1491 2229 1728 2433 1894 2586 2112 2689 2362 2689 2618 2689 2707 2497 2707 2242 2707 2203 2707 2076 2630 1775L2470 1118C2419 926 2298 453 2285 383 2259 287 2221 121 2221 96 2221 6 2291-64 2387-64 2579-64 2611 83 2669 313L3053 1839C3066 1890 3398 2689 4102 2689 4358 2689 4448 2497 4448 2242 4448 1884 4198 1188 4058 805 4000 651 3968 568 3968 453 3968 166 4166-64 4474-64 5069-64 5293 875 5293 913 5293 945 5267 971 5229 971 5171 971 5165 952 5133 843 4986 332 4749 64 4493 64 4429 64 4326 64 4326 269 4326 436 4403 640 4429 710 4544 1018 4832 1773 4832 2145 4832 2528 4608 2816 4122 2816 3693 2816 3347 2574 3091 2197 3072 2542 2861 2816 2381 2816 1811 2816 1510 2415 1395 2255 1376 2618 1114 2816 832 2816 646 2816 499 2727 378 2484 262 2254 173 1865 173 1839 173 1814 198 1782 243 1782 294 1782 301 1788 339 1935 435 2312 557 2689 813 2689 960 2689 1011 2586 1011 2395 1011 2254 947 2005 902 1807L723 1118C698 996 627 709 595 594 550 428 480 128 480 96 480 6 550-64 646-64 723-64 813-26 864 70 877 102 934 326 966 453L1107 1028 1318 1871Z" id="CMMI12-6d" stroke-linecap="butt" stroke-linejoin="round" transform="scale(0.015625 0.015625)"/><path d="M1318 1871C1331 1910 1491 2229 1728 2433 1894 2586 2112 2689 2362 2689 2618 2689 2707 2497 2707 2242 2707 1878 2445 1150 2317 805 2259 651 2227 568 2227 453 2227 166 2426-64 2733-64 3328-64 3552 875 3552 913 3552 945 3526 971 3488 971 3430 971 3424 952 3392 843 3245 319 3002 64 2752 64 2688 64 2586 64 2586 269 2586 429 2656 621 2694 710 2822 1063 3091 1780 3091 2145 3091 2528 2867 2816 2381 2816 1811 2816 1510 2415 1395 2255 1376 2618 1114 2816 832 2816 627 2816 486 2695 378 2478 262 2248 173 1865 173 1839 173 1814 198 1782 243 1782 294 1782 301 1788 339 1935 442 2325 557 2689 813 2689 960 2689 1011 2586 1011 2395 1011 2254 947 2005 902 1807L723 1118C698 996 627 709 595 594 550 428 480 128 480 96 480 6 550-64 646-64 723-64 813-26 864 70 877 102 934 326 966 453L1107 1028 1318 1871Z" id="CMMI12-6e" stroke-linecap="butt" stroke-linejoin="round" transform="scale(0.015625 0.015625)"/><path d="M2413 1472 4109 1472C4198 1472 4307 1472 4307 1580 4307 1695 4205 1695 4109 1695L2413 1695 2413 3386C2413 3475 2413 3584 2304 3584 2189 3584 2189 3482 2189 3386L2189 1695 493 1695C403 1695 294 1695 294 1587 294 1472 397 1472 493 1472L2189 1472 2189-218C2189-307 2189-416 2298-416 2413-416 2413-314 2413-218L2413 1472Z" id="CMR17-2b" stroke-linecap="butt" stroke-linejoin="round" transform="scale(0.015625 0.015625)"/></defs><use width="100%" height="100%" xlink:href="#CMMI12-c" stroke-linecap="butt" stroke-linejoin="round" transform="scale(0.996264 0.996264)"></use><use width="100%" height="100%" xlink:href="#CMR17-3d" stroke-linecap="butt" stroke-linejoin="round" transform="matrix(0.996264 0 0 0.996264 88.268 0)"></use><use width="100%" height="100%" xlink:href="#CMMI12-6d" stroke-linecap="butt" stroke-linejoin="round" transform="matrix(0.697382 0 0 0.697382 234.333 39.2261)"></use><use width="100%" height="100%" xlink:href="#CMMI12-6e" stroke-linecap="butt" stroke-linejoin="round" transform="matrix(0.697382 0 0 0.697382 188.852 -34.3553)"></use><use width="100%" height="100%" xlink:href="#CMR17-2b" stroke-linecap="butt" stroke-linejoin="round" transform="matrix(0.697382 0 0 0.697382 229.613 -34.3553)"></use><use width="100%" height="100%" xlink:href="#CMMI12-6d" stroke-linecap="butt" stroke-linejoin="round" transform="matrix(0.697382 0 0 0.697382 279.813 -34.3553)"></use><path d="M188.852 22.9141 339.542 22.9141 339.542 26.8991 188.852 26.8991 188.852 22.9141Z" stroke-linecap="butt" stroke-linejoin="round"/></g></g></g></g></svg>