<svg width="763.2" height="167.04" viewBox="0 0 572.4 125.28" xmlns="http://www.w3.org/2000/svg" xmlns:xlink="http://www.w3.org/1999/xlink" stroke-linecap="butt" stroke-linejoin="round" overflow="hidden"><defs stroke-linecap="butt" stroke-linejoin="round"></defs><g id="figure_1" stroke-linecap="butt" stroke-linejoin="round"><g id="patch_1" stroke-linecap="butt" stroke-linejoin="round"><path d="M0 125.28 572.4 125.28 572.4 0 0 0 0 125.28Z" stroke-linecap="butt" stroke-linejoin="round" fill="none" opacity="0"/></g><g id="axes_1" stroke-linecap="butt" stroke-linejoin="round"><g id="text_1" stroke-linecap="butt" stroke-linejoin="round"><g stroke-linecap="butt" stroke-linejoin="round" transform="matrix(0.2 0 0 -0.2 122.45 67.6213)"><defs stroke-linecap="butt" stroke-linejoin="round"><path d="M1894 2023 2970 2023C3853 2023 4736 2673 4736 3401 4736 3898 4314 4352 3507 4352L1530 4352C1408 4352 1350 4352 1350 4231 1350 4167 1408 4167 1504 4167 1894 4167 1894 4116 1894 4046 1894 4034 1894 3995 1869 3899L1005 472C947 249 934 185 486 185 365 185 301 185 301 70 301 0 358 0 397 0 518 0 646 0 768 0L1517 0C1638 0 1773 0 1894 0 1946 0 2016 0 2016 121 2016 185 1958 185 1862 185 1478 185 1472 230 1472 293 1472 325 1478 369 1485 401L1894 2023ZM2355 3930C2413 4167 2438 4167 2688 4167L3322 4167C3802 4167 4198 4013 4198 3535 4198 3369 4115 2827 3821 2534 3712 2419 3405 2176 2822 2176L1920 2176 2355 3930Z" id="CMMI12-50" stroke-linecap="butt" stroke-linejoin="round" transform="scale(0.015625 0.015625)"/><path d="M2490 2612C2291 2574 2189 2433 2189 2293 2189 2139 2310 2088 2400 2088 2579 2088 2726 2242 2726 2433 2726 2638 2528 2816 2208 2816 1952 2816 1658 2701 1389 2312 1344 2650 1088 2816 832 2816 582 2816 454 2625 378 2484 269 2254 173 1871 173 1839 173 1814 198 1782 243 1782 294 1782 301 1788 339 1935 435 2318 557 2689 813 2689 966 2689 1011 2580 1011 2395 1011 2254 947 2005 902 1807L723 1118C698 996 627 709 595 594 550 428 480 128 480 96 480 6 550-64 646-64 717-64 838-19 877 109 896 160 1133 1124 1171 1271 1203 1411 1242 1546 1274 1686 1299 1775 1325 1878 1344 1961 1363 2018 1536 2331 1696 2472 1773 2542 1939 2689 2202 2689 2304 2689 2406 2670 2490 2612Z" id="CMMI12-72" stroke-linecap="butt" stroke-linejoin="round" transform="scale(0.015625 0.015625)"/><path d="M1504-1600 1504-1377 902-1377 902 4544 1504 4544 1504 4767 678 4767 678-1600 1504-1600Z" id="CMR17-5b" stroke-linecap="butt" stroke-linejoin="round" transform="scale(0.015625 0.015625)"/><path d="M4448 1489C4454 1508 4474 1554 4474 1579 4474 1611 4448 1643 4410 1643 4384 1643 4371 1637 4352 1617 4339 1611 4339 1598 4282 1469 3904 570 3629 185 2605 185L1670 185C1581 185 1568 185 1530 192 1459 198 1453 211 1453 262 1453 307 1466 345 1478 403L1920 2176 2554 2176C3053 2176 3091 2066 3091 1874 3091 1810 3091 1752 3046 1560 3034 1534 3027 1508 3027 1489 3027 1444 3059 1425 3098 1425 3155 1425 3162 1469 3187 1559L3552 3042C3552 3073 3526 3105 3488 3105 3430 3105 3424 3080 3398 2990 3270 2501 3142 2361 2573 2361L1965 2361 2362 3930C2419 4154 2432 4154 2694 4154L3610 4154C4397 4154 4557 3943 4557 3458 4557 3451 4557 3273 4531 3062 4525 3036 4518 2998 4518 2985 4518 2934 4550 2915 4589 2915 4634 2915 4659 2941 4672 3055L4806 4174C4806 4195 4819 4263 4819 4277 4819 4352 4762 4352 4646 4352L1523 4352C1402 4352 1338 4352 1338 4229 1338 4154 1382 4154 1491 4154 1888 4154 1888 4114 1888 4052 1888 4020 1882 3994 1862 3924L998 473C941 249 928 185 480 185 358 185 294 185 294 70 294 0 333 0 461 0L3674 0C3814 0 3821 6 3866 110L4448 1489Z" id="CMMI12-45" stroke-linecap="butt" stroke-linejoin="round" transform="scale(0.015625 0.015625)"/><path d="M1958-1561C1958-1555 1958-1542 1939-1523 1645-1224 858-407 858 1581 858 3569 1632 4379 1946 4697 1946 4704 1958 4717 1958 4736 1958 4755 1939 4768 1914 4768 1843 4768 1299 4296 986 3594 666 2887 576 2199 576 1588 576 1128 621 351 1005-471 1312-1135 1837-1600 1914-1600 1946-1600 1958-1587 1958-1561Z" id="CMR17-28" stroke-linecap="butt" stroke-linejoin="round" transform="scale(0.015625 0.015625)"/><path d="M2925 2389C2925 2791 2720 2816 2669 2816 2515 2816 2374 2663 2374 2535 2374 2459 2419 2414 2445 2389 2509 2331 2675 2159 2675 1827 2675 1558 2291 64 1523 64 1133 64 1056 390 1056 626 1056 945 1203 1392 1376 1852 1478 2114 1504 2178 1504 2305 1504 2574 1312 2816 998 2816 410 2816 173 1890 173 1839 173 1814 198 1782 243 1782 301 1782 307 1807 333 1897 486 2446 736 2689 979 2689 1037 2689 1146 2689 1146 2478 1146 2312 1075 2127 979 1884 672 1067 672 869 672 715 672 575 691 313 890 134 1120-64 1440-64 1498-64 2560-64 2925 2024 2925 2389Z" id="CMMI12-76" stroke-linecap="butt" stroke-linejoin="round" transform="scale(0.015625 0.015625)"/><path d="M1683 1581C1683 2040 1638 2817 1254 3639 947 4303 422 4768 346 4768 326 4768 301 4761 301 4729 301 4717 307 4710 314 4697 621 4378 1402 3568 1402 1584 1402-407 627-1217 314-1537 307-1549 301-1556 301-1568 301-1600 326-1600 346-1600 416-1600 960-1128 1274-426 1594 281 1683 969 1683 1581Z" id="CMR17-29" stroke-linecap="butt" stroke-linejoin="round" transform="scale(0.015625 0.015625)"/><path d="M4115 2017C4211 2017 4307 2017 4307 2125 4307 2240 4198 2240 4090 2240L512 2240C403 2240 294 2240 294 2125 294 2017 390 2017 486 2017L4115 2017ZM4090 896C4198 896 4307 896 4307 1011 4307 1119 4211 1119 4115 1119L486 1119C390 1119 294 1119 294 1011 294 896 403 896 512 896L4090 896Z" id="CMR17-3d" stroke-linecap="butt" stroke-linejoin="round" transform="scale(0.015625 0.015625)"/><path d="M1811 913C1811 945 1786 971 1747 971 1690 971 1683 952 1651 843 1485 262 1222 64 1011 64 934 64 845 83 845 275 845 447 922 639 992 830L1440 2018C1459 2069 1504 2184 1504 2305 1504 2574 1312 2816 998 2816 410 2816 173 1890 173 1839 173 1814 198 1782 243 1782 301 1782 307 1807 333 1896 486 2428 730 2682 979 2682 1037 2682 1146 2682 1146 2478 1146 2312 1062 2101 1011 1961L563 773C525 671 486 568 486 453 486 166 685-64 992-64 1581-64 1811 869 1811 913ZM1760 4013C1760 4109 1683 4224 1542 4224 1395 4224 1229 4083 1229 3917 1229 3758 1363 3707 1440 3707 1613 3707 1760 3873 1760 4013Z" id="CMMI12-69" stroke-linecap="butt" stroke-linejoin="round" transform="scale(0.015625 0.015625)"/><path d="M915 4767 90 4767 90 4544 691 4544 691-1377 90-1377 90-1600 915-1600 915 4767Z" id="CMR17-5d" stroke-linecap="butt" stroke-linejoin="round" transform="scale(0.015625 0.015625)"/><path d="M2885-11693C2885-10989 2399-9907 1285-9344 1977-8973 2802-8224 2879-7027L2885-6989 2885-2554C2885-2029 2885-1914 2937-1670 3052-1158 3359-525 4172-45 4223-13 4229-6 4229 109 4229 250 4223 256 4082 256 3967 256 3954 256 3781 154 2348-659 2265-1850 2265-2074L2265-6624C2265-7085 2265-7603 1932-8192 1637-8717 1292-8979 1017-9165 927-9222 921-9229 921-9338 921-9453 927-9459 978-9491 1522-9850 2105-10419 2245-11462 2265-11603 2265-11616 2265-11693L2265-16608C2265-17126 2585-18202 3820-18854 3967-18938 3980-18938 4082-18938 4223-18938 4229-18931 4229-18790 4229-18675 4223-18669 4197-18656 3922-18483 3084-17978 2911-16864 2885-16698 2885-16685 2885-16602L2885-11693Z" id="CMEX10-28" stroke-linecap="butt" stroke-linejoin="round" transform="scale(0.015625 0.015625)"/><path d="M275-789C230-980 205-1031-58-1031-134-1031-198-1031-198-1152-198-1165-192-1216-122-1216-38-1216 51-1216 134-1216L410-1216C544-1216 870-1216 1005-1216 1043-1216 1120-1216 1120-1101 1120-1031 1075-1031 966-1031 672-1031 653-987 653-937 653-861 941 219 979 364 1050 185 1222-64 1555-64 2278-64 3059 875 3059 1814 3059 2401 2726 2816 2246 2816 1837 2816 1491 2420 1421 2331 1370 2650 1120 2816 864 2816 678 2816 531 2727 410 2484 294 2254 205 1865 205 1839 205 1814 230 1782 275 1782 326 1782 333 1788 371 1935 467 2312 589 2689 845 2689 992 2689 1043 2587 1043 2397 1043 2245 1024 2181 998 2067L275-789ZM1382 1993C1427 2171 1606 2357 1709 2446 1779 2510 1990 2689 2234 2689 2515 2689 2643 2408 2643 2076 2643 1769 2464 1047 2304 715 2144 370 1850 64 1555 64 1120 64 1050 613 1050 639 1050 658 1062 709 1069 741L1382 1993Z" id="CMMI12-70" stroke-linecap="butt" stroke-linejoin="round" transform="scale(0.015625 0.015625)"/><path d="M1702 4058C1702 4192 1696 4192 1606 4192 1357 3916 979 3827 621 3827 602 3827 570 3827 563 3808 557 3795 557 3782 557 3648 755 3648 1088 3686 1344 3839L1344 461C1344 236 1331 160 781 160L589 160 589 0C896 0 1216 0 1523 0 1830 0 2150 0 2458 0L2458 160 2266 160C1715 160 1702 230 1702 458L1702 4058Z" id="CMR17-31" stroke-linecap="butt" stroke-linejoin="round" transform="scale(0.015625 0.015625)"/><path d="M2669 989 2554 989C2490 536 2438 459 2413 420 2381 369 1920 369 1830 369L602 369C832 619 1280 1072 1824 1597 2214 1967 2669 2402 2669 3035 2669 3790 2067 4224 1395 4224 691 4224 262 3604 262 3030 262 2780 448 2748 525 2748 589 2748 781 2787 781 3010 781 3207 614 3264 525 3264 486 3264 448 3258 422 3245 544 3790 915 4058 1306 4058 1862 4058 2227 3617 2227 3035 2227 2479 1901 2000 1536 1584L262 146 262 0 2515 0 2669 989Z" id="CMR17-32" stroke-linecap="butt" stroke-linejoin="round" transform="scale(0.015625 0.015625)"/><path d="M1248-31C1248 343 1126 619 864 619 659 619 557 453 557 313 557 172 653 0 870 0 954 0 1024 26 1082 83 1094 96 1101 96 1107 96 1120 96 1120 5 1120-27 1120-240 1082-659 710-1080 640-1157 640-1170 640-1183 640-1216 672-1248 704-1248 755-1248 1248-771 1248-31Z" id="CMMI12-3b" stroke-linecap="butt" stroke-linejoin="round" transform="scale(0.015625 0.015625)"/><path d="M992 3909C992 4049 877 4170 730 4170 589 4170 467 4056 467 3909 467 3769 582 3648 730 3648 870 3648 992 3763 992 3909ZM243 2706 243 2541C602 2541 653 2502 653 2197L653 427C653 184 627 153 218 153L218-13C371 0 646 0 806 0 960 0 1222 0 1370-13L1370 153C992 153 979 191 979 420L979 2776 243 2706Z" id="CMR17-69" stroke-linecap="butt" stroke-linejoin="round" transform="scale(0.015625 0.015625)"/><path d="M979 2560 1709 2560 1709 2725 966 2725 966 3494C966 4022 1235 4352 1510 4352 1594 4352 1690 4327 1754 4282 1702 4269 1568 4225 1568 4067 1568 3901 1696 3850 1786 3850 1875 3850 2003 3901 2003 4067 2003 4308 1773 4454 1517 4454 1152 4454 653 4156 653 3481L653 2725 141 2725 141 2560 653 2560 653 427C653 184 627 153 218 153L218-13C371 0 666 0 832 0 1018 0 1344 0 1517-13L1517 153C1056 153 979 153 979 439L979 2560Z" id="CMR17-66" stroke-linecap="butt" stroke-linejoin="round" transform="scale(0.015625 0.015625)"/><path d="M2822 2759C2822 2790 2797 2816 2765 2816 2714 2816 2464 2585 2342 2362 2227 2646 2029 2816 1754 2816 1030 2816 250 1884 250 939 250 307 621-64 1056-64 1395-64 1677 193 1811 339L1818 333 1574-615 1517-842C1459-1031 1363-1031 1062-1031 992-1031 928-1031 928-1152 928-1197 966-1216 1011-1216 1101-1216 1216-1216 1306-1216L1958-1216C2054-1216 2163-1216 2259-1216 2298-1216 2374-1216 2374-1095 2374-1031 2323-1031 2227-1031 1926-1031 1907-986 1907-935 1907-904 1914-898 1933-815L2822 2759ZM1920 762C1888 652 1888 640 1798 518 1658 339 1376 64 1075 64 813 64 666 301 666 678 666 1030 864 1747 986 2016 1203 2464 1504 2695 1754 2695 2176 2695 2259 2170 2259 2119 2259 2113 2240 2028 2234 2016L1920 762Z" id="CMMI12-71" stroke-linecap="butt" stroke-linejoin="round" transform="scale(0.015625 0.015625)"/><path d="M1146 1479C1318 1479 1754 1479 2061 1595 2547 1783 2592 2158 2592 2274 2592 2558 2349 2816 1926 2816 1254 2816 288 2210 288 1073 288 402 672-64 1254-64 2125-64 2675 609 2675 692 2675 730 2637 762 2611 762 2592 762 2586 756 2528 699 2118 159 1510 64 1267 64 902 64 710 350 710 822 710 911 710 1071 806 1479L1146 1479ZM838 1600C1114 2592 1722 2689 1926 2689 2208 2689 2400 2522 2400 2277 2400 1600 1376 1600 1107 1600L838 1600Z" id="CMMI12-65" stroke-linecap="butt" stroke-linejoin="round" transform="scale(0.015625 0.015625)"/><path d="M1862 1467C1958 1467 2067 1467 2067 1569 2067 1652 2003 1652 1888 1652L851 1652C1011 2226 1389 2573 1958 2573L2144 2573C2253 2573 2349 2573 2349 2675 2349 2758 2278 2758 2163 2758L1946 2758C1158 2758 294 2131 294 1126 294 416 774-64 1408-64 1818-64 2221 194 2221 258 2221 296 2202 336 2163 336 2144 336 2131 329 2099 304 1856 142 1619 64 1427 64 1088 64 730 290 730 918 730 1040 742 1208 800 1467L1862 1467Z" id="CMMI12-f" stroke-linecap="butt" stroke-linejoin="round" transform="scale(0.015625 0.015625)"/><path d="M2413 1472 4109 1472C4198 1472 4307 1472 4307 1580 4307 1695 4205 1695 4109 1695L2413 1695 2413 3386C2413 3475 2413 3584 2304 3584 2189 3584 2189 3482 2189 3386L2189 1695 493 1695C403 1695 294 1695 294 1587 294 1472 397 1472 493 1472L2189 1472 2189-218C2189-307 2189-416 2298-416 2413-416 2413-314 2413-218L2413 1472Z" id="CMR17-2b" stroke-linecap="butt" stroke-linejoin="round" transform="scale(0.015625 0.015625)"/><path d="M2758 1356C2758 2176 2163 2816 1466 2816 768 2816 173 2176 173 1356 173 551 768-64 1466-64 2163-64 2758 551 2758 1356ZM1466 51C1165 51 909 230 762 480 602 767 582 1126 582 1408 582 1677 595 2010 762 2298 890 2509 1139 2714 1466 2714 1754 2714 1997 2554 2150 2330 2349 2029 2349 1607 2349 1408 2349 1158 2336 775 2163 467 1984 173 1709 51 1466 51Z" id="CMR17-6f" stroke-linecap="butt" stroke-linejoin="round" transform="scale(0.015625 0.015625)"/><path d="M966 2560 1862 2560 1862 2725 966 2725 966 3904 851 3904C838 3245 614 2668 70 2668L70 2560 627 2560 627 771C627 650 627-64 1370-64 1747-64 1965 306 1965 777L1965 1140 1850 1140 1850 783C1850 344 1677 51 1408 51 1222 51 966 178 966 758L966 2560Z" id="CMR17-74" stroke-linecap="butt" stroke-linejoin="round" transform="scale(0.015625 0.015625)"/><path d="M2656 1933C2656 2259 2592 2790 1837 2790 1312 2790 1056 2368 979 2157L973 2157 973 4396 211 4326 211 4160C589 4160 646 4122 646 3817L646 426C646 184 621 153 211 153L211-13C365 0 646 0 813 0 979 0 1267 0 1421-13L1421 153C1011 153 986 178 986 428L986 1658C986 2247 1344 2688 1792 2688 2266 2688 2317 2266 2317 1958L2317 428C2317 184 2291 153 1882 153L1882-13C2035 0 2317 0 2483 0 2650 0 2938 0 3091-13L3091 153C2682 153 2656 178 2656 428L2656 1933Z" id="CMR17-68" stroke-linecap="butt" stroke-linejoin="round" transform="scale(0.015625 0.015625)"/><path d="M2438 1472C2464 1498 2464 1511 2464 1576 2464 2238 2118 2816 1389 2816 710 2816 173 2169 173 1383 173 551 781-64 1459-64 2176-64 2458 607 2458 740 2458 784 2419 784 2406 784 2362 784 2355 771 2330 696 2189 265 1837 51 1504 51 1229 51 954 203 781 480 582 803 582 1176 582 1472L2438 1472ZM589 1568C634 2505 1126 2714 1382 2714 1818 2714 2112 2297 2118 1568L589 1568Z" id="CMR17-65" stroke-linecap="butt" stroke-linejoin="round" transform="scale(0.015625 0.015625)"/><path d="M960 1497C960 2112 1222 2688 1702 2688 1747 2688 1792 2682 1837 2662 1837 2662 1696 2617 1696 2452 1696 2298 1818 2234 1914 2234 1990 2234 2131 2279 2131 2458 2131 2663 1926 2790 1709 2790 1222 2790 1011 2317 947 2093L941 2093 941 2790 198 2720 198 2554C576 2554 634 2515 634 2208L634 428C634 184 608 153 198 153L198-13C352 0 646 0 813 0 998 0 1325 0 1498-13L1498 153C1037 153 960 153 960 440L960 1497Z" id="CMR17-72" stroke-linecap="butt" stroke-linejoin="round" transform="scale(0.015625 0.015625)"/><path d="M3725 2183C3853 2560 4109 2560 4205 2560L4205 2732C4077 2732 3949 2732 3821 2732 3699 2732 3424 2732 3315 2738L3315 2560C3514 2560 3622 2445 3622 2286 3622 2241 3610 2184 3597 2140L2995 407 2342 2275C2330 2319 2310 2370 2310 2395 2310 2560 2528 2560 2630 2560L2630 2738C2483 2732 2214 2732 2061 2732 1901 2732 1734 2732 1587 2738L1587 2560C1939 2560 1939 2547 2074 2149L1485 451 851 2281C819 2363 819 2376 819 2395 819 2560 1037 2560 1139 2560L1139 2738C986 2732 717 2732 557 2732 416 2732 198 2732 64 2738L64 2560C346 2560 416 2541 486 2331L1274 49C1299-33 1318-52 1370-52 1414-52 1440-39 1472 56L2131 1980 2797 56C2829-39 2854-52 2899-52 2950-52 2970-33 2995 50L3725 2183Z" id="CMR17-77" stroke-linecap="butt" stroke-linejoin="round" transform="scale(0.015625 0.015625)"/><path d="M1978 2697C1978 2813 1971 2819 1933 2819 1907 2819 1901 2813 1824 2717 1805 2691 1747 2626 1728 2601 1523 2819 1235 2819 1126 2819 416 2819 160 2447 160 2076 160 1498 813 1365 998 1325 1402 1243 1542 1217 1677 1101 1760 1025 1901 884 1901 654 1901 384 1747 38 1158 38 602 38 403 460 288 1021 269 1110 269 1117 218 1117 166 1117 160 1110 160 983L160 63C160-51 166-58 205-58 237-58 243-51 275 0 314 57 410 211 448 276 576 103 800-64 1158-64 1792-64 2131 283 2131 784 2131 1112 1958 1285 1875 1362 1683 1561 1459 1606 1190 1657 838 1735 390 1825 390 2217 390 2383 480 2737 1126 2737 1811 2737 1850 2094 1862 1888 1869 1856 1901 1849 1920 1849 1978 1849 1978 1869 1978 1978L1978 2697Z" id="CMR17-73" stroke-linecap="butt" stroke-linejoin="round" transform="scale(0.015625 0.015625)"/></defs><use width="100%" height="100%" xlink:href="#CMMI12-50" stroke-linecap="butt" stroke-linejoin="round" transform="scale(0.996264 0.996264)"></use><use width="100%" height="100%" xlink:href="#CMMI12-72" stroke-linecap="butt" stroke-linejoin="round" transform="matrix(0.996264 0 0 0.996264 76.4258 0)"></use><use width="100%" height="100%" xlink:href="#CMR17-5b" stroke-linecap="butt" stroke-linejoin="round" transform="matrix(0.996264 0 0 0.996264 123.096 0)"></use><use width="100%" height="100%" xlink:href="#CMMI12-50" stroke-linecap="butt" stroke-linejoin="round" transform="matrix(0.996264 0 0 0.996264 147.967 0)"></use><use width="100%" height="100%" xlink:href="#CMMI12-45" stroke-linecap="butt" stroke-linejoin="round" transform="matrix(0.996264 0 0 0.996264 224.393 0)"></use><use width="100%" height="100%" xlink:href="#CMR17-28" stroke-linecap="butt" stroke-linejoin="round" transform="matrix(0.996264 0 0 0.996264 302.445 0)"></use><use width="100%" height="100%" xlink:href="#CMMI12-76" stroke-linecap="butt" stroke-linejoin="round" transform="matrix(0.996264 0 0 0.996264 337.726 0)"></use><use width="100%" height="100%" xlink:href="#CMR17-29" stroke-linecap="butt" stroke-linejoin="round" transform="matrix(0.996264 0 0 0.996264 388.461 0)"></use><use width="100%" height="100%" xlink:href="#CMR17-3d" stroke-linecap="butt" stroke-linejoin="round" transform="matrix(0.996264 0 0 0.996264 451.416 0)"></use><use width="100%" height="100%" xlink:href="#CMMI12-69" stroke-linecap="butt" stroke-linejoin="round" transform="matrix(0.996264 0 0 0.996264 550.804 0)"></use><use width="100%" height="100%" xlink:href="#CMR17-5d" stroke-linecap="butt" stroke-linejoin="round" transform="matrix(0.996264 0 0 0.996264 584.083 0)"></use><use width="100%" height="100%" xlink:href="#CMR17-3d" stroke-linecap="butt" stroke-linejoin="round" transform="matrix(0.996264 0 0 0.996264 636.628 0)"></use><use width="100%" height="100%" xlink:href="#CMEX10-28" stroke-linecap="butt" stroke-linejoin="round" transform="matrix(0.996264 0 0 0.996264 736.017 170.363)"></use><use width="100%" height="100%" xlink:href="#CMMI12-70" stroke-linecap="butt" stroke-linejoin="round" transform="matrix(0.996264 0 0 0.996264 816.272 69.7388)"></use><use width="100%" height="100%" xlink:href="#CMR17-3d" stroke-linecap="butt" stroke-linejoin="round" transform="matrix(0.996264 0 0 0.996264 892.905 69.7388)"></use><use width="100%" height="100%" xlink:href="#CMR17-31" stroke-linecap="butt" stroke-linejoin="round" transform="matrix(0.697382 0 0 0.697382 993.49 108.965)"></use><use width="100%" height="100%" xlink:href="#CMR17-32" stroke-linecap="butt" stroke-linejoin="round" transform="matrix(0.697382 0 0 0.697382 993.49 35.3836)"></use><use width="100%" height="100%" xlink:href="#CMMI12-3b" stroke-linecap="butt" stroke-linejoin="round" transform="matrix(0.996264 0 0 0.996264 1026.67 69.7388)"></use><use width="100%" height="100%" xlink:href="#CMR17-69" stroke-linecap="butt" stroke-linejoin="round" transform="matrix(0.996264 0 0 0.996264 1245.05 69.7388)"></use><use width="100%" height="100%" xlink:href="#CMR17-66" stroke-linecap="butt" stroke-linejoin="round" transform="matrix(0.996264 0 0 0.996264 1269.93 69.7388)"></use><use width="100%" height="100%" xlink:href="#CMMI12-69" stroke-linecap="butt" stroke-linejoin="round" transform="matrix(0.996264 0 0 0.996264 1327.48 69.7388)"></use><use width="100%" height="100%" xlink:href="#CMR17-3d" stroke-linecap="butt" stroke-linejoin="round" transform="matrix(0.996264 0 0 0.996264 1388.43 69.7388)"></use><use width="100%" height="100%" xlink:href="#CMMI12-76" stroke-linecap="butt" stroke-linejoin="round" transform="matrix(0.996264 0 0 0.996264 1487.82 69.7388)"></use><use width="100%" height="100%" xlink:href="#CMMI12-71" stroke-linecap="butt" stroke-linejoin="round" transform="matrix(0.996264 0 0 0.996264 816.272 -79.7004)"></use><use width="100%" height="100%" xlink:href="#CMR17-3d" stroke-linecap="butt" stroke-linejoin="round" transform="matrix(0.996264 0 0 0.996264 890.772 -79.7004)"></use><use width="100%" height="100%" xlink:href="#CMR17-31" stroke-linecap="butt" stroke-linejoin="round" transform="matrix(0.697382 0 0 0.697382 1042.38 -40.4743)"></use><use width="100%" height="100%" xlink:href="#CMMI12-65" stroke-linecap="butt" stroke-linejoin="round" transform="matrix(0.697382 0 0 0.697382 991.357 -114.056)"></use><use width="100%" height="100%" xlink:href="#CMMI12-f" stroke-linecap="butt" stroke-linejoin="round" transform="matrix(0.498132 0 0 0.498132 1023 -93.9091)"></use><use width="100%" height="100%" xlink:href="#CMR17-2b" stroke-linecap="butt" stroke-linejoin="round" transform="matrix(0.697382 0 0 0.697382 1043.2 -114.056)"></use><use width="100%" height="100%" xlink:href="#CMR17-31" stroke-linecap="butt" stroke-linejoin="round" transform="matrix(0.697382 0 0 0.697382 1093.4 -114.056)"></use><use width="100%" height="100%" xlink:href="#CMMI12-3b" stroke-linecap="butt" stroke-linejoin="round" transform="matrix(0.996264 0 0 0.996264 1126.58 -79.7004)"></use><use width="100%" height="100%" xlink:href="#CMR17-6f" stroke-linecap="butt" stroke-linejoin="round" transform="matrix(0.996264 0 0 0.996264 1245.05 -79.7004)"></use><use width="100%" height="100%" xlink:href="#CMR17-74" stroke-linecap="butt" stroke-linejoin="round" transform="matrix(0.996264 0 0 0.996264 1290.75 -79.7004)"></use><use width="100%" height="100%" xlink:href="#CMR17-68" stroke-linecap="butt" stroke-linejoin="round" transform="matrix(0.996264 0 0 0.996264 1326.03 -79.7004)"></use><use width="100%" height="100%" xlink:href="#CMR17-65" stroke-linecap="butt" stroke-linejoin="round" transform="matrix(0.996264 0 0 0.996264 1376.92 -79.7004)"></use><use width="100%" height="100%" xlink:href="#CMR17-72" stroke-linecap="butt" stroke-linejoin="round" transform="matrix(0.996264 0 0 0.996264 1417.41 -79.7004)"></use><use width="100%" height="100%" xlink:href="#CMR17-77" stroke-linecap="butt" stroke-linejoin="round" transform="matrix(0.996264 0 0 0.996264 1452.69 -79.7004)"></use><use width="100%" height="100%" xlink:href="#CMR17-69" stroke-linecap="butt" stroke-linejoin="round" transform="matrix(0.996264 0 0 0.996264 1519.2 -79.7004)"></use><use width="100%" height="100%" xlink:href="#CMR17-73" stroke-linecap="butt" stroke-linejoin="round" transform="matrix(0.996264 0 0 0.996264 1544.07 -79.7004)"></use><use width="100%" height="100%" xlink:href="#CMR17-65" stroke-linecap="butt" stroke-linejoin="round" transform="matrix(0.996264 0 0 0.996264 1579.87 -79.7004)"></use><path d="M993.49 92.6529 1025.47 92.6529 1025.47 96.6379 993.49 96.6379 993.49 92.6529Z" stroke-linecap="butt" stroke-linejoin="round"/><path d="M991.357-56.7863 1125.38-56.7863 1125.38-52.8013 991.357-52.8013 991.357-56.7863Z" stroke-linecap="butt" stroke-linejoin="round"/></g></g></g></g></svg>