<svg width="763.2" height="167.04" viewBox="0 0 572.4 125.28" xmlns="http://www.w3.org/2000/svg" xmlns:xlink="http://www.w3.org/1999/xlink" stroke-linecap="butt" stroke-linejoin="round" overflow="hidden"><defs stroke-linecap="butt" stroke-linejoin="round"></defs><g id="figure_1" stroke-linecap="butt" stroke-linejoin="round"><g id="patch_1" stroke-linecap="butt" stroke-linejoin="round"><path d="M0 125.28 572.4 125.28 572.4 0 0 0 0 125.28Z" stroke-linecap="butt" stroke-linejoin="round" fill="none" opacity="0"/></g><g id="axes_1" stroke-linecap="butt" stroke-linejoin="round"><g id="text_1" stroke-linecap="butt" stroke-linejoin="round"><g stroke-linecap="butt" stroke-linejoin="round" transform="matrix(0.2 0 0 -0.2 92.9785 67.6213)"><defs stroke-linecap="butt" stroke-linejoin="round"><path d="M3526 4195C3558 4266 3558 4279 3558 4311 3558 4375 3507 4439 3430 4439 3347 4439 3309 4362 3283 4291L2752 2883 806 2883 275 4291C243 4381 211 4439 128 4439 64 4439 0 4375 0 4311 0 4298 0 4285 38 4195L1632 3C1664-86 1696-144 1779-144 1869-144 1894-73 1920-9L3526 4195ZM909 2627 2650 2627 1779 349 909 2627Z" id="CMSY10-38" stroke-linecap="butt" stroke-linejoin="round" transform="scale(0.015625 0.015625)"/><path d="M1811 913C1811 945 1786 971 1747 971 1690 971 1683 952 1651 843 1485 262 1222 64 1011 64 934 64 845 83 845 275 845 447 922 639 992 830L1440 2018C1459 2069 1504 2184 1504 2305 1504 2574 1312 2816 998 2816 410 2816 173 1890 173 1839 173 1814 198 1782 243 1782 301 1782 307 1807 333 1896 486 2428 730 2682 979 2682 1037 2682 1146 2682 1146 2478 1146 2312 1062 2101 1011 1961L563 773C525 671 486 568 486 453 486 166 685-64 992-64 1581-64 1811 869 1811 913ZM1760 4013C1760 4109 1683 4224 1542 4224 1395 4224 1229 4083 1229 3917 1229 3758 1363 3707 1440 3707 1613 3707 1760 3873 1760 4013Z" id="CMMI12-69" stroke-linecap="butt" stroke-linejoin="round" transform="scale(0.015625 0.015625)"/><path d="M3506 1472C3615 1472 3730 1472 3730 1600 3730 1728 3615 1728 3506 1728L792 1728C869 2586 1605 3200 2507 3200L3506 3200C3615 3200 3730 3200 3730 3328 3730 3456 3615 3456 3506 3456L2495 3456C1400 3456 530 2624 530 1600 530 576 1400-256 2495-256L3506-256C3615-256 3730-256 3730-128 3730 0 3615 0 3506 0L2507 0C1605 0 869 614 792 1472L3506 1472Z" id="CMSY10-32" stroke-linecap="butt" stroke-linejoin="round" transform="scale(0.015625 0.015625)"/><path d="M1504-1600 1504-1377 902-1377 902 4544 1504 4544 1504 4767 678 4767 678-1600 1504-1600Z" id="CMR17-5b" stroke-linecap="butt" stroke-linejoin="round" transform="scale(0.015625 0.015625)"/><path d="M3219 4257C3226 4282 3238 4320 3238 4352 3238 4416 3174 4416 3162 4416 3155 4416 2842 4388 2810 4380 2701 4373 2605 4358 2490 4358 2330 4345 2285 4339 2285 4224 2285 4160 2336 4160 2426 4160 2739 4160 2746 4103 2746 4040 2746 4002 2733 3952 2726 3933L2336 2395C2266 2561 2093 2816 1760 2816 1037 2816 256 1884 256 939 256 307 627-64 1062-64 1414-64 1715 211 1894 422 1958 45 2259-64 2451-64 2643-64 2797 51 2912 281 3014 498 3104 888 3104 913 3104 945 3078 971 3040 971 2982 971 2976 939 2950 843 2854 466 2733 64 2470 64 2285 64 2272 229 2272 357 2272 382 2272 515 2317 694L3219 4257ZM1926 760C1894 651 1894 639 1805 517 1664 338 1382 64 1082 64 819 64 672 300 672 677 672 1028 870 1743 992 2012 1210 2459 1510 2689 1760 2689 2182 2689 2266 2165 2266 2114 2266 2108 2246 2024 2240 2012L1926 760Z" id="CMMI12-64" stroke-linecap="butt" stroke-linejoin="round" transform="scale(0.015625 0.015625)"/><path d="M915 4767 90 4767 90 4544 691 4544 691-1377 90-1377 90-1600 915-1600 915 4767Z" id="CMR17-5d" stroke-linecap="butt" stroke-linejoin="round" transform="scale(0.015625 0.015625)"/><path d="M1894 2023 2970 2023C3853 2023 4736 2673 4736 3401 4736 3898 4314 4352 3507 4352L1530 4352C1408 4352 1350 4352 1350 4231 1350 4167 1408 4167 1504 4167 1894 4167 1894 4116 1894 4046 1894 4034 1894 3995 1869 3899L1005 472C947 249 934 185 486 185 365 185 301 185 301 70 301 0 358 0 397 0 518 0 646 0 768 0L1517 0C1638 0 1773 0 1894 0 1946 0 2016 0 2016 121 2016 185 1958 185 1862 185 1478 185 1472 230 1472 293 1472 325 1478 369 1485 401L1894 2023ZM2355 3930C2413 4167 2438 4167 2688 4167L3322 4167C3802 4167 4198 4013 4198 3535 4198 3369 4115 2827 3821 2534 3712 2419 3405 2176 2822 2176L1920 2176 2355 3930Z" id="CMMI12-50" stroke-linecap="butt" stroke-linejoin="round" transform="scale(0.015625 0.015625)"/><path d="M2490 2612C2291 2574 2189 2433 2189 2293 2189 2139 2310 2088 2400 2088 2579 2088 2726 2242 2726 2433 2726 2638 2528 2816 2208 2816 1952 2816 1658 2701 1389 2312 1344 2650 1088 2816 832 2816 582 2816 454 2625 378 2484 269 2254 173 1871 173 1839 173 1814 198 1782 243 1782 294 1782 301 1788 339 1935 435 2318 557 2689 813 2689 966 2689 1011 2580 1011 2395 1011 2254 947 2005 902 1807L723 1118C698 996 627 709 595 594 550 428 480 128 480 96 480 6 550-64 646-64 717-64 838-19 877 109 896 160 1133 1124 1171 1271 1203 1411 1242 1546 1274 1686 1299 1775 1325 1878 1344 1961 1363 2018 1536 2331 1696 2472 1773 2542 1939 2689 2202 2689 2304 2689 2406 2670 2490 2612Z" id="CMMI12-72" stroke-linecap="butt" stroke-linejoin="round" transform="scale(0.015625 0.015625)"/><path d="M1683-700C1510-939 1261-1152 947-1152 870-1152 563-1152 467-889 486-895 518-895 531-895 723-895 851-729 851-582 851-435 730-384 634-384 531-384 307-458 307-759 307-1071 582-1286 947-1286 1587-1286 2234-700 2413 6L3040 2485C3046 2517 3059 2556 3059 2594 3059 2689 2982 2753 2886 2753 2829 2753 2694 2727 2643 2535L2170 658C2138 543 2138 530 2086 460 1958 281 1747 64 1440 64 1082 64 1050 415 1050 588 1050 952 1222 1443 1395 1903 1466 2088 1504 2178 1504 2305 1504 2574 1312 2816 998 2816 410 2816 173 1890 173 1839 173 1814 198 1782 243 1782 301 1782 307 1807 333 1897 486 2433 730 2689 979 2689 1037 2689 1146 2689 1146 2478 1146 2312 1075 2127 979 1884 666 1047 666 837 666 683 666 77 1101-64 1421-64 1606-64 1837-6 2061 230L2067 224C1971-147 1907-392 1683-700Z" id="CMMI12-79" stroke-linecap="butt" stroke-linejoin="round" transform="scale(0.015625 0.015625)"/><path d="M4115 2017C4211 2017 4307 2017 4307 2125 4307 2240 4198 2240 4090 2240L512 2240C403 2240 294 2240 294 2125 294 2017 390 2017 486 2017L4115 2017ZM4090 896C4198 896 4307 896 4307 1011 4307 1119 4211 1119 4115 1119L486 1119C390 1119 294 1119 294 1011 294 896 403 896 512 896L4090 896Z" id="CMR17-3d" stroke-linecap="butt" stroke-linejoin="round" transform="scale(0.015625 0.015625)"/><path d="M2099 4557C2131 4627 2131 4640 2131 4672 2131 4742 2074 4800 2003 4800 1946 4800 1901 4768 1856 4653L736 1715C723 1677 704 1638 704 1600 704 1581 704 1568 736 1491L1856-1446C1882-1517 1914-1600 2003-1600 2074-1600 2131-1542 2131-1472 2131-1453 2131-1440 2099-1370L966 1600 2099 4557Z" id="CMSY10-68" stroke-linecap="butt" stroke-linejoin="round" transform="scale(0.015625 0.015625)"/><path d="M4787 3887C4845 4103 4858 4167 5312 4167 5427 4167 5491 4167 5491 4282 5491 4352 5434 4352 5395 4352 5280 4352 5146 4352 5024 4352L4269 4352C4147 4352 4013 4352 3891 4352 3846 4352 3770 4352 3770 4231 3770 4167 3814 4167 3936 4167 4320 4167 4320 4116 4320 4046 4320 4034 4320 3995 4294 3900L3904 2361 1971 2361 2355 3887C2413 4103 2426 4167 2880 4167 2995 4167 3059 4167 3059 4282 3059 4352 3002 4352 2963 4352 2848 4352 2714 4352 2592 4352L1837 4352C1715 4352 1581 4352 1459 4352 1414 4352 1338 4352 1338 4231 1338 4167 1382 4167 1504 4167 1888 4167 1888 4116 1888 4046 1888 4034 1888 3995 1862 3899L998 472C941 249 928 185 486 185 339 185 294 185 294 64 294 0 365 0 384 0 499 0 634 0 755 0L1510 0C1632 0 1766 0 1888 0 1939 0 2010 0 2010 121 2010 185 1952 185 1856 185 1466 185 1466 236 1466 300 1466 307 1466 351 1478 402L1920 2176 3859 2176C3750 1753 3424 416 3411 376 3341 185 3238 185 2861 185 2784 185 2726 185 2726 64 2726 0 2797 0 2816 0 2931 0 3066 0 3187 0L3942 0C4064 0 4198 0 4320 0 4371 0 4442 0 4442 121 4442 185 4384 185 4288 185 3898 185 3898 236 3898 300 3898 307 3898 351 3910 402L4787 3887Z" id="CMMI12-48" stroke-linecap="butt" stroke-linejoin="round" transform="scale(0.015625 0.015625)"/><path d="M1248-31C1248 343 1126 619 864 619 659 619 557 453 557 313 557 172 653 0 870 0 954 0 1024 26 1082 83 1094 96 1101 96 1107 96 1120 96 1120 5 1120-27 1120-240 1082-659 710-1080 640-1157 640-1170 640-1183 640-1216 672-1248 704-1248 755-1248 1248-771 1248-31Z" id="CMMI12-3b" stroke-linecap="butt" stroke-linejoin="round" transform="scale(0.015625 0.015625)"/><path d="M3034 2606C2829 2567 2752 2414 2752 2293 2752 2139 2874 2088 2963 2088 3155 2088 3290 2254 3290 2427 3290 2695 2982 2816 2714 2816 2323 2816 2106 2433 2048 2312 1901 2816 1504 2816 1389 2816 736 2816 390 1980 390 1839 390 1814 416 1782 461 1782 512 1782 525 1820 538 1846 755 2555 1184 2689 1370 2689 1658 2689 1715 2420 1715 2267 1715 2127 1677 1980 1600 1673L1382 798C1286 415 1101 64 762 64 730 64 570 64 435 147 666 192 717 383 717 460 717 588 621 664 499 664 346 664 179 530 179 326 179 57 480-64 755-64 1062-64 1280 179 1414 441 1517 64 1837-64 2074-64 2726-64 3072 773 3072 913 3072 945 3046 971 3008 971 2950 971 2944 939 2925 888 2752 326 2381 64 2093 64 1869 64 1747 230 1747 492 1747 632 1773 734 1875 1156L2099 2024C2195 2408 2413 2689 2707 2689 2720 2689 2899 2689 3034 2606Z" id="CMMI12-78" stroke-linecap="butt" stroke-linejoin="round" transform="scale(0.015625 0.015625)"/><path d="M1747 1491C1779 1568 1779 1581 1779 1600 1779 1619 1779 1632 1747 1709L627 4653C589 4762 550 4800 480 4800 410 4800 352 4742 352 4672 352 4653 352 4640 384 4570L1517 1600 384-1357C352-1427 352-1440 352-1472 352-1542 410-1600 480-1600 563-1600 589-1536 614-1472L1747 1491Z" id="CMSY10-69" stroke-linecap="butt" stroke-linejoin="round" transform="scale(0.015625 0.015625)"/><path d="M2885-11693C2885-10989 2399-9907 1285-9344 1977-8973 2802-8224 2879-7027L2885-6989 2885-2554C2885-2029 2885-1914 2937-1670 3052-1158 3359-525 4172-45 4223-13 4229-6 4229 109 4229 250 4223 256 4082 256 3967 256 3954 256 3781 154 2348-659 2265-1850 2265-2074L2265-6624C2265-7085 2265-7603 1932-8192 1637-8717 1292-8979 1017-9165 927-9222 921-9229 921-9338 921-9453 927-9459 978-9491 1522-9850 2105-10419 2245-11462 2265-11603 2265-11616 2265-11693L2265-16608C2265-17126 2585-18202 3820-18854 3967-18938 3980-18938 4082-18938 4223-18938 4229-18931 4229-18790 4229-18675 4223-18669 4197-18656 3922-18483 3084-17978 2911-16864 2885-16698 2885-16685 2885-16602L2885-11693Z" id="CMEX10-28" stroke-linecap="butt" stroke-linejoin="round" transform="scale(0.015625 0.015625)"/><path d="M275-789C230-980 205-1031-58-1031-134-1031-198-1031-198-1152-198-1165-192-1216-122-1216-38-1216 51-1216 134-1216L410-1216C544-1216 870-1216 1005-1216 1043-1216 1120-1216 1120-1101 1120-1031 1075-1031 966-1031 672-1031 653-987 653-937 653-861 941 219 979 364 1050 185 1222-64 1555-64 2278-64 3059 875 3059 1814 3059 2401 2726 2816 2246 2816 1837 2816 1491 2420 1421 2331 1370 2650 1120 2816 864 2816 678 2816 531 2727 410 2484 294 2254 205 1865 205 1839 205 1814 230 1782 275 1782 326 1782 333 1788 371 1935 467 2312 589 2689 845 2689 992 2689 1043 2587 1043 2397 1043 2245 1024 2181 998 2067L275-789ZM1382 1993C1427 2171 1606 2357 1709 2446 1779 2510 1990 2689 2234 2689 2515 2689 2643 2408 2643 2076 2643 1769 2464 1047 2304 715 2144 370 1850 64 1555 64 1120 64 1050 613 1050 639 1050 658 1062 709 1069 741L1382 1993Z" id="CMMI12-70" stroke-linecap="butt" stroke-linejoin="round" transform="scale(0.015625 0.015625)"/><path d="M1146 1479C1318 1479 1754 1479 2061 1595 2547 1783 2592 2158 2592 2274 2592 2558 2349 2816 1926 2816 1254 2816 288 2210 288 1073 288 402 672-64 1254-64 2125-64 2675 609 2675 692 2675 730 2637 762 2611 762 2592 762 2586 756 2528 699 2118 159 1510 64 1267 64 902 64 710 350 710 822 710 911 710 1071 806 1479L1146 1479ZM838 1600C1114 2592 1722 2689 1926 2689 2208 2689 2400 2522 2400 2277 2400 1600 1376 1600 1107 1600L838 1600Z" id="CMMI12-65" stroke-linecap="butt" stroke-linejoin="round" transform="scale(0.015625 0.015625)"/><path d="M1862 1467C1958 1467 2067 1467 2067 1569 2067 1652 2003 1652 1888 1652L851 1652C1011 2226 1389 2573 1958 2573L2144 2573C2253 2573 2349 2573 2349 2675 2349 2758 2278 2758 2163 2758L1946 2758C1158 2758 294 2131 294 1126 294 416 774-64 1408-64 1818-64 2221 194 2221 258 2221 296 2202 336 2163 336 2144 336 2131 329 2099 304 1856 142 1619 64 1427 64 1088 64 730 290 730 918 730 1040 742 1208 800 1467L1862 1467Z" id="CMMI12-f" stroke-linecap="butt" stroke-linejoin="round" transform="scale(0.015625 0.015625)"/><path d="M2413 1472 4109 1472C4198 1472 4307 1472 4307 1580 4307 1695 4205 1695 4109 1695L2413 1695 2413 3386C2413 3475 2413 3584 2304 3584 2189 3584 2189 3482 2189 3386L2189 1695 493 1695C403 1695 294 1695 294 1587 294 1472 397 1472 493 1472L2189 1472 2189-218C2189-307 2189-416 2298-416 2413-416 2413-314 2413-218L2413 1472Z" id="CMR17-2b" stroke-linecap="butt" stroke-linejoin="round" transform="scale(0.015625 0.015625)"/><path d="M4218 1472C4326 1472 4442 1472 4442 1600 4442 1728 4326 1728 4218 1728L755 1728C646 1728 531 1728 531 1600 531 1472 646 1472 755 1472L4218 1472Z" id="CMSY10-0" stroke-linecap="butt" stroke-linejoin="round" transform="scale(0.015625 0.015625)"/><path d="M1702 4058C1702 4192 1696 4192 1606 4192 1357 3916 979 3827 621 3827 602 3827 570 3827 563 3808 557 3795 557 3782 557 3648 755 3648 1088 3686 1344 3839L1344 461C1344 236 1331 160 781 160L589 160 589 0C896 0 1216 0 1523 0 1830 0 2150 0 2458 0L2458 160 2266 160C1715 160 1702 230 1702 458L1702 4058Z" id="CMR17-31" stroke-linecap="butt" stroke-linejoin="round" transform="scale(0.015625 0.015625)"/><path d="M992 3909C992 4049 877 4170 730 4170 589 4170 467 4056 467 3909 467 3769 582 3648 730 3648 870 3648 992 3763 992 3909ZM243 2706 243 2541C602 2541 653 2502 653 2197L653 427C653 184 627 153 218 153L218-13C371 0 646 0 806 0 960 0 1222 0 1370-13L1370 153C992 153 979 191 979 420L979 2776 243 2706Z" id="CMR17-69" stroke-linecap="butt" stroke-linejoin="round" transform="scale(0.015625 0.015625)"/><path d="M979 2560 1709 2560 1709 2725 966 2725 966 3494C966 4022 1235 4352 1510 4352 1594 4352 1690 4327 1754 4282 1702 4269 1568 4225 1568 4067 1568 3901 1696 3850 1786 3850 1875 3850 2003 3901 2003 4067 2003 4308 1773 4454 1517 4454 1152 4454 653 4156 653 3481L653 2725 141 2725 141 2560 653 2560 653 427C653 184 627 153 218 153L218-13C371 0 666 0 832 0 1018 0 1344 0 1517-13L1517 153C1056 153 979 153 979 439L979 2560Z" id="CMR17-66" stroke-linecap="butt" stroke-linejoin="round" transform="scale(0.015625 0.015625)"/><path d="M2822 2759C2822 2790 2797 2816 2765 2816 2714 2816 2464 2585 2342 2362 2227 2646 2029 2816 1754 2816 1030 2816 250 1884 250 939 250 307 621-64 1056-64 1395-64 1677 193 1811 339L1818 333 1574-615 1517-842C1459-1031 1363-1031 1062-1031 992-1031 928-1031 928-1152 928-1197 966-1216 1011-1216 1101-1216 1216-1216 1306-1216L1958-1216C2054-1216 2163-1216 2259-1216 2298-1216 2374-1216 2374-1095 2374-1031 2323-1031 2227-1031 1926-1031 1907-986 1907-935 1907-904 1914-898 1933-815L2822 2759ZM1920 762C1888 652 1888 640 1798 518 1658 339 1376 64 1075 64 813 64 666 301 666 678 666 1030 864 1747 986 2016 1203 2464 1504 2695 1754 2695 2176 2695 2259 2170 2259 2119 2259 2113 2240 2028 2234 2016L1920 762Z" id="CMMI12-71" stroke-linecap="butt" stroke-linejoin="round" transform="scale(0.015625 0.015625)"/><path d="M2758 1356C2758 2176 2163 2816 1466 2816 768 2816 173 2176 173 1356 173 551 768-64 1466-64 2163-64 2758 551 2758 1356ZM1466 51C1165 51 909 230 762 480 602 767 582 1126 582 1408 582 1677 595 2010 762 2298 890 2509 1139 2714 1466 2714 1754 2714 1997 2554 2150 2330 2349 2029 2349 1607 2349 1408 2349 1158 2336 775 2163 467 1984 173 1709 51 1466 51Z" id="CMR17-6f" stroke-linecap="butt" stroke-linejoin="round" transform="scale(0.015625 0.015625)"/><path d="M966 2560 1862 2560 1862 2725 966 2725 966 3904 851 3904C838 3245 614 2668 70 2668L70 2560 627 2560 627 771C627 650 627-64 1370-64 1747-64 1965 306 1965 777L1965 1140 1850 1140 1850 783C1850 344 1677 51 1408 51 1222 51 966 178 966 758L966 2560Z" id="CMR17-74" stroke-linecap="butt" stroke-linejoin="round" transform="scale(0.015625 0.015625)"/><path d="M2656 1933C2656 2259 2592 2790 1837 2790 1312 2790 1056 2368 979 2157L973 2157 973 4396 211 4326 211 4160C589 4160 646 4122 646 3817L646 426C646 184 621 153 211 153L211-13C365 0 646 0 813 0 979 0 1267 0 1421-13L1421 153C1011 153 986 178 986 428L986 1658C986 2247 1344 2688 1792 2688 2266 2688 2317 2266 2317 1958L2317 428C2317 184 2291 153 1882 153L1882-13C2035 0 2317 0 2483 0 2650 0 2938 0 3091-13L3091 153C2682 153 2656 178 2656 428L2656 1933Z" id="CMR17-68" stroke-linecap="butt" stroke-linejoin="round" transform="scale(0.015625 0.015625)"/><path d="M2438 1472C2464 1498 2464 1511 2464 1576 2464 2238 2118 2816 1389 2816 710 2816 173 2169 173 1383 173 551 781-64 1459-64 2176-64 2458 607 2458 740 2458 784 2419 784 2406 784 2362 784 2355 771 2330 696 2189 265 1837 51 1504 51 1229 51 954 203 781 480 582 803 582 1176 582 1472L2438 1472ZM589 1568C634 2505 1126 2714 1382 2714 1818 2714 2112 2297 2118 1568L589 1568Z" id="CMR17-65" stroke-linecap="butt" stroke-linejoin="round" transform="scale(0.015625 0.015625)"/><path d="M960 1497C960 2112 1222 2688 1702 2688 1747 2688 1792 2682 1837 2662 1837 2662 1696 2617 1696 2452 1696 2298 1818 2234 1914 2234 1990 2234 2131 2279 2131 2458 2131 2663 1926 2790 1709 2790 1222 2790 1011 2317 947 2093L941 2093 941 2790 198 2720 198 2554C576 2554 634 2515 634 2208L634 428C634 184 608 153 198 153L198-13C352 0 646 0 813 0 998 0 1325 0 1498-13L1498 153C1037 153 960 153 960 440L960 1497Z" id="CMR17-72" stroke-linecap="butt" stroke-linejoin="round" transform="scale(0.015625 0.015625)"/><path d="M3725 2183C3853 2560 4109 2560 4205 2560L4205 2732C4077 2732 3949 2732 3821 2732 3699 2732 3424 2732 3315 2738L3315 2560C3514 2560 3622 2445 3622 2286 3622 2241 3610 2184 3597 2140L2995 407 2342 2275C2330 2319 2310 2370 2310 2395 2310 2560 2528 2560 2630 2560L2630 2738C2483 2732 2214 2732 2061 2732 1901 2732 1734 2732 1587 2738L1587 2560C1939 2560 1939 2547 2074 2149L1485 451 851 2281C819 2363 819 2376 819 2395 819 2560 1037 2560 1139 2560L1139 2738C986 2732 717 2732 557 2732 416 2732 198 2732 64 2738L64 2560C346 2560 416 2541 486 2331L1274 49C1299-33 1318-52 1370-52 1414-52 1440-39 1472 56L2131 1980 2797 56C2829-39 2854-52 2899-52 2950-52 2970-33 2995 50L3725 2183Z" id="CMR17-77" stroke-linecap="butt" stroke-linejoin="round" transform="scale(0.015625 0.015625)"/><path d="M1978 2697C1978 2813 1971 2819 1933 2819 1907 2819 1901 2813 1824 2717 1805 2691 1747 2626 1728 2601 1523 2819 1235 2819 1126 2819 416 2819 160 2447 160 2076 160 1498 813 1365 998 1325 1402 1243 1542 1217 1677 1101 1760 1025 1901 884 1901 654 1901 384 1747 38 1158 38 602 38 403 460 288 1021 269 1110 269 1117 218 1117 166 1117 160 1110 160 983L160 63C160-51 166-58 205-58 237-58 243-51 275 0 314 57 410 211 448 276 576 103 800-64 1158-64 1792-64 2131 283 2131 784 2131 1112 1958 1285 1875 1362 1683 1561 1459 1606 1190 1657 838 1735 390 1825 390 2217 390 2383 480 2737 1126 2737 1811 2737 1850 2094 1862 1888 1869 1856 1901 1849 1920 1849 1978 1849 1978 1869 1978 1978L1978 2697Z" id="CMR17-73" stroke-linecap="butt" stroke-linejoin="round" transform="scale(0.015625 0.015625)"/></defs><use width="100%" height="100%" xlink:href="#CMSY10-38" stroke-linecap="butt" stroke-linejoin="round" transform="scale(0.996264 0.996264)"></use><use width="100%" height="100%" xlink:href="#CMMI12-69" stroke-linecap="butt" stroke-linejoin="round" transform="matrix(0.697382 0 0 0.697382 55.3482 -17.9251)"></use><use width="100%" height="100%" xlink:href="#CMSY10-32" stroke-linecap="butt" stroke-linejoin="round" transform="matrix(0.697382 0 0 0.697382 78.6431 -17.9251)"></use><use width="100%" height="100%" xlink:href="#CMR17-5b" stroke-linecap="butt" stroke-linejoin="round" transform="matrix(0.697382 0 0 0.697382 125.135 -17.9251)"></use><use width="100%" height="100%" xlink:href="#CMMI12-64" stroke-linecap="butt" stroke-linejoin="round" transform="matrix(0.697382 0 0 0.697382 142.545 -17.9251)"></use><use width="100%" height="100%" xlink:href="#CMR17-5d" stroke-linecap="butt" stroke-linejoin="round" transform="matrix(0.697382 0 0 0.697382 178.027 -17.9251)"></use><use width="100%" height="100%" xlink:href="#CMMI12-50" stroke-linecap="butt" stroke-linejoin="round" transform="matrix(0.996264 0 0 0.996264 195.935 0)"></use><use width="100%" height="100%" xlink:href="#CMMI12-72" stroke-linecap="butt" stroke-linejoin="round" transform="matrix(0.996264 0 0 0.996264 272.361 0)"></use><use width="100%" height="100%" xlink:href="#CMR17-5b" stroke-linecap="butt" stroke-linejoin="round" transform="matrix(0.996264 0 0 0.996264 319.031 0)"></use><use width="100%" height="100%" xlink:href="#CMMI12-79" stroke-linecap="butt" stroke-linejoin="round" transform="matrix(0.996264 0 0 0.996264 343.902 0)"></use><use width="100%" height="100%" xlink:href="#CMR17-3d" stroke-linecap="butt" stroke-linejoin="round" transform="matrix(0.996264 0 0 0.996264 422.715 0)"></use><use width="100%" height="100%" xlink:href="#CMSY10-68" stroke-linecap="butt" stroke-linejoin="round" transform="matrix(0.996264 0 0 0.996264 522.104 0)"></use><use width="100%" height="100%" xlink:href="#CMMI12-48" stroke-linecap="butt" stroke-linejoin="round" transform="matrix(0.996264 0 0 0.996264 560.848 0)"></use><use width="100%" height="100%" xlink:href="#CMMI12-3b" stroke-linecap="butt" stroke-linejoin="round" transform="matrix(0.996264 0 0 0.996264 643.95 0)"></use><use width="100%" height="100%" xlink:href="#CMMI12-78" stroke-linecap="butt" stroke-linejoin="round" transform="matrix(0.996264 0 0 0.996264 687.652 0)"></use><use width="100%" height="100%" xlink:href="#CMSY10-69" stroke-linecap="butt" stroke-linejoin="round" transform="matrix(0.996264 0 0 0.996264 743.086 0)"></use><use width="100%" height="100%" xlink:href="#CMR17-5d" stroke-linecap="butt" stroke-linejoin="round" transform="matrix(0.996264 0 0 0.996264 781.83 0)"></use><use width="100%" height="100%" xlink:href="#CMR17-3d" stroke-linecap="butt" stroke-linejoin="round" transform="matrix(0.996264 0 0 0.996264 834.375 0)"></use><use width="100%" height="100%" xlink:href="#CMEX10-28" stroke-linecap="butt" stroke-linejoin="round" transform="matrix(0.996264 0 0 0.996264 933.763 170.363)"></use><use width="100%" height="100%" xlink:href="#CMMI12-70" stroke-linecap="butt" stroke-linejoin="round" transform="matrix(0.996264 0 0 0.996264 1014.02 69.7388)"></use><use width="100%" height="100%" xlink:href="#CMR17-3d" stroke-linecap="butt" stroke-linejoin="round" transform="matrix(0.996264 0 0 0.996264 1090.65 69.7388)"></use><use width="100%" height="100%" xlink:href="#CMMI12-65" stroke-linecap="butt" stroke-linejoin="round" transform="matrix(0.697382 0 0 0.697382 1277.19 108.965)"></use><use width="100%" height="100%" xlink:href="#CMMI12-f" stroke-linecap="butt" stroke-linejoin="round" transform="matrix(0.498132 0 0 0.498132 1308.84 134.272)"></use><use width="100%" height="100%" xlink:href="#CMMI12-65" stroke-linecap="butt" stroke-linejoin="round" transform="matrix(0.697382 0 0 0.697382 1191.24 35.3836)"></use><use width="100%" height="100%" xlink:href="#CMMI12-f" stroke-linecap="butt" stroke-linejoin="round" transform="matrix(0.498132 0 0 0.498132 1222.88 55.5301)"></use><use width="100%" height="100%" xlink:href="#CMR17-2b" stroke-linecap="butt" stroke-linejoin="round" transform="matrix(0.697382 0 0 0.697382 1243.08 35.3836)"></use><use width="100%" height="100%" xlink:href="#CMMI12-64" stroke-linecap="butt" stroke-linejoin="round" transform="matrix(0.697382 0 0 0.697382 1293.28 35.3836)"></use><use width="100%" height="100%" xlink:href="#CMSY10-0" stroke-linecap="butt" stroke-linejoin="round" transform="matrix(0.697382 0 0 0.697382 1328.76 35.3836)"></use><use width="100%" height="100%" xlink:href="#CMR17-31" stroke-linecap="butt" stroke-linejoin="round" transform="matrix(0.697382 0 0 0.697382 1383 35.3836)"></use><use width="100%" height="100%" xlink:href="#CMMI12-3b" stroke-linecap="butt" stroke-linejoin="round" transform="matrix(0.996264 0 0 0.996264 1416.18 69.7388)"></use><use width="100%" height="100%" xlink:href="#CMR17-69" stroke-linecap="butt" stroke-linejoin="round" transform="matrix(0.996264 0 0 0.996264 1534.66 69.7388)"></use><use width="100%" height="100%" xlink:href="#CMR17-66" stroke-linecap="butt" stroke-linejoin="round" transform="matrix(0.996264 0 0 0.996264 1559.53 69.7388)"></use><use width="100%" height="100%" xlink:href="#CMMI12-78" stroke-linecap="butt" stroke-linejoin="round" transform="matrix(0.996264 0 0 0.996264 1617.08 69.7388)"></use><use width="100%" height="100%" xlink:href="#CMR17-3d" stroke-linecap="butt" stroke-linejoin="round" transform="matrix(0.996264 0 0 0.996264 1700.19 69.7388)"></use><use width="100%" height="100%" xlink:href="#CMMI12-69" stroke-linecap="butt" stroke-linejoin="round" transform="matrix(0.996264 0 0 0.996264 1799.57 69.7388)"></use><use width="100%" height="100%" xlink:href="#CMMI12-71" stroke-linecap="butt" stroke-linejoin="round" transform="matrix(0.996264 0 0 0.996264 1014.02 -79.7004)"></use><use width="100%" height="100%" xlink:href="#CMR17-3d" stroke-linecap="butt" stroke-linejoin="round" transform="matrix(0.996264 0 0 0.996264 1088.52 -79.7004)"></use><use width="100%" height="100%" xlink:href="#CMR17-31" stroke-linecap="butt" stroke-linejoin="round" transform="matrix(0.697382 0 0 0.697382 1284.99 -40.4743)"></use><use width="100%" height="100%" xlink:href="#CMMI12-65" stroke-linecap="butt" stroke-linejoin="round" transform="matrix(0.697382 0 0 0.697382 1189.1 -114.056)"></use><use width="100%" height="100%" xlink:href="#CMMI12-f" stroke-linecap="butt" stroke-linejoin="round" transform="matrix(0.498132 0 0 0.498132 1220.75 -93.9091)"></use><use width="100%" height="100%" xlink:href="#CMR17-2b" stroke-linecap="butt" stroke-linejoin="round" transform="matrix(0.697382 0 0 0.697382 1240.94 -114.056)"></use><use width="100%" height="100%" xlink:href="#CMMI12-64" stroke-linecap="butt" stroke-linejoin="round" transform="matrix(0.697382 0 0 0.697382 1291.14 -114.056)"></use><use width="100%" height="100%" xlink:href="#CMSY10-0" stroke-linecap="butt" stroke-linejoin="round" transform="matrix(0.697382 0 0 0.697382 1326.63 -114.056)"></use><use width="100%" height="100%" xlink:href="#CMR17-31" stroke-linecap="butt" stroke-linejoin="round" transform="matrix(0.697382 0 0 0.697382 1380.87 -114.056)"></use><use width="100%" height="100%" xlink:href="#CMMI12-3b" stroke-linecap="butt" stroke-linejoin="round" transform="matrix(0.996264 0 0 0.996264 1414.05 -79.7004)"></use><use width="100%" height="100%" xlink:href="#CMR17-6f" stroke-linecap="butt" stroke-linejoin="round" transform="matrix(0.996264 0 0 0.996264 1534.66 -79.7004)"></use><use width="100%" height="100%" xlink:href="#CMR17-74" stroke-linecap="butt" stroke-linejoin="round" transform="matrix(0.996264 0 0 0.996264 1580.35 -79.7004)"></use><use width="100%" height="100%" xlink:href="#CMR17-68" stroke-linecap="butt" stroke-linejoin="round" transform="matrix(0.996264 0 0 0.996264 1615.63 -79.7004)"></use><use width="100%" height="100%" xlink:href="#CMR17-65" stroke-linecap="butt" stroke-linejoin="round" transform="matrix(0.996264 0 0 0.996264 1666.52 -79.7004)"></use><use width="100%" height="100%" xlink:href="#CMR17-72" stroke-linecap="butt" stroke-linejoin="round" transform="matrix(0.996264 0 0 0.996264 1707.01 -79.7004)"></use><use width="100%" height="100%" xlink:href="#CMR17-77" stroke-linecap="butt" stroke-linejoin="round" transform="matrix(0.996264 0 0 0.996264 1742.29 -79.7004)"></use><use width="100%" height="100%" xlink:href="#CMR17-69" stroke-linecap="butt" stroke-linejoin="round" transform="matrix(0.996264 0 0 0.996264 1808.8 -79.7004)"></use><use width="100%" height="100%" xlink:href="#CMR17-73" stroke-linecap="butt" stroke-linejoin="round" transform="matrix(0.996264 0 0 0.996264 1833.67 -79.7004)"></use><use width="100%" height="100%" xlink:href="#CMR17-65" stroke-linecap="butt" stroke-linejoin="round" transform="matrix(0.996264 0 0 0.996264 1869.47 -79.7004)"></use><path d="M1191.24 92.6529 1414.98 92.6529 1414.98 96.6379 1191.24 96.6379 1191.24 92.6529Z" stroke-linecap="butt" stroke-linejoin="round"/><path d="M1189.1-56.7863 1412.85-56.7863 1412.85-52.8013 1189.1-52.8013 1189.1-56.7863Z" stroke-linecap="butt" stroke-linejoin="round"/></g></g></g></g></svg>