<svg width="763.2" height="167.04" viewBox="0 0 572.4 125.28" xmlns="http://www.w3.org/2000/svg" xmlns:xlink="http://www.w3.org/1999/xlink" stroke-linecap="butt" stroke-linejoin="round" overflow="hidden"><defs stroke-linecap="butt" stroke-linejoin="round"></defs><g id="figure_1" stroke-linecap="butt" stroke-linejoin="round"><g id="patch_1" stroke-linecap="butt" stroke-linejoin="round"><path d="M0 125.28 572.4 125.28 572.4 0 0 0 0 125.28Z" stroke-linecap="butt" stroke-linejoin="round" fill="none" opacity="0"/></g><g id="axes_1" stroke-linecap="butt" stroke-linejoin="round"><g id="text_1" stroke-linecap="butt" stroke-linejoin="round"><g stroke-linecap="butt" stroke-linejoin="round" transform="matrix(0.2 0 0 -0.2 199.343 70.4948)"><defs stroke-linecap="butt" stroke-linejoin="round"><path d="M1286 2566 1875 2566C1997 2566 2061 2566 2061 2681 2061 2752 2022 2752 1894 2752L1331 2752 1568 3692C1594 3781 1594 3794 1594 3840 1594 3943 1510 4000 1427 4000 1376 4000 1229 3981 1178 3775L928 2752 326 2752C198 2752 141 2752 141 2630 141 2566 186 2566 307 2566L877 2566 454 881C403 658 384 594 384 511 384 211 595-64 954-64 1600-64 1946 868 1946 912 1946 951 1920 970 1882 970 1869 970 1843 970 1830 944 1824 938 1818 931 1773 829 1638 511 1344 64 973 64 781 64 768 224 768 364 768 370 768 492 787 568L1286 2566Z" id="CMMI12-74" stroke-linecap="butt" stroke-linejoin="round" transform="scale(0.015625 0.015625)"/><path d="M1811 913C1811 945 1786 971 1747 971 1690 971 1683 952 1651 843 1485 262 1222 64 1011 64 934 64 845 83 845 275 845 447 922 639 992 830L1440 2018C1459 2069 1504 2184 1504 2305 1504 2574 1312 2816 998 2816 410 2816 173 1890 173 1839 173 1814 198 1782 243 1782 301 1782 307 1807 333 1896 486 2428 730 2682 979 2682 1037 2682 1146 2682 1146 2478 1146 2312 1062 2101 1011 1961L563 773C525 671 486 568 486 453 486 166 685-64 992-64 1581-64 1811 869 1811 913ZM1760 4013C1760 4109 1683 4224 1542 4224 1395 4224 1229 4083 1229 3917 1229 3758 1363 3707 1440 3707 1613 3707 1760 3873 1760 4013Z" id="CMMI12-69" stroke-linecap="butt" stroke-linejoin="round" transform="scale(0.015625 0.015625)"/><path d="M2240 2028C2266 2131 2266 2219 2266 2245 2266 2613 1990 2816 1702 2816 1056 2816 710 1889 710 1845 710 1813 736 1788 774 1788 826 1788 832 1813 864 1876 1120 2492 1440 2689 1683 2689 1818 2689 1888 2618 1888 2397 1888 2245 1869 2181 1843 2067L1235-327C1114-796 813-1152 461-1152 435-1152 301-1152 179-1088 333-1056 454-936 454-784 454-682 378-580 237-580 70-580-83-720-83-911-83-1171 198-1280 461-1280 902-1280 1485-956 1645-320L2240 2028ZM2502 4013C2502 4173 2368 4224 2291 4224 2118 4224 1971 4058 1971 3917 1971 3822 2048 3707 2189 3707 2336 3707 2502 3847 2502 4013Z" id="CMMI12-6a" stroke-linecap="butt" stroke-linejoin="round" transform="scale(0.015625 0.015625)"/><path d="M4115 2017C4211 2017 4307 2017 4307 2125 4307 2240 4198 2240 4090 2240L512 2240C403 2240 294 2240 294 2125 294 2017 390 2017 486 2017L4115 2017ZM4090 896C4198 896 4307 896 4307 1011 4307 1119 4211 1119 4115 1119L486 1119C390 1119 294 1119 294 1011 294 896 403 896 512 896L4090 896Z" id="CMR17-3d" stroke-linecap="butt" stroke-linejoin="round" transform="scale(0.015625 0.015625)"/><path d="M2502 2431C2381 2431 2323 2431 2234 2355 2195 2323 2125 2227 2125 2125 2125 1997 2221 1920 2342 1920 2496 1920 2669 2044 2669 2292 2669 2588 2374 2816 1933 2816 1094 2816 256 1903 256 996 256 441 602-64 1254-64 2125-64 2675 622 2675 706 2675 744 2637 776 2611 776 2592 776 2586 770 2528 713 2118 162 1510 64 1267 64 826 64 685 446 685 764 685 988 794 1605 1024 2039 1190 2338 1536 2682 1939 2682 2022 2682 2374 2682 2502 2431Z" id="CMMI12-63" stroke-linecap="butt" stroke-linejoin="round" transform="scale(0.015625 0.015625)"/><path d="M4218 1472C4326 1472 4442 1472 4442 1600 4442 1728 4326 1728 4218 1728L755 1728C646 1728 531 1728 531 1600 531 1472 646 1472 755 1472L4218 1472Z" id="CMSY10-0" stroke-linecap="butt" stroke-linejoin="round" transform="scale(0.015625 0.015625)"/><path d="M1958-1561C1958-1555 1958-1542 1939-1523 1645-1224 858-407 858 1581 858 3569 1632 4379 1946 4697 1946 4704 1958 4717 1958 4736 1958 4755 1939 4768 1914 4768 1843 4768 1299 4296 986 3594 666 2887 576 2199 576 1588 576 1128 621 351 1005-471 1312-1135 1837-1600 1914-1600 1946-1600 1958-1587 1958-1561Z" id="CMR17-28" stroke-linecap="butt" stroke-linejoin="round" transform="scale(0.015625 0.015625)"/><path d="M275-789C230-980 205-1031-58-1031-134-1031-198-1031-198-1152-198-1165-192-1216-122-1216-38-1216 51-1216 134-1216L410-1216C544-1216 870-1216 1005-1216 1043-1216 1120-1216 1120-1101 1120-1031 1075-1031 966-1031 672-1031 653-987 653-937 653-861 941 219 979 364 1050 185 1222-64 1555-64 2278-64 3059 875 3059 1814 3059 2401 2726 2816 2246 2816 1837 2816 1491 2420 1421 2331 1370 2650 1120 2816 864 2816 678 2816 531 2727 410 2484 294 2254 205 1865 205 1839 205 1814 230 1782 275 1782 326 1782 333 1788 371 1935 467 2312 589 2689 845 2689 992 2689 1043 2587 1043 2397 1043 2245 1024 2181 998 2067L275-789ZM1382 1993C1427 2171 1606 2357 1709 2446 1779 2510 1990 2689 2234 2689 2515 2689 2643 2408 2643 2076 2643 1769 2464 1047 2304 715 2144 370 1850 64 1555 64 1120 64 1050 613 1050 639 1050 658 1062 709 1069 741L1382 1993Z" id="CMMI12-70" stroke-linecap="butt" stroke-linejoin="round" transform="scale(0.015625 0.015625)"/><path d="M2413 1472 4109 1472C4198 1472 4307 1472 4307 1580 4307 1695 4205 1695 4109 1695L2413 1695 2413 3386C2413 3475 2413 3584 2304 3584 2189 3584 2189 3482 2189 3386L2189 1695 493 1695C403 1695 294 1695 294 1587 294 1472 397 1472 493 1472L2189 1472 2189-218C2189-307 2189-416 2298-416 2413-416 2413-314 2413-218L2413 1472Z" id="CMR17-2b" stroke-linecap="butt" stroke-linejoin="round" transform="scale(0.015625 0.015625)"/><path d="M1702 4058C1702 4192 1696 4192 1606 4192 1357 3916 979 3827 621 3827 602 3827 570 3827 563 3808 557 3795 557 3782 557 3648 755 3648 1088 3686 1344 3839L1344 461C1344 236 1331 160 781 160L589 160 589 0C896 0 1216 0 1523 0 1830 0 2150 0 2458 0L2458 160 2266 160C1715 160 1702 230 1702 458L1702 4058Z" id="CMR17-31" stroke-linecap="butt" stroke-linejoin="round" transform="scale(0.015625 0.015625)"/><path d="M2669 989 2554 989C2490 536 2438 459 2413 420 2381 369 1920 369 1830 369L602 369C832 619 1280 1072 1824 1597 2214 1967 2669 2402 2669 3035 2669 3790 2067 4224 1395 4224 691 4224 262 3604 262 3030 262 2780 448 2748 525 2748 589 2748 781 2787 781 3010 781 3207 614 3264 525 3264 486 3264 448 3258 422 3245 544 3790 915 4058 1306 4058 1862 4058 2227 3617 2227 3035 2227 2479 1901 2000 1536 1584L262 146 262 0 2515 0 2669 989Z" id="CMR17-32" stroke-linecap="butt" stroke-linejoin="round" transform="scale(0.015625 0.015625)"/><path d="M2854 2566C2982 2566 3034 2566 3034 2688 3034 2752 2982 2752 2867 2752L2349 2752C2470 3429 2560 3897 2611 4107 2650 4265 2784 4416 2950 4416 3085 4416 3219 4358 3283 4298 3034 4272 2957 4082 2957 3969 2957 3837 3053 3759 3174 3759 3302 3759 3494 3870 3494 4119 3494 4393 3226 4544 2944 4544 2669 4544 2400 4334 2272 4078 2157 3848 2093 3611 1946 2752L1517 2752C1395 2752 1331 2752 1331 2637 1331 2566 1370 2566 1498 2566L1907 2566C1792 1976 1530 542 1382-137 1274-689 1178-1152 858-1152 838-1152 653-1152 538-1031 864-1005 864-726 864-720 864-593 768-517 646-517 518-517 326-625 326-867 326-1140 608-1280 858-1280 1510-1280 1779-118 1850 199 1965 688 2278 2376 2310 2566L2854 2566Z" id="CMMI12-66" stroke-linecap="butt" stroke-linejoin="round" transform="scale(0.015625 0.015625)"/><path d="M2822 2759C2822 2790 2797 2816 2765 2816 2714 2816 2464 2585 2342 2362 2227 2646 2029 2816 1754 2816 1030 2816 250 1884 250 939 250 307 621-64 1056-64 1395-64 1677 193 1811 339L1818 333 1574-615 1517-842C1459-1031 1363-1031 1062-1031 992-1031 928-1031 928-1152 928-1197 966-1216 1011-1216 1101-1216 1216-1216 1306-1216L1958-1216C2054-1216 2163-1216 2259-1216 2298-1216 2374-1216 2374-1095 2374-1031 2323-1031 2227-1031 1926-1031 1907-986 1907-935 1907-904 1914-898 1933-815L2822 2759ZM1920 762C1888 652 1888 640 1798 518 1658 339 1376 64 1075 64 813 64 666 301 666 678 666 1030 864 1747 986 2016 1203 2464 1504 2695 1754 2695 2176 2695 2259 2170 2259 2119 2259 2113 2240 2028 2234 2016L1920 762Z" id="CMMI12-71" stroke-linecap="butt" stroke-linejoin="round" transform="scale(0.015625 0.015625)"/><path d="M1683 1581C1683 2040 1638 2817 1254 3639 947 4303 422 4768 346 4768 326 4768 301 4761 301 4729 301 4717 307 4710 314 4697 621 4378 1402 3568 1402 1584 1402-407 627-1217 314-1537 307-1549 301-1556 301-1568 301-1600 326-1600 346-1600 416-1600 960-1128 1274-426 1594 281 1683 969 1683 1581Z" id="CMR17-29" stroke-linecap="butt" stroke-linejoin="round" transform="scale(0.015625 0.015625)"/><path d="M4736 3698C4806 3974 4909 4166 5395 4166 5414 4166 5491 4166 5491 4279 5491 4352 5434 4352 5408 4352 5280 4352 4954 4352 4826 4352L4518 4352C4429 4352 4314 4352 4224 4352 4186 4352 4109 4352 4109 4230 4109 4166 4160 4166 4205 4166 4589 4166 4614 4019 4614 3903 4614 3846 4608 3826 4589 3737L3866 850 2496 4249C2451 4352 2445 4352 2304 4352L1523 4352C1395 4352 1338 4352 1338 4230 1338 4166 1382 4166 1504 4166 1536 4166 1914 4166 1914 4115 1914 4102 1901 4051 1894 4032L1043 635C966 320 813 186 390 186 358 186 294 186 294 67 294 0 358 0 378 0 506 0 832 0 960 0L1267 0C1357 0 1466 0 1555 0 1600 0 1670 0 1670 122 1670 180 1606 186 1581 186 1370 186 1165 224 1165 454 1165 505 1178 562 1190 613L2054 4032C2093 3968 2093 3956 2118 3898L3642 115C3674 38 3686 0 3744 0 3808 0 3814 19 3840 128L4736 3698Z" id="CMMI12-4e" stroke-linecap="butt" stroke-linejoin="round" transform="scale(0.015625 0.015625)"/></defs><use width="100%" height="100%" xlink:href="#CMMI12-74" stroke-linecap="butt" stroke-linejoin="round" transform="scale(0.996264 0.996264)"></use><use width="100%" height="100%" xlink:href="#CMMI12-69" stroke-linecap="butt" stroke-linejoin="round" transform="matrix(0.697382 0 0 0.697382 35.2263 -14.9439)"></use><use width="100%" height="100%" xlink:href="#CMMI12-6a" stroke-linecap="butt" stroke-linejoin="round" transform="matrix(0.697382 0 0 0.697382 58.5212 -14.9439)"></use><use width="100%" height="100%" xlink:href="#CMR17-3d" stroke-linecap="butt" stroke-linejoin="round" transform="matrix(0.996264 0 0 0.996264 118.867 0)"></use><use width="100%" height="100%" xlink:href="#CMMI12-63" stroke-linecap="butt" stroke-linejoin="round" transform="matrix(0.697382 0 0 0.697382 219.451 63.1762)"></use><use width="100%" height="100%" xlink:href="#CMMI12-69" stroke-linecap="butt" stroke-linejoin="round" transform="matrix(0.498132 0 0 0.498132 248.839 52.7155)"></use><use width="100%" height="100%" xlink:href="#CMMI12-6a" stroke-linecap="butt" stroke-linejoin="round" transform="matrix(0.498132 0 0 0.498132 265.479 52.7155)"></use><use width="100%" height="100%" xlink:href="#CMSY10-0" stroke-linecap="butt" stroke-linejoin="round" transform="matrix(0.697382 0 0 0.697382 288.958 63.1762)"></use><use width="100%" height="100%" xlink:href="#CMR17-28" stroke-linecap="butt" stroke-linejoin="round" transform="matrix(0.996264 0 0 0.996264 343.199 55.7073)"></use><use width="100%" height="100%" xlink:href="#CMMI12-70" stroke-linecap="butt" stroke-linejoin="round" transform="matrix(0.697382 0 0 0.697382 378.48 63.1762)"></use><use width="100%" height="100%" xlink:href="#CMR17-2b" stroke-linecap="butt" stroke-linejoin="round" transform="matrix(0.697382 0 0 0.697382 412.751 63.1762)"></use><use width="100%" height="100%" xlink:href="#CMR17-31" stroke-linecap="butt" stroke-linejoin="round" transform="matrix(0.498132 0 0 0.498132 464.147 90.6343)"></use><use width="100%" height="100%" xlink:href="#CMR17-32" stroke-linecap="butt" stroke-linejoin="round" transform="matrix(0.498132 0 0 0.498132 464.147 39.1276)"></use><use width="100%" height="100%" xlink:href="#CMMI12-66" stroke-linecap="butt" stroke-linejoin="round" transform="matrix(0.697382 0 0 0.697382 488.188 63.1762)"></use><use width="100%" height="100%" xlink:href="#CMMI12-71" stroke-linecap="butt" stroke-linejoin="round" transform="matrix(0.697382 0 0 0.697382 529.292 63.1762)"></use><use width="100%" height="100%" xlink:href="#CMSY10-0" stroke-linecap="butt" stroke-linejoin="round" transform="matrix(0.697382 0 0 0.697382 562.07 63.1762)"></use><use width="100%" height="100%" xlink:href="#CMR17-31" stroke-linecap="butt" stroke-linejoin="round" transform="matrix(0.498132 0 0 0.498132 617.507 90.6343)"></use><use width="100%" height="100%" xlink:href="#CMR17-32" stroke-linecap="butt" stroke-linejoin="round" transform="matrix(0.498132 0 0 0.498132 617.507 39.1276)"></use><use width="100%" height="100%" xlink:href="#CMMI12-66" stroke-linecap="butt" stroke-linejoin="round" transform="matrix(0.697382 0 0 0.697382 641.547 63.1762)"></use><use width="100%" height="100%" xlink:href="#CMMI12-70" stroke-linecap="butt" stroke-linejoin="round" transform="matrix(0.697382 0 0 0.697382 682.651 63.1762)"></use><use width="100%" height="100%" xlink:href="#CMR17-29" stroke-linecap="butt" stroke-linejoin="round" transform="matrix(0.996264 0 0 0.996264 716.923 55.7073)"></use><use width="100%" height="100%" xlink:href="#CMMI12-4e" stroke-linecap="butt" stroke-linejoin="round" transform="matrix(0.697382 0 0 0.697382 752.204 63.1762)"></use><use width="100%" height="100%" xlink:href="#CMMI12-6a" stroke-linecap="butt" stroke-linejoin="round" transform="matrix(0.498132 0 0 0.498132 806.884 52.7155)"></use><use width="100%" height="100%" xlink:href="#CMR17-28" stroke-linecap="butt" stroke-linejoin="round" transform="matrix(0.697382 0 0 0.697382 351.205 -34.3553)"></use><use width="100%" height="100%" xlink:href="#CMR17-31" stroke-linecap="butt" stroke-linejoin="round" transform="matrix(0.697382 0 0 0.697382 375.901 -34.3553)"></use><use width="100%" height="100%" xlink:href="#CMSY10-0" stroke-linecap="butt" stroke-linejoin="round" transform="matrix(0.697382 0 0 0.697382 407.885 -34.3553)"></use><use width="100%" height="100%" xlink:href="#CMMI12-66" stroke-linecap="butt" stroke-linejoin="round" transform="matrix(0.697382 0 0 0.697382 462.126 -34.3553)"></use><use width="100%" height="100%" xlink:href="#CMR17-29" stroke-linecap="butt" stroke-linejoin="round" transform="matrix(0.697382 0 0 0.697382 503.23 -34.3553)"></use><use width="100%" height="100%" xlink:href="#CMR17-28" stroke-linecap="butt" stroke-linejoin="round" transform="matrix(0.697382 0 0 0.697382 527.926 -34.3553)"></use><use width="100%" height="100%" xlink:href="#CMMI12-71" stroke-linecap="butt" stroke-linejoin="round" transform="matrix(0.697382 0 0 0.697382 552.622 -34.3553)"></use><use width="100%" height="100%" xlink:href="#CMSY10-0" stroke-linecap="butt" stroke-linejoin="round" transform="matrix(0.697382 0 0 0.697382 585.401 -34.3553)"></use><use width="100%" height="100%" xlink:href="#CMMI12-70" stroke-linecap="butt" stroke-linejoin="round" transform="matrix(0.697382 0 0 0.697382 639.642 -34.3553)"></use><use width="100%" height="100%" xlink:href="#CMR17-29" stroke-linecap="butt" stroke-linejoin="round" transform="matrix(0.697382 0 0 0.697382 673.913 -34.3553)"></use><path d="M464.147 79.216 486.992 79.216 486.992 82.0055 464.147 82.0055 464.147 79.216Z" stroke-linecap="butt" stroke-linejoin="round"/><path d="M617.507 79.216 640.352 79.216 640.352 82.0055 617.507 82.0055 617.507 79.216Z" stroke-linecap="butt" stroke-linejoin="round"/><path d="M219.451 22.9141 830.363 22.9141 830.363 26.8991 219.451 26.8991 219.451 22.9141Z" stroke-linecap="butt" stroke-linejoin="round"/></g></g></g></g></svg>